<?xml version="1.0" standalone="no"?>
<!DOCTYPE svg PUBLIC "-//W3C//DTD SVG 1.1//EN" "http://www.w3.org/Graphics/SVG/1.1/DTD/svg11.dtd" >
<svg xmlns="http://www.w3.org/2000/svg" xmlns:xlink="http://www.w3.org/1999/xlink" version="1.1">
<metadata>
Created by FontForge 20170924 at Tue Mar 12 22:53:59 2013
 By www-data
</metadata>
<defs>
<font id="SFRB0800" horiz-adv-x="531" >
  <font-face 
    font-family="Computer Modern"
    font-weight="700"
    font-stretch="normal"
    units-per-em="1000"
    panose-1="2 0 8 3 0 0 0 0 0 0"
    ascent="800"
    descent="-200"
    x-height="445"
    cap-height="687"
    bbox="-218 -350 1639 949"
    underline-thickness="0"
    underline-position="0"
    unicode-range="U+0020-FFFD"
  />
<missing-glyph horiz-adv-x="354" 
 />
    <glyph glyph-name=".notdef" unicode="&#xfffd;" horiz-adv-x="354" 
 />
    <glyph glyph-name=".null" horiz-adv-x="0" 
 />
    <glyph glyph-name="nonmarkingreturn" horiz-adv-x="333" 
 />
    <glyph glyph-name="space" unicode=" " horiz-adv-x="354" 
 />
    <glyph glyph-name="exclam" unicode="!" horiz-adv-x="324" 
d="M152 709h8q29 0 53.5 -17.5t28.5 -45.5v-7q0 -15 -3 -32q-10 -67 -26 -188.5t-21 -158.5q-4 -23 -13 -28q-6 -3 -17 -3q-9 0 -14.5 2t-8.5 6.5t-4 7.5t-2 10t-2 10l-9 72q-4 35 -14 103t-14 103l-9 63q-3 16 -3 32v7q3 25 23.5 42.5t46.5 21.5zM153 161h7q33 0 57.5 -23
t24.5 -56q0 -30 -19.5 -53t-51.5 -28h-7q-36 0 -58.5 23.5t-22.5 55.5q0 30 19 53t51 28z" />
    <glyph glyph-name="quotedbl" unicode="&#x22;" 
d="M333 360q-1 14 -11 68q-4 24 -12.5 71.5t-12.5 71.5q-1 9 -4.5 25.5t-5.5 30t-2 25.5q0 29 21.5 45.5t49.5 16.5q27 0 47.5 -17t20.5 -46q0 -10 -4 -30q-5 -35 -16.5 -99.5t-15.5 -87.5q-12 -70 -12 -74h-43zM154 360q0 4 -12 74q-16 96 -25 144q-11 51 -11 73
q0 29 20.5 46t47.5 17q28 0 49.5 -16.5t21.5 -45.5q0 -11 -4 -35l-33 -189q-10 -54 -11 -68h-43z" />
    <glyph glyph-name="numbersign" unicode="#" horiz-adv-x="885" 
d="M326 350h-163q-9 0 -27 -0.5t-28 -0.5h-8q-41 0 -41 21q0 9 6.5 15.5t17.5 6.5h237q1 0 4 -0.5t5 -0.5q6 0 9 3t5 11l2 8l13 46q8 27 24 83t24 83q1 5 3.5 16t5 19t6 17t9 13.5t12.5 4.5q21 0 21 -22q0 -1 -3 -13q-13 -52 -42 -148.5t-35 -119.5h191q5 0 8 2.5t4 5t2 8
t2 7.5l73 257q8 23 23 23q19 0 21 -19q0 -7 -4 -19l-8 -30q-40 -134 -68 -235h178q19 -2 19 -21q0 -21 -29 -21h-172q-10 0 -13 -15q-1 -2 -1 -3q-8 -34 -26 -94.5t-25 -85.5h163q9 0 27 0.5t28 0.5h8q41 0 41 -21q0 -9 -6.5 -15.5t-17.5 -6.5h-246q-7 0 -10 -3t-4.5 -10
t-1.5 -8l-13 -46q-8 -27 -24 -83t-24 -83q-1 -5 -3.5 -16t-5 -19t-6 -17t-9 -13.5t-12.5 -4.5q-21 0 -21 22q0 1 3 13q13 52 41.5 148t35.5 120h-191q-5 0 -8 -2.5t-4 -5t-2 -8t-2 -7.5l-73 -257q-8 -23 -23 -23q-19 0 -21 19q0 7 4 19l8 30q40 134 68 235h-178
q-19 2 -19 21q0 21 29 21h172q10 0 13 15q1 2 1 3q8 34 26 94.5t25 85.5zM314 152h182l16 2l7 14l51 182h-183l-15 -2l-7 -14z" />
    <glyph glyph-name="dollar" unicode="$" 
d="M239 751h52v-50q75 -6 127.5 -53t52.5 -124q0 -30 -17.5 -51.5t-50.5 -21.5q-29 0 -48.5 19.5t-19.5 47.5q0 27 16.5 46.5t46.5 22.5q-11 20 -30.5 32.5t-30.5 16t-46 13.5v-204q0 -5 1.5 -8t4.5 -5t5.5 -2.5t8 -1.5t8.5 -2q66 -17 108.5 -76t43.5 -128v-5
q0 -74 -33 -131.5t-105 -81.5q-4 -1 -16.5 -3.5t-19 -5.5t-6.5 -10v-40h-52v50q-78 8 -129.5 59t-51.5 129q0 31 17.5 53.5t49.5 22.5q31 0 50.5 -20t19.5 -49q0 -28 -19 -46.5t-47 -20.5q10 -30 42.5 -51.5t67.5 -23.5v232q0 13 -10 13q-71 15 -120 70t-50 126v4
q0 71 36 127.5t104 72.5q4 1 16 3t18 5t6 10v40zM291 48q94 25 94 112q0 45 -26 75t-68 44v-231zM239 648q-40 -5 -67 -32.5t-27 -67.5q0 -76 94 -103v203z" />
    <glyph glyph-name="percent" unicode="%" horiz-adv-x="886" 
d="M344 641q11 -50 11 -98q0 -46 -12.5 -88t-45 -75t-80.5 -33q-74 0 -116 60t-42 140t40.5 142.5t118.5 62.5q23 0 41.5 -8t43 -27t32.5 -24q77 -47 165 -47q46 0 91.5 20.5t74.5 56.5q1 2 5 6.5t6 6.5l5.5 5.5t6.5 5t7 3t9 1.5q14 0 24 -10t10 -23q0 -6 -3 -13t-5.5 -11.5
t-8.5 -12.5t-8 -11q-291 -405 -484 -681q-2 -2 -5.5 -8t-5.5 -9t-5.5 -8t-7 -7.5t-7.5 -5.5t-8.5 -4.5t-9.5 -1.5q-14 0 -24 10.5t-10 24.5q0 9 9 24t26 37.5t21 27.5l87 123q40 56 119 168t119 167l45 63q3 6 11 16t11 16q-64 -17 -98 -17q-91 0 -153 36zM680 348
q2 0 5.5 0.5t5.5 0.5q66 0 101 -59.5t35 -134.5q0 -136 -65 -186q-33 -25 -71 -25q-78 0 -119 62t-41 142q0 48 13 88.5t48 72.5t88 39zM770 124q1 7 1 20q0 20 -3 43t-10 52t-24 48t-40 19q-52 0 -52 -127v-15q0 -3 -0.5 -19.5t-0.5 -27.5q0 -130 53 -130q65 0 76 137z
M298 527q1 7 1 20q0 20 -3 43t-10 52t-24 48t-40 19q-52 0 -52 -127v-15q0 -3 -0.5 -19.5t-0.5 -27.5q0 -130 53 -130q65 0 76 137z" />
    <glyph glyph-name="ampersand" unicode="&#x26;" horiz-adv-x="826" 
d="M766 117q0 -34 -15 -60t-39 -40.5t-49.5 -22t-51.5 -7.5q-84 0 -163 46q-3 1 -8.5 5t-10 6.5t-8.5 2.5q-3 0 -10 -5q-83 -55 -172 -55q-75 0 -135 41.5t-60 110.5q0 40 21 69.5t62 64.5q7 7 24 21t28 24t12 15v2q0 1 -3 10l-9 24q-29 79 -29 155q0 74 52 129.5t125 55.5
q53 0 82.5 -41.5t29.5 -93.5q0 -54 -65 -127q-8 -9 -25.5 -26t-29 -29t-11.5 -16q0 -6 8 -19q30 -60 104 -153q38 -47 40 -50q6 5 41 48q38 49 84 125l27 42q6 9 6 13v2q-3 9 -67 9v52l69 -3h101l51 3v-52q-37 0 -56 -2t-27.5 -8t-18.5 -23l-35 -56q-56 -88 -88 -129
q-30 -41 -51 -59v-1q4 -3 20 -18t24.5 -21.5t23 -16.5t28.5 -14.5t29 -4.5q34 0 61 22t28 55h56zM212 292q-32 -41 -32 -111q0 -20 1 -29q6 -113 66 -113q46 0 93 21q5 3 18 10t20 10q-8 8 -22 20q-100 92 -144 192zM288 421q18 15 41 43q54 64 54 111q0 14 -3 32.5t-16 39
t-34 20.5q-34 0 -51 -33t-17 -71q0 -22 4 -44.5t12 -54.5t10 -43z" />
    <glyph glyph-name="quotesingle" unicode="'" horiz-adv-x="295" 
d="M126 360q-21 109 -43 251q-6 39 -6 40q0 29 21 46.5t50 17.5t48.5 -18.5t19.5 -47.5q0 -7 -8 -55q-26 -156 -40 -234h-42z" />
    <glyph glyph-name="parenleft" unicode="(" horiz-adv-x="413" 
d="M324 750q3 1 9 1q19 0 19 -17q0 -7 -5.5 -15t-15.5 -19t-14 -16q-114 -151 -114 -434q0 -291 126 -447l9 -9t11 -13t4 -11q0 -19 -20 -19q-10 0 -25 11q-105 79 -158 210.5t-53 276.5q0 135 45 258t137 208q33 33 45 35z" />
    <glyph glyph-name="parenright" unicode=")" horiz-adv-x="413" 
d="M73 750q3 1 7 1q10 0 26 -12l30 -27q90 -81 134.5 -204t44.5 -255q0 -294 -184 -468q-1 -1 -12.5 -12t-19.5 -16t-15 -6h-2q-23 0 -23 17q0 6 16 25q134 153 134 459q0 266 -99 410q-5 8 -17.5 23t-22 27t-10.5 18v4q0 13 13 16z" />
    <glyph glyph-name="asterisk" unicode="*" 
d="M240 573q-4 19 -10 55t-9 49q0 3 -2 14t-2 17q0 20 14.5 31.5t33.5 11.5t33.5 -11t14.5 -31q0 -5 -6 -38q-12 -76 -17 -98q15 13 44 37.5t33 27.5q3 2 11 9t12 10t11.5 6t14.5 3q20 0 34 -17t14 -37q0 -7 -1.5 -13t-5.5 -10.5t-6.5 -7.5t-9.5 -6t-10 -4t-11.5 -4
t-10.5 -4q-80 -28 -93 -34q13 -6 93 -34q2 -1 10.5 -4t11.5 -4t10 -4t9.5 -6t6.5 -7.5t5.5 -10.5t1.5 -13q0 -20 -14 -37t-34 -17q-7 0 -14.5 3t-11.5 6t-12 10t-11 9q-4 3 -33 27.5t-44 37.5q4 -19 10 -55t9 -49q0 -3 2 -14t2 -17q0 -20 -14.5 -31.5t-33.5 -11.5t-33.5 11
t-14.5 31q0 5 6 38q12 76 17 98q-15 -13 -44 -37.5t-33 -27.5q-3 -2 -11 -9t-12 -10t-11.5 -6t-14.5 -3q-20 0 -34 17t-14 37q0 7 1.5 13t5.5 10.5t6.5 7.5t9.5 6t10 4t11.5 4t10.5 4q80 28 93 34q-13 6 -93 34q-2 1 -10.5 4t-11.5 4t-10 4t-9.5 6t-6.5 7.5t-5.5 10.5
t-1.5 13q0 20 14 37t34 17q7 0 14.5 -3t11.5 -6t12 -10t11 -9q4 -3 33 -27.5t44 -37.5z" />
    <glyph glyph-name="plus" unicode="+" horiz-adv-x="826" 
d="M392 272v306q0 27 21 27t21 -27v-306h305q27 0 27 -21t-27 -21h-305v-306q0 -27 -21 -27t-21 27v306h-306q-27 0 -27 21t27 21h306z" />
    <glyph glyph-name="comma" unicode="," horiz-adv-x="295" 
d="M196 16q-22 -15 -50 -15q-33 0 -56 22.5t-23 56.5q0 33 21.5 57t56.5 24q46 0 70 -38.5t24 -87.5q0 -92 -52 -165q-45 -62 -67 -62q-8 0 -15 6.5t-7 15.5v1q1 8 17 22q34 28 56.5 73t24.5 90z" />
    <glyph glyph-name="hyphen" unicode="-" horiz-adv-x="354" 
d="M12 276h282v-105h-282v105z" />
    <glyph glyph-name="period" unicode="." horiz-adv-x="295" 
d="M138 161h7q34 0 58 -23.5t24 -55.5q0 -31 -19.5 -53.5t-51.5 -27.5h-7q-34 0 -58 23.5t-24 55.5q0 31 19.5 53.5t51.5 27.5z" />
    <glyph glyph-name="slash" unicode="/" 
d="M445 750q1 0 2.5 0.5t2.5 0.5q8 0 14 -6t7 -13q0 -6 -4 -18q-20 -50 -58 -150t-115.5 -298t-115.5 -298l-63 -165q-1 -3 -5 -14.5t-7 -18t-8.5 -13t-12.5 -6.5q-22 0 -22 21q0 5 8 29q230 602 349 902q15 45 28 47z" />
    <glyph glyph-name="zero" unicode="0" 
d="M249 659q3 0 8 0.5t7 0.5q18 0 52 -6q37 -9 65.5 -26t46.5 -42.5t29.5 -49t18 -59t9 -59t4.5 -61.5v-48q0 -61 -6 -102q-12 -108 -71 -164t-146 -56q-44 0 -79.5 12t-58.5 30.5t-40 48t-26 56.5t-14 64.5t-6 64.5t-1 63q0 139 35 216q49 104 173 117zM177 230q1 -7 1 -21
v-20q0 -160 87 -160t87 160v35q1 18 1 53v159q0 63 -6 103q-5 31 -28 54.5t-54 23.5h-7q-73 -9 -78 -111q-3 -81 -3 -82v-125q0 -7 -0.5 -23t-0.5 -23q0 -15 1 -23z" />
    <glyph glyph-name="one" unicode="1" 
d="M74 595q123 0 192 46q25 18 34 18h9q26 0 26 -29v-577h121v-52h-368v52h120v508q-52 -18 -134 -18v52z" />
    <glyph glyph-name="two" unicode="2" 
d="M156 582q52 -25 52 -74q0 -34 -23 -56t-59 -22q-38 4 -55.5 27t-17.5 54q0 50 33.5 85t77 49t88.5 14q88 0 156.5 -52t68.5 -143q0 -15 -3 -29.5t-6 -25.5t-11.5 -25t-12.5 -22t-17.5 -22t-17.5 -19.5t-20.5 -19.5t-20 -17t-22.5 -18t-20 -16q-27 -22 -75 -65t-58 -51
h119q46 0 68 3q10 0 17 5t11 16.5t5.5 20.5t4 26t3.5 24h56l-33 -228h-391v25q0 8 2.5 15t4.5 10t8.5 10t8.5 9q47 53 132 153q38 44 60 73t42 76t20 93q0 34 -7.5 63.5t-31.5 53.5t-62 24q-30 0 -74 -24z" />
    <glyph glyph-name="three" unicode="3" 
d="M161 580q63 -16 63 -73q0 -31 -21 -54t-53 -23t-54 22t-22 55v6q3 66 56.5 106t121.5 40q79 0 141.5 -36t62.5 -104q0 -108 -123 -166q22 -2 53 -18q47 -24 73.5 -65t26.5 -92q0 -49 -22 -87t-57.5 -60t-76 -33t-82.5 -11q-47 0 -92.5 17t-78.5 54.5t-33 86.5
q0 38 23.5 61t59.5 23q34 0 57.5 -24t23.5 -57q0 -27 -16.5 -51t-42.5 -28q32 -35 92 -35q24 0 41 10.5t25.5 24t13 36.5t5 37.5t0.5 37.5v4q0 68 -18.5 106t-71.5 38h-35q-24 0 -24 19q0 14 11 20t25 6t31 3t26 10q42 33 42 143q0 87 -67 87q-48 0 -84 -36z" />
    <glyph glyph-name="four" unicode="4" 
d="M29 155v43q0 9 12 28t37.5 51.5t28.5 36.5l183 249q24 35 44 61q3 4 9 12.5t9.5 12.5t11 7.5t16.5 3.5h13q27 0 27 -26v-427h81v-52h-81v-102h81v-52h-317v52h103v102h-258zM88 207h210v287z" />
    <glyph glyph-name="five" unicode="5" 
d="M131 88q44 -54 99 -54q60 0 82 48q15 29 15 88v37q0 3 0.5 16t0.5 23q0 125 -68 125q-61 0 -98 -37q-4 -4 -13 -15t-15.5 -15.5t-16.5 -4.5q-26 0 -26 31v304q0 25 17 25q4 0 12.5 -3.5t9.5 -3.5q58 -25 133 -25q73 0 135 25q12 6 18 7h2q8 0 13 -6t5 -14q0 -11 -7 -21
q-37 -57 -95.5 -89t-125.5 -32q-34 0 -51 4v-117q43 29 106 29q90 0 152 -57.5t62 -151.5q0 -91 -57 -149q-68 -68 -183 -68q-73 0 -128.5 48t-55.5 121q0 32 18 53t51 25h5q30 0 51 -21.5t21 -52.5t-19 -49.5t-49 -22.5z" />
    <glyph glyph-name="six" unicode="6" 
d="M189 373q9 19 29 32t42 16h26q55 0 96 -20.5t62.5 -54.5t31.5 -69t10 -72q0 -99 -60.5 -158.5t-153.5 -59.5q-104 0 -162 72q-66 81 -66 262q0 119 47 204q35 62 97 98t134 36q62 0 99.5 -36t37.5 -92v-10q-3 -28 -22.5 -45t-45.5 -17q-30 0 -49 20t-19 48q0 26 16 44.5
t41 22.5q-22 22 -56 22q-58 0 -97 -52t-39 -191h1zM189 175q1 -7 2 -33t5 -42.5t13 -30.5q25 -35 59 -35q25 0 40.5 10.5t22.5 30t9 37t2 42.5v106q0 35 -3.5 57.5t-20 42t-46.5 19.5q-83 0 -83 -163v-41z" />
    <glyph glyph-name="seven" unicode="7" 
d="M59 417l28 192l11 66l55 2q0 -11 11 -18t34.5 -10t40 -3.5t46.5 -0.5h230v-23q0 -17 -17 -37l-101 -130q-32 -39 -40 -52q-23 -36 -35.5 -90t-15 -95.5t-2.5 -102.5v-42q0 -86 -67 -86q-38 0 -53.5 23t-15.5 53q0 156 94 312q23 36 101 137h-132q-49 0 -73 -3
q-11 0 -18 -5t-11 -16t-6 -20.5t-4 -26t-4 -24.5h-56z" />
    <glyph glyph-name="eight" unicode="8" 
d="M155 327q-81 68 -81 150q0 49 17.5 85.5t46.5 57t61.5 30t68.5 9.5q83 0 135.5 -41t52.5 -110q0 -33 -14.5 -60.5t-27.5 -39t-44 -36.5q50 -20 83 -72.5t33 -110.5q0 -95 -65.5 -149t-158.5 -54q-87 0 -152.5 45t-65.5 131q0 53 31 99.5t80 65.5zM139 151q7 -57 41.5 -87
t87.5 -30q49 0 86 25t37 74v7q-2 15 -9 29t-15.5 23.5t-24.5 21.5t-25.5 17.5t-30 17t-27.5 15.5q-4 3 -13 9t-15.5 10t-13.5 7.5t-10 3.5h-2q-5 -1 -11 -7q-56 -48 -56 -122q0 -3 0.5 -7t0.5 -7zM158 532q3 -23 19.5 -39.5t55.5 -38t43 -24.5q41 -25 44 -25h1l9 6
q43 37 43 97q0 54 -32 81t-77 27q-40 0 -73.5 -17.5t-33.5 -56.5q0 -7 1 -10z" />
    <glyph glyph-name="nine" unicode="9" 
d="M341 274q-9 -22 -33.5 -35t-50.5 -13h-13q-52 0 -92.5 20t-63 52t-33.5 67t-11 71q0 27 2 40q6 87 72.5 135t151.5 48q66 0 111.5 -31.5t66.5 -84t29.5 -102t8.5 -104.5q0 -199 -97 -285q-73 -65 -169 -65q-61 0 -105 33.5t-44 96.5q0 31 19.5 50.5t48.5 19.5
q30 0 49 -20.5t19 -48.5q0 -23 -14 -40.5t-36 -24.5q25 -19 60 -19q30 0 52 13q26 16 41.5 40.5t22 59.5t8 59.5t1.5 67.5h-1zM340 404q1 11 1 32v41q0 139 -75 139q-26 0 -42.5 -11t-23.5 -31.5t-9.5 -39.5t-2.5 -45v-34q0 -7 -0.5 -27.5t-0.5 -32.5q0 -128 69 -128
q74 0 84 137z" />
    <glyph glyph-name="colon" unicode=":" horiz-adv-x="295" 
d="M138 445h7q34 0 58 -23.5t24 -55.5q0 -31 -19.5 -53.5t-51.5 -27.5h-7q-34 0 -58 23.5t-24 55.5q0 31 19.5 53.5t51.5 27.5zM138 161h7q34 0 58 -23.5t24 -55.5q0 -31 -19.5 -53.5t-51.5 -27.5h-7q-34 0 -58 23.5t-24 55.5q0 31 19.5 53.5t51.5 27.5z" />
    <glyph glyph-name="semicolon" unicode=";" horiz-adv-x="295" 
d="M196 16q-22 -15 -50 -15q-33 0 -56 22.5t-23 56.5q0 33 21.5 57t56.5 24q46 0 70 -38.5t24 -87.5q0 -92 -52 -165q-45 -62 -67 -62q-8 0 -15 6.5t-7 15.5v1q1 8 17 22q34 28 56.5 73t24.5 90zM138 445h7q34 0 58 -23.5t24 -55.5q0 -31 -19.5 -53.5t-51.5 -27.5h-7
q-34 0 -58 23.5t-24 55.5q0 31 19.5 53.5t51.5 27.5z" />
    <glyph glyph-name="less" unicode="&#x3c;" horiz-adv-x="826" 
d="M154 250q14 -5 41 -20.5t33 -18.5l150 -81q34 -19 149 -80.5t177 -95.5l8 -4t9.5 -5t7.5 -5t6 -7t2 -9q0 -8 -5.5 -15t-14.5 -7q-7 0 -29 12q-108 60 -309.5 168t-254.5 137q-1 1 -10.5 5.5t-13 7t-8 8t-4.5 11.5t4.5 11.5t8 8t13 7t10.5 5.5q417 224 564 305
q22 12 29 12q9 0 14.5 -7t5.5 -15q0 -5 -2 -9t-6 -7t-7.5 -5t-9.5 -5l-8 -4q-62 -34 -177 -95.5t-149 -80.5l-150 -81q-6 -3 -33 -18.5t-41 -20.5v-2z" />
    <glyph glyph-name="equal" unicode="=" horiz-adv-x="826" 
d="M75 391q3 1 10 1h662q19 -2 19 -21q0 -21 -29 -21h-652q-26 0 -26 21q0 16 16 20zM76 151q3 1 10 1h660q9 -1 14.5 -7.5t5.5 -14.5q0 -21 -31 -21q-4 0 -10.5 0.5t-9.5 0.5h-631q-24 0 -24 21q0 17 16 20z" />
    <glyph glyph-name="greater" unicode="&#x3e;" horiz-adv-x="826" 
d="M671 252q-14 5 -41 20.5t-33 18.5l-150 81q-34 19 -149 80.5t-177 95.5l-8 4t-9.5 5t-7.5 5t-6 7t-2 9q0 8 5.5 15t14.5 7q7 0 29 -12q108 -60 309.5 -168t254.5 -137q1 -1 10.5 -5.5t13 -7t8 -8t4.5 -11.5t-4.5 -11.5t-8 -8t-13 -7t-10.5 -5.5q-417 -224 -564 -305
q-22 -12 -29 -12q-9 0 -14.5 7t-5.5 15q0 5 2 9t6 7t7.5 5t9.5 5l8 4q62 34 177 95.5t149 80.5l150 81q6 3 33 18.5t41 20.5v2z" />
    <glyph glyph-name="question" unicode="?" horiz-adv-x="501" 
d="M152 636q20 -6 31.5 -24t11.5 -40q0 -30 -20 -49t-49 -19q-32 0 -49.5 21.5t-17.5 48.5q0 64 56.5 96t125.5 32q86 0 143.5 -31.5t57.5 -97.5q0 -43 -27 -75q-10 -11 -32 -26t-26 -18q-93 -73 -93 -154v-51q-1 -20 -30 -20q-26 0 -26 26v11q2 123 49 197q5 8 14 21.5
l12 18t8.5 14.5t7 14.5t4 12.5t3 15.5t0.5 17.5q0 29 -5 46.5t-16 25t-21.5 9.5t-28.5 2q-45 0 -83 -24zM227 161h7q33 0 57.5 -23t24.5 -56q0 -30 -19.5 -53t-51.5 -28h-7q-33 0 -57.5 23t-24.5 56q0 30 19.5 53t51.5 28z" />
    <glyph glyph-name="at" unicode="@" horiz-adv-x="826" 
d="M521 166q-40 -40 -113 -40q-46 0 -88.5 19t-70.5 53q-49 59 -49 152q0 91 57.5 155t151.5 64q83 0 132 -58q2 -2 7 -9.5t9.5 -11.5t10.5 -4h29q29 0 29 -22q0 -2 -0.5 -7t-0.5 -8v-228q0 -52 25 -52q20 0 33 13.5t18.5 38t7 45.5t1.5 50v26q0 159 -93 245q-79 73 -205 73
q-71 0 -133.5 -27.5t-102.5 -81.5q-61 -82 -61 -201q0 -153 87 -233.5t215 -80.5q102 0 198 33q9 3 28 11.5t34 13.5t28 5h39q21 0 21 -18q0 -4 -1.5 -7t-4.5 -5.5t-5 -3.5t-7 -3t-7 -3q-149 -65 -331 -65h-14q-107 4 -184.5 54.5t-114.5 127.5t-37 170q0 152 81 243
q100 113 271 113q87 0 156.5 -29.5t112 -79.5t64.5 -112.5t22 -133.5q0 -35 -4 -66.5t-15 -69.5t-38 -61t-66 -23q-82 0 -122 39zM503 473q0 4 -7 13q-13 18 -35.5 29.5t-45.5 11.5q-29 0 -49 -19t-29 -49.5t-12.5 -57.5t-3.5 -55q0 -19 2.5 -42t11 -57t29.5 -56t52 -22
q28 0 57.5 19t29.5 42v243z" />
    <glyph glyph-name="A" unicode="A" horiz-adv-x="802" 
d="M39 53q39 0 59 2q6 1 10 2.5t7.5 2.5t6 4t4 4.5t4 6.5t3 7t3 9t3.5 10l35 94q30 77 88 232t88 233l3 9q3 9 4 10.5t4.5 8t7 8.5t9.5 4t13 2h14q31 0 42 -28q9 -27 28.5 -77.5t23.5 -61.5l167 -443q2 -4 5 -12.5t5 -12.5q4 -15 17 -15q2 0 6 0.5t5 0.5h59v-52h-313v52h77
q-6 17 -18 48.5t-16 42.5l-9 24q0 1 -2 5t-3 5t-3.5 2.5t-6.5 1.5h-220q-10 0 -13 -11l-30 -81q-9 -16 -9 -25q0 -12 62 -12h10v-52l-68 3h-105l-57 -3v52zM260 234h199l-99 264z" />
    <glyph glyph-name="B" unicode="B" horiz-adv-x="755" 
d="M46 687h366q91 0 140 -19q51 -20 82.5 -60.5t31.5 -91.5t-31.5 -88.5t-83.5 -57.5q-4 -1 -17 -4.5t-20 -6.5q73 -5 127 -51.5t54 -120.5q0 -26 -8 -53q-14 -43 -41 -71.5t-64.5 -41t-69.5 -16.5t-74 -4h-392v52h90v582h-90v52zM274 53h145q44 0 67 14q55 34 55 123
q0 147 -106 147h-161v-284zM274 379h143q53 6 77 45t24 91t-22 86t-73 34h-149v-256z" />
    <glyph glyph-name="C" unicode="C" horiz-adv-x="767" 
d="M604 639q7 9 32 29l11 10q3 2 7 6.5t7 6.5t7 5t8.5 4t10.5 1q20 0 20 -26v-226q0 -25 -19 -25h-21q-8 0 -13 1t-7.5 5.5t-3.5 7t-2.5 10.5t-2.5 11q-15 79 -65.5 134.5t-127.5 55.5q-20 0 -38 -3q-49 -8 -84.5 -30.5t-55 -50t-31 -66.5t-14.5 -71.5t-3 -73.5q0 -51 2 -83
t14 -75t34 -74q30 -41 79 -62t103 -21q81 0 136.5 54t63.5 132v6q0 21 26 21q28 0 30 -16v-7q0 -74 -43.5 -131t-106 -84.5t-127.5 -27.5q-82 0 -158.5 29.5t-127.5 86.5q-85 97 -85 243q0 131 70 223q52 68 133.5 100.5t174.5 32.5q94 0 167 -62z" />
    <glyph glyph-name="D" unicode="D" horiz-adv-x="814" 
d="M46 687h364q43 0 64 -2q93 -11 158 -64t93.5 -125t28.5 -157q0 -170 -106 -263q-86 -76 -234 -76q-11 0 -32.5 0.5t-32.5 0.5h-303v52h90v582h-90v52zM280 53h108q57 0 98.5 18.5t63 44t33.5 66.5t14.5 72.5t2.5 75.5v26q0 53 -3 87t-19.5 77t-48.5 70q-55 45 -143 45
h-106v-582z" />
    <glyph glyph-name="E" unicode="E" horiz-adv-x="696" 
d="M46 681h558l33 -243h-56q-10 81 -28 115q-13 26 -32 42t-45 23t-46.5 9t-51.5 2h-92v-249h24q58 0 80 24q19 21 19 76v15h56v-282h-56v15q0 55 -19 76q-22 24 -80 24h-24v-275h86q117 0 165 40q13 11 23.5 25.5t16.5 26.5t12.5 33t8.5 31l7 35t6 32h56l-49 -275h-572v52
h90v576h-90v52z" />
    <glyph glyph-name="F" unicode="F" horiz-adv-x="667" 
d="M46 681h543l33 -243h-56q-13 96 -37 132q-15 26 -45.5 40t-55 16.5t-61.5 2.5h-81v-262h17q65 0 85 30q14 20 14 68v17h56v-282h-56v17q0 48 -14 68q-20 30 -85 30h-17v-262h113v-52h-353v52h90v576h-90v52z" />
    <glyph glyph-name="G" unicode="G" horiz-adv-x="835" 
d="M596 46q-49 -59 -160 -59q-162 0 -263 87q-57 49 -85.5 121t-28.5 151q0 142 84 238q52 59 128 88t160 29h17q90 -6 156 -62q7 9 32 29l11 10q3 2 7 6.5t7 6.5t7 5t8.5 4t10.5 1q20 0 20 -26v-226q0 -13 -4.5 -19t-21.5 -6h-14q-12 0 -18.5 5t-7.5 10t-2 18
q-16 80 -65.5 136t-126.5 56q-62 0 -116.5 -30t-80.5 -84q-31 -63 -31 -190q0 -113 21 -168q25 -67 82.5 -102.5t127.5 -35.5q62 0 91 36q16 19 16 60v90h-133v52h357v-52h-74v-203q0 -20 -16 -20q-13 0 -46.5 15t-47.5 29h-1z" />
    <glyph glyph-name="H" unicode="H" horiz-adv-x="831" 
d="M46 687h330v-52h-90v-251h259v251h-90v52h330v-52h-90v-582h90v-52h-330v52h90v279h-259v-279h90v-52h-330v52h90v582h-90v52z" />
    <glyph glyph-name="I" unicode="I" horiz-adv-x="420" 
d="M41 687h338v-52h-94v-582h94v-52h-338v52h94v582h-94v52z" />
    <glyph glyph-name="J" unicode="J" horiz-adv-x="548" 
d="M151 684h255l74 3v-52h-68v-474q0 -45 -11 -69q-25 -56 -83.5 -80.5t-128.5 -24.5q-29 0 -59.5 6t-61.5 19.5t-50.5 40t-19.5 62.5q0 34 22 58t60 24q33 0 57.5 -22t24.5 -59q0 -23 -12 -44.5t-31 -28.5v-1q7 -2 19.5 -5.5t22.5 -5.5t20 -2q25 0 42 10t25.5 23t13.5 34.5
t5.5 35t0.5 33.5v470h-117v49z" />
    <glyph glyph-name="K" unicode="K" horiz-adv-x="832" 
d="M46 687h330v-52h-90v-298l315 290q-23 8 -54 8v52l74 -3h105l46 3v-54h-54l-28 -5l-229 -206q6 -10 56 -81q66 -97 119 -172l52 -75q14 -20 20 -27t16.5 -11t29.5 -4q6 0 17 0.5t16 0.5v-52h-295v52h11q42 0 44 8v2q0 4 -10 17q-73 113 -155 224l-18 27l-78 -72v-206h90
v-52h-330v52h90v582h-90v52z" />
    <glyph glyph-name="L" unicode="L" horiz-adv-x="637" 
d="M46 687h353v-52h-113v-582h55q35 0 63 8t47 19t34 31.5t23 36.5t14.5 43.5t8.5 42t6 42.5h56l-33 -275h-514v52h90v582h-90v52z" />
    <glyph glyph-name="M" unicode="M" horiz-adv-x="1008" 
d="M46 687h219q9 0 16 -2.5t12 -8.5t7 -10t6 -13t5 -12l140 -352q4 -10 23 -58t30 -73q11 25 30 73t23 58l140 352q1 3 5 12t6 13t7 10t12 8.5t16 2.5h219v-52h-90v-582h90v-52h-311v52h90l-1 570q-4 -16 -22 -56l-211 -529q-5 -12 -8 -18t-11.5 -12.5t-20.5 -6.5
q-13 0 -21.5 6t-11.5 12.5t-8 18.5l-206 515q-20 52 -21 55l-1 -538q0 -17 54 -17h36v-52l-67 3h-111l-64 -3v52h34q56 0 56 17v565h-90v52z" />
    <glyph glyph-name="N" unicode="N" horiz-adv-x="831" 
d="M46 687h209l24 -2l14 -14l340 -441v369q0 1 0.5 6t0.5 8q0 23 -54 23q-6 0 -18.5 -0.5t-18.5 -0.5v52l67 -3h111l64 3v-52q-5 0 -17.5 0.5t-19.5 0.5q-53 0 -53 -22v-566q0 -2 0.5 -8t0.5 -9q0 -30 -28 -30h-6q-10 0 -18 4.5t-11 7.5t-11.5 15.5t-9.5 13.5q-10 12 -29 37
t-28 37q-21 27 -136 178t-179 229l-24 32q-10 11 -17 23l-1 -508q0 -17 54 -17h36v-52l-67 3h-111l-64 -3v52h34q56 0 56 17v565h-90v52z" />
    <glyph glyph-name="O" unicode="O" horiz-adv-x="797" 
d="M378 701h13q90 0 159 -31.5t108.5 -84t59 -115t19.5 -131.5q0 -168 -102 -266q-92 -86 -235 -86q-156 0 -249 96q-92 95 -92 258q0 90 32.5 169t98.5 127q69 52 188 64zM219 310q1 -6 3.5 -34t3.5 -36.5t4.5 -31.5t8 -35t11.5 -29.5t17 -32.5q22 -34 57.5 -54.5
t74.5 -20.5q40 0 80 25q34 22 55.5 56.5t30 81t10.5 77.5t2 81v6q0 52 -7 97t-24.5 91.5t-55.5 74t-92 27.5q-179 0 -179 -306v-37z" />
    <glyph glyph-name="P" unicode="P" horiz-adv-x="725" 
d="M46 687h387q98 -4 165.5 -56.5t67.5 -140.5q0 -50 -23 -89t-60.5 -61t-79.5 -32.5t-86 -10.5h-131v-244h90v-52h-330v52h90v582h-90v52zM280 344h87q72 0 103 22q37 23 37 97v25q0 44 -5 74q-14 73 -133 73h-89v-291z" />
    <glyph glyph-name="Q" unicode="Q" horiz-adv-x="797" 
d="M482 -4q-30 -9 -87 -9q-78 0 -148 30.5t-116 88.5q-73 94 -73 236q0 164 98 266q43 46 108 69.5t133 23.5q77 0 145.5 -28t114.5 -84q80 -100 80 -248q0 -106 -45.5 -193t-140.5 -130q34 -51 77 -51q53 0 67 20q3 4 6 13.5t7 15.5t14 6q9 0 15 -7t6 -17v-7
q0 -30 -6.5 -60t-21 -59t-41.5 -47t-62 -18q-27 0 -48.5 11.5t-33 25t-21.5 40t-13 40.5t-8 42zM513 81q29 38 36 51q34 69 34 218q0 102 -20 166q-20 62 -63.5 100t-103.5 38q-9 0 -25 -2q-42 -8 -72.5 -32.5t-46.5 -54.5t-25.5 -72t-11.5 -74t-2 -71q0 -48 2 -79.5t10 -73
t27.5 -74t50.5 -56.5q0 45 28 69.5t68 24.5q67 0 113 -78h1zM470 51q-12 31 -28 48.5t-45 17.5q-19 0 -35.5 -11.5t-16.5 -30.5q0 -34 43 -41h10q36 0 72 17z" />
    <glyph glyph-name="R" unicode="R" horiz-adv-x="805" 
d="M46 687h300q55 -1 77.5 -1.5t64.5 -8.5t73 -23q49 -24 80 -63.5t31 -89.5q0 -111 -150 -161q51 -22 75.5 -56.5t27.5 -87.5q1 -8 3.5 -35.5t5.5 -45.5t9.5 -40.5t19.5 -34t31 -11.5q14 0 25 8q14 11 20.5 27t6.5 29t6 22.5t22 9.5q28 0 28 -26q0 -42 -27.5 -74.5
t-68.5 -37.5h-12q-68 0 -114 12.5t-68.5 36.5t-31 50t-8.5 61q0 9 0.5 25.5t0.5 24.5q0 48 -19.5 84.5t-63.5 41.5h-110v-270h90v-52h-324v52h90v582h-90v52zM280 365q10 0 31 -0.5t32 -0.5q94 0 131 25q38 24 38 102v17q0 79 -36 103q-37 24 -121 24h-75v-270z" />
    <glyph glyph-name="S" unicode="S" horiz-adv-x="590" 
d="M248 701q3 0 9 0.5t10 0.5q49 0 97 -19q9 -3 28.5 -15.5t23.5 -12.5h1q3 0 15 12l9 9q25 25 40 25q20 0 20 -25v-191q0 -9 -1 -13.5t-7 -8.5t-18 -4h-4q-12 0 -18.5 6t-8 12t-3 18.5t-2.5 17.5q-17 67 -62.5 104t-107.5 37q-45 0 -77 -27t-32 -74q0 -84 98 -110l43 -10
q9 -2 26.5 -6t26.5 -6q81 -16 128.5 -77.5t47.5 -142.5q0 -91 -56.5 -152.5t-155.5 -61.5q-90 0 -148 34q-3 1 -8 4.5t-9.5 6t-6.5 2.5h-2q-8 -1 -28 -24.5t-35 -23.5q-22 0 -22 26v191q0 13 4.5 19.5t20.5 6.5h5q11 0 17 -5t7.5 -10t2 -16t1.5 -16q9 -51 42 -84.5t73.5 -46
t87.5 -12.5q49 0 79 32t30 81q0 55 -35 90q-7 7 -14.5 12t-18.5 9t-16.5 5.5t-20 5t-18.5 4.5l-64 15q-30 7 -43 11q-62 21 -101.5 75t-39.5 120q0 85 53 139.5t137 62.5z" />
    <glyph glyph-name="T" unicode="T" horiz-adv-x="738" 
d="M61 675h615l23 -243h-56q-6 64 -14 95q-10 42 -35.5 64.5t-50.5 27t-63 4.5h-36v-570h127v-52h-404v52h127v570h-40q-25 0 -46 -3t-36 -11.5t-26.5 -15.5t-19.5 -22.5t-13 -23.5t-8.5 -28.5t-4.5 -28t-3 -30.5t-3 -28h-56z" />
    <glyph glyph-name="U" unicode="U" horiz-adv-x="817" 
d="M46 687h330v-52h-90v-408q0 -48 4 -72q8 -57 47.5 -86.5t95.5 -29.5q83 0 134 52q47 50 47 144v379q0 22 -52 22q-6 0 -19 -0.5t-19 -0.5v52l68 -3h113l65 3v-52h-34q-56 0 -56 -17v-378q0 -123 -71.5 -188t-180.5 -65q-165 0 -241 96q-51 66 -51 169v383h-90v52z" />
    <glyph glyph-name="V" unicode="V" horiz-adv-x="802" 
d="M25 687h309v-52h-75l185 -452q2 10 16 40q117 285 151 373q10 20 10 27v2q-4 10 -70 10v52l68 -3h103l55 3v-52q-23 0 -38 -1.5t-24 -2.5t-15.5 -7.5t-8.5 -9t-6.5 -14.5t-7.5 -18q-35 -90 -109 -267t-108 -267q-14 -38 -24 -47.5t-33 -9.5h-6q-15 0 -26 7t-15 14
t-10 23.5t-8 21.5q-26 63 -94.5 233.5t-107.5 263.5q-1 3 -15 34.5t-17 46.5h-79v52z" />
    <glyph glyph-name="W" unicode="W" horiz-adv-x="1097" 
d="M24 687h303v-52h-78l154 -430l114 321l-33 99l-6 10h-71v52h304v-52h-78l154 -429q4 8 9 22.5t6 17.5l25 70q57 161 73 205q4 11 13.5 34.5t16 41.5t6.5 26q0 12 -82 12v52l68 -3h102l49 3v-52q-4 0 -13.5 0.5t-14.5 0.5q-47 0 -52 -24l-10 -27q-31 -84 -85.5 -238
t-73.5 -206q-30 -84 -38 -107q-1 -3 -3.5 -9.5t-3.5 -9t-4 -7.5t-5.5 -7t-6.5 -5t-9.5 -4t-12.5 -1q-11 0 -18.5 2.5t-12.5 9t-7 10t-6 15.5l-5 15q-11 29 -31 87l-44 123q-16 43 -46 129q-19 51 -22 62h-1q-6 -23 -22 -65t-18 -49l-83 -232q-3 -7 -8 -24.5t-9 -28.5
t-10 -24.5t-13.5 -21t-16.5 -8.5h-10q-9 0 -16.5 2.5t-12 5t-8.5 9.5t-5 10t-4 12.5t-4 11.5q-5 15 -153 430q-7 19 -20.5 52.5t-23 61t-14.5 49.5h-73v52z" />
    <glyph glyph-name="X" unicode="X" horiz-adv-x="802" 
d="M48 687h314v-52h-65l119 -179l118 170q-23 9 -75 9v49h201l64 3v-52q-23 0 -69 -2q-2 0 -12.5 -1t-14 -2t-10 -5t-11.5 -12l-20 -28q-12 -17 -36 -52t-36 -52l-52 -75q-5 -8 -5 -9q0 -3 2.5 -7.5t6.5 -9.5t5 -7l196 -294q1 -1 6.5 -10.5t10 -13t12.5 -3.5q3 0 7 0.5
t6 0.5h59v-52h-314v52h64l-147 222l-148 -213q23 -9 75 -9v-49h-201l-64 -3v52q23 0 69 2q3 0 9.5 0.5t9 1t8 2t8.5 3.5t7 6t8 10q19 27 56 80t56 80l60 87q5 7 5 9q0 7 -12 21l-173 259q-1 2 -4 6.5l-4 6t-4 4t-6.5 3.5t-8.5 1h-70v52z" />
    <glyph glyph-name="Y" unicode="Y" horiz-adv-x="802" 
d="M20 687h320v-52h-67l173 -276h2q2 3 15 25l26 41q44 72 83 133q2 4 15 22t19.5 29.5t6.5 16.5q-5 9 -59 9v52l68 -3h105l55 3v-52q-59 0 -75 -6.5t-33 -33.5l-6 -9q-29 -47 -83 -132.5t-71 -112.5l-27 -44q-14 -19 -14 -34v-210h90v-52h-324v52h90v220l-227 362h-82v52z
" />
    <glyph glyph-name="Z" unicode="Z" horiz-adv-x="649" 
d="M87 687h473q29 0 29 -25q0 -13 -10 -33q-47 -75 -131 -213.5t-113 -185.5q-4 -6 -43 -72.5t-62 -99.5h73q36 0 55.5 1t49.5 8t51 21q31 21 49 57t23 65.5t8 76.5h56l-20 -286h-489q-27 0 -27 27v9q0 9 9 23l66 108q22 38 180 295q6 9 44.5 74t60.5 98h-66q-39 0 -63 -2
t-56 -13.5t-53 -32.5q-45 -45 -51 -143h-56z" />
    <glyph glyph-name="bracketleft" unicode="[" horiz-adv-x="299" 
d="M88 751h187v-42h-71v-916h71v-42h-187v1000z" />
    <glyph glyph-name="backslash" unicode="\" 
d="M75 750q2 1 6 1q7 0 15.5 -12t18 -35t17 -43t18 -49t14.5 -40q64 -170 295 -765q11 -27 11 -35q0 -9 -5.5 -15t-14.5 -6q-7 0 -13 5t-8.5 10.5t-6 15.5t-4.5 13q-234 604 -350 907q-8 24 -8 29t4.5 12t10.5 7z" />
    <glyph glyph-name="bracketright" unicode="]" horiz-adv-x="299" 
d="M23 751h187v-1000h-187v42h71v916h-71v42z" />
    <glyph glyph-name="asciicircum" unicode="^" horiz-adv-x="649" 
d="M322 631h1q2 0 14 -6l34 -21q17 -11 60.5 -36.5t69.5 -42.5t26 -22t-4 -9l-15 -26q-8 -10 -10 -10q-4 0 -11 5q-21 12 -62 31t-56 27q-26 15 -43 21q-4 0 -14 -5l-123 -60q-38 -19 -40 -19q-4 0 -9 10l-15 27q0 1 -1.5 3.5t-1.5 4.5q0 3 10.5 11.5t29.5 20t36 22t39 23
t30 17.5q47 31 55 34z" />
    <glyph glyph-name="underscore" unicode="_" horiz-adv-x="826" 
d="M116 -283q3 1 10 1h571q18 0 29 -9.5t11 -24.5q0 -16 -12.5 -25t-28.5 -9h-565q-21 0 -32 9.5t-11 23.5q0 12 8 22t20 12z" />
    <glyph glyph-name="grave" unicode="`" 
d="M164 665h5q14 0 30 -10.5t26.5 -21.5t26.5 -30.5t22 -25.5q34 -34 34 -39l-3 -6q-18 -36 -28 -39q-3 0 -8 2t-6 2q-18 8 -53 20.5t-50 18.5q-18 7 -27.5 12t-20 17.5t-10.5 30.5q0 25 18.5 46.5t43.5 22.5z" />
    <glyph glyph-name="a" unicode="a" horiz-adv-x="516" 
d="M173 408q22 -22 22 -52q0 -28 -19.5 -48t-47.5 -20q-29 0 -49 19.5t-20 50.5q0 98 177 98q48 0 90.5 -11.5t77.5 -45t40 -84.5v-234q0 -15 11 -20.5t24.5 -5t24.5 -5.5t11 -21q0 -13 -5 -19.5t-10.5 -7.5t-16.5 -1h-32q-23 0 -36.5 1.5t-31 7t-28 19.5t-15.5 37
q-15 -35 -53 -53.5t-79 -18.5q-40 0 -78 10t-69.5 38.5t-31.5 70.5q0 44 28.5 76.5t75.5 49t94 23.5t95 7v20q0 125 -92 125zM322 231q-7 -2 -20 -3t-17 -2q-52 -7 -92 -35.5t-40 -75.5q0 -35 20.5 -57t49.5 -22q44 0 71.5 29.5t27.5 75.5v90z" />
    <glyph glyph-name="b" unicode="b" horiz-adv-x="590" 
d="M23 687l39 8h143v-283q62 40 131 40q103 0 160.5 -68t57.5 -160q0 -103 -67 -166.5t-166 -63.5q-37 0 -73.5 14t-56.5 40l-47 -47h-55v600q0 35 -41 35q-4 0 -12.5 -0.5t-12.5 -0.5v52zM417 181q1 8 1 26v27q0 36 -3 62.5t-12.5 54.5t-30 43.5t-52.5 15.5t-69 -21
t-40 -42v-236q0 -11 3 -16q16 -27 43 -43t56 -16q28 0 52 15q8 5 14.5 11t11 13.5t8 12.5t6.5 15t4.5 14.5t3 16.5t2 15t1.5 16.5t1 15.5z" />
    <glyph glyph-name="c" unicode="c" horiz-adv-x="472" 
d="M313 405q-4 0 -19.5 2t-23.5 2q-99 0 -99 -166v-32q0 -29 4 -55t15 -54t34.5 -44.5t57.5 -16.5q53 0 84 40q5 7 12 23t14 23t19 7h4q24 0 27 -15v-2q0 -12 -11 -32q-23 -45 -68 -68t-99 -23q-97 0 -163 62.5t-66 166.5q0 99 62.5 166t169.5 67q27 0 52.5 -4t52 -14
t42.5 -31t16 -50t-19 -49t-48 -20t-49 19t-20 49q0 27 19 49z" />
    <glyph glyph-name="d" unicode="d" horiz-adv-x="590" 
d="M318 687l39 8h143v-608q0 -35 41 -35q4 0 12.5 0.5t12.5 0.5v-52l-45 -7h-143v40q-55 -40 -121 -40q-105 0 -163.5 67t-58.5 162q0 105 67.5 167t165.5 62q70 0 116 -37v187q0 20 -11.5 26.5t-31.5 6.5h-23v52zM171 180q1 -5 2 -22t2.5 -25t4 -21t7.5 -23.5t12 -19.5
q29 -33 68 -33q34 0 72.5 24.5t38.5 55.5v234q-5 24 -38 42t-62 18q-35 0 -58 -16t-32.5 -44.5t-13 -53.5t-3.5 -57v-59z" />
    <glyph glyph-name="e" unicode="e" horiz-adv-x="495" 
d="M165 213q0 -76 18 -112q33 -60 104 -60q34 0 64.5 15.5t48.5 42.5l6.5 13l5.5 11t5 7.5t7.5 5t11.5 1.5q30 0 30 -21q0 -7 -3 -13q-20 -51 -67.5 -78.5t-105.5 -30.5h-17q-117 0 -183 70q-62 65 -62 164q0 88 53 152q62 76 182 76q104 0 154 -60q50 -58 50 -155
q0 -28 -27 -28h-275zM165 252h202q0 39 -7.5 72.5t-32 61t-63.5 27.5q-99 0 -99 -161z" />
    <glyph glyph-name="f" unicode="f" horiz-adv-x="324" 
d="M101 445v77q0 55 12 82q23 51 77.5 74.5t117.5 23.5q48 0 82.5 -25t34.5 -68q0 -28 -19.5 -47t-46.5 -19t-47 18.5t-20 46.5q0 29 21 52q-33 0 -55 -11.5t-31.5 -32.5t-12.5 -40.5t-3 -44.5v-86h105v-52h-99v-340h82v-49h-199l-65 -3v52h66v340h-61v52h61z" />
    <glyph glyph-name="g" unicode="g" 
d="M93 198q-48 38 -48 104q0 51 30 86.5t71.5 49.5t88.5 14q62 0 106 -20q13 -8 18 -8q3 0 6 1.5t6 4.5t5 4q37 25 76 25q26 0 44.5 -18.5t18.5 -45.5q0 -22 -14 -35.5t-34 -13.5q-19 0 -33.5 13t-14.5 33q0 11 3 20l-32 -14q37 -51 37 -95v-8q-5 -74 -61.5 -108t-128.5 -34
q-70 0 -113 24q-7 -13 -8 -26v-4q0 -29 20 -44t52 -15h79q100 0 148 -20q88 -38 88 -135q0 -40 -23 -68t-61.5 -41.5t-74.5 -19t-76 -5.5q-36 0 -72.5 5t-77 18t-66 40.5t-25.5 65.5q0 29 20.5 53t51.5 31q-39 41 -39 95q0 60 33 90v1zM121 -79q5 -41 47 -60t93 -19
q19 0 40 3t48 11t44 27t17 46v4q-3 18 -17 29.5t-37.5 16t-39 5.5t-39.5 1q-9 0 -27.5 -0.5t-27.5 -0.5h-37q-65 0 -65 -54q0 -2 0.5 -5t0.5 -4zM162 275q4 -40 16 -54q21 -25 59 -25q25 0 41 9.5t22 28t8 33.5t2 39q0 52 -17 77.5t-58 25.5q-73 0 -73 -95v-39z" />
    <glyph glyph-name="h" unicode="h" horiz-adv-x="590" 
d="M32 687l39 8h143l1 -330q19 38 62 62.5t88 24.5q102 0 134 -61q16 -32 16 -90v-248h66v-52l-67 3h-116l-71 -3v52h66v266q0 91 -38 91q-62 0 -98.5 -49.5t-36.5 -113.5v-194h66v-52l-71 3h-116l-67 -3v52h66v550q0 32 -45 32h-21v52z" />
    <glyph glyph-name="i" unicode="i" horiz-adv-x="295" 
d="M39 444l38 8h140v-399h59v-52l-62 3h-110l-69 -3v52h66v308q0 31 -43 31h-19v52zM137 696h7q33 0 57.5 -23t24.5 -56q0 -30 -19.5 -53t-51.5 -28h-7q-33 0 -57.5 23t-24.5 56q0 30 19.5 53t51.5 28z" />
    <glyph glyph-name="j" unicode="j" horiz-adv-x="324" 
d="M72 444l62 8h126v-485q0 -76 -54 -121.5t-128 -45.5q-53 0 -99 23.5t-46 73.5q0 29 19.5 49t48.5 20q28 0 48 -18.5t20 -49.5q0 -25 -23 -53l30 -3q69 0 69 143q0 11 -0.5 32t-0.5 31v288q0 3 0.5 10t0.5 11q0 35 -49 35h-24v52zM171 696h7q33 0 57.5 -23t24.5 -56
q0 -30 -19.5 -53t-51.5 -28h-7q-33 0 -57.5 23t-24.5 56q0 30 19.5 53t51.5 28z" />
    <glyph glyph-name="k" unicode="k" horiz-adv-x="560" 
d="M23 687l39 8h143v-443l114 98l36 34l-7 6l-25 3v52l67 -3h89l40 3v-52l-46 -2l-24 -5l-129 -110q9 -9 23.5 -29.5t17.5 -24.5l75 -102q3 -4 12 -17t12 -17t11.5 -12.5t14 -11.5t15 -6t20.5 -3h22v-52l-54 3h-102l-68 -3v52l22 2l7 5l-5 12l-102 137l-40 -38l-2 -13v-105
h66v-52l-67 3h-111l-64 -3v52h66v550q0 32 -45 32h-21v52z" />
    <glyph glyph-name="l" unicode="l" horiz-adv-x="295" 
d="M35 687l39 8h143v-642h66v-52l-70 3h-112l-66 -3v52h66v550q0 32 -45 32h-21v52z" />
    <glyph glyph-name="m" unicode="m" horiz-adv-x="885" 
d="M32 444l59 8h117l1 -98q6 15 26 38q53 60 137 60q48 0 89 -21t47 -66q5 5 13 15.5t11 14.5q54 57 127 57q86 0 120 -39q31 -35 31 -123v-237h66v-52l-71 3h-116l-67 -3v52h66v266q0 91 -38 91q-62 0 -98.5 -49.5t-36.5 -113.5v-194h66v-52l-67 3h-116l-71 -3v52h66v266
q0 91 -38 91q-62 0 -98.5 -49.5t-36.5 -113.5v-194h66v-52l-71 3h-116l-67 -3v52h66v307q0 32 -43 32h-23v52z" />
    <glyph glyph-name="n" unicode="n" horiz-adv-x="590" 
d="M32 444l59 8h117l1 -98q15 40 62 69t94 29q96 0 130 -54q20 -33 20 -100v-245h66v-52l-67 3h-116l-71 -3v52h66v266q0 91 -38 91q-62 0 -98.5 -49.5t-36.5 -113.5v-194h66v-52l-71 3h-116l-67 -3v52h66v307q0 32 -43 32h-23v52z" />
    <glyph glyph-name="o" unicode="o" 
d="M248 456h11q107 0 174.5 -65t67.5 -169q0 -102 -60 -163q-65 -65 -177 -65q-92 0 -153 46q-82 60 -82 180q0 205 219 236zM165 182q1 -8 2 -25t2 -27.5t5 -24.5t11 -24q27 -40 80 -40q55 0 82 42q19 31 19 101v34q0 37 -1 60.5t-7 52t-16 44.5t-29.5 27.5t-47.5 11.5
q-34 0 -56 -14t-30.5 -42t-11 -50t-2.5 -58v-68z" />
    <glyph glyph-name="p" unicode="p" horiz-adv-x="590" 
d="M23 444l39 8h143v-41q64 37 118 41h15q95 0 156 -65t61 -161q0 -115 -70 -173.5t-168 -58.5q-51 0 -106 35v-170h66v-52l-71 3h-116l-67 -3v52h66v511q0 23 -40 23q-5 0 -13.5 -0.5t-12.5 -0.5v52zM417 201q1 7 1 20q0 25 -3 49.5t-11.5 58.5t-30.5 55t-55 21t-68 -20.5
t-39 -41.5v-232q0 -28 33 -51.5t66 -23.5q93 0 107 165z" />
    <glyph glyph-name="q" unicode="q" horiz-adv-x="560" 
d="M379 37q-62 -43 -127 -43q-60 0 -112 30q-51 26 -78 80.5t-27 116.5q0 108 67 169.5t165 61.5q82 0 135 -69l34 49l16 19l49 1v-593h66v-52l-71 3h-116l-67 -3v52h66v178zM171 200q0 -1 3.5 -24.5t5.5 -32t7.5 -29.5t12 -31t16.5 -23t23.5 -18.5t30.5 -5.5
q40 0 77.5 33.5t37.5 71.5v157q-3 36 -35.5 71.5t-70.5 35.5h-8q-100 -12 -100 -191v-14z" />
    <glyph glyph-name="r" unicode="r" horiz-adv-x="456" 
d="M23 444l57 8h112l1 -92q9 42 44.5 67t74.5 25q43 0 78.5 -23t35.5 -66q0 -29 -20.5 -46.5t-46.5 -17.5q-28 0 -46.5 19t-18.5 47q0 23 16 45q-24 0 -42.5 -10.5t-29.5 -30t-18 -40t-10 -49.5t-4 -48.5t-1 -46.5v-132h82v-52l-73 3h-121l-70 -3v52h66v307q0 32 -43 32h-23
v52z" />
    <glyph glyph-name="s" unicode="s" horiz-adv-x="419" 
d="M186 456q6 1 19 1q24 0 51 -5q33 -10 34 -10h2q6 0 20.5 7.5t23.5 7.5q20 0 20 -24v-84q0 -10 -1 -14.5t-6.5 -9t-17.5 -4.5h-6q-8 0 -12.5 1.5t-7 5.5t-3.5 7t-2 10t-2 11q-4 33 -32 48t-64 15q-90 0 -90 -58q0 -22 17 -36t36.5 -19t52 -11t44.5 -9q52 -14 87 -54
t35 -94q0 -72 -50 -108t-120 -36q-52 0 -88 18q-14 7 -15 7q-7 0 -25.5 -12.5t-30.5 -12.5h-5q-15 3 -15 28v112q0 25 25 25h6q7 0 12 -1.5t8 -6t4.5 -7.5t3.5 -10.5t3 -11.5q30 -85 116 -85q93 0 93 69q0 22 -10 37t-30.5 23.5t-32 11.5t-35.5 7q-163 32 -163 138
q0 63 44 98q33 27 107 35z" />
    <glyph glyph-name="t" unicode="t" horiz-adv-x="414" 
d="M152 636h56v-191h129v-52h-129v-266q0 -85 44 -85q47 0 47 89v44h56q0 -7 0.5 -23t0.5 -23q0 -58 -32 -96.5t-83 -38.5q-99 0 -135 54q-20 29 -20 86v259h-66v42q38 0 65.5 21.5t41 54.5t19.5 64.5t6 60.5z" />
    <glyph glyph-name="u" unicode="u" horiz-adv-x="590" 
d="M32 444l40 8h148v-351q0 -26 4 -39q8 -26 65 -26h10q41 5 65 36.5t29 74.5v214q0 32 -43 32q-4 0 -12 -0.5t-11 -0.5v52l40 8h148v-367q0 -20 12 -26t34 -6h20v-52l-44 -7h-138l-1 63q-13 -26 -41.5 -43t-59.5 -20h-16q-102 0 -142.5 34t-40.5 106v235q-4 23 -46 23h-20
v52z" />
    <glyph glyph-name="v" unicode="v" horiz-adv-x="560" 
d="M25 445l59 -3h110l68 3v-52h-51l102 -245l95 236l-12 6l-34 3v52l53 -3h77l43 3v-52q-43 0 -55 -6t-19 -27l-23 -56q-8 -20 -48 -117t-62 -149q-1 -2 -4 -9.5t-4.5 -10.5t-5.5 -8.5t-7.5 -7.5t-9.5 -4t-14 -2q-22 0 -31 8.5t-19 30.5q-16 39 -55 133t-60 146l-23 56
q-1 1 -3.5 9.5t-6 11t-11.5 2.5h-49v52z" />
    <glyph glyph-name="w" unicode="w" horiz-adv-x="767" 
d="M24 445l57 -3h104l66 3v-52h-48l84 -229l65 178l-19 51h-51v52l51 -3h94l64 3v-52h-53l93 -255q5 5 9 21q8 20 34 94.5t43 113.5q4 12 4 13q0 13 -54 13v52l84 -3q46 0 91 3v-52q-30 0 -43.5 -4.5t-16.5 -9.5t-9 -22q-16 -46 -48.5 -133t-47.5 -128q-3 -8 -8.5 -26
t-9.5 -28.5t-10.5 -22.5t-16 -17.5t-22.5 -5.5q-16 0 -25.5 6.5t-16.5 26.5q-7 21 -21.5 59t-18.5 49l-29 79q-10 30 -16 44q-6 -14 -16 -44l-29 -79q-41 -111 -49 -124q-11 -16 -34 -17q-20 0 -29 10t-15 31q-11 27 -22 59q-15 42 -48.5 132t-50.5 138q-9 27 -21 27h-45v52
z" />
    <glyph glyph-name="x" unicode="x" horiz-adv-x="560" 
d="M27 445l56 -3h104l66 3v-52h-37q8 -11 27 -37.5t31.5 -42.5t16.5 -16q1 0 18 18.5t34 40t17 27.5v1q-2 9 -36 9v52l58 -3h90l48 3v-52q-54 0 -69.5 -6t-35.5 -28l-45 -57q-4 -5 -15.5 -18t-18.5 -22.5t-8 -14.5q0 -3 2 -6.5t5.5 -7t4.5 -5.5q26 -33 104 -138l19 -25
q9 -13 19 -13q2 0 6.5 0.5t5.5 0.5h45v-52l-56 3h-104l-66 -3v52h37l-86 115l-78 -98l-3 -8l9 -6l26 -3v-52l-58 3h-89l-49 -3v54h55l27 6l15 15l110 139l-135 178h-67v52z" />
    <glyph glyph-name="y" unicode="y" horiz-adv-x="560" 
d="M25 445l62 -3h109l66 3v-52h-50l100 -242l95 233l-11 6l-34 3v52l53 -3h77l43 3v-52h-21q-39 0 -48 -21l-10 -24q-31 -68 -85 -199.5t-62 -150.5q-41 -97 -65 -129q-49 -69 -123 -69q-41 0 -70.5 29t-29.5 70q0 26 17.5 44.5t45.5 18.5q26 0 44.5 -17t18.5 -46
q0 -47 -35 -56v-1q25 0 44.5 9t33.5 28t21 33t18 40l13 32q6 15 6 16l-3 12l-35 84q-12 30 -51.5 123t-60.5 144q0 1 -1.5 4.5t-2 5t-1.5 5t-2 5t-3 4t-3.5 3.5t-4 2t-5.5 1h-50v52zM91 -144q9 -11 20 -12z" />
    <glyph glyph-name="z" unicode="z" horiz-adv-x="472" 
d="M57 445h336q31 0 31 -22q0 -8 -6 -20.5t-13 -22t-18.5 -25t-15.5 -22.5q-18 -26 -88 -128t-109 -157h31q32 0 50.5 1.5t44.5 11.5t41 29q5 7 9 14.5t7 17t4.5 15.5t3.5 18.5t2.5 16.5t2 19t1.5 16h56l-20 -206h-346q-33 0 -33 25q0 6 2.5 13t5.5 11.5t8.5 12t7.5 10.5
l29 42q151 216 199 288h-45q-74 0 -103 -29q-30 -30 -32 -107h-56z" />
    <glyph glyph-name="braceleft" unicode="{" 
d="M220 251q50 -21 67 -37q39 -34 39 -105v-172q0 -5 -0.5 -16.5t-0.5 -17.5q0 -87 90 -107q2 0 11.5 -0.5t14 -1.5t11 -3t9 -7t2.5 -12q0 -21 -25 -21h-12q-29 0 -64 5q-52 8 -86 24t-48.5 38.5t-19 42t-4.5 47.5v203q0 85 -75 111q-6 2 -22.5 4t-27 6t-12.5 14v4
q0 22 26 22q111 16 111 120v207q0 47 16 73q44 79 214 79q27 0 29 -17q0 -11 -4 -17t-8 -6.5t-14 -1.5q-49 -6 -80.5 -32t-31.5 -76q0 -6 0.5 -18t0.5 -17v-173q0 -51 -16 -78q-22 -37 -90 -64z" />
    <glyph glyph-name="bar" unicode="|" horiz-adv-x="295" 
d="M141 750q1 0 3.5 0.5t3.5 0.5q34 0 34 -46q0 -5 -0.5 -17t-0.5 -17v-872q0 -14 -1 -21t-8 -15t-20 -12h-4q-36 0 -36 51q0 6 0.5 19t0.5 20v873q0 31 28 36z" />
    <glyph glyph-name="braceright" unicode="}" 
d="M310 251q-50 21 -67 37q-39 34 -39 105v172q0 5 0.5 16.5t0.5 17.5q0 87 -90 107q-3 0 -11.5 0.5t-13.5 1.5t-11 3t-9 6.5t-3 11.5q0 22 24 22h13q59 0 102 -11t65.5 -26.5t35.5 -39t16 -41t3 -39.5v-203q0 -85 74 -111q6 -2 22.5 -4t27.5 -6t13 -14v-4q0 -22 -26 -22
q-111 -16 -111 -119v-209q0 -46 -15 -71q-53 -80 -215 -80q-27 0 -29 17v10q3 13 26 15q49 6 80.5 32t31.5 76q0 6 -0.5 18t-0.5 17v173q0 51 16 78q22 37 90 64z" />
    <glyph glyph-name="asciitilde" unicode="~" horiz-adv-x="649" 
d="M88 600q2 3 28 35q26 31 49 45.5t60 14.5q31 0 93 -15l32 -8q60 -15 90 -15q56 0 87 38l33 -26q-2 -3 -28 -35q-26 -31 -49 -45.5t-60 -14.5q-31 0 -93 15l-32 8q-60 15 -90 15q-56 0 -87 -38z" />
    <glyph glyph-name="exclamdown" unicode="&#xa1;" horiz-adv-x="324" 
d="M149 271q8 2 14 2q11 0 17 -4t7.5 -7.5t3 -13t2.5 -11.5q6 -49 18.5 -141.5t18.5 -135.5l9 -63q3 -17 3 -32v-7q-3 -28 -27 -46.5t-52 -18.5q-29 0 -53 17t-28 46v7q0 15 3 32q4 44 34 253q1 8 5 45.5t9.5 56.5t15.5 21zM153 501h7q33 0 57.5 -23t24.5 -56
q0 -30 -19.5 -53t-51.5 -28h-7q-36 0 -58.5 23.5t-22.5 55.5q0 30 19 53t51 28z" />
    <glyph glyph-name="cent" unicode="&#xa2;" 
d="M268 546h52v-90q27 -2 43 -3.5t43 -8t42.5 -16t28 -28.5t12.5 -45q0 -28 -19.5 -47.5t-47.5 -19.5t-48.5 19t-20.5 47q0 27 18 50l-51 5v-368q62 4 97 36q8 8 16 23.5t16.5 24.5t20.5 9h6q25 0 25 -17q0 -2 -2 -8q-14 -51 -68.5 -82.5t-110.5 -31.5v-91h-52v91
q-100 0 -167 67.5t-67 160.5q0 78 45 140q31 42 84.5 67t104.5 25v91zM268 406q-97 -18 -97 -175q0 -159 97 -183v358z" />
    <glyph glyph-name="sterling" unicode="&#xa3;" horiz-adv-x="678" 
d="M234 374v159q5 82 63.5 126.5t134.5 45.5q41 0 66 -8q52 -17 87.5 -65.5t35.5 -104.5q0 -33 -19.5 -53t-49.5 -20q-31 0 -49.5 19.5t-18.5 47.5q0 27 18 47.5t47 20.5q-15 32 -44 53.5t-62 21.5q-15 0 -32 -6q-36 -18 -45.5 -47t-9.5 -77v-160h63q2 0 8 0.5t9 0.5
q24 0 24 -28q0 -25 -24 -25h-80v-132q0 -54 -12 -81q5 -1 50 -15q70 -22 118 -22q25 0 46.5 12t30.5 34q3 7 5.5 19.5t6 16t15.5 3.5h9q24 0 24 -22q0 -64 -50.5 -102.5t-113.5 -38.5q-46 0 -120 21l-48 15q-18 6 -21 6h-2q-6 0 -18 -10q-59 -32 -126 -32q-91 0 -91 57
q0 43 40 66t90 23q23 0 44 -3l1 185h-51q-24 0 -24 27q0 25 23 25h52zM207 59q-42 3 -43 3q-31 0 -33 -12v-2q0 -12 20 -12q31 1 56 23z" />
    <glyph glyph-name="currency" unicode="&#xa4;" horiz-adv-x="763" 
d="M73 621q3 1 8 1q15 0 37 -22l69 -69q6 -6 9 -6q7 0 20 11q68 44 166 44h15q64 -3 119 -27q7 -3 19 -10.5t21 -12.5t12 -5h1q3 0 9 6l62 62q1 1 7 7.5t8.5 8.5t8 6t10.5 5.5t10 1.5q14 0 23.5 -10t9.5 -24q0 -6 -1.5 -11t-5.5 -10.5t-7 -8.5t-9 -8.5t-8 -7.5l-60 -60
q-6 -6 -6 -8v-2q0 -1 2 -5q53 -72 53 -179v-16q-3 -63 -27 -120q-3 -6 -10.5 -18t-12.5 -20.5t-5 -11.5v-1q0 -3 6 -9l64 -64l6 -6t6.5 -6t5.5 -6t4.5 -7.5t3 -7.5t1.5 -9q0 -13 -9.5 -23.5t-23.5 -10.5q-15 0 -36 21l-70 70q-6 6 -9 6h-1q-1 0 -18 -10q-71 -45 -167 -45
h-16q-63 3 -120 27q-6 3 -18 10.5t-20.5 12.5t-11.5 5h-1q-3 0 -9 -6l-61 -61l-6.5 -6.5l-7 -7t-7 -6t-7.5 -5.5t-7.5 -3.5t-9.5 -1.5q-13 0 -23.5 9.5t-10.5 23.5q0 6 1.5 11t5 10t6 7.5t8.5 8t8 7.5l62 62q6 6 6 9v1q0 1 -10 18q-45 70 -45 172v10q1 59 27 120
q3 7 10.5 19t12.5 21t5 12v1q0 3 -6 9l-64 64l-8 7q-8 8 -10 11t-5.5 9.5t-3.5 13.5q0 12 7 21.5t19 11.5zM157 272q4 -31 7 -50q19 -77 79.5 -119t137.5 -42q111 0 168.5 67t57.5 161q0 110 -66.5 166.5t-159.5 56.5q-108 0 -166 -66.5t-58 -163.5v-10z" />
    <glyph glyph-name="yen" unicode="&#xa5;" horiz-adv-x="802" 
d="M20 687h320v-52h-67q14 -21 38.5 -60.5t32.5 -51.5l20 -32q9 -14 15 -16q3 -1 7 -1h122q11 0 18 11l12 18q6 9 18 29t18 29l30 48q9 12 9 16v1q-5 9 -59 9v52l68 -3h105l55 3v-52q-4 0 -14.5 0.5t-16.5 0.5q-52 0 -66 -24q-22 -31 -87 -138h133q21 -4 21 -22
q0 -20 -29 -20h-147q-3 0 -13 -13l-21 -34q-8 -13 -23.5 -37t-23.5 -37q-2 -3 -6.5 -10t-7.5 -11.5t-5.5 -11t-2.5 -11.5v-33h244q35 0 35 -22q0 -20 -23 -20h-256v-139h90v-52h-324v52h90v139h-256q-23 0 -23 20q0 22 35 22h244v33q0 11 -9 22l-14 22q-8 13 -23 37t-23 37
q-2 4 -8 13.5t-9.5 15.5t-8.5 11.5t-8 6.5h-147q-29 0 -29 20q0 18 21 22h133l-102 161h-82v52zM448 359l17 28l28 45h-92l45 -73h2z" />
    <glyph glyph-name="brokenbar" unicode="&#xa6;" horiz-adv-x="177" 
d="M82 164q1 0 3 0.5t3 0.5q35 0 35 -46q0 -4 -0.5 -12t-0.5 -12v-274q0 -3 0.5 -11.5t0.5 -12.5q0 -36 -30 -46q-40 0 -40 48q0 4 0.5 12t0.5 11v306q0 13 8 23.5t20 12.5zM82 750q1 0 3 0.5t3 0.5q35 0 35 -45q0 -5 -0.5 -13t-0.5 -12v-307q0 -32 -29 -37q-40 0 -40 48
q0 4 0.5 12t0.5 11v306q0 13 8 23.5t20 12.5z" />
    <glyph glyph-name="section" unicode="&#xa7;" horiz-adv-x="505" 
d="M144 384q-32 26 -51 70t-19 89q0 74 55 116.5t124 42.5q59 0 111 -33.5t52 -92.5q0 -25 -15.5 -44t-42.5 -19h-6q-26 0 -42 18.5t-16 42.5q0 15 6.5 27t13 17t19.5 14q-47 28 -80 28q-45 0 -79 -33.5t-34 -78.5q0 -24 24 -40.5t70.5 -32t60.5 -22.5q59 -30 97 -85.5
t38 -120.5q0 -39 -18.5 -73.5t-51.5 -54.5v-1q32 -26 51 -69.5t19 -87.5q0 -74 -55 -117.5t-125 -43.5q-60 0 -111 34t-51 93q0 29 18.5 45.5t44.5 16.5t42.5 -18.5t16.5 -43.5q0 -37 -39 -56v-1q47 -28 80 -28q45 0 79 33.5t34 78.5q0 24 -24 40.5t-70.5 32t-60.5 22.5
q-59 30 -97 85.5t-38 120.5q0 39 18.5 73.5t51.5 54.5v1zM141 253q4 -21 27 -35.5t67.5 -29.5t51.5 -18q4 -2 14.5 -8t16.5 -8q4 0 8 4q38 38 38 82q0 24 -21.5 40t-71 33t-54.5 19q-4 2 -14.5 8t-16.5 8q-4 0 -8 -4q-38 -38 -38 -82q0 -6 1 -9z" />
    <glyph glyph-name="dieresis" unicode="&#xa8;" 
d="M153 687h7q35 0 58.5 -23.5t23.5 -55.5q0 -30 -19 -52.5t-52 -28.5h-7q-34 0 -58 23.5t-24 55.5q0 31 19.5 53.5t51.5 27.5zM359 687h7q34 0 58 -23.5t24 -55.5q0 -31 -19.5 -53.5t-51.5 -27.5h-7q-35 0 -58.5 23.5t-23.5 55.5q0 30 19 52.5t52 28.5z" />
    <glyph glyph-name="copyright" unicode="&#xa9;" horiz-adv-x="1180" 
d="M562 765h30q126 0 238.5 -46t184.5 -138q106 -135 106 -333q-2 -218 -130 -355q-73 -78 -177 -117t-216 -39q-247 0 -391 138q-73 71 -110.5 169t-37.5 205q0 115 41 218.5t123 173.5q98 85 237 112q34 6 102 12zM127 230q10 -96 35 -165.5t79 -126.5q63 -67 155.5 -100
t193.5 -33q219 0 347 131q58 60 87 143t29 172q0 154 -80 271q-61 88 -163.5 131.5t-218.5 43.5q-120 0 -212.5 -39t-145.5 -105t-79.5 -144t-26.5 -165v-14zM581 495q7 1 20 1q43 0 84 -15q6 -2 17 -7.5l19 -9.5t11 -4h2q6 0 31 18t39 18q23 0 23 -28q0 -4 -0.5 -10
t-0.5 -8v-115q0 -2 0.5 -8.5t0.5 -9.5q0 -13 -5.5 -19.5t-21.5 -6.5h-15q-10 0 -15.5 4t-6.5 7.5t-5 15.5q-9 52 -47.5 88.5t-90.5 36.5q-82 0 -126 -47q-39 -43 -39 -143v-25q0 -96 35 -136q44 -53 129 -53q68 0 112 40q18 17 27.5 37.5t10.5 33.5t6.5 22.5t17.5 9.5h9
q24 0 24 -23q0 -55 -37 -96t-86.5 -58.5t-101.5 -17.5q-77 0 -144.5 26t-114.5 85.5t-47 142.5q0 220 286 254z" />
    <glyph glyph-name="ordfeminine" unicode="&#xaa;" horiz-adv-x="472" 
d="M169 715q26 -26 26 -55q0 -28 -19.5 -48t-48.5 -20q-26 0 -47 17.5t-21 46.5q0 56 45 81t102 25q71 0 122.5 -40t56.5 -115v-171q2 -7 19 -7h18q34 0 34 -25q0 -29 -31 -29q-4 0 -11 0.5t-10 0.5h-34q-23 0 -36.5 1.5t-29.5 10t-22 25.5q-28 -44 -103 -44
q-23 0 -45.5 3.5t-48 12.5t-41 28t-15.5 46q0 28 23.5 48t61.5 29.5t74.5 13.5t74.5 4v35q0 131 -62 131q-7 0 -32 -5zM55 307q10 2 15 2q4 0 10 -0.5t9 -0.5h319q10 0 17.5 -6t7.5 -15q0 -21 -26 -21h-326q-2 0 -8 -0.5t-9 -0.5q-25 0 -25 22q0 17 16 20zM263 515
q-19 0 -42.5 -4.5t-45.5 -18.5t-22 -35q0 -18 11.5 -32t28.5 -14q27 0 48.5 13.5t21.5 39.5v51z" />
    <glyph glyph-name="guillemotleft" unicode="&#xab;" horiz-adv-x="590" 
d="M294 465q3 1 10 1q19 -2 19 -18q0 -6 -4 -16q-45 -121 -92 -183q-10 -13 -10 -15t6 -11q21 -24 61 -100q39 -81 39 -104q0 -18 -20 -18q-7 0 -12.5 3.5t-7 5t-5.5 10.5l-5 9q-59 105 -155 175q-1 1 -6.5 4t-8 4.5t-6.5 5t-6 6.5t-3 7v2q0 9 14 19q106 73 175 193
q9 18 17 20zM501 465q3 1 10 1q19 -2 19 -18q0 -6 -4 -16q-45 -121 -92 -183q-10 -13 -10 -15t6 -11q21 -24 61 -100q39 -81 39 -104q0 -18 -20 -18q-7 0 -12.5 3.5t-7 5t-6.5 10.5l-4 9q-59 105 -155 175q-1 1 -6.5 4t-8 4.5t-6.5 5t-6 6.5t-3 7v2q0 9 14 19
q106 73 175 193q9 18 17 20z" />
    <glyph glyph-name="logicalnot" unicode="&#xac;" horiz-adv-x="708" 
d="M580 305h-477q-44 0 -44 34q0 15 11.5 25t28.5 10q4 0 10 -0.5t9 -0.5h484q28 0 37 -12t9 -34v-204q0 -4 0.5 -12t0.5 -13q0 -46 -34 -46q-13 0 -23.5 8.5t-11.5 21.5v223z" />
    <glyph glyph-name="registered" unicode="&#xae;" horiz-adv-x="1180" 
d="M562 765h30q126 0 238.5 -46t184.5 -138q106 -135 106 -333q-2 -218 -130 -355q-73 -78 -177 -117t-216 -39q-247 0 -391 138q-73 71 -110.5 169t-37.5 205q0 115 41 218.5t123 173.5q98 85 237 112q34 6 102 12zM127 230q10 -96 35 -165.5t79 -126.5q63 -67 155.5 -100
t193.5 -33q219 0 347 131q58 60 87 143t29 172q0 154 -80 271q-61 88 -163.5 131.5t-218.5 43.5q-120 0 -212.5 -39t-145.5 -105t-79.5 -144t-26.5 -165v-14zM264 481h275q48 0 89.5 -5.5t86 -19t70.5 -43t26 -71.5q0 -70 -111 -105q50 -28 61 -75q2 -10 5.5 -33t6.5 -37
t10 -30.5t19.5 -24.5t30.5 -8q33 5 40 59q0 18 7.5 23t21.5 5q27 0 27 -26q0 -38 -26.5 -68.5t-63.5 -34.5h-35q-192 0 -192 101v51q0 17 -2 29t-8.5 25t-20.5 20t-36 7h-47v-167h90v-52h-324v52h90v376h-90v52zM498 262h56q52 0 76 15q21 14 21 60v11q0 52 -21.5 66.5
t-66.5 14.5h-65v-167z" />
    <glyph glyph-name="macron" unicode="&#xaf;" 
d="M74 701h382v-58h-382v58z" />
    <glyph glyph-name="degree" unicode="&#xb0;" horiz-adv-x="354" 
d="M164 687q2 0 6.5 0.5t6.5 0.5q50 0 84 -33.5t34 -84.5q0 -50 -33 -85t-85 -35q-50 0 -84 33.5t-34 84.5q0 46 28.5 80t76.5 39zM127 561q8 -42 49 -42q23 0 37 13.5t14 36.5v8q-8 42 -50 42q-23 0 -36.5 -13.5t-13.5 -36.5v-8z" />
    <glyph glyph-name="plusminus" unicode="&#xb1;" horiz-adv-x="826" 
d="M379 373v284q0 15 9.5 25.5t24.5 10.5q35 0 35 -50q0 -4 -0.5 -12t-0.5 -11v-247h246q4 0 12.5 0.5t13.5 0.5q47 0 47 -35t-47 -35q-5 0 -13.5 0.5t-12.5 0.5h-246v-252h281q16 0 26.5 -10t10.5 -25q0 -33 -43 -33h-621q-41 0 -41 33q0 13 8.5 23.5t21.5 11.5h289v252
h-246q-4 0 -12.5 -0.5t-13.5 -0.5q-48 0 -48 35t48 35q5 0 13.5 -0.5t12.5 -0.5h246z" />
    <glyph glyph-name="twosuperior" unicode="&#xb2;" horiz-adv-x="472" 
d="M205 711q3 -11 3 -23q0 -33 -22 -55t-55 -22q-32 0 -55 21t-23 55q0 27 14 44t40.5 23.5t46 8.5t48.5 2q101 0 154 -33q62 -37 62 -104q0 -27 -14 -52h14l-33 -228h-332v89q0 5 0.5 8.5t2 6.5t2.5 4.5t4.5 4t4.5 3l6 3t6 3.5l44 22q4 2 28 13t40.5 20.5t37.5 24.5
t32 34.5t11 41.5q0 30 -18.5 55t-48.5 30zM208 482h94l25 2l13 4l8 15l8 34q-8 -5 -85 -32q-4 -1 -27.5 -10.5t-35.5 -12.5z" />
    <glyph glyph-name="threesuperior" unicode="&#xb3;" horiz-adv-x="472" 
d="M101 543q-27 15 -27 59q0 69 42.5 116t105.5 47q27 0 54 -4.5t56 -14.5t47 -31t18 -50q0 -34 -19.5 -55.5t-58.5 -44.5q40 -8 74 -34.5t34 -65.5q0 -5 -2 -19q-24 -105 -207 -105q-26 0 -53.5 6t-56 19t-46.5 38.5t-18 59.5q0 27 14.5 49t42.5 29v1zM176 531
q32 -28 32 -66q0 -16 -5.5 -29t-11 -20.5t-18.5 -21.5q42 -6 44 -6q50 0 50 64v17q0 39 -13 55.5t-43 16.5q-10 0 -20 -4.5t-15 -5.5zM148 676q31 0 53.5 -20t22.5 -53q0 -3 -0.5 -8.5t-0.5 -8.5q30 13 30 82q0 26 -7 40t-30 14q-38 0 -68 -46z" />
    <glyph glyph-name="acute" unicode="&#xb4;" 
d="M360 665h4q26 0 44.5 -21.5t18.5 -47.5q0 -17 -9.5 -30t-19.5 -18t-27 -12q-40 -14 -74 -28q-5 -1 -21 -8t-22 -7q-1 0 -9 8.5t-15.5 20t-7.5 16.5q0 6 81 90q31 35 57 37z" />
    <glyph glyph-name="mu" unicode="&#xb5;" horiz-adv-x="590" 
d="M32 444l40 8h148v-351q0 -26 4 -39q8 -26 65 -26h10q41 5 65 36.5t29 74.5v214q0 32 -43 32q-4 0 -12 -0.5t-11 -0.5v52l40 8h148v-367q0 -20 12 -26t34 -6h20v-52l-44 -7h-138l-1 63q-14 -28 -46.5 -45.5t-65.5 -17.5h-19q-32 0 -47 3v-138h66v-52l-71 3h-116l-67 -3v52
h66v499q0 21 -11 27.5t-33 6.5h-22v52z" />
    <glyph glyph-name="paragraph" unicode="&#xb6;" horiz-adv-x="649" 
d="M321 219q-27 0 -73 14q-81 24 -135 83t-54 141q0 105 76.5 168t173.5 70h271q18 0 28 -9.5t10 -24.5t-9.5 -24.5t-26.5 -9.5h-51v-752h50q18 0 28 -9.5t10 -24.5t-11 -24.5t-29 -9.5h-306q-40 0 -40 34q0 15 10.5 24.5t27.5 9.5h50v344zM389 -125h74v752h-74v-752z" />
    <glyph glyph-name="periodcentered" unicode="&#xb7;" horiz-adv-x="234" 
d="M108 314h7q34 0 58 -23.5t24 -55.5q0 -31 -19.5 -53.5t-51.5 -27.5h-7q-34 0 -58 23.5t-24 55.5q0 31 19.5 53.5t51.5 27.5z" />
    <glyph glyph-name="cedilla" unicode="&#xb8;" horiz-adv-x="472" 
d="M175 1h122v-19q0 -10 12 -14q38 -11 57 -30t19 -56q-3 -28 -25.5 -46.5t-62.5 -26.5t-74.5 -10.5t-82.5 -2.5h-54v42h42q134 0 134 51q0 27 -27 38t-60 11v63z" />
    <glyph glyph-name="onesuperior" unicode="&#xb9;" horiz-adv-x="472" 
d="M74 690q104 0 167 56q2 2 6.5 7t6.5 6.5t6.5 3.5t10.5 2h9q20 0 25 -18v-347h92v-52h-309v52h90v256q-46 -18 -104 -18v52z" />
    <glyph glyph-name="ordmasculine" unicode="&#xba;" horiz-adv-x="472" 
d="M219 762h11q106 0 161 -60q52 -57 52 -142q0 -93 -62 -142t-145 -49q-100 0 -156 56q-51 51 -51 135q0 96 55 144.5t135 57.5zM165 515q1 -7 1 -22t2 -27t8 -20q21 -30 60 -30q43 0 61 34q5 8 6.5 17t1.5 25v18q1 25 1 75q0 35 -1.5 52t-7.5 40t-21 33t-40 10
q-33 0 -51.5 -21t-18.5 -59v-8q-1 -26 -1 -78v-39zM55 307q10 2 15 2q4 0 10 -0.5t9 -0.5h319q10 0 17.5 -6t7.5 -15q0 -21 -26 -21h-326q-2 0 -8 -0.5t-9 -0.5q-25 0 -25 22q0 17 16 20z" />
    <glyph glyph-name="guillemotright" unicode="&#xbb;" horiz-adv-x="590" 
d="M73 465q3 1 8 1q4 0 7.5 -1.5t5.5 -2.5t4.5 -5t3.5 -5.5t3.5 -6.5t2.5 -6q57 -102 149 -170q3 -2 11 -7.5t12.5 -9t9 -9t4.5 -11.5q0 -9 -14 -17q-104 -78 -153 -156q-3 -4 -12 -21.5t-16 -26.5t-14 -10h-10q-16 4 -16 18q0 4 2 10t2 7q45 119 92 182q10 13 10 15
q0 1 -7 12q-36 47 -65 110q-33 71 -33 92q0 14 13 18zM280 465q3 1 8 1q4 0 7.5 -1.5t5.5 -2.5t4.5 -5t3.5 -5.5t3.5 -6.5t2.5 -6q57 -102 149 -170q3 -2 11 -7.5t12.5 -9t9 -9t4.5 -11.5q0 -9 -14 -17q-104 -78 -153 -156q-3 -4 -12 -21.5t-16 -26.5t-14 -10h-10
q-16 4 -16 18q0 4 2 10t2 7q44 119 92 182q10 13 10 15q0 1 -7 12q-36 47 -65 110q-33 71 -33 92q0 14 13 18z" />
    <glyph glyph-name="onequarter" unicode="&#xbc;" horiz-adv-x="472" 
d="M29 -115v42q0 10 10.5 22.5t30.5 29.5t26 23l93 90q45 44 54 53q4 4 15.5 15t17.5 16.5t17 10.5t22 5h20q26 0 26 -30v-225h81v-52h-81v-26h81v-52h-317v52h103v26h-199zM74 730q89 0 142 16q6 2 24.5 10.5t27.5 8.5h8q18 0 23.5 -7.5t5.5 -21.5v-303h92v-52h-309v52h90
v252q-49 -7 -104 -7v52zM23 312q3 1 10 1h412q14 -1 22.5 -11.5t8.5 -23.5q0 -14 -10.5 -23.5t-28.5 -9.5h-385q-3 0 -9 -0.5t-9 -0.5q-18 0 -28.5 10t-10.5 25q0 11 8.5 22t19.5 11zM98 -63h142v137z" />
    <glyph glyph-name="onehalf" unicode="&#xbd;" horiz-adv-x="472" 
d="M208 134q-5 -34 -26.5 -52.5t-51.5 -18.5q-33 0 -55 22t-22 54q0 51 106 51h59q36 0 68 -5t64 -16.5t50.5 -35.5t18.5 -58q0 -22 -12 -40h11l-33 -228h-332v31q0 5 2 9.5t4 6.5t7 6t6 5l130 101q44 35 56 52q15 22 15 51q0 51 -65 65zM74 730q89 0 142 16q6 2 24.5 10.5
t27.5 8.5h8q18 0 23.5 -7.5t5.5 -21.5v-303h92v-52h-309v52h90v252q-49 -7 -104 -7v52zM23 312q3 1 10 1h412q14 -1 22.5 -11.5t8.5 -23.5q0 -14 -10.5 -23.5t-28.5 -9.5h-385q-3 0 -9 -0.5t-9 -0.5q-18 0 -28.5 10t-10.5 25q0 11 8.5 22t19.5 11zM247 -60q22 0 66 2h7
q5 0 9 0.5t7 2.5t5 3.5t4 5.5l3 6t2 7.5t1.5 7.5t2 9t1.5 9l-53 -24z" />
    <glyph glyph-name="threequarters" unicode="&#xbe;" horiz-adv-x="472" 
d="M116 570q-20 6 -31.5 26.5t-11.5 41.5q0 52 40 87.5t94 39.5h12q26 0 52 -3.5t57 -12.5t50 -29.5t19 -49.5q0 -34 -19.5 -54.5t-53.5 -38.5q103 -27 103 -96q0 -34 -21.5 -58.5t-56 -35.5t-65.5 -15.5t-63 -4.5q-30 0 -59 6t-56.5 19t-44.5 38t-17 58q0 31 18.5 53.5
t53.5 27.5v1zM29 -115v42q0 10 10.5 22.5t30.5 29.5t26 23l93 90q45 44 54 53q4 4 15.5 15t17.5 16.5t17 10.5t22 5h20q26 0 26 -30v-225h81v-52h-81v-26h81v-52h-317v52h103v26h-199zM23 312q3 1 10 1h412q14 -1 22.5 -11.5t8.5 -23.5q0 -14 -10.5 -23.5t-28.5 -9.5h-385
q-3 0 -9 -0.5t-9 -0.5q-18 0 -28.5 10t-10.5 25q0 11 8.5 22t19.5 11zM98 -63h142v137zM160 563q48 -22 48 -76q0 -37 -33 -67q17 -6 39 -6q18 0 30 5.5t16.5 17.5t5.5 21t1 25q0 37 -11.5 53.5t-37.5 16.5h-14q-9 0 -13 1q-5 0 -10 6t-9 6q-3 0 -12 -3zM172 710
q52 -23 52 -71q0 -14 -10 -42q15 1 24 14t11 23t4 29v15q0 41 -30 44h-6q-17 0 -45 -12z" />
    <glyph glyph-name="questiondown" unicode="&#xbf;" horiz-adv-x="501" 
d="M345 -133q-39 18 -39 61q0 30 19.5 49.5t48.5 19.5t48.5 -19.5t19.5 -48.5q0 -37 -20 -63.5t-52.5 -40t-65.5 -19.5t-67 -6q-74 0 -126 30t-52 98q0 43 23 75q8 12 30 29t26 21q70 70 70 150v54q3 15 21 15h11q24 0 24 -25v-12q0 -106 -32 -186q-5 -12 -14.5 -32.5
t-13 -30t-7 -25.5t-3.5 -33t2 -45v-7q0 -34 49 -34q61 0 100 25zM227 501h7q33 0 57.5 -23t24.5 -56q0 -30 -19.5 -53t-51.5 -28h-7q-33 0 -57.5 23t-24.5 56q0 30 19.5 53t51.5 28z" />
    <glyph glyph-name="Agrave" unicode="&#xc0;" horiz-adv-x="802" 
d="M39 53q39 0 59 2q6 1 10 2.5t7.5 2.5t6 4t4 4.5t4 6.5t3 7t3 9t3.5 10l35 94q30 77 88 232t88 233l3 9q3 9 4 10.5t4.5 8t7 8.5t9.5 4t13 2h14q31 0 42 -28q9 -27 28.5 -77.5t23.5 -61.5l167 -443q2 -4 5 -12.5t5 -12.5q4 -15 17 -15q2 0 6 0.5t5 0.5h59v-52h-313v52h77
q-6 17 -18 48.5t-16 42.5l-9 24q0 1 -2 5t-3 5t-3.5 2.5t-6.5 1.5h-220q-10 0 -13 -11l-30 -81q-9 -16 -9 -25q0 -12 62 -12h10v-52l-68 3h-105l-57 -3v52zM260 234h199l-99 264zM449 731q-53 10 -112 18q-23 3 -38.5 7.5t-29.5 18.5t-14 36q0 27 17.5 48.5t43.5 21.5h2
q20 -1 60 -30q62 -46 81 -68z" />
    <glyph glyph-name="Aacute" unicode="&#xc1;" horiz-adv-x="802" 
d="M39 53q39 0 59 2q6 1 10 2.5t7.5 2.5t6 4t4 4.5t4 6.5t3 7t3 9t3.5 10l35 94q30 77 88 232t88 233l3 9q3 9 4 10.5t4.5 8t7 8.5t9.5 4t13 2h14q31 0 42 -28q9 -27 28.5 -77.5t23.5 -61.5l167 -443q2 -4 5 -12.5t5 -12.5q4 -15 17 -15q2 0 6 0.5t5 0.5h59v-52h-313v52h77
q-6 17 -18 48.5t-16 42.5l-9 24q0 1 -2 5t-3 5t-3.5 2.5t-6.5 1.5h-220q-10 0 -13 -11l-30 -81q-9 -16 -9 -25q0 -12 62 -12h10v-52l-68 3h-105l-57 -3v52zM260 234h199l-99 264zM302 783q31 22 93 68q40 29 60 30h2q26 0 43.5 -21.5t17.5 -48.5q0 -31 -22.5 -44t-59.5 -18
q-59 -8 -112 -18z" />
    <glyph glyph-name="Acircumflex" unicode="&#xc2;" horiz-adv-x="802" 
d="M39 53q39 0 59 2q6 1 10 2.5t7.5 2.5t6 4t4 4.5t4 6.5t3 7t3 9t3.5 10l35 94q30 77 88 232t88 233l3 9q3 9 4 10.5t4.5 8t7 8.5t9.5 4t13 2h14q31 0 42 -28q9 -27 28.5 -77.5t23.5 -61.5l167 -443q2 -4 5 -12.5t5 -12.5q4 -15 17 -15q2 0 6 0.5t5 0.5h59v-52h-313v52h77
q-6 17 -18 48.5t-16 42.5l-9 24q0 1 -2 5t-3 5t-3.5 2.5t-6.5 1.5h-220q-10 0 -13 -11l-30 -81q-9 -16 -9 -25q0 -12 62 -12h10v-52l-68 3h-105l-57 -3v52zM260 234h199l-99 264zM400 900h1q1 0 12 -7q35 -31 102 -84l21 -17q12 -10 12 -14l-4 -8l-18 -24q-1 -1 -2.5 -3.5
t-3 -4t-3.5 -1.5h-2q-2 0 -8 4q-9 5 -78 53q-25 16 -26 16h-2q-4 0 -8 -2t-8.5 -6t-6.5 -5l-84 -57q-6 -3 -8 -3h-1l-7 7q-8 8 -16 18.5t-8 16.5v2q1 2 5 5t5 4l22 18q13 10 39 32t39 32q29 26 36 28z" />
    <glyph glyph-name="Atilde" unicode="&#xc3;" horiz-adv-x="802" 
d="M39 53q39 0 59 2q6 1 10 2.5t7.5 2.5t6 4t4 4.5t4 6.5t3 7t3 9t3.5 10l35 94q30 77 88 232t88 233l3 9q3 9 4 10.5t4.5 8t7 8.5t9.5 4t13 2h14q31 0 42 -28q9 -27 28.5 -77.5t23.5 -61.5l167 -443q2 -4 5 -12.5t5 -12.5q4 -15 17 -15q2 0 6 0.5t5 0.5h59v-52h-313v52h77
q-6 17 -18 48.5t-16 42.5l-9 24q0 1 -2 5t-3 5t-3.5 2.5t-6.5 1.5h-220q-10 0 -13 -11l-30 -81q-9 -16 -9 -25q0 -12 62 -12h10v-52l-68 3h-105l-57 -3v52zM195 800q4 6 30 35q19 21 29.5 31t30.5 20t41 10q29 0 84 -20t83 -20q18 0 34.5 6.5t23.5 12t25 20.5l31 -27
q-5 -8 -17 -21t-14 -15q-18 -20 -28.5 -29.5t-28 -19t-37.5 -10.5h-3q-30 0 -86 19t-85 19q-46 0 -81 -38zM260 234h199l-99 264z" />
    <glyph glyph-name="Adieresis" unicode="&#xc4;" horiz-adv-x="802" 
d="M39 53q39 0 59 2q6 1 10 2.5t7.5 2.5t6 4t4 4.5t4 6.5t3 7t3 9t3.5 10l35 94q30 77 88 232t88 233l3 9q3 9 4 10.5t4.5 8t7 8.5t9.5 4t13 2h14q31 0 42 -28q9 -27 28.5 -77.5t23.5 -61.5l167 -443q2 -4 5 -12.5t5 -12.5q4 -15 17 -15q2 0 6 0.5t5 0.5h59v-52h-313v52h77
q-6 17 -18 48.5t-16 42.5l-9 24q0 1 -2 5t-3 5t-3.5 2.5t-6.5 1.5h-220q-10 0 -13 -11l-30 -81q-9 -16 -9 -25q0 -12 62 -12h10v-52l-68 3h-105l-57 -3v52zM260 234h199l-99 264zM495 895h7q36 0 59 -24t23 -57q0 -31 -21 -52.5t-50 -26.5h-7q-35 0 -58.5 24t-23.5 57
q0 30 20 52t51 27zM289 895h7q35 0 58.5 -24t23.5 -57q0 -30 -20.5 -52t-50.5 -27h-7q-36 0 -59 24t-23 57q0 31 21 52.5t50 26.5z" />
    <glyph glyph-name="Aring" unicode="&#xc5;" horiz-adv-x="802" 
d="M353 669q-34 13 -51 44.5t-17 69.5q0 61 34.5 91.5t83.5 30.5h4q49 -1 79.5 -35.5t30.5 -86.5q0 -38 -17 -69.5t-51 -44.5q16 -44 50 -132l114 -303q9 -26 47 -125q1 -3 6.5 -21t11.5 -26.5t15 -8.5h70v-52h-313v52h77q-6 17 -18 48.5t-16 42.5l-9 24q0 1 -2 5t-3 5
t-3.5 2.5t-6.5 1.5h-220q-10 0 -13 -11l-30 -81q-9 -16 -9 -25q0 -12 62 -12h10v-52l-68 3h-105l-57 -3v52q41 0 61 3q12 0 19.5 6t10.5 12t7.5 21t7.5 21q35 97 106 281.5t102 271.5zM260 234h199l-99 264zM341 760q4 -32 18.5 -45t42.5 -13q27 0 41 14t16 28.5t2 39.5
q0 43 -14 61t-48 18t-46 -19t-12 -53v-31z" />
    <glyph glyph-name="AE" unicode="&#xc6;" horiz-adv-x="961" 
d="M296 687h573l33 -243h-56q-11 87 -28 120q-6 11 -13 20q-17 23 -46 35t-52 14t-60 2h-61v-278h29q52 0 77.5 20.5t25.5 83.5v11h56v-282h-56v11q0 63 -25.5 83.5t-77.5 20.5h-29v-252h60q35 0 56 1.5t49 10t50 24.5q11 8 20 18.5t16 25t11.5 25t9.5 30t7 28.5t6 31.5
t5 28.5h56l-49 -275h-506v52h68v252h-145q-3 0 -5 -1t-3.5 -3.5t-2.5 -4t-2.5 -5t-1.5 -4.5l-14 -37q-27 -70 -52 -131l-16 -41l-2 -4q-2 -5 -2 -7q0 -14 70 -14v-52l-67 3h-106l-57 -3v52q5 0 17.5 -0.5t18.5 -0.5q48 0 57 28q17 37 61 155q52 134 158 400h-55v52zM313 357
h132v278l-21 -2z" />
    <glyph glyph-name="Ccedilla" unicode="&#xc7;" horiz-adv-x="767" 
d="M372 -9q-16 1 -44 7q-135 33 -202 127t-67 220q0 130 70 222q51 68 132.5 101t175.5 33t167 -62q7 9 32 29l11 10q3 2 7 6.5t7 6.5t7 5t8.5 4t10.5 1q20 0 20 -26v-226q0 -13 -4.5 -19t-21.5 -6h-15q-15 0 -19.5 6t-6.5 21q-16 82 -64.5 140t-128.5 58q-56 0 -107 -24.5
t-79 -70.5q-42 -66 -42 -204q0 -54 3 -90t19.5 -84.5t48.5 -77.5q63 -59 159 -59q77 0 134 49.5t67 124.5v10q0 18 7 23.5t20 5.5h5q25 0 25 -26q0 -77 -57 -143t-133 -84q-2 -1 -6.5 -2t-7 -2t-5.5 -2.5t-4 -4.5t-1 -7q0 -2 0.5 -5.5t0.5 -4.5q36 -5 62.5 -26t26.5 -56
q0 -72 -130 -86q-65 -7 -169 -7v42h39q137 0 137 50q0 27 -27 38.5t-61 11.5v53z" />
    <glyph glyph-name="Egrave" unicode="&#xc8;" horiz-adv-x="696" 
d="M46 681h558l33 -243h-56q-10 81 -28 115q-13 26 -32 42t-45 23t-46.5 9t-51.5 2h-92v-249h24q58 0 80 24q19 21 19 76v15h56v-282h-56v15q0 55 -19 76q-22 24 -80 24h-24v-275h86q117 0 165 40q13 11 23.5 25.5t16.5 26.5t12.5 33t8.5 31l7 35t6 32h56l-49 -275h-572v52
h90v576h-90v52zM434 731q-53 10 -112 18q-23 3 -38.5 7.5t-29.5 18.5t-14 36q0 27 17.5 48.5t43.5 21.5h2q20 -1 60 -30q62 -46 93 -68z" />
    <glyph glyph-name="Eacute" unicode="&#xc9;" horiz-adv-x="696" 
d="M46 681h558l33 -243h-56q-10 81 -28 115q-13 26 -32 42t-45 23t-46.5 9t-51.5 2h-92v-249h24q58 0 80 24q19 21 19 76v15h56v-282h-56v15q0 55 -19 76q-22 24 -80 24h-24v-275h86q117 0 165 40q13 11 23.5 25.5t16.5 26.5t12.5 33t8.5 31l7 35t6 32h56l-49 -275h-572v52
h90v576h-90v52zM302 783q31 22 93 68q40 29 60 30h2q26 0 43.5 -21.5t17.5 -48.5q0 -31 -22.5 -44t-59.5 -18q-59 -8 -112 -18z" />
    <glyph glyph-name="Ecircumflex" unicode="&#xca;" horiz-adv-x="696" 
d="M46 681h558l33 -243h-56q-10 81 -28 115q-13 26 -32 42t-45 23t-46.5 9t-51.5 2h-92v-249h24q58 0 80 24q19 21 19 76v15h56v-282h-56v15q0 55 -19 76q-22 24 -80 24h-24v-275h86q117 0 165 40q13 11 23.5 25.5t16.5 26.5t12.5 33t8.5 31l7 35t6 32h56l-49 -275h-572v52
h90v576h-90v52zM356 900h1q1 0 12 -7q35 -31 102 -84l21 -17q12 -10 12 -14l-4 -8l-18 -24q-1 -1 -2.5 -3.5t-3 -4t-3.5 -1.5h-2q-2 0 -8 4q-9 5 -78 53q-25 16 -26 16h-2q-4 0 -8 -2t-8.5 -6t-6.5 -5l-84 -57q-6 -3 -8 -3h-1l-7 7q-8 8 -16 18.5t-8 16.5v2q1 2 5 5t5 4
l22 18q13 10 39 32t39 32q29 26 36 28z" />
    <glyph glyph-name="Edieresis" unicode="&#xcb;" horiz-adv-x="696" 
d="M46 681h558l33 -243h-56q-10 81 -28 115q-13 26 -32 42t-45 23t-46.5 9t-51.5 2h-92v-249h24q58 0 80 24q19 21 19 76v15h56v-282h-56v15q0 55 -19 76q-22 24 -80 24h-24v-275h86q117 0 165 40q13 11 23.5 25.5t16.5 26.5t12.5 33t8.5 31l7 35t6 32h56l-49 -275h-572v52
h90v576h-90v52zM451 895h7q36 0 59 -24t23 -57q0 -31 -21 -52.5t-50 -26.5h-7q-35 0 -58.5 24t-23.5 57q0 30 20 52t51 27zM245 895h7q35 0 58.5 -24t23.5 -57q0 -30 -20.5 -52t-50.5 -27h-7q-36 0 -59 24t-23 57q0 31 21 52.5t50 26.5z" />
    <glyph glyph-name="Igrave" unicode="&#xcc;" horiz-adv-x="420" 
d="M41 687h338v-52h-94v-582h94v-52h-338v52h94v582h-94v52zM273 731q-18 4 -54 9t-40 6q-3 0 -13 2t-14 2.5t-13.5 2.5t-13.5 3.5t-11.5 4.5t-11 6t-9 7.5t-7.5 10t-4 12.5t-2 15q0 26 17.5 47.5t42.5 21.5q12 0 28.5 -8t27.5 -15.5t31.5 -23.5t26.5 -21q4 -3 14 -9.5
t16.5 -11.5t8.5 -9v-2q0 -13 -20 -50z" />
    <glyph glyph-name="Iacute" unicode="&#xcd;" horiz-adv-x="420" 
d="M41 687h338v-52h-94v-582h94v-52h-338v52h94v582h-94v52zM132 731q-20 37 -20 50v2q1 2 5.5 5.5t5.5 4.5q5 3 37 29t59 42.5t46 16.5q25 0 42.5 -21.5t17.5 -47.5q0 -49 -64 -60z" />
    <glyph glyph-name="Icircumflex" unicode="&#xce;" horiz-adv-x="420" 
d="M41 687h338v-52h-94v-582h94v-52h-338v52h94v582h-94v52zM209 900q5 0 11 -6q20 -17 58 -47.5t47 -38.5l22 -18q10 -10 10 -12q0 -4 -5 -9l-18 -24q-8 -8 -9 -8q-5 0 -9 4l-18 12q-8 5 -30.5 22t-37.5 26.5t-20 9.5q-2 0 -5 -2t-4 -2q-15 -11 -78 -53q-25 -17 -28 -17h-2
q-30 30 -30 42v1q1 3 6.5 8t14.5 11.5t12 9.5l102 84q10 7 11 7z" />
    <glyph glyph-name="Idieresis" unicode="&#xcf;" horiz-adv-x="420" 
d="M41 687h338v-52h-94v-582h94v-52h-338v52h94v582h-94v52zM98 895h7q34 0 58 -23t24 -56q0 -30 -19 -52.5t-52 -28.5h-7q-34 0 -58 23.5t-24 55.5q0 31 19.5 53.5t51.5 27.5zM304 895h7q34 0 58 -23.5t24 -55.5q0 -31 -19.5 -53.5t-51.5 -27.5h-7q-34 0 -58 23t-24 56
q0 30 19 52.5t52 28.5z" />
    <glyph glyph-name="Eth" unicode="&#xd0;" horiz-adv-x="814" 
d="M46 687h364q43 0 64 -2q93 -11 158 -64t93.5 -125t28.5 -157q0 -170 -106 -263q-86 -76 -234 -76q-11 0 -32.5 0.5t-32.5 0.5h-303v52h90v259h-54q-2 0 -6.5 -0.5t-6.5 -0.5q-11 0 -17.5 7.5t-6.5 18.5q0 27 31 27h60v271h-90v52zM280 364h143q28 0 28 -27q0 -25 -29 -25
h-142v-259h108q57 0 98.5 18.5t63 44t33.5 66.5t14.5 72.5t2.5 75.5v26q0 53 -3 87t-19.5 77t-48.5 70q-55 45 -143 45h-106v-271z" />
    <glyph glyph-name="Ntilde" unicode="&#xd1;" horiz-adv-x="831" 
d="M46 687h209l24 -2l14 -14l340 -441v369q0 1 0.5 6t0.5 8q0 23 -54 23q-6 0 -18.5 -0.5t-18.5 -0.5v52l67 -3h111l64 3v-52q-5 0 -17.5 0.5t-19.5 0.5q-53 0 -53 -22v-566q0 -2 0.5 -8t0.5 -9q0 -30 -28 -30h-6q-10 0 -18 4.5t-11 7.5t-11.5 15.5t-9.5 13.5q-10 12 -29 37
t-28 37q-21 27 -136 178t-179 229l-24 32q-10 11 -17 23l-1 -508q0 -17 54 -17h36v-52l-67 3h-111l-64 -3v52h34q56 0 56 17v565h-90v52zM209 800q5 8 17 21t14 15q19 21 30.5 31.5t30.5 19.5t40 9q29 0 84 -20t83 -20q18 0 34.5 6.5t23.5 12t25 20.5l31 -27q-5 -8 -17 -21
t-14 -15q-28 -31 -49.5 -45t-51.5 -14h-4q-27 0 -81 19t-83 19q-46 0 -81 -38z" />
    <glyph glyph-name="Ograve" unicode="&#xd2;" horiz-adv-x="797" 
d="M378 701h13q90 0 159 -31.5t108.5 -84t59 -115t19.5 -131.5q0 -168 -102 -266q-92 -86 -235 -86q-156 0 -249 96q-92 95 -92 258q0 90 32.5 169t98.5 127q69 52 188 64zM219 310q1 -6 3.5 -34t3.5 -36.5t4.5 -31.5t8 -35t11.5 -29.5t17 -32.5q22 -34 57.5 -54.5
t74.5 -20.5q40 0 80 25q34 22 55.5 56.5t30 81t10.5 77.5t2 81v6q0 52 -7 97t-24.5 91.5t-55.5 74t-92 27.5q-179 0 -179 -306v-37zM475 731q-53 10 -112 18q-23 3 -38.5 7.5t-29.5 18.5t-14 36q0 27 17.5 48.5t43.5 21.5h2q20 -1 60 -30q62 -46 93 -68z" />
    <glyph glyph-name="Oacute" unicode="&#xd3;" horiz-adv-x="797" 
d="M378 701h13q90 0 159 -31.5t108.5 -84t59 -115t19.5 -131.5q0 -168 -102 -266q-92 -86 -235 -86q-156 0 -249 96q-92 95 -92 258q0 90 32.5 169t98.5 127q69 52 188 64zM219 310q1 -6 3.5 -34t3.5 -36.5t4.5 -31.5t8 -35t11.5 -29.5t17 -32.5q22 -34 57.5 -54.5
t74.5 -20.5q40 0 80 25q34 22 55.5 56.5t30 81t10.5 77.5t2 81v6q0 52 -7 97t-24.5 91.5t-55.5 74t-92 27.5q-179 0 -179 -306v-37zM299 783q31 22 93 68q40 29 60 30h2q26 0 43.5 -21.5t17.5 -48.5q0 -31 -22.5 -44t-59.5 -18q-59 -8 -112 -18z" />
    <glyph glyph-name="Ocircumflex" unicode="&#xd4;" horiz-adv-x="797" 
d="M378 701h13q90 0 159 -31.5t108.5 -84t59 -115t19.5 -131.5q0 -168 -102 -266q-92 -86 -235 -86q-156 0 -249 96q-92 95 -92 258q0 90 32.5 169t98.5 127q69 52 188 64zM219 310q1 -6 3.5 -34t3.5 -36.5t4.5 -31.5t8 -35t11.5 -29.5t17 -32.5q22 -34 57.5 -54.5
t74.5 -20.5q40 0 80 25q34 22 55.5 56.5t30 81t10.5 77.5t2 81v6q0 52 -7 97t-24.5 91.5t-55.5 74t-92 27.5q-179 0 -179 -306v-37zM397 900h1q2 0 12 -7q16 -15 52 -42.5t59.5 -47t23.5 -25.5l-4 -8l-18 -24q-1 -1 -2.5 -3.5t-3 -4t-3.5 -1.5h-2q-5 0 -29 18l-57 39
q-25 16 -26 16h-2q-4 0 -8 -2t-8.5 -6t-6.5 -5l-84 -57q-6 -3 -8 -3h-1l-8 7q-7 8 -15 18.5t-8 16.5v2q1 2 5 5t5 4q17 14 50 41t50 41q29 26 36 28z" />
    <glyph glyph-name="Otilde" unicode="&#xd5;" horiz-adv-x="797" 
d="M378 701h13q90 0 159 -31.5t108.5 -84t59 -115t19.5 -131.5q0 -168 -102 -266q-92 -86 -235 -86q-156 0 -249 96q-92 95 -92 258q0 90 32.5 169t98.5 127q69 52 188 64zM219 310q4 -66 13 -112t35 -87q22 -34 57.5 -54.5t74.5 -20.5q40 0 80 25q34 22 55.5 56.5t30 81
t10.5 77.5t2 81v6q0 52 -7 97t-24.5 91.5t-55.5 74t-92 27.5q-179 0 -179 -306v-37zM192 800q4 6 30 35q19 21 29.5 31t30.5 20t41 10q29 0 84 -20t83 -20q18 0 34.5 6.5t23.5 12t25 20.5l31 -27q-5 -8 -17 -21t-14 -15q-18 -20 -28.5 -29.5t-28 -19t-37.5 -10.5h-3
q-30 0 -86 19t-85 19q-46 0 -81 -38z" />
    <glyph glyph-name="Odieresis" unicode="&#xd6;" horiz-adv-x="797" 
d="M378 701h13q90 0 159 -31.5t108.5 -84t59 -115t19.5 -131.5q0 -168 -102 -266q-92 -86 -235 -86q-156 0 -249 96q-92 95 -92 258q0 90 32.5 169t98.5 127q69 52 188 64zM219 310q1 -6 3.5 -34t3.5 -36.5t4.5 -31.5t8 -35t11.5 -29.5t17 -32.5q22 -34 57.5 -54.5
t74.5 -20.5q40 0 80 25q34 22 55.5 56.5t30 81t10.5 77.5t2 81v6q0 52 -7 97t-24.5 91.5t-55.5 74t-92 27.5q-179 0 -179 -306v-37zM492 895h7q36 0 59 -24t23 -57q0 -34 -25 -56.5t-56 -22.5q-33 0 -56 24t-23 56q0 30 19.5 52.5t51.5 27.5zM286 895h7q33 0 57.5 -23
t24.5 -56q0 -30 -19.5 -52.5t-52.5 -28.5h-8q-35 0 -57.5 24t-22.5 57q0 31 20.5 52.5t50.5 26.5z" />
    <glyph glyph-name="multiply" unicode="&#xd7;" horiz-adv-x="826" 
d="M412 203q-6 -7 -36 -37l-134 -134q-3 -3 -11.5 -12.5t-13.5 -14t-13.5 -9.5t-15.5 -5q-14 0 -24.5 10t-10.5 24q0 15 20 35l175 175q13 13 13 16t-13 16l-175 175q-20 20 -20 35t10 24t24 9q6 0 11 -1.5t10 -5t7.5 -6t8 -8.5t7.5 -8l182 -182q5 7 36 37l132 132
q3 3 12.5 13.5t14.5 15t14 9.5t17 5q13 0 23 -10t10 -24q0 -15 -20 -35l-175 -175q-13 -13 -13 -16t13 -16l175 -175q20 -20 20 -35q0 -13 -10 -23.5t-24 -10.5q-6 0 -11.5 2.5t-12 7.5t-11 9.5t-11.5 12t-11 11.5l-132 132q-31 30 -36 37h-1z" />
    <glyph glyph-name="Oslash" unicode="&#xd8;" horiz-adv-x="826" 
d="M628 748l41 -24l-48 -82q14 -7 39 -30q53 -50 79.5 -121.5t26.5 -149.5v-5q0 -139 -80 -235q-97 -114 -272 -114q-84 0 -169 34l-48 -81l-41 24q8 15 34 57l9 15q2 4 2 6v1q0 3 -4 6t-9.5 6.5t-8.5 6.5q-61 47 -90.5 122t-29.5 159q0 145 79 240q48 59 120.5 88.5
t153.5 29.5q82 0 168 -35zM247 116q52 80 144 237t136 226l16 29q0 16 -48 33.5t-82 17.5q-46 0 -88 -19.5t-68 -55.5q-48 -66 -48 -221v-32q0 -73 6.5 -119.5t31.5 -95.5zM576 570l-24 -40q-42 -74 -127.5 -213t-124.5 -206q-18 -30 -18 -32v-1q1 -4 14 -14q52 -35 116 -35
q96 0 151 67q53 64 53 217v36q0 129 -26 197l-12 24h-2z" />
    <glyph glyph-name="Ugrave" unicode="&#xd9;" horiz-adv-x="817" 
d="M46 687h330v-52h-90v-408q0 -48 4 -72q8 -57 47.5 -86.5t95.5 -29.5q83 0 134 52q47 50 47 144v379q0 22 -52 22q-6 0 -19 -0.5t-19 -0.5v52l68 -3h113l65 3v-52h-34q-56 0 -56 -17v-378q0 -123 -71.5 -188t-180.5 -65q-165 0 -241 96q-51 66 -51 169v383h-90v52z
M485 731q-53 10 -112 18q-23 3 -38.5 7.5t-29.5 18.5t-14 36q0 27 17.5 48.5t43.5 21.5h2q20 -1 60 -30q62 -46 93 -68z" />
    <glyph glyph-name="Uacute" unicode="&#xda;" horiz-adv-x="817" 
d="M46 687h330v-52h-90v-408q0 -48 4 -72q8 -57 47.5 -86.5t95.5 -29.5q83 0 134 52q47 50 47 144v379q0 22 -52 22q-6 0 -19 -0.5t-19 -0.5v52l68 -3h113l65 3v-52h-34q-56 0 -56 -17v-378q0 -123 -71.5 -188t-180.5 -65q-165 0 -241 96q-51 66 -51 169v383h-90v52z
M353 783q31 22 93 68q40 29 60 30h2q26 0 43.5 -21.5t17.5 -48.5q0 -31 -22.5 -44t-59.5 -18q-59 -8 -112 -18z" />
    <glyph glyph-name="Ucircumflex" unicode="&#xdb;" horiz-adv-x="817" 
d="M46 687h330v-52h-90v-408q0 -48 4 -72q8 -57 47.5 -86.5t95.5 -29.5q83 0 134 52q47 50 47 144v379q0 22 -52 22q-6 0 -19 -0.5t-19 -0.5v52l68 -3h113l65 3v-52h-34q-56 0 -56 -17v-378q0 -123 -71.5 -188t-180.5 -65q-165 0 -241 96q-51 66 -51 169v383h-90v52z
M428 900q5 0 11 -6q19 -17 58 -48t46 -37l23 -19q1 -1 5 -4t5 -5v-2q0 -3 -5 -10l-18 -24q-5 -8 -9 -8q-5 0 -9 4l-18 12q-8 5 -30.5 22t-37.5 26.5t-20 9.5q-2 0 -5 -2t-4 -2q-15 -11 -78 -53l-20 -14q-3 -3 -8 -3h-2q-3 1 -16.5 18.5t-13.5 23.5v1q1 4 9 9q59 50 104 85
l22 19q10 7 11 7z" />
    <glyph glyph-name="Udieresis" unicode="&#xdc;" horiz-adv-x="817" 
d="M46 687h330v-52h-90v-408q0 -48 4 -72q8 -57 47.5 -86.5t95.5 -29.5q83 0 134 52q47 50 47 144v379q0 22 -52 22q-6 0 -19 -0.5t-19 -0.5v52l68 -3h113l65 3v-52h-34q-56 0 -56 -17v-378q0 -123 -71.5 -188t-180.5 -65q-165 0 -241 96q-51 66 -51 169v383h-90v52z
M502 895h7q33 0 57.5 -23t24.5 -56q0 -30 -19.5 -53t-51.5 -28h-7q-36 0 -59 24t-23 57q0 30 20.5 52t50.5 27zM296 895h7q36 0 59 -24t23 -57q0 -30 -20.5 -52t-50.5 -27h-7q-33 0 -57.5 23t-24.5 56q0 30 19.5 53t51.5 28z" />
    <glyph glyph-name="Yacute" unicode="&#xdd;" horiz-adv-x="802" 
d="M20 687h320v-52h-67l173 -276h2q2 3 15 25l26 41q44 72 83 133q2 4 15 22t19.5 29.5t6.5 16.5q-5 9 -59 9v52l68 -3h105l55 3v-52q-59 0 -75 -6.5t-33 -33.5l-6 -9q-29 -47 -83 -132.5t-71 -112.5l-27 -44q-14 -19 -14 -34v-210h90v-52h-324v52h90v220l-227 362h-82v52z
M346 783q31 22 93 68q40 29 60 30h2q26 0 43.5 -21.5t17.5 -48.5q0 -31 -22.5 -44t-59.5 -18q-59 -8 -112 -18z" />
    <glyph glyph-name="Thorn" unicode="&#xde;" horiz-adv-x="666" 
d="M46 687h318v-52h-90v-68h133q91 -5 145.5 -58.5t54.5 -134.5q0 -102 -75 -155q-59 -40 -175 -40h-83v-126h90v-52h-318v52h90v582h-90v52zM274 231h62q49 0 70 16q47 35 47 126q0 142 -90 142h-89v-284z" />
    <glyph glyph-name="germandbls" unicode="&#xdf;" horiz-adv-x="597" 
d="M89 445v128q11 129 211 129q178 0 178 -148q0 -121 -67 -134q-21 -3 -30 -5t-20.5 -8.5t-15.5 -18.5t-4 -32q0 -7 4 -19q6 -16 20 -26t26 -13t32.5 -6.5t29.5 -5.5q48 -16 78 -56t30 -90q0 -75 -45 -110.5t-111 -35.5q-23 0 -39 4q-6 1 -18.5 7.5t-16.5 6.5h-2
q-5 0 -19 -9t-25 -9q-21 0 -21 25v109q0 14 5 21t22 7h5q6 0 10.5 -1.5t6.5 -3t4.5 -6t3 -6.5l2 -8t1.5 -8q17 -87 78 -87q36 0 58.5 17t22.5 52q0 42 -35 63q-16 10 -49.5 16t-40.5 8q-40 13 -66.5 47.5t-27.5 76.5v5q0 53 27 90.5t84 43.5q30 0 38.5 18t8.5 53v23
q0 57 -23 81q-31 31 -101 31q-44 0 -68.5 -21.5t-24.5 -73.5v-565q-35 4 -79 4q-17 0 -51.5 -2t-51.5 -2v52h66v340h-66v52h66z" />
    <glyph glyph-name="agrave" unicode="&#xe0;" horiz-adv-x="516" 
d="M173 408q22 -22 22 -52q0 -28 -19.5 -48t-47.5 -20q-29 0 -49 19.5t-20 50.5q0 98 177 98q48 0 90.5 -11.5t77.5 -45t40 -84.5v-234q0 -15 11 -20.5t24.5 -5t24.5 -5.5t11 -21q0 -13 -5 -19.5t-10.5 -7.5t-16.5 -1h-32q-23 0 -36.5 1.5t-31 7t-28 19.5t-15.5 37
q-15 -35 -53 -53.5t-79 -18.5q-40 0 -78 10t-69.5 38.5t-31.5 70.5q0 44 28.5 76.5t75.5 49t94 23.5t95 7v20q0 125 -92 125zM322 231q-7 -2 -20 -3t-17 -2q-52 -7 -92 -35.5t-40 -75.5q0 -35 20.5 -57t49.5 -22q44 0 71.5 29.5t27.5 75.5v90zM223 665h5q14 0 30 -10.5
t26.5 -21.5t26.5 -30.5t22 -25.5q34 -34 34 -39l-3 -6q-18 -36 -28 -39q-3 0 -8 2t-6 2q-18 8 -53 20.5t-50 18.5q-18 7 -27.5 12t-20 17.5t-10.5 30.5q0 25 18.5 46.5t43.5 22.5z" />
    <glyph glyph-name="aacute" unicode="&#xe1;" horiz-adv-x="516" 
d="M173 408q22 -22 22 -52q0 -28 -19.5 -48t-47.5 -20q-29 0 -49 19.5t-20 50.5q0 98 177 98q48 0 90.5 -11.5t77.5 -45t40 -84.5v-234q0 -15 11 -20.5t24.5 -5t24.5 -5.5t11 -21q0 -13 -5 -19.5t-10.5 -7.5t-16.5 -1h-32q-23 0 -36.5 1.5t-31 7t-28 19.5t-15.5 37
q-15 -35 -53 -53.5t-79 -18.5q-40 0 -78 10t-69.5 38.5t-31.5 70.5q0 44 28.5 76.5t75.5 49t94 23.5t95 7v20q0 125 -92 125zM322 231q-7 -2 -20 -3t-17 -2q-52 -7 -92 -35.5t-40 -75.5q0 -35 20.5 -57t49.5 -22q44 0 71.5 29.5t27.5 75.5v90zM301 665h4q26 0 44.5 -21.5
t18.5 -47.5q0 -17 -9.5 -30t-19.5 -18t-27 -12q-40 -14 -74 -28q-5 -1 -21 -8t-22 -7q-1 0 -9 8.5t-15.5 20t-7.5 16.5q0 6 81 90q31 35 57 37z" />
    <glyph glyph-name="acircumflex" unicode="&#xe2;" horiz-adv-x="516" 
d="M173 408q22 -22 22 -52q0 -28 -19.5 -48t-47.5 -20q-29 0 -49 19.5t-20 50.5q0 98 177 98q48 0 90.5 -11.5t77.5 -45t40 -84.5v-234q0 -15 11 -20.5t24.5 -5t24.5 -5.5t11 -21q0 -13 -5 -19.5t-10.5 -7.5t-16.5 -1h-32q-23 0 -36.5 1.5t-31 7t-28 19.5t-15.5 37
q-15 -35 -53 -53.5t-79 -18.5q-40 0 -78 10t-69.5 38.5t-31.5 70.5q0 44 28.5 76.5t75.5 49t94 23.5t95 7v20q0 125 -92 125zM322 231q-7 -2 -20 -3t-17 -2q-52 -7 -92 -35.5t-40 -75.5q0 -35 20.5 -57t49.5 -22q44 0 71.5 29.5t27.5 75.5v90zM122 471l-26 28l-9 13l31 34
l118 113l118 -113l31 -34l-9 -13l-27 -28l-103 92l-10 6l-10 -6z" />
    <glyph glyph-name="atilde" unicode="&#xe3;" horiz-adv-x="516" 
d="M173 408q22 -22 22 -52q0 -28 -19.5 -48t-47.5 -20q-29 0 -49 19.5t-20 50.5q0 98 177 98q48 0 90.5 -11.5t77.5 -45t40 -84.5v-234q0 -15 11 -20.5t24.5 -5t24.5 -5.5t11 -21q0 -13 -5 -19.5t-10.5 -7.5t-16.5 -1h-32q-23 0 -36.5 1.5t-31 7t-28 19.5t-15.5 37
q-15 -35 -53 -53.5t-79 -18.5q-40 0 -78 10t-69.5 38.5t-31.5 70.5q0 44 28.5 76.5t75.5 49t94 23.5t95 7v20q0 125 -92 125zM88 600q2 4 30 37q16 20 26 30t27 19t36 9q23 0 66.5 -18.5t66.5 -18.5q40 0 69 37l33 -26q-2 -4 -30 -37q-16 -20 -26 -30t-27 -19t-36 -9
q-23 0 -66.5 18.5t-66.5 18.5q-40 0 -69 -37zM322 231q-7 -2 -20 -3t-17 -2q-52 -7 -92 -35.5t-40 -75.5q0 -35 20.5 -57t49.5 -22q44 0 71.5 29.5t27.5 75.5v90z" />
    <glyph glyph-name="adieresis" unicode="&#xe4;" horiz-adv-x="516" 
d="M173 408q22 -22 22 -52q0 -28 -19.5 -48t-47.5 -20q-29 0 -49 19.5t-20 50.5q0 98 177 98q48 0 90.5 -11.5t77.5 -45t40 -84.5v-234q0 -15 11 -20.5t24.5 -5t24.5 -5.5t11 -21q0 -13 -5 -19.5t-10.5 -7.5t-16.5 -1h-32q-23 0 -36.5 1.5t-31 7t-28 19.5t-15.5 37
q-15 -35 -53 -53.5t-79 -18.5q-40 0 -78 10t-69.5 38.5t-31.5 70.5q0 44 28.5 76.5t75.5 49t94 23.5t95 7v20q0 125 -92 125zM322 231q-7 -2 -20 -3t-17 -2q-52 -7 -92 -35.5t-40 -75.5q0 -35 20.5 -57t49.5 -22q44 0 71.5 29.5t27.5 75.5v90zM153 687h7q34 0 58 -23t24 -56
q0 -31 -19.5 -53.5t-51.5 -27.5h-7q-34 0 -58 23.5t-24 55.5q0 31 19.5 53.5t51.5 27.5zM359 687h7q34 0 58 -23.5t24 -55.5q0 -31 -19.5 -53.5t-51.5 -27.5h-7q-35 0 -58.5 23.5t-23.5 55.5q0 30 19 52.5t52 28.5z" />
    <glyph glyph-name="aring" unicode="&#xe5;" horiz-adv-x="516" 
d="M173 408q22 -22 22 -52q0 -28 -19.5 -48t-47.5 -20q-29 0 -49 19.5t-20 50.5q0 98 177 98q48 0 90.5 -11.5t77.5 -45t40 -84.5v-234q0 -15 11 -20.5t24.5 -5t24.5 -5.5t11 -21q0 -13 -5 -19.5t-10.5 -7.5t-16.5 -1h-32q-23 0 -36.5 1.5t-31 7t-28 19.5t-15.5 37
q-15 -35 -53 -53.5t-79 -18.5q-40 0 -78 10t-69.5 38.5t-31.5 70.5q0 44 28.5 76.5t75.5 49t94 23.5t95 7v20q0 125 -92 125zM221 664q3 0 8 0.5t7 0.5q45 0 80.5 -22t35.5 -65q0 -45 -35 -66.5t-83 -21.5q-45 0 -80 22t-35 65q0 39 29 60.5t73 26.5zM322 231q-7 -2 -20 -3
t-17 -2q-52 -7 -92 -35.5t-40 -75.5q0 -35 20.5 -57t49.5 -22q44 0 71.5 29.5t27.5 75.5v90zM175 562q3 -17 13.5 -25.5t20 -10t26.5 -1.5h5q57 0 57 51q0 19 -5 30.5t-15.5 16t-18.5 5.5t-22 1h-5q-57 0 -57 -51q0 -11 1 -16z" />
    <glyph glyph-name="ae" unicode="&#xe6;" horiz-adv-x="767" 
d="M173 408q22 -22 22 -52q0 -29 -19.5 -48.5t-48.5 -19.5q-28 0 -48 18.5t-20 49.5q0 100 180 100q100 0 160 -51q25 25 67 38.5t84 13.5q80 0 130 -47q58 -58 58 -168q0 -29 -26 -29h-268q0 -72 31.5 -122t95.5 -50q66 0 102 59q2 4 5 12.5t5 12.5t8.5 8t16.5 4
q27 0 29 -18v-3q0 -9 -6 -21q-19 -49 -66.5 -75t-103.5 -26q-78 0 -143 40q-2 2 -7 6t-9 6.5t-6 3.5h-2q-1 0 -7 -4q-65 -52 -171 -52q-30 0 -59 5t-59.5 16t-49.5 34.5t-19 56.5q0 42 29 72.5t77 44.5t93.5 20t93.5 6q0 6 0.5 19.5t0.5 20.5q0 125 -93 125zM444 252h194
q0 27 -3.5 52t-12.5 51.5t-27.5 42.5t-45.5 16q-56 0 -80.5 -49t-24.5 -113zM323 209q-36 0 -72.5 -9t-67 -33.5t-30.5 -60.5q0 -30 21.5 -50t47.5 -20q38 0 78.5 22.5t40.5 62.5v3q0 1 -9 28q-9 32 -9 57z" />
    <glyph glyph-name="ccedilla" unicode="&#xe7;" horiz-adv-x="472" 
d="M204 1q-29 4 -64 24q-52 30 -78.5 83t-26.5 114q0 114 67.5 174t165.5 60q37 0 71 -7.5t62.5 -31t28.5 -60.5q0 -28 -18.5 -48.5t-50.5 -20.5q-30 0 -48.5 20.5t-18.5 47.5t19 49q-28 4 -42 4q-28 0 -48 -13t-29.5 -29.5t-15 -44t-6.5 -45t-1 -42.5v-8q0 -186 112 -186
q47 0 77 33q6 7 13.5 23.5t15.5 26.5t19 10h19q15 -8 15 -18q0 -16 -15 -38q-15 -28 -43.5 -49.5t-58.5 -26.5l1 -31q37 -6 62.5 -26.5t25.5 -55.5q0 -31 -22 -51.5t-62 -28.5t-71 -10.5t-73 -2.5h-70v42h39q137 0 137 50q0 27 -27 38.5t-61 11.5v63z" />
    <glyph glyph-name="egrave" unicode="&#xe8;" horiz-adv-x="495" 
d="M165 213q0 -76 18 -112q33 -60 104 -60q34 0 64.5 15.5t48.5 42.5l6.5 13l5.5 11t5 7.5t7.5 5t11.5 1.5q30 0 30 -21q0 -7 -3 -13q-20 -51 -67.5 -78.5t-105.5 -30.5h-17q-117 0 -183 70q-62 65 -62 164q0 88 53 152q62 76 182 76q104 0 154 -60q50 -58 50 -155
q0 -28 -27 -28h-275zM165 252h202q0 39 -7.5 72.5t-32 61t-63.5 27.5q-99 0 -99 -161zM236 665h2q14 0 30 -10t26 -20.5t27 -30.5t23 -26q35 -35 35 -40l-3 -6q-18 -36 -28 -39q-2 0 -7 2t-6 2q-20 6 -56 20t-50 19q-17 6 -27.5 12t-19.5 18.5t-9 29.5q0 26 19 47t44 22z
" />
    <glyph glyph-name="eacute" unicode="&#xe9;" horiz-adv-x="495" 
d="M165 213q0 -76 18 -112q33 -60 104 -60q34 0 64.5 15.5t48.5 42.5l6.5 13l5.5 11t5 7.5t7.5 5t11.5 1.5q30 0 30 -21q0 -7 -3 -13q-20 -51 -67.5 -78.5t-105.5 -30.5h-17q-117 0 -183 70q-62 65 -62 164q0 88 53 152q62 76 182 76q104 0 154 -60q50 -58 50 -155
q0 -28 -27 -28h-275zM165 252h202q0 39 -7.5 72.5t-32 61t-63.5 27.5q-99 0 -99 -161zM285 665h2q26 0 45 -21.5t19 -47.5q0 -23 -15 -36t-41 -24q-13 -4 -38 -14t-38 -14q-4 -1 -20 -8t-22 -7q-1 0 -9 8.5t-15.5 20t-7.5 16.5t35 40q6 6 23 26t27 30.5t25.5 20.5t29.5 10z
" />
    <glyph glyph-name="ecircumflex" unicode="&#xea;" horiz-adv-x="495" 
d="M165 213q0 -76 18 -112q33 -60 104 -60q34 0 64.5 15.5t48.5 42.5l6.5 13l5.5 11t5 7.5t7.5 5t11.5 1.5q30 0 30 -21q0 -7 -3 -13q-20 -51 -67.5 -78.5t-105.5 -30.5h-17q-117 0 -183 70q-62 65 -62 164q0 88 53 152q62 76 182 76q104 0 154 -60q50 -58 50 -155
q0 -28 -27 -28h-275zM165 252h202q0 39 -7.5 72.5t-32 61t-63.5 27.5q-99 0 -99 -161zM134 471l-26 28l-9 13l7 10l142 137l11 -8l109 -107l29 -32l-8 -12l-28 -29l-103 92l-10 6l-10 -6z" />
    <glyph glyph-name="edieresis" unicode="&#xeb;" horiz-adv-x="495" 
d="M165 213q0 -76 18 -112q33 -60 104 -60q34 0 64.5 15.5t48.5 42.5l6.5 13l5.5 11t5 7.5t7.5 5t11.5 1.5q30 0 30 -21q0 -7 -3 -13q-20 -51 -67.5 -78.5t-105.5 -30.5h-17q-117 0 -183 70q-62 65 -62 164q0 88 53 152q62 76 182 76q104 0 154 -60q50 -58 50 -155
q0 -28 -27 -28h-275zM165 252h202q0 39 -7.5 72.5t-32 61t-63.5 27.5q-99 0 -99 -161zM135 687h8q35 0 58 -24t23 -56q0 -29 -19 -52t-51 -28h-8q-38 0 -59.5 24.5t-21.5 55.5q0 29 19 52t51 28zM341 687h8q37 0 59 -24t22 -56q0 -31 -19.5 -52.5t-50.5 -27.5h-8
q-35 0 -58 24t-23 56q0 29 19 52t51 28z" />
    <glyph glyph-name="igrave" unicode="&#xec;" horiz-adv-x="295" 
d="M39 444l38 8h140v-399h59v-52l-62 3h-110l-69 -3v52h66v308q0 31 -43 31h-19v52zM173 492q-6 1 -31 11l-91 34q-54 19 -54 60q0 26 20 47.5t47 21.5q13 0 29 -11t26 -21.5t28 -32t23 -26.5q31 -31 32 -37q0 -4 -5 -11.5t-13 -18.5t-11 -16z" />
    <glyph glyph-name="iacute" unicode="&#xed;" horiz-adv-x="295" 
d="M39 444l38 8h140v-399h59v-52l-62 3h-110l-69 -3v52h66v308q0 31 -43 31h-19v52zM115 492q-3 5 -11 16t-13 18.5t-5 11.5q1 6 32 37q5 5 23 26.5t28 32t26 21.5t29 11q27 0 47 -21.5t20 -47.5q0 -41 -54 -60l-91 -34q-25 -10 -31 -11z" />
    <glyph glyph-name="icircumflex" unicode="&#xee;" horiz-adv-x="295" 
d="M39 444l38 8h140v-399h59v-52l-62 3h-110l-69 -3v52h66v308q0 31 -43 31h-19v52zM158 659h1q3 0 12 -9l31 -31q11 -11 40.5 -38t47.5 -45.5t18 -23.5q0 -3 -14 -19.5t-21 -18.5h-2q-3 0 -8 5q-12 10 -25.5 21.5t-29 26t-24.5 22.5q-18 18 -24 20q-6 0 -24 -18
q-10 -9 -32 -28t-32 -29q-23 -20 -25 -20h-2q-1 0 -9.5 7t-17 16.5t-8.5 14.5v1q1 3 8 10q17 17 52.5 51.5t52.5 51.5l24 24q8 8 11 9z" />
    <glyph glyph-name="idieresis" unicode="&#xef;" horiz-adv-x="354" 
d="M69 444l38 8h140v-399h59v-52l-62 3h-110l-69 -3v52h66v308q0 31 -43 31h-19v52zM77 687h7q37 0 59.5 -24.5t22.5 -54.5t-19 -52.5t-52 -28.5h-7q-34 0 -58 23.5t-24 55.5q0 31 19.5 53.5t51.5 27.5zM283 687h7q34 0 58 -23.5t24 -55.5q0 -31 -19.5 -53.5t-51.5 -27.5h-7
q-37 0 -59.5 24.5t-22.5 54.5t19 52.5t52 28.5z" />
    <glyph glyph-name="eth" unicode="&#xf0;" 
d="M189 602q-56 33 -83 44q-1 1 -5 2t-6 2t-5.5 3t-5 3.5t-3 4.5t-1.5 7q0 11 10.5 19t21.5 8q45 0 111 -27q8 -2 23 -10t21 -9h2q10 0 42 22t45 24h1q9 0 17 -10t8 -20q0 -16 -65 -47v-2q4 -2 25 -18q84 -73 121.5 -158t37.5 -194v-28q0 -110 -69.5 -167t-171.5 -57
q-112 0 -171.5 67.5t-59.5 159.5q0 108 68.5 171.5t164.5 63.5q28 0 63 -15q-36 63 -63 94q-3 3 -9 10t-11 12t-10 8h-2q-4 0 -6 -1l-15 -9q-52 -33 -62 -33h-2q-9 0 -16.5 9.5t-7.5 19.5q0 19 68 49v2zM165 189q0 -4 2 -25.5t3.5 -30t6.5 -24t12 -26.5q26 -42 77 -42
q34 0 55.5 16.5t30 47.5t11 53.5t2.5 55.5v14q0 26 -3.5 52t-13 59.5t-31.5 54t-54 20.5q-98 0 -98 -164v-61z" />
    <glyph glyph-name="ntilde" unicode="&#xf1;" horiz-adv-x="590" 
d="M32 444l59 8h117l1 -98q15 40 62 69t94 29q96 0 130 -54q20 -33 20 -100v-245h66v-52l-67 3h-116l-71 -3v52h66v266q0 91 -38 91q-62 0 -98.5 -49.5t-36.5 -113.5v-194h66v-52l-71 3h-116l-67 -3v52h66v307q0 32 -43 32h-23v52zM130 600q2 4 30 37q17 21 25 29.5
t25.5 18.5t36.5 10q24 0 68 -18.5t67 -18.5q39 0 68 37l33 -26q-2 -4 -30 -37q-17 -21 -25 -29.5t-25.5 -18.5t-36.5 -10q-24 0 -68 18.5t-67 18.5q-39 0 -68 -37z" />
    <glyph glyph-name="ograve" unicode="&#xf2;" 
d="M248 456h11q107 0 174.5 -65t67.5 -169q0 -102 -60 -163q-65 -65 -177 -65q-92 0 -153 46q-82 60 -82 180q0 205 219 236zM165 182q1 -8 2 -25t2 -27.5t5 -24.5t11 -24q27 -40 80 -40q55 0 82 42q19 31 19 101v34q0 37 -1 60.5t-7 52t-16 44.5t-29.5 27.5t-47.5 11.5
q-34 0 -56 -14t-30.5 -42t-11 -50t-2.5 -58v-68zM223 665h5q14 0 30 -10.5t26.5 -21.5t26.5 -30.5t22 -25.5q34 -34 34 -39l-3 -6q-18 -36 -28 -39q-3 0 -8 2t-6 2q-18 8 -53 20.5t-50 18.5q-18 7 -27.5 12t-20 17.5t-10.5 30.5q0 25 18.5 46.5t43.5 22.5z" />
    <glyph glyph-name="oacute" unicode="&#xf3;" 
d="M248 456h11q107 0 174.5 -65t67.5 -169q0 -102 -60 -163q-65 -65 -177 -65q-92 0 -153 46q-82 60 -82 180q0 205 219 236zM165 182q1 -8 2 -25t2 -27.5t5 -24.5t11 -24q27 -40 80 -40q55 0 82 42q19 31 19 101v34q0 37 -1 60.5t-7 52t-16 44.5t-29.5 27.5t-47.5 11.5
q-34 0 -56 -14t-30.5 -42t-11 -50t-2.5 -58v-68zM301 665h4q26 0 44.5 -21.5t18.5 -47.5q0 -17 -9.5 -30t-19.5 -18t-27 -12q-40 -14 -74 -28q-5 -1 -21 -8t-22 -7q-1 0 -9 8.5t-15.5 20t-7.5 16.5q0 6 81 90q31 35 57 37z" />
    <glyph glyph-name="ocircumflex" unicode="&#xf4;" 
d="M248 456h11q107 0 174.5 -65t67.5 -169q0 -102 -60 -163q-65 -65 -177 -65q-92 0 -153 46q-82 60 -82 180q0 205 219 236zM165 182q1 -8 2 -25t2 -27.5t5 -24.5t11 -24q27 -40 80 -40q55 0 82 42q19 31 19 101v34q0 37 -1 60.5t-7 52t-16 44.5t-29.5 27.5t-47.5 11.5
q-34 0 -56 -14t-30.5 -42t-11 -50t-2.5 -58v-68zM151 471l-26 28l-9 13l31 34l118 113l118 -113l31 -34l-9 -13l-27 -28l-103 92l-10 6l-10 -6z" />
    <glyph glyph-name="otilde" unicode="&#xf5;" 
d="M248 456h11q107 0 174.5 -65t67.5 -169q0 -102 -60 -163q-65 -65 -177 -65q-92 0 -153 46q-82 60 -82 180q0 205 219 236zM165 182q1 -8 2 -25t2 -27.5t5 -24.5t11 -24q27 -40 80 -40q55 0 82 42q19 31 19 101v34q0 37 -1 60.5t-7 52t-16 44.5t-29.5 27.5t-47.5 11.5
q-34 0 -56 -14t-30.5 -42t-11 -50t-2.5 -58v-68zM88 600q2 4 30 37q16 20 26 30t27 19t36 9q23 0 66.5 -18.5t66.5 -18.5q40 0 69 37l33 -26q-2 -4 -30 -37q-16 -20 -26 -30t-27 -19t-36 -9q-23 0 -66.5 18.5t-66.5 18.5q-40 0 -69 -37z" />
    <glyph glyph-name="odieresis" unicode="&#xf6;" 
d="M248 456h11q107 0 174.5 -65t67.5 -169q0 -102 -60 -163q-65 -65 -177 -65q-92 0 -153 46q-82 60 -82 180q0 205 219 236zM165 182q1 -8 2 -25t2 -27.5t5 -24.5t11 -24q27 -40 80 -40q55 0 82 42q19 31 19 101v34q0 37 -1 60.5t-7 52t-16 44.5t-29.5 27.5t-47.5 11.5
q-34 0 -56 -14t-30.5 -42t-11 -50t-2.5 -58v-68zM153 687h7q34 0 58 -23t24 -56q0 -31 -19.5 -53.5t-51.5 -27.5h-7q-34 0 -58 23.5t-24 55.5q0 31 19.5 53.5t51.5 27.5zM359 687h7q34 0 58 -23.5t24 -55.5q0 -31 -19.5 -53.5t-51.5 -27.5h-7q-35 0 -58.5 23.5t-23.5 55.5
q0 30 19 52.5t52 28.5z" />
    <glyph glyph-name="divide" unicode="&#xf7;" horiz-adv-x="826" 
d="M87 284q3 1 11 1h626q42 0 42 -35q0 -33 -43 -33h-620q-44 0 -44 33q0 12 8 22t20 12zM403 609h8q43 0 70.5 -29t27.5 -68q0 -37 -24.5 -63.5t-62.5 -32.5h-8q-43 0 -70.5 29t-27.5 68q0 37 24.5 63.5t62.5 32.5zM403 86h8q43 0 70.5 -29t27.5 -68q0 -37 -24.5 -63.5
t-62.5 -32.5h-8q-43 0 -70.5 29t-27.5 68q0 37 24.5 63.5t62.5 32.5z" />
    <glyph glyph-name="oslash" unicode="&#xf8;" 
d="M421 553l26 -14l9 -6l-58 -112q50 -23 76.5 -81t26.5 -120q0 -106 -68 -166t-167 -60q-58 0 -95 15l-62 -115l-35 20l2 9l57 103q-51 26 -77.5 79t-26.5 114q0 116 68.5 176.5t165.5 60.5q47 0 97 -16zM167 89l120 218l47 86q-5 2 -14 6t-14 6t-12 4.5t-14 3.5t-14 1
q-31 0 -53.5 -11.5t-34 -27t-18 -40.5t-8 -43t-1.5 -44v-39q0 -79 16 -120zM197 55q38 -19 69 -19q65 0 94 48q19 32 19 102v64q0 72 -17 108z" />
    <glyph glyph-name="ugrave" unicode="&#xf9;" horiz-adv-x="590" 
d="M32 444l40 8h148v-351q0 -26 4 -39q8 -26 65 -26h10q41 5 65 36.5t29 74.5v214q0 32 -43 32q-4 0 -12 -0.5t-11 -0.5v52l40 8h148v-367q0 -20 12 -26t34 -6h20v-52l-44 -7h-138l-1 63q-13 -26 -41.5 -43t-59.5 -20h-16q-102 0 -142.5 34t-40.5 106v235q-4 23 -46 23h-20
v52zM250 665h5q14 0 30 -10.5t26.5 -21.5t26.5 -30.5t22 -25.5q34 -34 34 -39l-3 -6q-18 -36 -28 -39q-3 0 -8 2t-6 2q-18 8 -53 20.5t-50 18.5q-18 7 -27.5 12t-20 17.5t-10.5 30.5q0 25 18.5 46.5t43.5 22.5z" />
    <glyph glyph-name="uacute" unicode="&#xfa;" horiz-adv-x="590" 
d="M32 444l40 8h148v-351q0 -26 4 -39q8 -26 65 -26h10q41 5 65 36.5t29 74.5v214q0 32 -43 32q-4 0 -12 -0.5t-11 -0.5v52l40 8h148v-367q0 -20 12 -26t34 -6h20v-52l-44 -7h-138l-1 63q-13 -26 -41.5 -43t-59.5 -20h-16q-102 0 -142.5 34t-40.5 106v235q-4 23 -46 23h-20
v52zM342 665h4q26 0 44.5 -21.5t18.5 -47.5q0 -17 -9.5 -30t-19.5 -18t-27 -12q-40 -14 -74 -28q-5 -1 -21 -8t-22 -7q-1 0 -9 8.5t-15.5 20t-7.5 16.5q0 6 81 90q31 35 57 37z" />
    <glyph glyph-name="ucircumflex" unicode="&#xfb;" horiz-adv-x="590" 
d="M32 444l40 8h148v-351q0 -26 4 -39q8 -26 65 -26h10q41 5 65 36.5t29 74.5v214q0 32 -43 32q-4 0 -12 -0.5t-11 -0.5v52l40 8h148v-367q0 -20 12 -26t34 -6h20v-52l-44 -7h-138l-1 63q-13 -26 -41.5 -43t-59.5 -20h-16q-102 0 -142.5 34t-40.5 106v235q-4 23 -46 23h-20
v52zM193 471l-26 28l-9 13l8 11l141 136l11 -8l108 -106l30 -33l-9 -13l-27 -28l-103 92l-10 6l-10 -6z" />
    <glyph glyph-name="udieresis" unicode="&#xfc;" horiz-adv-x="590" 
d="M32 444l40 8h148v-351q0 -26 4 -39q8 -26 65 -26h10q41 5 65 36.5t29 74.5v214q0 32 -43 32q-4 0 -12 -0.5t-11 -0.5v52l40 8h148v-367q0 -20 12 -26t34 -6h20v-52l-44 -7h-138l-1 63q-13 -26 -41.5 -43t-59.5 -20h-16q-102 0 -142.5 34t-40.5 106v235q-4 23 -46 23h-20
v52zM194 687h7q37 0 59.5 -23.5t22.5 -56.5q0 -30 -20 -52.5t-50 -27.5h-8q-38 0 -59.5 24.5t-21.5 55.5q0 29 18.5 51.5t51.5 28.5zM400 687h8q38 0 59.5 -24.5t21.5 -55.5q0 -29 -18.5 -51.5t-51.5 -28.5h-7q-36 0 -59 23.5t-23 56.5q0 30 20 52.5t50 27.5z" />
    <glyph glyph-name="yacute" unicode="&#xfd;" horiz-adv-x="560" 
d="M25 445l62 -3h109l66 3v-52h-50l100 -242l95 233l-11 6l-34 3v52l53 -3h77l43 3v-52h-21q-39 0 -48 -21l-10 -24q-31 -68 -85 -199.5t-62 -150.5q-41 -97 -65 -129q-49 -69 -123 -69q-41 0 -70.5 29t-29.5 70q0 26 17.5 44.5t45.5 18.5q26 0 44.5 -17t18.5 -46
q0 -47 -35 -56v-1q25 0 44.5 9t33.5 28t21 33t18 40l13 32q6 15 6 16l-3 12l-35 84q-12 30 -51.5 123t-60.5 144q0 1 -1.5 4.5t-2 5t-1.5 5t-2 5t-3 4t-3.5 3.5t-4 2t-5.5 1h-50v52zM377 665h2q26 0 45 -21.5t19 -47.5q0 -23 -15 -36t-41 -24q-13 -4 -38 -14t-38 -14
q-4 -1 -20 -8t-22 -7q-1 0 -9 8.5t-15.5 20t-7.5 16.5t35 40q6 6 23 26t27 30.5t25.5 20.5t29.5 10zM91 -144q9 -11 20 -12z" />
    <glyph glyph-name="thorn" unicode="&#xfe;" horiz-adv-x="590" 
d="M23 694l39 8h143v-291q64 37 118 41h15q95 0 156 -65t61 -161q0 -115 -70 -173.5t-168 -58.5q-51 0 -106 35v-170h66v-52l-71 3h-116l-67 -3v52h66v750q0 20 -11.5 26.5t-31.5 6.5h-23v52zM417 201q1 7 1 20q0 25 -3 49.5t-11.5 58.5t-30.5 55t-55 21t-68 -20.5
t-39 -41.5v-232q0 -28 33 -51.5t66 -23.5q93 0 107 165z" />
    <glyph glyph-name="ydieresis" unicode="&#xff;" horiz-adv-x="560" 
d="M25 445l62 -3h109l66 3v-52h-50l100 -242l95 233l-11 6l-34 3v52l53 -3h77l43 3v-52h-21q-39 0 -48 -21l-10 -24q-31 -68 -85 -199.5t-62 -150.5q-41 -97 -65 -129q-49 -69 -123 -69q-41 0 -70.5 29t-29.5 70q0 26 17.5 44.5t45.5 18.5q26 0 44.5 -17t18.5 -46
q0 -47 -35 -56v-1q25 0 44.5 9t33.5 28t21 33t18 40l13 32q6 15 6 16l-3 12l-35 84q-12 30 -51.5 123t-60.5 144q0 1 -1.5 4.5t-2 5t-1.5 5t-2 5t-3 4t-3.5 3.5t-4 2t-5.5 1h-50v52zM168 687h7q33 0 57.5 -22.5t24.5 -55.5q0 -31 -19.5 -53.5t-52.5 -28.5h-8q-35 0 -57.5 24
t-22.5 57q0 31 20.5 52.5t50.5 26.5zM374 687h7q36 0 59 -24t23 -57q0 -34 -25 -56.5t-56 -22.5q-32 0 -55.5 24t-23.5 55q0 30 19.5 53t51.5 28zM91 -144q9 -11 20 -12z" />
    <glyph glyph-name="Abreve" unicode="&#x102;" horiz-adv-x="802" 
d="M39 53q39 0 59 2q6 1 10 2.5t7.5 2.5t6 4t4 4.5t4 6.5t3 7t3 9t3.5 10l35 94q30 77 88 232t88 233l3 9q3 9 4 10.5t4.5 8t7 8.5t9.5 4t13 2h14q31 0 42 -28q9 -27 28.5 -77.5t23.5 -61.5l167 -443q2 -4 5 -12.5t5 -12.5q4 -15 17 -15q2 0 6 0.5t5 0.5h59v-52h-313v52h77
q-6 17 -18 48.5t-16 42.5l-9 24q0 1 -2 5t-3 5t-3.5 2.5t-6.5 1.5h-220q-10 0 -13 -11l-30 -81q-9 -16 -9 -25q0 -12 62 -12h10v-52l-68 3h-105l-57 -3v52zM260 234h199l-99 264zM233 895h42q1 -20 13 -34.5t31 -21.5t38 -10t39 -3q128 0 131 69h42q0 -63 -51.5 -100.5
t-115.5 -37.5q-65 0 -117 38t-52 100z" />
    <glyph glyph-name="abreve" unicode="&#x103;" horiz-adv-x="516" 
d="M173 408q22 -22 22 -52q0 -28 -19.5 -48t-47.5 -20q-29 0 -49 19.5t-20 50.5q0 98 177 98q48 0 90.5 -11.5t77.5 -45t40 -84.5v-234q0 -15 11 -20.5t24.5 -5t24.5 -5.5t11 -21q0 -13 -5 -19.5t-10.5 -7.5t-16.5 -1h-32q-23 0 -36.5 1.5t-31 7t-28 19.5t-15.5 37
q-15 -35 -53 -53.5t-79 -18.5q-40 0 -78 10t-69.5 38.5t-31.5 70.5q0 44 28.5 76.5t75.5 49t94 23.5t95 7v20q0 125 -92 125zM322 231q-7 -2 -20 -3t-17 -2q-52 -7 -92 -35.5t-40 -75.5q0 -35 20.5 -57t49.5 -22q44 0 71.5 29.5t27.5 75.5v90zM97 654h42q1 -41 39.5 -62.5
t86.5 -21.5t86.5 21.5t39.5 62.5h42q0 -69 -51.5 -111t-117.5 -42t-116.5 43.5t-50.5 109.5z" />
    <glyph glyph-name="Aogonek" unicode="&#x104;" horiz-adv-x="802" 
d="M39 53q39 0 59 2q6 1 10 2.5t7.5 2.5t6 4t4 4.5t4 6.5t3 7t3 9t3.5 10l35 94q30 77 88 232t88 233l3 9q3 9 4 10.5t4.5 8t7 8.5t9.5 4t13 2h14q31 0 42 -28q9 -27 28.5 -77.5t23.5 -61.5l167 -443q2 -4 5 -12.5t5 -12.5q4 -15 17 -15q2 0 6 0.5t5 0.5h59v-52q-14 0 -42 2
h-23q-12 2 -20 2q-21 0 -37.5 -21t-16.5 -47q0 -25 16 -49t38 -24q9 0 21.5 10.5t19.5 10.5q2 0 8 -2l9 -6q11 -9 11 -18q0 -24 -33 -45t-61 -21q-44 0 -76.5 34.5t-32.5 79.5q0 54 43 97l-137 -3v52h77q-6 17 -18 48.5t-16 42.5l-10 25q-3 13 -14 13h-220q-10 0 -13 -11
l-30 -81q-9 -16 -9 -25q0 -12 62 -12h10v-52l-68 3h-105l-57 -3v52zM260 234h199l-99 264z" />
    <glyph glyph-name="aogonek" unicode="&#x105;" horiz-adv-x="516" 
d="M173 408q22 -25 22 -52q0 -29 -19 -48.5t-50 -19.5t-49.5 20.5t-18.5 48.5q0 99 178 99q93 0 150.5 -42t57.5 -127v-215q2 -10 13.5 -13.5t24 -3t23 -5.5t10.5 -21q0 -28 -23 -28h-59q-21 0 -33.5 -20.5t-12.5 -43.5v-4q1 -23 16 -45.5t37 -22.5h2q8 1 19.5 11.5
t19.5 10.5q10 0 19.5 -8t9.5 -18q0 -7 -7 -18q-37 -50 -90 -50q-43 0 -72.5 32t-33.5 74v10q0 54 57 111q-23 17 -23 46h-1q-15 -35 -53 -53.5t-79 -18.5q-40 0 -78 10t-69.5 38.5t-31.5 70.5q0 44 28.5 76.5t75.5 49t94 23.5t95 7v20q0 125 -92 125zM322 231q-7 -2 -20 -3
t-17 -2q-52 -7 -92 -35.5t-40 -75.5q0 -35 20.5 -57t49.5 -22q44 0 71.5 29.5t27.5 75.5v90z" />
    <glyph glyph-name="Cacute" unicode="&#x106;" horiz-adv-x="767" 
d="M604 639q7 9 32 29l11 10q3 2 7 6.5t7 6.5t7 5t8.5 4t10.5 1q20 0 20 -26v-226q0 -25 -19 -25h-21q-8 0 -13 1t-7.5 5.5t-3.5 7t-2.5 10.5t-2.5 11q-15 79 -65.5 134.5t-127.5 55.5q-20 0 -38 -3q-49 -8 -84.5 -30.5t-55 -50t-31 -66.5t-14.5 -71.5t-3 -73.5q0 -51 2 -83
t14 -75t34 -74q30 -41 79 -62t103 -21q81 0 136.5 54t63.5 132v6q0 21 26 21q28 0 30 -16v-7q0 -74 -43.5 -131t-106 -84.5t-127.5 -27.5q-82 0 -158.5 29.5t-127.5 86.5q-85 97 -85 243q0 131 70 223q52 68 133.5 100.5t174.5 32.5q94 0 167 -62zM328 783q31 22 93 68
q40 29 60 30h2q26 0 43.5 -21.5t17.5 -48.5q0 -31 -22.5 -44t-59.5 -18q-59 -8 -112 -18z" />
    <glyph glyph-name="cacute" unicode="&#x107;" horiz-adv-x="472" 
d="M313 405q-4 0 -19.5 2t-23.5 2q-99 0 -99 -166v-32q0 -29 4 -55t15 -54t34.5 -44.5t57.5 -16.5q53 0 84 40q5 7 12 23t14 23t19 7h4q24 0 27 -15v-2q0 -12 -11 -32q-23 -45 -68 -68t-99 -23q-97 0 -163 62.5t-66 166.5q0 99 62.5 166t169.5 67q27 0 52.5 -4t52 -14
t42.5 -31t16 -50t-19 -49t-48 -20t-49 19t-20 49q0 27 19 49zM315 665h4q26 0 44.5 -21.5t18.5 -47.5q0 -17 -9.5 -30t-19.5 -18t-27 -12q-40 -14 -74 -28q-5 -1 -21 -8t-22 -7q-1 0 -9 8.5t-15.5 20t-7.5 16.5q0 6 81 90q31 35 57 37z" />
    <glyph glyph-name="Ccaron" unicode="&#x10c;" horiz-adv-x="767" 
d="M604 639q7 9 32 29l11 10q3 2 7 6.5t7 6.5t7 5t8.5 4t10.5 1q20 0 20 -26v-226q0 -25 -19 -25h-21q-8 0 -13 1t-7.5 5.5t-3.5 7t-2.5 10.5t-2.5 11q-15 79 -65.5 134.5t-127.5 55.5q-20 0 -38 -3q-49 -8 -84.5 -30.5t-55 -50t-31 -66.5t-14.5 -71.5t-3 -73.5q0 -51 2 -83
t14 -75t34 -74q30 -41 79 -62t103 -21q81 0 136.5 54t63.5 132v6q0 21 26 21q28 0 30 -16v-7q0 -74 -43.5 -131t-106 -84.5t-127.5 -27.5q-82 0 -158.5 29.5t-127.5 86.5q-85 97 -85 243q0 131 70 223q52 68 133.5 100.5t174.5 32.5q94 0 167 -62zM299 870q11 30 20 30
q2 0 11 -3l21 -6q16 -4 68 -20q24 -8 30 -8t30 8q52 16 68 20l21 6q9 3 11 3q9 0 20 -30l-150 -107l-13 7z" />
    <glyph glyph-name="ccaron" unicode="&#x10d;" horiz-adv-x="472" 
d="M313 405q-4 0 -19.5 2t-23.5 2q-99 0 -99 -166v-32q0 -29 4 -55t15 -54t34.5 -44.5t57.5 -16.5q53 0 84 40q5 7 12 23t14 23t19 7h4q24 0 27 -15v-2q0 -12 -11 -32q-23 -45 -68 -68t-99 -23q-97 0 -163 62.5t-66 166.5q0 99 62.5 166t169.5 67q27 0 52.5 -4t52 -14
t42.5 -31t16 -50t-19 -49t-48 -20t-49 19t-20 49q0 27 19 49zM116 642l15 16l9 6l11 -4l119 -80l121 81l9 3l9 -6l15 -17l-142 -163l-12 -10l-12 10z" />
    <glyph glyph-name="Dcaron" unicode="&#x10e;" horiz-adv-x="814" 
d="M46 687h364q43 0 64 -2q93 -11 158 -64t93.5 -125t28.5 -157q0 -170 -106 -263q-86 -76 -234 -76q-11 0 -32.5 0.5t-32.5 0.5h-303v52h90v582h-90v52zM280 53h108q57 0 98.5 18.5t63 44t33.5 66.5t14.5 72.5t2.5 75.5v26q0 53 -3 87t-19.5 77t-48.5 70q-55 45 -143 45
h-106v-582zM206 870q11 30 20 30q2 0 11 -3l21 -6q16 -4 68 -20q24 -8 30 -8t30 8q52 16 68 20l21 6q9 3 11 3q9 0 20 -30l-150 -107l-13 7z" />
    <glyph glyph-name="dcaron" unicode="&#x10f;" horiz-adv-x="764" 
d="M319 687l39 8h143v-608q0 -21 11.5 -27.5t31.5 -6.5h23v-52l-45 -7h-143v40q-63 -40 -120 -40q-106 0 -165 67t-59 159q0 108 67.5 170t164.5 62q70 0 118 -37v186q0 35 -42 35q-4 0 -12.5 -0.5t-11.5 -0.5v52zM171 180q3 -32 6.5 -50t13 -43.5t29 -38t48.5 -12.5
q36 0 73.5 26.5t37.5 54.5v233q-1 7 -8 14q-41 46 -93 46q-25 0 -44 -8.5t-30.5 -24.5t-18.5 -32t-10 -39.5t-3.5 -38t-0.5 -35.5v-52zM666 608q-18 -14 -47 -14q-34 0 -57 23t-23 58q0 33 22.5 56t57.5 23q43 0 69 -32.5t26 -73.5q0 -57 -29 -103q-17 -27 -44 -53.5
t-49 -26.5q-8 0 -15 6.5t-7 15.5q0 5 2.5 9t4.5 5.5t7 4t6 3.5q61 39 76 99z" />
    <glyph glyph-name="dcroat" unicode="&#x111;" horiz-adv-x="590" 
d="M318 687l39 8h143v-125h45v-52h-45v-413q0 -3 -0.5 -9t-0.5 -9q0 -22 13.5 -28t39.5 -6h14v-52l-45 -7h-143v40q-55 -40 -121 -40q-105 0 -163.5 67t-58.5 162q0 105 67.5 167t165.5 62q70 0 116 -37v103h-194v52h194v32q0 34 -41 34q-4 0 -12.5 -0.5t-12.5 -0.5v52z
M171 180q1 -5 2 -22t2.5 -25t4 -21t7.5 -23.5t12 -19.5q29 -33 68 -33q34 0 72.5 24.5t38.5 55.5v234q-5 24 -38 42t-62 18q-35 0 -58 -16t-32.5 -44.5t-13 -53.5t-3.5 -57v-59z" />
    <glyph glyph-name="Eogonek" unicode="&#x118;" horiz-adv-x="696" 
d="M46 681h558l33 -243h-56q-10 81 -28 115q-13 26 -32 42t-45 23t-46.5 9t-51.5 2h-92v-249h24q58 0 80 24q19 21 19 76v15h56v-282h-56v15q0 55 -19 76q-22 24 -80 24h-24v-275h86q117 0 165 40q13 11 23.5 25.5t16.5 26.5t12.5 33t8.5 31l7 35t6 32h56l-49 -275h-50
q-2 0 -7 0.5t-8 0.5q-16 0 -32 -20.5t-16 -43.5q0 -24 16.5 -49t37.5 -25q9 0 21 10t20 10h4q9 0 16 -7t9 -16v-2q0 -23 -32.5 -44.5t-62.5 -21.5h-8q-43 6 -71.5 38.5t-28.5 74.5q0 53 40 95h-420v52h90v576h-90v52z" />
    <glyph glyph-name="eogonek" unicode="&#x119;" horiz-adv-x="495" 
d="M271 -6q-101 0 -171.5 63.5t-70.5 170.5q0 91 53 153q64 75 184 75q89 0 142 -50q52 -47 58 -157v-10q0 -26 -26 -26h-275q0 -76 18 -112q33 -60 104 -60q34 0 64.5 15.5t48.5 42.5l6.5 13l5.5 11t5 7.5t7.5 5t11.5 1.5q30 0 30 -21q0 -25 -23 -51.5t-50 -41.5
q-3 -2 -16 -9.5t-18 -10.5t-15 -11t-14 -14.5t-8 -17t-4 -22.5q0 -24 15 -48.5t36 -25.5q10 0 22.5 10.5t21.5 10.5q11 -1 19 -9t8 -18q0 -25 -32 -45t-61 -20q-44 0 -76.5 34t-32.5 82q0 40 33 85zM165 252h202q0 39 -7.5 72.5t-32 61t-63.5 27.5q-99 0 -99 -161z" />
    <glyph glyph-name="Ecaron" unicode="&#x11a;" horiz-adv-x="696" 
d="M46 681h558l33 -243h-56q-10 81 -28 115q-13 26 -32 42t-45 23t-46.5 9t-51.5 2h-92v-249h24q58 0 80 24q19 21 19 76v15h56v-282h-56v15q0 55 -19 76q-22 24 -80 24h-24v-275h86q117 0 165 40q13 11 23.5 25.5t16.5 26.5t12.5 33t8.5 31l7 35t6 32h56l-49 -275h-572v52
h90v576h-90v52zM166 870q11 30 20 30q2 0 11 -3l21 -6q16 -4 68 -20q24 -8 30 -8t30 8q52 16 68 20l21 6q9 3 11 3q9 0 20 -30l-150 -107l-13 7z" />
    <glyph glyph-name="ecaron" unicode="&#x11b;" horiz-adv-x="495" 
d="M165 213q0 -76 18 -112q33 -60 104 -60q34 0 64.5 15.5t48.5 42.5l6.5 13l5.5 11t5 7.5t7.5 5t11.5 1.5q30 0 30 -21q0 -7 -3 -13q-20 -51 -67.5 -78.5t-105.5 -30.5h-17q-117 0 -183 70q-62 65 -62 164q0 88 53 152q62 76 182 76q104 0 154 -60q50 -58 50 -155
q0 -28 -27 -28h-275zM165 252h202q0 39 -7.5 72.5t-32 61t-63.5 27.5q-99 0 -99 -161zM108 642l15 16l9 6l11 -4l119 -80l121 81l9 3l9 -6l15 -17l-142 -163l-12 -10l-12 10z" />
    <glyph glyph-name="Gbreve" unicode="&#x11e;" horiz-adv-x="835" 
d="M596 46q-48 -59 -167 -59q-183 2 -285 115q-85 95 -85 240q0 76 22 135q44 117 138.5 170.5t214.5 53.5q96 0 156 -22q2 -1 6 -2.5t7.5 -3t6.5 -1.5h1q7 0 33 14.5t41 14.5q19 0 22 -16v-122q0 -14 -4.5 -20t-21.5 -6h-15q-5 0 -8.5 0.5t-6 2.5t-4 3t-3.5 4.5t-2.5 4.5
t-2 6t-1.5 6q-15 45 -65.5 65t-109.5 20q-120 0 -185 -76q-59 -71 -59 -222v-18q0 -150 58 -219q63 -75 175 -75q44 0 74.5 22.5t30.5 69.5v94h-133v52h357v-52h-74v-203q0 -20 -16 -20q-13 0 -46.5 15t-47.5 29h-1zM265 895h42q1 -20 13 -34.5t31 -21.5t38 -10t39 -3
q128 0 131 69h42q0 -63 -52 -100.5t-116 -37.5q-65 0 -116.5 38t-51.5 100z" />
    <glyph glyph-name="gbreve" unicode="&#x11f;" 
d="M93 198q-48 38 -48 104q0 51 30 86.5t71.5 49.5t88.5 14q62 0 106 -20q13 -8 18 -8q3 0 6 1.5t6 4.5t5 4q37 25 76 25q26 0 44.5 -18.5t18.5 -45.5q0 -22 -14 -35.5t-34 -13.5q-19 0 -33.5 13t-14.5 33q0 11 3 20l-32 -14q37 -51 37 -95v-8q-5 -74 -61.5 -108t-128.5 -34
q-70 0 -113 24q-7 -13 -8 -26v-4q0 -29 20 -44t52 -15h79q100 0 148 -20q88 -38 88 -135q0 -40 -23 -68t-61.5 -41.5t-74.5 -19t-76 -5.5q-36 0 -72.5 5t-77 18t-66 40.5t-25.5 65.5q0 29 20.5 53t51.5 31q-39 41 -39 95q0 60 33 90v1zM121 -79q5 -41 47 -60t93 -19
q19 0 40 3t48 11t44 27t17 46v4q-3 18 -17 29.5t-37.5 16t-39 5.5t-39.5 1q-9 0 -27.5 -0.5t-27.5 -0.5h-37q-65 0 -65 -54q0 -2 0.5 -5t0.5 -4zM162 275q4 -40 16 -54q21 -25 59 -25q25 0 41 9.5t22 28t8 33.5t2 39q0 52 -17 77.5t-58 25.5q-73 0 -73 -95v-39zM97 654h42
q1 -41 39.5 -62.5t86.5 -21.5t86.5 21.5t39.5 62.5h42q0 -69 -51.5 -111t-117.5 -42t-116.5 43.5t-50.5 109.5z" />
    <glyph glyph-name="Idotaccent" unicode="&#x130;" horiz-adv-x="420" 
d="M41 687h338v-52h-94v-582h94v-52h-338v52h94v582h-94v52zM201 936h7q33 0 57.5 -23t24.5 -56q0 -30 -19.5 -53t-51.5 -28h-7q-33 0 -57.5 23t-24.5 56q0 30 19.5 53t51.5 28z" />
    <glyph glyph-name="dotlessi" unicode="&#x131;" horiz-adv-x="295" 
d="M39 444l38 8h140v-399h59v-52l-62 3h-110l-69 -3v52h66v308q0 31 -43 31h-19v52z" />
    <glyph glyph-name="IJ" unicode="&#x132;" horiz-adv-x="951" 
d="M554 687l101 -3h154l74 3v-52h-68v-473q0 -52 -21 -88t-57.5 -54t-73.5 -25.5t-80 -7.5q-40 0 -79 11.5t-71 41.5t-32 74q0 33 21.5 58t59.5 25q34 0 58.5 -22.5t24.5 -59.5q0 -54 -43 -72v-1q7 -2 19.5 -5.5t22.5 -5.5t20 -2q25 0 42.5 10.5t26 23.5t13 35.5t5 34.5
t0.5 32v470h-117v52zM40 687h340v-52h-95v-582h95v-52h-340v52h95v582h-95v52z" />
    <glyph glyph-name="ij" unicode="&#x133;" horiz-adv-x="619" 
d="M374 444l62 8h126v-476q0 -37 -6 -61q-15 -52 -65 -83.5t-107 -31.5q-55 0 -98.5 25t-43.5 75q0 30 21.5 48t46.5 18q29 0 49 -19t20 -49q0 -29 -24 -53q24 -3 26 -3q65 0 65 139v357q0 3 0.5 9.5t0.5 10.5q0 21 -12.5 27.5t-35.5 6.5h-25v52zM59 444l39 8h140v-399h59
v-52l-65 3h-111l-65 -3v52h66v307q0 20 -11 26t-32 6h-20v52zM158 696h7q33 0 57.5 -22.5t24.5 -55.5q0 -31 -19.5 -53.5t-52.5 -28.5h-8q-35 0 -57.5 24t-22.5 57q0 31 20.5 52.5t50.5 26.5zM473 696h7q33 0 57.5 -23t24.5 -56q0 -30 -19.5 -53t-51.5 -28h-7
q-33 0 -57.5 23t-24.5 56q0 30 19.5 53t51.5 28z" />
    <glyph glyph-name="Lacute" unicode="&#x139;" horiz-adv-x="637" 
d="M46 687h353v-52h-113v-582h55q35 0 63 8t47 19t34 31.5t23 36.5t14.5 43.5t8.5 42t6 42.5h56l-33 -275h-514v52h90v582h-90v52zM81 783q31 22 93 68q40 29 60 30h2q26 0 43.5 -21.5t17.5 -48.5q0 -31 -22.5 -44t-59.5 -18q-59 -8 -112 -18z" />
    <glyph glyph-name="lacute" unicode="&#x13a;" horiz-adv-x="295" 
d="M35 687l39 8h143v-642h66v-52l-70 3h-112l-66 -3v52h66v550q0 32 -45 32h-21v52zM126 731q-20 37 -20 50v2q1 2 5.5 5.5t5.5 4.5q5 3 37 29t59 42.5t46 16.5q25 0 42.5 -21.5t17.5 -47.5q0 -49 -64 -60z" />
    <glyph glyph-name="Lcaron" unicode="&#x13d;" horiz-adv-x="637" 
d="M351 685q-26 26 -26 63q0 34 24 56t55 22q45 0 70.5 -33t25.5 -76q0 -48 -25 -93q-14 -26 -41 -54.5t-54 -32.5h-1q-9 0 -16 7.5t-7 15.5v3q2 8 18 17q27 13 48.5 41t29.5 59q-20 -14 -53 -14v-31h-113v-582h55q35 0 63 8t47 19t34 31.5t23 36.5t14.5 43.5t8.5 42t6 42.5
h56l-33 -275h-514v52h90v582h-90v50h305z" />
    <glyph glyph-name="lcaron" unicode="&#x13e;" horiz-adv-x="482" 
d="M36 687l39 8h143v-642h66v-52l-68 3h-115l-65 -3v52h66v550q0 32 -45 32h-21v52zM383 608q-18 -14 -47 -14q-34 0 -57 23t-23 58q0 33 22.5 56t57.5 23q43 0 69 -32.5t26 -73.5q0 -57 -29 -103q-17 -27 -44 -53.5t-49 -26.5q-8 0 -15 6.5t-7 15.5q0 5 2.5 9t4.5 5.5t7 4
t6 3.5q61 39 76 99z" />
    <glyph glyph-name="Lslash" unicode="&#x141;" horiz-adv-x="637" 
d="M46 687h353v-52h-113v-184l144 115l33 -40l-175 -142l-2 -27v-304h55q35 0 63 8t47 19t34 31.5t23 36.5t14.5 43.5t8.5 42t6 42.5h56l-33 -275h-514v52h90v211l-48 -38l-33 40l79 66l2 26v277h-90v52z" />
    <glyph glyph-name="lslash" unicode="&#x142;" horiz-adv-x="357" 
d="M65 687l39 8h143v-257l57 45l33 -40l-88 -73l-2 -27v-290h66v-52l-70 3h-112l-66 -3v52h66v225l-44 -34l-32 41q21 17 52 41q2 2 8 6t8.5 6.5t5 7.5t2.5 11v244q0 35 -42 35q-4 0 -12 -0.5t-12 -0.5v52z" />
    <glyph glyph-name="Nacute" unicode="&#x143;" horiz-adv-x="831" 
d="M46 687h209l24 -2l14 -14l340 -441v369q0 1 0.5 6t0.5 8q0 23 -54 23q-6 0 -18.5 -0.5t-18.5 -0.5v52l67 -3h111l64 3v-52q-5 0 -17.5 0.5t-19.5 0.5q-53 0 -53 -22v-566q0 -2 0.5 -8t0.5 -9q0 -30 -28 -30h-6q-10 0 -18 4.5t-11 7.5t-11.5 15.5t-9.5 13.5q-10 12 -29 37
t-28 37q-21 27 -136 178t-179 229l-24 32q-10 11 -17 23l-1 -508q0 -17 54 -17h36v-52l-67 3h-111l-64 -3v52h34q56 0 56 17v565h-90v52zM316 783q31 22 93 68q40 29 60 30h2q26 0 43.5 -21.5t17.5 -48.5q0 -31 -22.5 -44t-59.5 -18q-59 -8 -112 -18z" />
    <glyph glyph-name="nacute" unicode="&#x144;" horiz-adv-x="590" 
d="M32 444l59 8h117l1 -98q15 40 62 69t94 29q96 0 130 -54q20 -33 20 -100v-245h66v-52l-67 3h-116l-71 -3v52h66v266q0 91 -38 91q-62 0 -98.5 -49.5t-36.5 -113.5v-194h66v-52l-71 3h-116l-67 -3v52h66v307q0 32 -43 32h-23v52zM372 665h4q26 0 44.5 -21.5t18.5 -47.5
q0 -17 -9.5 -30t-19.5 -18t-27 -12q-40 -14 -74 -28q-5 -1 -21 -8t-22 -7q-1 0 -9 8.5t-15.5 20t-7.5 16.5q0 6 81 90q31 35 57 37z" />
    <glyph glyph-name="Ncaron" unicode="&#x147;" horiz-adv-x="831" 
d="M46 687h209l24 -2l14 -14l340 -441v369q0 1 0.5 6t0.5 8q0 23 -54 23q-6 0 -18.5 -0.5t-18.5 -0.5v52l67 -3h111l64 3v-52q-5 0 -17.5 0.5t-19.5 0.5q-53 0 -53 -22v-566q0 -2 0.5 -8t0.5 -9q0 -30 -28 -30h-6q-10 0 -18 4.5t-11 7.5t-11.5 15.5t-9.5 13.5q-10 12 -29 37
t-28 37q-21 27 -136 178t-179 229l-24 32q-10 11 -17 23l-1 -508q0 -17 54 -17h36v-52l-67 3h-111l-64 -3v52h34q56 0 56 17v565h-90v52zM266 870q11 30 20 30q2 0 11 -3l21 -6q16 -4 68 -20q24 -8 30 -8t30 8q52 16 68 20l21 6q9 3 11 3q9 0 20 -30l-150 -107l-13 7z" />
    <glyph glyph-name="ncaron" unicode="&#x148;" horiz-adv-x="590" 
d="M32 444l59 8h117l1 -98q15 40 62 69t94 29q96 0 130 -54q20 -33 20 -100v-245h66v-52l-67 3h-116l-71 -3v52h66v266q0 91 -38 91q-62 0 -98.5 -49.5t-36.5 -113.5v-194h66v-52l-71 3h-116l-67 -3v52h66v307q0 32 -43 32h-23v52zM129 642l15 16l9 6l11 -4l119 -80l121 81
l9 3l9 -6l15 -17l-142 -163l-12 -10l-12 10z" />
    <glyph glyph-name="Eng" unicode="&#x14a;" horiz-adv-x="843" 
d="M286 654q84 60 198 60q129 0 214.5 -76t85.5 -192v-277q0 -54 -13 -82q-49 -100 -217 -100q-41 0 -81 11.5t-71.5 41.5t-31.5 73q0 35 23 60t59 25q34 0 58 -23.5t24 -58.5q0 -49 -43 -74q41 -13 61 -13q82 0 82 131v229q0 8 0.5 26t0.5 27q0 89 -56.5 147t-140.5 58
q-53 0 -97 -25q-56 -32 -56 -56q0 -3 0.5 -7t0.5 -6v-500h45v-52h-285v52h90v582h-90v49h199l41 3v-33z" />
    <glyph glyph-name="eng" unicode="&#x14b;" horiz-adv-x="590" 
d="M32 444l59 8h117l1 -98q15 40 62 69t94 29q99 0 132 -57q19 -33 19 -94q0 -8 -0.5 -24t-0.5 -24v-213q0 -37 -6.5 -74t-22 -77t-48.5 -64.5t-79 -24.5h-10q-43 3 -75 30t-32 69q0 29 20 48t48 19t48 -18.5t20 -49.5q0 -29 -27 -56q39 0 41 104v20q1 6 1 19v281
q0 5 0.5 23t0.5 30q0 91 -38 91q-65 0 -100.5 -50.5t-35.5 -114.5v-192h66v-52l-67 3h-116l-71 -3v52h66v307q0 32 -43 32h-23v52z" />
    <glyph glyph-name="Ohungarumlaut" unicode="&#x150;" horiz-adv-x="797" 
d="M378 701h13q90 0 159 -31.5t108.5 -84t59 -115t19.5 -131.5q0 -168 -102 -266q-92 -86 -235 -86q-156 0 -249 96q-92 95 -92 258q0 90 32.5 169t98.5 127q69 52 188 64zM219 310q1 -6 3.5 -34t3.5 -36.5t4.5 -31.5t8 -35t11.5 -29.5t17 -32.5q22 -34 57.5 -54.5
t74.5 -20.5q40 0 80 25q34 22 55.5 56.5t30 81t10.5 77.5t2 81v6q0 52 -7 97t-24.5 91.5t-55.5 74t-92 27.5q-179 0 -179 -306v-37zM254 783q14 11 42.5 31t42.5 31q5 3 15.5 11t17 12.5t17 8.5t19.5 4h1q26 0 42.5 -21.5t18.5 -48.5q8 7 62 45q31 25 54 25h2
q25 -1 42 -22.5t17 -47.5q0 -31 -21 -43.5t-57 -17.5q-78 -12 -116 -19l-12 30l-64 -14l-101 -16z" />
    <glyph glyph-name="ohungarumlaut" unicode="&#x151;" 
d="M248 456h11q107 0 174.5 -65t67.5 -169q0 -102 -60 -163q-65 -65 -177 -65q-92 0 -153 46q-82 60 -82 180q0 205 219 236zM165 182q1 -8 2 -25t2 -27.5t5 -24.5t11 -24q27 -40 80 -40q55 0 82 42q19 31 19 101v34q0 37 -1 60.5t-7 52t-16 44.5t-29.5 27.5t-47.5 11.5
q-34 0 -56 -14t-30.5 -42t-11 -50t-2.5 -58v-68zM271 665h4q26 0 44.5 -21.5t18.5 -47.5q0 -17 -9.5 -30t-19.5 -18t-27 -12q-40 -14 -74 -28q-5 -1 -21 -8t-22 -7q-1 0 -9 8.5t-15.5 20t-7.5 16.5q0 6 81 90q31 35 57 37zM448 665h4q26 0 44.5 -21.5t18.5 -47.5
q0 -17 -9.5 -30t-19.5 -18t-27 -12q-40 -14 -74 -28q-5 -1 -21 -8t-22 -7q-1 0 -9 8.5t-15.5 20t-7.5 16.5q0 6 81 90q31 35 57 37z" />
    <glyph glyph-name="OE" unicode="&#x152;" horiz-adv-x="1079" 
d="M1001 1h-402q-23 -1 -74 -7t-78 -7h-15q-86 0 -155 29t-112 78t-65.5 112t-22.5 134q0 81 27.5 154.5t83.5 122.5q95 84 244 84h14q26 0 77 -7t76 -7h388l33 -243h-56q-13 89 -29 119q-23 46 -64 59t-102 13h-89v-252h60q76 0 98 37q13 23 13 78h56v-282h-56
q0 73 -27.5 94t-83.5 21h-60v-278h85q34 0 55.5 1.5t49.5 10.5t49 25q13 10 23.5 25t16.5 26t12.5 34.5t8.5 31.5t7.5 37t6.5 32h56zM231 329q1 -11 3 -34t3 -35q6 -42 20 -80t37 -73.5t60 -56.5t83 -21q30 0 51 9t33 22.5t18.5 36t8 42.5t1.5 49v164q0 74 -1 112v53
q0 84 -27 114q-26 28 -86 28q-61 0 -104 -31t-63.5 -82t-28.5 -99t-8 -100v-18z" />
    <glyph glyph-name="oe" unicode="&#x153;" horiz-adv-x="826" 
d="M503 213q0 -72 23 -113q16 -27 44 -43t60 -16q31 0 58 15t42 42q2 4 6.5 16t10.5 17.5t19 5.5q30 0 30 -21q0 -6 -3 -12q-16 -49 -58.5 -77t-96.5 -33h-11q-103 0 -167 53l-4.5 4.5t-6.5 5.5t-6 2t-9 -6q-71 -59 -168 -59q-99 0 -168 61.5t-69 171.5q0 115 80 179
q62 50 163 50h6q63 -2 115 -30q7 -4 18 -12.5t19 -14.5t11 -6t7 4q59 59 161 59q98 0 146 -65q42 -57 42 -150q0 -28 -28 -28h-266zM153 191q1 -7 2 -21.5t1 -15.5q6 -50 35 -83.5t75 -33.5q115 0 115 186q0 48 -2 72q-5 50 -34.5 84.5t-78.5 34.5q-45 0 -77 -32
q-36 -38 -36 -142v-49zM503 252h194q0 27 -3.5 52t-12.5 51.5t-27.5 42.5t-45.5 16q-56 0 -80.5 -49t-24.5 -113z" />
    <glyph glyph-name="Racute" unicode="&#x154;" horiz-adv-x="805" 
d="M46 687h300q55 -1 77.5 -1.5t64.5 -8.5t73 -23q49 -24 80 -63.5t31 -89.5q0 -111 -150 -161q51 -22 75.5 -56.5t27.5 -87.5q1 -8 3.5 -35.5t5.5 -45.5t9.5 -40.5t19.5 -34t31 -11.5q14 0 25 8q14 11 20.5 27t6.5 29t6 22.5t22 9.5q28 0 28 -26q0 -42 -27.5 -74.5
t-68.5 -37.5h-12q-68 0 -114 12.5t-68.5 36.5t-31 50t-8.5 61q0 9 0.5 25.5t0.5 24.5q0 48 -19.5 84.5t-63.5 41.5h-110v-270h90v-52h-324v52h90v582h-90v52zM280 365q10 0 31 -0.5t32 -0.5q94 0 131 25q38 24 38 102v17q0 79 -36 103q-37 24 -121 24h-75v-270zM312 783
q31 22 93 68q40 29 60 30h2q26 0 43.5 -21.5t17.5 -48.5q0 -31 -22.5 -44t-59.5 -18q-59 -8 -112 -18z" />
    <glyph glyph-name="racute" unicode="&#x155;" horiz-adv-x="456" 
d="M23 444l57 8h112l1 -92q9 42 44.5 67t74.5 25q43 0 78.5 -23t35.5 -66q0 -29 -20.5 -46.5t-46.5 -17.5q-28 0 -46.5 19t-18.5 47q0 23 16 45q-24 0 -42.5 -10.5t-29.5 -30t-18 -40t-10 -49.5t-4 -48.5t-1 -46.5v-132h82v-52l-73 3h-121l-70 -3v52h66v307q0 32 -43 32h-23
v52zM198 492q-3 5 -11 16t-13 18.5t-5 11.5q1 6 32 37q5 5 23 26.5t28 32t26 21.5t29 11q27 0 47 -21.5t20 -47.5q0 -41 -54 -60l-91 -34q-25 -10 -31 -11z" />
    <glyph glyph-name="Rcaron" unicode="&#x158;" horiz-adv-x="805" 
d="M46 687h300q55 -1 77.5 -1.5t64.5 -8.5t73 -23q49 -24 80 -63.5t31 -89.5q0 -111 -150 -161q51 -22 75.5 -56.5t27.5 -87.5q1 -8 3.5 -35.5t5.5 -45.5t9.5 -40.5t19.5 -34t31 -11.5q14 0 25 8q14 11 20.5 27t6.5 29t6 22.5t22 9.5q28 0 28 -26q0 -42 -27.5 -74.5
t-68.5 -37.5h-12q-68 0 -114 12.5t-68.5 36.5t-31 50t-8.5 61q0 9 0.5 25.5t0.5 24.5q0 48 -19.5 84.5t-63.5 41.5h-110v-270h90v-52h-324v52h90v582h-90v52zM280 365q10 0 31 -0.5t32 -0.5q94 0 131 25q38 24 38 102v17q0 79 -36 103q-37 24 -121 24h-75v-270zM197 870
q11 30 20 30q2 0 11 -3l21 -6q16 -4 68 -20q24 -8 30 -8t30 8q52 16 68 20l21 6q9 3 11 3q9 0 20 -30l-150 -107l-13 7z" />
    <glyph glyph-name="rcaron" unicode="&#x159;" horiz-adv-x="456" 
d="M23 444l57 8h112l1 -92q9 42 44.5 67t74.5 25q43 0 78.5 -23t35.5 -66q0 -29 -20.5 -46.5t-46.5 -17.5q-28 0 -46.5 19t-18.5 47q0 23 16 45q-24 0 -42.5 -10.5t-29.5 -30t-18 -40t-10 -49.5t-4 -48.5t-1 -46.5v-132h82v-52l-73 3h-121l-70 -3v52h66v307q0 32 -43 32h-23
v52zM70 642l15 16l9 6l11 -4l119 -80l121 81l9 3l9 -6l15 -17l-142 -163l-12 -10l-12 10z" />
    <glyph glyph-name="Sacute" unicode="&#x15a;" horiz-adv-x="590" 
d="M248 701q3 0 9 0.5t10 0.5q49 0 97 -19q9 -3 28.5 -15.5t23.5 -12.5h1q3 0 15 12l9 9q25 25 40 25q20 0 20 -25v-191q0 -9 -1 -13.5t-7 -8.5t-18 -4h-4q-12 0 -18.5 6t-8 12t-3 18.5t-2.5 17.5q-17 67 -62.5 104t-107.5 37q-45 0 -77 -27t-32 -74q0 -84 98 -110l43 -10
q9 -2 26.5 -6t26.5 -6q81 -16 128.5 -77.5t47.5 -142.5q0 -91 -56.5 -152.5t-155.5 -61.5q-90 0 -148 34q-3 1 -8 4.5t-9.5 6t-6.5 2.5h-2q-8 -1 -28 -24.5t-35 -23.5q-22 0 -22 26v191q0 13 4.5 19.5t20.5 6.5h5q11 0 17 -5t7.5 -10t2 -16t1.5 -16q9 -51 42 -84.5t73.5 -46
t87.5 -12.5q49 0 79 32t30 81q0 55 -35 90q-7 7 -14.5 12t-18.5 9t-16.5 5.5t-20 5t-18.5 4.5l-64 15q-30 7 -43 11q-62 21 -101.5 75t-39.5 120q0 85 53 139.5t137 62.5zM180 783q31 22 93 68q40 29 60 30h2q26 0 43.5 -21.5t17.5 -48.5q0 -31 -22.5 -44t-59.5 -18
q-59 -8 -112 -18z" />
    <glyph glyph-name="sacute" unicode="&#x15b;" horiz-adv-x="419" 
d="M183 456q7 1 23 1q22 0 49 -5l16.5 -5.5t18.5 -4.5h2q6 0 20.5 7.5t23.5 7.5q20 0 20 -24v-84q0 -10 -1 -14.5t-6.5 -9t-17.5 -4.5h-6q-8 0 -12.5 1.5t-7 5.5t-3.5 7t-2 10t-2 11q-9 63 -96 63q-90 0 -90 -64q0 -19 18 -32.5t38.5 -18t51.5 -10t42 -8.5q53 -14 87 -55
t34 -94q0 -77 -49 -110.5t-119 -33.5q-51 0 -87 18q-1 0 -7.5 4t-9.5 4q-7 0 -25.5 -12.5t-30.5 -12.5h-5q-15 3 -15 28v112q0 25 25 25h6q7 0 12 -1.5t8 -6t4.5 -7.5t3.5 -10.5t3 -11.5q32 -86 118 -86q91 0 91 69q0 9 -2.5 17.5t-4.5 14.5t-8.5 12t-10 9.5t-13.5 7.5
t-13 5.5t-15 4.5l-14 3.5t-15 2.5l-12 3q-164 31 -164 139q0 62 42 98q31 26 107 34zM274 665h4q26 0 44.5 -21.5t18.5 -47.5q0 -17 -9.5 -30t-19.5 -18t-27 -12q-40 -14 -74 -28q-5 -1 -21 -8t-22 -7q-1 0 -9 8.5t-15.5 20t-7.5 16.5q0 6 81 90q31 35 57 37z" />
    <glyph glyph-name="Scedilla" unicode="&#x15e;" horiz-adv-x="590" 
d="M263 -62v42q0 7 -2 9l-17 5q-17 5 -40 12.5t-35 14.5q-23 13 -24 13h-2q-3 -1 -14 -12l-23 -23q-16 -12 -24 -12q-23 0 -23 20v201q0 21 29 21q12 0 18.5 -5t7.5 -10t1.5 -16t1.5 -16q13 -74 70 -108.5t131 -34.5q48 0 79.5 30t31.5 82q0 37 -18 68t-50 45l-45 12
q-11 2 -41 8.5t-51 12t-40 12.5q-59 25 -92 77.5t-33 114.5q0 96 61.5 148t145.5 52q68 0 122 -29q25 -16 27 -17h2q7 0 26.5 23.5t36.5 23.5q21 0 21 -26v-196q0 -21 -28 -21h-5q-11 0 -16 4t-8 20q-11 81 -58 126t-118 45q-44 0 -76 -26t-32 -75q0 -30 15 -56.5t42 -40.5
q8 -4 72 -20q8 -2 38 -8.5t49 -12t36 -13.5q55 -25 86.5 -81t31.5 -119q0 -137 -109 -194q-1 -1 -14 -5t-18 -8.5t-5 -12.5q0 -2 0.5 -6t0.5 -5q37 -6 62.5 -26.5t25.5 -55.5q0 -31 -20 -51t-57.5 -28.5t-69 -11t-74.5 -2.5h-77v42h39q137 0 137 50q0 27 -27.5 38.5
t-60.5 11.5z" />
    <glyph glyph-name="scedilla" unicode="&#x15f;" horiz-adv-x="419" 
d="M153 2q-8 1 -23 9t-20 8q-9 -2 -26 -13.5t-28 -11.5q-21 0 -21 25v109q0 11 1 16t7.5 10t19.5 5q11 0 17.5 -4t8.5 -8t5 -14.5t5 -15.5q30 -81 114 -81q93 0 93 76q-5 28 -25 44.5t-42 21t-54 10t-47 10.5q-44 16 -73.5 48.5t-29.5 76.5q0 133 166 133q29 0 44 -2
q7 -1 23.5 -6.5t21.5 -5.5h2q7 0 21 7.5t22 7.5q21 0 21 -25v-88q0 -23 -25 -23h-6q-10 0 -15.5 4.5t-7 9t-3.5 17.5q-10 67 -93 67q-94 0 -94 -58q0 -11 3.5 -19.5t11.5 -15t14 -10.5t20 -8t19.5 -5.5t21.5 -4.5t18 -3q71 -13 106 -40q57 -44 57 -112q0 -56 -28.5 -95.5
t-84.5 -48.5v-28q37 -6 62.5 -26.5t25.5 -55.5q0 -31 -20 -51t-57.5 -28.5t-69 -11t-74.5 -2.5h-77v42h39q137 0 137 50q0 27 -27.5 38.5t-60.5 11.5v63z" />
    <glyph glyph-name="Scaron" unicode="&#x160;" horiz-adv-x="590" 
d="M248 701q3 0 9 0.5t10 0.5q49 0 97 -19q9 -3 28.5 -15.5t23.5 -12.5h1q3 0 15 12l9 9q25 25 40 25q20 0 20 -25v-191q0 -9 -1 -13.5t-7 -8.5t-18 -4h-4q-12 0 -18.5 6t-8 12t-3 18.5t-2.5 17.5q-17 67 -62.5 104t-107.5 37q-45 0 -77 -27t-32 -74q0 -84 98 -110l43 -10
q9 -2 26.5 -6t26.5 -6q81 -16 128.5 -77.5t47.5 -142.5q0 -91 -56.5 -152.5t-155.5 -61.5q-90 0 -148 34q-3 1 -8 4.5t-9.5 6t-6.5 2.5h-2q-8 -1 -28 -24.5t-35 -23.5q-22 0 -22 26v191q0 13 4.5 19.5t20.5 6.5h5q11 0 17 -5t7.5 -10t2 -16t1.5 -16q9 -51 42 -84.5t73.5 -46
t87.5 -12.5q49 0 79 32t30 81q0 55 -35 90q-7 7 -14.5 12t-18.5 9t-16.5 5.5t-20 5t-18.5 4.5l-64 15q-30 7 -43 11q-62 21 -101.5 75t-39.5 120q0 85 53 139.5t137 62.5zM145 870q11 30 20 30q2 0 11 -3l21 -6q16 -4 68 -20q24 -8 30 -8t30 8q52 16 68 20l21 6q9 3 11 3
q9 0 20 -30l-150 -107l-13 7z" />
    <glyph glyph-name="scaron" unicode="&#x161;" horiz-adv-x="419" 
d="M183 456q7 1 23 1q22 0 49 -5l16.5 -5.5t18.5 -4.5h2q6 0 20.5 7.5t23.5 7.5q20 0 20 -24v-84q0 -10 -1 -14.5t-6.5 -9t-17.5 -4.5h-6q-8 0 -12.5 1.5t-7 5.5t-3.5 7t-2 10t-2 11q-9 63 -96 63q-90 0 -90 -64q0 -20 17.5 -33t37.5 -17.5t51.5 -10t42.5 -8.5
q53 -14 87.5 -54.5t34.5 -93.5q0 -41 -15 -71t-41 -45.5t-53.5 -22t-58.5 -6.5q-51 0 -87 18q-1 0 -7.5 4t-9.5 4q-7 0 -25.5 -12.5t-30.5 -12.5h-5q-15 3 -15 28v112q0 25 25 25h6q7 0 12 -1.5t8 -6t4.5 -7.5t3.5 -10.5t3 -11.5q32 -86 118 -86q91 0 91 69q0 12 -3.5 22
t-8 17t-14 13.5t-15.5 10t-19.5 7t-18.5 5t-20 4.5t-17 3q-155 28 -155 136q0 64 41 99q31 26 107 34zM42 642l15 16l9 6l11 -4l119 -80l121 81l9 3l9 -6l15 -17l-142 -163l-12 -10l-12 10z" />
    <glyph glyph-name="Tcommaaccent" unicode="&#x162;" horiz-adv-x="738" 
d="M61 675h615l23 -243h-56q-6 64 -14 95q-10 42 -35.5 64.5t-50.5 27t-63 4.5h-36v-570h127v-52l-56 3h-85v-33q36 -5 62.5 -26t26.5 -56q0 -31 -21.5 -51.5t-61 -28.5t-71.5 -10.5t-77 -2.5h-68v42h39q137 0 137 50q0 27 -27 38.5t-61 11.5v63h-141v52h127v570h-40
q-25 0 -46 -3t-36 -11.5t-26.5 -15.5t-19.5 -22.5t-13 -23.5t-8.5 -28.5t-4.5 -28t-3 -30.5t-3 -28h-56z" />
    <glyph glyph-name="tcommaaccent" unicode="&#x163;" horiz-adv-x="414" 
d="M152 636h56v-191h129v-52h-129v-269q0 -83 44 -83q47 0 47 89v45h56q0 -7 0.5 -23t0.5 -23q0 -40 -18 -78t-54 -49l31 -1v-19q0 -10 12 -14q38 -11 57 -30t19 -56q-3 -28 -25.5 -46.5t-62.5 -26.5t-74.5 -10.5t-82.5 -2.5h-54v42h38q139 0 139 50q0 27 -27.5 38.5
t-60.5 11.5v48q0 4 -0.5 6.5t-2.5 3.5l-3 1.5t-4.5 1.5t-4.5 1q-92 18 -92 132v261h-66v42q38 0 65.5 21.5t41 54.5t19.5 64.5t6 60.5z" />
    <glyph glyph-name="Tcaron" unicode="&#x164;" horiz-adv-x="738" 
d="M61 675h615l23 -243h-56q-6 64 -14 95q-10 42 -35.5 64.5t-50.5 27t-63 4.5h-36v-570h127v-52h-404v52h127v570h-40q-25 0 -46 -3t-36 -11.5t-26.5 -15.5t-19.5 -22.5t-13 -23.5t-8.5 -28.5t-4.5 -28t-3 -30.5t-3 -28h-56zM219 870q11 30 20 30q2 0 11 -3l21 -6
q16 -4 68 -20q24 -8 30 -8t30 8q52 16 68 20l21 6q9 3 11 3q9 0 20 -30l-150 -107l-13 7z" />
    <glyph glyph-name="tcaron" unicode="&#x165;" horiz-adv-x="414" 
d="M152 635h56v-190h129v-52h-129v-269q0 -83 44 -83q47 0 47 89v45h56q0 -7 0.5 -23t0.5 -23q0 -60 -32.5 -97.5t-84.5 -37.5q-98 0 -133 51q-20 30 -20 90v258h-66v42q37 0 65 21t41.5 54t19.5 64t6 61zM384 649q-18 -14 -47 -14q-34 0 -57 23t-23 58q0 33 22.5 56
t57.5 23q43 0 69 -32.5t26 -73.5q0 -57 -29 -103q-17 -27 -44 -53.5t-49 -26.5q-8 0 -15 7.5t-7 15.5q0 5 2.5 8.5t4.5 5t7 4t6 3.5q61 39 76 99z" />
    <glyph glyph-name="Uring" unicode="&#x16e;" horiz-adv-x="817" 
d="M46 687h330v-52h-90v-408q0 -48 4 -72q8 -57 47.5 -86.5t95.5 -29.5q83 0 134 52q47 50 47 144v379q0 22 -52 22q-6 0 -19 -0.5t-19 -0.5v52l68 -3h113l65 3v-52h-34q-56 0 -56 -17v-378q0 -123 -71.5 -188t-180.5 -65q-165 0 -241 96q-51 66 -51 169v383h-90v52z
M436 905q2 0 7 0.5t7 0.5q47 0 81.5 -25.5t34.5 -71.5t-35 -70t-81 -24q-48 0 -82 24.5t-34 70.5q0 41 29.5 65.5t72.5 29.5zM390 794q5 -24 19.5 -30.5t39.5 -6.5h5q30 0 43 12t13 40v17q-5 24 -19.5 30.5t-39.5 6.5h-5q-30 0 -43 -12t-13 -40v-17z" />
    <glyph glyph-name="uring" unicode="&#x16f;" horiz-adv-x="590" 
d="M32 444l40 8h148v-351q0 -26 4 -39q8 -26 65 -26h10q41 5 65 36.5t29 74.5v214q0 32 -43 32q-4 0 -12 -0.5t-11 -0.5v52l40 8h148v-367q0 -20 12 -26t34 -6h20v-52l-44 -7h-138l-1 63q-13 -26 -41.5 -43t-59.5 -20h-16q-102 0 -142.5 34t-40.5 106v235q-4 23 -46 23h-20
v52zM292 664q2 0 7 0.5t8 0.5q45 0 80.5 -22.5t35.5 -64.5q0 -45 -35.5 -66.5t-82.5 -21.5q-45 0 -80 22t-35 65q0 39 29 60.5t73 26.5zM246 562q3 -17 13.5 -25.5t20 -10t26.5 -1.5h5q57 0 57 51q0 19 -5 30.5t-15.5 16t-18.5 5.5t-22 1h-5q-57 0 -57 -51q0 -11 1 -16z" />
    <glyph glyph-name="Uhungarumlaut" unicode="&#x170;" horiz-adv-x="817" 
d="M46 687h330v-52h-90v-408q0 -48 4 -72q8 -57 47.5 -86.5t95.5 -29.5q83 0 134 52q47 50 47 144v379q0 22 -52 22q-6 0 -19 -0.5t-19 -0.5v52l68 -3h113l65 3v-52h-34q-56 0 -56 -17v-378q0 -123 -71.5 -188t-180.5 -65q-165 0 -241 96q-51 66 -51 169v383h-90v52z
M265 783q14 11 42.5 31t42.5 31q5 3 15.5 11t17 12.5t17 8.5t19.5 4h1q25 0 42 -21t19 -48q20 15 62 45q30 24 53 24h2q25 -1 42 -22.5t17 -47.5q0 -31 -21 -43.5t-57 -17.5q-78 -12 -116 -19l-12 30q-15 -6 -60 -13q-17 -3 -52 -8.5t-52 -8.5z" />
    <glyph glyph-name="uhungarumlaut" unicode="&#x171;" horiz-adv-x="590" 
d="M32 444l40 8h148v-351q0 -26 4 -39q8 -26 65 -26h10q41 5 65 36.5t29 74.5v214q0 32 -43 32q-4 0 -12 -0.5t-11 -0.5v52l40 8h148v-367q0 -20 12 -26t34 -6h20v-52l-44 -7h-138l-1 63q-13 -26 -41.5 -43t-59.5 -20h-16q-102 0 -142.5 34t-40.5 106v235q-4 23 -46 23h-20
v52zM489 665h4q26 0 44.5 -21.5t18.5 -47.5q0 -17 -9.5 -30t-19.5 -18t-27 -12q-40 -14 -74 -28q-5 -1 -21 -8t-22 -7q-1 0 -9 8.5t-15.5 20t-7.5 16.5q0 6 81 90q31 35 57 37zM313 665h4q26 0 44.5 -21.5t18.5 -47.5q0 -17 -9.5 -30t-19.5 -18t-27 -12q-40 -14 -74 -28
q-5 -1 -21 -8t-22 -7q-1 0 -9 8.5t-15.5 20t-7.5 16.5q0 6 81 90q31 35 57 37z" />
    <glyph glyph-name="Ydieresis" unicode="&#x178;" horiz-adv-x="802" 
d="M20 687h320v-52h-67l173 -276h2q2 3 15 25l26 41q44 72 83 133q2 4 15 22t19.5 29.5t6.5 16.5q-5 9 -59 9v52l68 -3h105l55 3v-52q-59 0 -75 -6.5t-33 -33.5l-6 -9q-29 -47 -83 -132.5t-71 -112.5l-27 -44q-14 -19 -14 -34v-210h90v-52h-324v52h90v220l-227 362h-82v52z
M495 895h7q36 0 59 -24t23 -57q0 -31 -21 -52.5t-50 -26.5h-7q-35 0 -58.5 24t-23.5 57q0 30 20 52t51 27zM289 895h7q35 0 58.5 -24t23.5 -57q0 -30 -20.5 -52t-50.5 -27h-7q-36 0 -59 24t-23 57q0 31 21 52.5t50 26.5z" />
    <glyph glyph-name="Zacute" unicode="&#x179;" horiz-adv-x="649" 
d="M87 687h473q29 0 29 -25q0 -13 -10 -33q-47 -75 -131 -213.5t-113 -185.5q-4 -6 -43 -72.5t-62 -99.5h73q36 0 55.5 1t49.5 8t51 21q31 21 49 57t23 65.5t8 76.5h56l-20 -286h-489q-27 0 -27 27v9q0 9 9 23l66 108q22 38 180 295q6 9 44.5 74t60.5 98h-66q-39 0 -63 -2
t-56 -13.5t-53 -32.5q-45 -45 -51 -143h-56zM239 783q31 22 93 68q40 29 60 30h2q26 0 43.5 -21.5t17.5 -48.5q0 -31 -22.5 -44t-59.5 -18q-59 -8 -112 -18z" />
    <glyph glyph-name="zacute" unicode="&#x17a;" horiz-adv-x="472" 
d="M57 445h336q31 0 31 -22q0 -8 -6 -20.5t-13 -22t-18.5 -25t-15.5 -22.5q-18 -26 -88 -128t-109 -157h31q32 0 50.5 1.5t44.5 11.5t41 29q5 7 9 14.5t7 17t4.5 15.5t3.5 18.5t2.5 16.5t2 19t1.5 16h56l-20 -206h-346q-33 0 -33 25q0 6 2.5 13t5.5 11.5t8.5 12t7.5 10.5
l29 42q151 216 199 288h-45q-74 0 -103 -29q-30 -30 -32 -107h-56zM301 665h4q26 0 44.5 -21.5t18.5 -47.5q0 -17 -9.5 -30t-19.5 -18t-27 -12q-40 -14 -74 -28q-5 -1 -21 -8t-22 -7q-1 0 -9 8.5t-15.5 20t-7.5 16.5q0 6 81 90q31 35 57 37z" />
    <glyph glyph-name="Zdotaccent" unicode="&#x17b;" horiz-adv-x="649" 
d="M87 687h473q29 0 29 -25q0 -13 -10 -33q-47 -75 -131 -213.5t-113 -185.5q-4 -6 -43 -72.5t-62 -99.5h73q36 0 55.5 1t49.5 8t51 21q31 21 49 57t23 65.5t8 76.5h56l-20 -286h-489q-27 0 -27 27v9q0 9 9 23l66 108q22 38 180 295q6 9 44.5 74t60.5 98h-66q-39 0 -63 -2
t-56 -13.5t-53 -32.5q-45 -45 -51 -143h-56zM344 936h7q33 0 57.5 -23t24.5 -56q0 -30 -19.5 -53t-51.5 -28h-7q-33 0 -57.5 23t-24.5 56q0 30 19.5 53t51.5 28z" />
    <glyph glyph-name="zdotaccent" unicode="&#x17c;" horiz-adv-x="472" 
d="M57 445h336q31 0 31 -22q0 -8 -6 -20.5t-13 -22t-18.5 -25t-15.5 -22.5q-18 -26 -88 -128t-109 -157h31q32 0 50.5 1.5t44.5 11.5t41 29q5 7 9 14.5t7 17t4.5 15.5t3.5 18.5t2.5 16.5t2 19t1.5 16h56l-20 -206h-346q-33 0 -33 25q0 6 2.5 13t5.5 11.5t8.5 12t7.5 10.5
l29 42q151 216 199 288h-45q-74 0 -103 -29q-30 -30 -32 -107h-56zM241 696h7q33 0 57.5 -23t24.5 -56q0 -30 -19.5 -53t-51.5 -28h-7q-33 0 -57.5 23t-24.5 56q0 30 19.5 53t51.5 28z" />
    <glyph glyph-name="Zcaron" unicode="&#x17d;" horiz-adv-x="649" 
d="M87 687h473q29 0 29 -25q0 -13 -10 -33q-47 -75 -131 -213.5t-113 -185.5q-4 -6 -43 -72.5t-62 -99.5h73q36 0 55.5 1t49.5 8t51 21q31 21 49 57t23 65.5t8 76.5h56l-20 -286h-489q-27 0 -27 27v9q0 9 9 23l66 108q22 38 180 295q6 9 44.5 74t60.5 98h-66q-39 0 -63 -2
t-56 -13.5t-53 -32.5q-45 -45 -51 -143h-56zM157 870q11 30 20 30q2 0 11 -3l21 -6q16 -4 68 -20q24 -8 30 -8t30 8q52 16 68 20l21 6q9 3 11 3q9 0 20 -30l-150 -107l-13 7z" />
    <glyph glyph-name="zcaron" unicode="&#x17e;" horiz-adv-x="472" 
d="M57 445h336q31 0 31 -22q0 -8 -6 -20.5t-13 -22t-18.5 -25t-15.5 -22.5q-18 -26 -88 -128t-109 -157h31q32 0 50.5 1.5t44.5 11.5t41 29q5 7 9 14.5t7 17t4.5 15.5t3.5 18.5t2.5 16.5t2 19t1.5 16h56l-20 -206h-346q-33 0 -33 25q0 6 2.5 13t5.5 11.5t8.5 12t7.5 10.5
l29 42q151 216 199 288h-45q-74 0 -103 -29q-30 -30 -32 -107h-56zM70 642l15 16l9 6l11 -4l119 -80l121 81l9 3l9 -6l15 -17l-142 -163l-12 -10l-12 10z" />
    <glyph glyph-name="florin" unicode="&#x192;" horiz-adv-x="324" 
d="M101 445v77q0 55 12 82q23 51 77.5 74.5t117.5 23.5q48 0 82.5 -25t34.5 -68q0 -28 -19.5 -47t-46.5 -19t-47 18.5t-20 46.5q0 29 21 52q-33 0 -55 -11.5t-31.5 -32.5t-12.5 -40.5t-3 -44.5v-86h105v-52h-99v-340h82v-49h-199l-65 -3v52h66v340h-61v52h61z" />
    <glyph glyph-name="dotlessj" unicode="&#x237;" horiz-adv-x="324" 
d="M72 444l62 8h126v-485q0 -76 -54 -121.5t-128 -45.5q-53 0 -99 23.5t-46 73.5q0 29 19.5 49t48.5 20q28 0 48 -18.5t20 -49.5q0 -25 -23 -53l30 -3q69 0 69 143q0 11 -0.5 32t-0.5 31v288q0 3 0.5 10t0.5 11q0 35 -49 35h-24v52z" />
    <glyph glyph-name="circumflex" unicode="&#x2c6;" 
d="M152 471l-26 28l-9 13l31 34l118 113l118 -113l31 -34l-9 -13l-27 -28l-103 92l-10 6l-10 -6z" />
    <glyph glyph-name="caron" unicode="&#x2c7;" 
d="M112 642l15 16l9 6l11 -4l119 -80l121 81l9 3l9 -6l15 -17l-142 -163l-12 -10l-12 10z" />
    <glyph glyph-name="uni02CE" unicode="&#x2ce;" horiz-adv-x="295" 
d="M31 359l32 -25l218 -174l-32 -41l-250 199z" />
    <glyph glyph-name="uni02CF" unicode="&#x2cf;" horiz-adv-x="295" 
d="M262 359l33 -40l-249 -200l-33 40z" />
    <glyph glyph-name="breve" unicode="&#x2d8;" 
d="M97 654h42q1 -41 39.5 -62.5t86.5 -21.5t86.5 21.5t39.5 62.5h42q0 -70 -51.5 -111t-116.5 -41q-67 0 -117.5 42.5t-50.5 109.5z" />
    <glyph glyph-name="dotaccent" unicode="&#x2d9;" horiz-adv-x="295" 
d="M153 696h7q33 0 57.5 -23t24.5 -56q0 -30 -19.5 -53t-51.5 -28h-7q-36 0 -58.5 23.5t-22.5 55.5q0 30 19 53t51 28z" />
    <glyph glyph-name="ring" unicode="&#x2da;" horiz-adv-x="802" 
d="M386 664q2 0 7 0.5t8 0.5q45 0 80.5 -22t35.5 -65q0 -45 -35.5 -66.5t-82.5 -21.5q-45 0 -79.5 22t-34.5 65q0 39 29 60.5t72 26.5zM341 562q5 -24 19.5 -30.5t39.5 -6.5h5q57 0 57 51q0 34 -15.5 43.5t-44.5 9.5h-5q-57 0 -57 -51q0 -11 1 -16z" />
    <glyph glyph-name="ogonek" unicode="&#x2db;" horiz-adv-x="295" 
d="M208 -91q31 -20 33 -24v-1q0 -4 -5 -11q-55 -84 -138 -88h-4q-41 0 -75.5 24.5t-34.5 63.5v1q0 12 4 21q9 34 42 55.5t77.5 38.5t60.5 29q2 2 9 7.5t11 7.5l18 -32q-49 -49 -73 -75q-23 -25 -24 -35v-2q0 -12 11 -18.5t24 -6.5h3q38 3 61 45z" />
    <glyph glyph-name="tilde" unicode="&#x2dc;" 
d="M88 600q2 4 30 37q16 20 26 30t27 19t36 9q23 0 66.5 -18.5t66.5 -18.5q40 0 69 37l33 -26q-2 -4 -30 -37q-16 -20 -26 -30t-27 -19t-36 -9q-23 0 -66.5 18.5t-66.5 18.5q-40 0 -69 -37z" />
    <glyph glyph-name="hungarumlaut" unicode="&#x2dd;" 
d="M271 665h4q26 0 44.5 -21.5t18.5 -47.5q0 -17 -9.5 -30t-19.5 -18t-27 -12q-40 -14 -74 -28q-5 -1 -21 -8t-22 -7q-1 0 -9 8.5t-15.5 20t-7.5 16.5q0 6 81 90q31 35 57 37zM448 665h4q26 0 44.5 -21.5t18.5 -47.5q0 -17 -9.5 -30t-19.5 -18t-27 -12q-40 -14 -74 -28
q-5 -1 -21 -8t-22 -7q-1 0 -9 8.5t-15.5 20t-7.5 16.5q0 6 81 90q31 35 57 37z" />
    <glyph glyph-name="uni0335" unicode="&#x335;" horiz-adv-x="295" 
d="M13 265h268v-39h-268v39z" />
    <glyph glyph-name="afii10023" unicode="&#x401;" horiz-adv-x="696" 
d="M46 687h558l33 -243h-56q-10 81 -28 115q-13 26 -32 42t-45 23t-46.5 9t-51.5 2h-92v-252h24q58 0 80 24q19 21 19 76v15h56v-282h-56v15q0 55 -19 76q-22 24 -80 24h-24v-278h86q117 0 165 40q13 11 23.5 25.5t16.5 26.5t12.5 33t8.5 31l7 35t6 32h56l-49 -275h-572v52
h90v582h-90v52zM451 895h7q36 0 59 -24t23 -57q0 -31 -21 -52.5t-50 -26.5h-7q-35 0 -58.5 24t-23.5 57q0 30 20 52t51 27zM245 895h7q35 0 58.5 -24t23.5 -57q0 -30 -20.5 -52t-50.5 -27h-7q-36 0 -59 24t-23 57q0 31 21 52.5t50 26.5z" />
    <glyph glyph-name="afii10051" unicode="&#x402;" horiz-adv-x="885" 
d="M71 687h604l23 -186h-56q-9 58 -18 78q-17 36 -48.5 46t-79.5 10h-53l1 -270q8 14 24 27q76 67 195 67q133 0 175 -61q26 -39 26 -108v-28q0 -8 0.5 -26t0.5 -26q0 -99 -55 -161t-144 -62q-56 0 -97 35.5t-41 89.5v8q2 32 26.5 52.5t55.5 20.5q35 0 58.5 -23.5
t23.5 -58.5q0 -26 -15 -48.5t-39 -28.5v-1q18 -4 25 -4h4q27 4 41.5 28t17.5 49t3 62v38q0 14 -0.5 40t-0.5 39v20q0 113 -84 113q-79 0 -140.5 -45t-61.5 -127q0 -6 0.5 -17.5t0.5 -16.5v-159h45v-52h-322v52h127v582h-34q-30 0 -53.5 -6t-39.5 -13.5t-28 -24.5t-18.5 -28
t-12 -35.5t-7.5 -36t-5 -39.5q-1 -5 -1 -8h-56z" />
    <glyph glyph-name="afii10053" unicode="&#x404;" horiz-adv-x="767" 
d="M220 321q0 -123 65 -202.5t171 -79.5q69 0 126.5 38t67.5 104q0 2 0.5 8t1 8t2 6.5t4.5 6t7.5 3t11.5 1.5h5q25 0 25 -21q0 -10 -1 -14q-5 -50 -33 -88.5t-68.5 -60t-84 -32.5t-87.5 -11q-175 0 -278 102q-96 96 -96 254q0 90 32.5 161t86.5 112.5t118.5 63t134.5 21.5
q84 0 157 -41q11 -8 15 -9q3 0 33.5 25t47.5 25q23 0 23 -25v-192q0 -20 -26 -20h-15q-11 0 -17 5t-7.5 9.5t-2.5 15.5q-15 69 -68 112t-121 43q-58 0 -108.5 -27t-80.5 -74q-40 -66 -42 -174q70 19 99 19q62 0 135 -29q35 -16 51 -18h11q29 0 58 12q19 8 23 8q7 0 12 -6
t5 -14q0 -23 -26 -34l-14 -7t-14.5 -7.5t-13.5 -7t-15 -7t-14 -6t-15.5 -6t-14.5 -4.5t-15.5 -4.5t-15 -2.5t-16.5 -2h-7q-33 0 -89.5 31.5t-87.5 33.5h-7q-8 0 -28 -2z" />
    <glyph glyph-name="afii10054" unicode="&#x405;" horiz-adv-x="590" 
d="M248 701q3 0 9 0.5t10 0.5q49 0 97 -19q9 -3 28.5 -15.5t23.5 -12.5h1q3 0 15 12l9 9q25 25 40 25q20 0 20 -25v-191q0 -9 -1 -13.5t-7 -8.5t-18 -4h-4q-12 0 -18.5 6t-8 12t-3 18.5t-2.5 17.5q-17 67 -62.5 104t-107.5 37q-45 0 -77 -27t-32 -74q0 -84 98 -110l43 -10
q9 -2 26.5 -6t26.5 -6q81 -16 128.5 -77.5t47.5 -142.5q0 -91 -56.5 -152.5t-155.5 -61.5q-90 0 -148 34q-3 1 -8 4.5t-9.5 6t-6.5 2.5h-2q-8 -1 -28 -24.5t-35 -23.5q-22 0 -22 26v191q0 13 4.5 19.5t20.5 6.5h5q11 0 17 -5t7.5 -10t2 -16t1.5 -16q9 -51 42 -84.5t73.5 -46
t87.5 -12.5q49 0 79 32t30 81q0 55 -35 90q-7 7 -14.5 12t-18.5 9t-16.5 5.5t-20 5t-18.5 4.5l-64 15q-30 7 -43 11q-62 21 -101.5 75t-39.5 120q0 85 53 139.5t137 62.5z" />
    <glyph glyph-name="afii10055" unicode="&#x406;" horiz-adv-x="420" 
d="M41 687h338v-52h-94v-582h94v-52h-338v52h94v582h-94v52z" />
    <glyph glyph-name="afii10056" unicode="&#x407;" horiz-adv-x="420" 
d="M41 687h338v-52h-94v-582h94v-52h-338v52h94v582h-94v52zM98 895h7q34 0 58 -23t24 -56q0 -30 -19 -52.5t-52 -28.5h-7q-34 0 -58 23.5t-24 55.5q0 31 19.5 53.5t51.5 27.5zM304 895h7q34 0 58 -23.5t24 -55.5q0 -31 -19.5 -53.5t-51.5 -27.5h-7q-34 0 -58 23t-24 56
q0 30 19 52.5t52 28.5z" />
    <glyph glyph-name="afii10057" unicode="&#x408;" horiz-adv-x="548" 
d="M151 684h255l74 3v-52h-68v-474q0 -45 -11 -69q-25 -56 -83.5 -80.5t-128.5 -24.5q-29 0 -59.5 6t-61.5 19.5t-50.5 40t-19.5 62.5q0 34 22 58t60 24q33 0 57.5 -22t24.5 -59q0 -23 -12 -44.5t-31 -28.5v-1q7 -2 19.5 -5.5t22.5 -5.5t20 -2q25 0 42 10t25.5 23t13.5 34.5
t5.5 35t0.5 33.5v470h-117v49z" />
    <glyph glyph-name="afii10058" unicode="&#x409;" horiz-adv-x="1139" 
d="M189 687h596v-52h-90v-245q12 2 43.5 7.5t53.5 8t45 2.5q86 0 143 -32q47 -26 72.5 -72t25.5 -102q0 -48 -19 -90.5t-55 -68.5q-57 -43 -152 -43q-9 0 -27.5 0.5t-27.5 0.5h-342v52h90v582h-206q0 -186 -3 -279q-4 -149 -19 -221q-13 -66 -39 -98q-38 -50 -124 -50
q-54 0 -89.5 34t-35.5 86q0 35 21.5 60.5t60.5 25.5q35 0 58.5 -24t23.5 -59q0 -48 -34 -66v-1q26 0 45 9t29.5 21t18 34t10 36.5t6.5 40.5q16 116 16 287q0 28 -0.5 82.5t-0.5 81.5h-94v52zM695 53h125q34 0 51 13q47 35 47 137q0 61 -25.5 103.5t-88.5 42.5h-16
q-30 -2 -93 -12v-284z" />
    <glyph glyph-name="afii10059" unicode="&#x40a;" horiz-adv-x="1139" 
d="M46 687h330v-52h-90v-251h259v251h-90v52h330v-52h-90v-245q12 2 43.5 7.5t53.5 8t45 2.5q86 0 143 -32q47 -26 72.5 -72t25.5 -102q0 -48 -19 -90.5t-55 -68.5q-57 -43 -152 -43q-9 0 -27.5 0.5t-27.5 0.5h-342v52h90v279h-259v-279h90v-52h-330v52h90v582h-90v52z
M695 53h125q34 0 51 13q47 35 47 137q0 61 -25.5 103.5t-88.5 42.5h-16q-30 -2 -93 -12v-284z" />
    <glyph glyph-name="afii10060" unicode="&#x40b;" horiz-adv-x="811" 
d="M71 687h575l23 -186h-56q-5 45 -18 73t-34.5 40.5t-42 16.5t-53.5 4h-66l1 -267q23 41 74.5 62.5t104.5 21.5q108 0 143 -61q19 -35 19 -102v-236h68v-52l-68 3h-118l-72 -3v52h68v260q0 97 -59 97q-71 0 -116.5 -49t-45.5 -118q0 -7 0.5 -19.5t0.5 -18.5v-152h68v-52
h-308v52h90v582h-17q-31 0 -54.5 -9.5t-36 -21.5t-22 -35.5t-12.5 -39t-7 -44.5t-6 -41h-56z" />
    <glyph glyph-name="afii10062" unicode="&#x40e;" horiz-adv-x="802" 
d="M32 687h308v-52h-64l223 -352q2 8 7 21t6 16q18 43 48 124t35 94l30 78q1 2 1 5q0 14 -72 14v52l68 -3h103l53 3v-52q-4 0 -14.5 0.5t-16.5 0.5q-41 0 -51 -25l-123 -328q-49 -130 -78 -177q-73 -119 -189 -119q-57 0 -102 34t-45 93q0 39 24.5 61t59.5 22q34 0 57 -24
t23 -57q0 -51 -37 -70l13 -1q70 0 112 42q25 25 25 36q0 1 -6 13q-79 119 -251 392l-48 75q-1 2 -4 7l-4.5 7.5t-4.5 6.5t-5.5 6t-6.5 3.5t-8 1.5h-66v52zM514 809q-39 24 -39 66q0 29 20.5 51.5t51.5 22.5q28 0 50 -18.5t25 -46.5v-9q0 -62 -54 -97t-121 -35
q-39 0 -77.5 12t-70 42.5t-31.5 74.5q0 33 22 54.5t52 21.5q27 0 47.5 -17t26.5 -47v-8q0 -35 -39 -68q8 -1 32 -4.5t38 -3.5q34 0 67 9z" />
    <glyph glyph-name="afii10145" unicode="&#x40f;" horiz-adv-x="832" 
d="M46 687h330v-52h-90v-577h259v577h-90v52h330v-52h-90v-577h90v-57h-288q-27 0 -40 -65t-13 -126h-57q0 66 -13 128.5t-40 62.5h-288v57h90v577h-90v52z" />
    <glyph glyph-name="afii10017" unicode="&#x410;" horiz-adv-x="802" 
d="M39 53q39 0 59 2q6 1 10 2.5t7.5 2.5t6 4t4 4.5t4 6.5t3 7t3 9t3.5 10l35 94q30 77 88 232t88 233l3 9q3 9 4 10.5t4.5 8t7 8.5t9.5 4t13 2h14q31 0 42 -28q9 -27 28.5 -77.5t23.5 -61.5l167 -443q2 -4 5 -12.5t5 -12.5q4 -15 17 -15q2 0 6 0.5t5 0.5h59v-52h-313v52h77
q-6 17 -18 48.5t-16 42.5l-9 24q0 1 -2 5t-3 5t-3.5 2.5t-6.5 1.5h-220q-10 0 -13 -11l-30 -81q-9 -16 -9 -25q0 -12 62 -12h10v-52l-68 3h-105l-57 -3v52zM260 234h199l-99 264z" />
    <glyph glyph-name="afii10018" unicode="&#x411;" horiz-adv-x="755" 
d="M46 687h557l33 -243h-56q-13 90 -35 127q-24 39 -65 51.5t-98 12.5h-108v-246q97 19 168 19q91 0 154 -35q47 -26 73 -71t26 -99q0 -45 -19 -87.5t-53 -67.5q-65 -47 -143 -47h-434v52h90v582h-90v52zM274 53h116q5 0 17 -0.5t18 -0.5q59 0 84.5 45t25.5 106
q0 63 -29 101q-33 46 -103 46h-7q-123 0 -123 -26q0 -2 0.5 -6t0.5 -5v-260z" />
    <glyph glyph-name="afii10019" unicode="&#x412;" horiz-adv-x="755" 
d="M46 687h366q91 0 140 -19q51 -20 82.5 -60.5t31.5 -91.5t-31.5 -88.5t-83.5 -57.5q-4 -1 -17 -4.5t-20 -6.5q73 -5 127 -51.5t54 -120.5q0 -26 -8 -53q-14 -43 -41 -71.5t-64.5 -41t-69.5 -16.5t-74 -4h-392v52h90v582h-90v52zM274 53h145q44 0 67 14q55 34 55 123
q0 147 -106 147h-161v-284zM274 379h143q53 6 77 45t24 91t-22 86t-73 34h-149v-256z" />
    <glyph glyph-name="afii10020" unicode="&#x413;" horiz-adv-x="637" 
d="M46 687h514l33 -243h-56q-8 60 -17 91q-12 35 -30.5 57t-46.5 30.5t-48 10.5t-56 2h-53v-582h113v-52h-353v52h90v582h-90v52z" />
    <glyph glyph-name="afii10021" unicode="&#x414;" horiz-adv-x="832" 
d="M193 687h592v-52h-90v-577h99l33 -248h-56q-11 88 -28 120q-12 24 -31 39q-41 32 -132 32h-317q-33 0 -51 -1t-45 -8.5t-46 -21.5q-9 -7 -16.5 -15.5t-12.5 -16.5t-9.5 -20.5t-7 -20t-5.5 -23t-4 -21t-3 -23t-3 -20.5h-56l33 248h48q2 0 6 -0.5t7 -0.5q10 0 24 14
q53 53 87 120t49 146t20 144t5 154h-90v52zM187 58h358v577h-206q0 -85 -5.5 -155t-20 -150t-46.5 -149.5t-80 -122.5z" />
    <glyph glyph-name="afii10022" unicode="&#x415;" horiz-adv-x="696" 
d="M46 687h558l33 -243h-56q-10 81 -28 115q-13 26 -32 42t-45 23t-46.5 9t-51.5 2h-92v-252h24q58 0 80 24q19 21 19 76v15h56v-282h-56v15q0 55 -19 76q-22 24 -80 24h-24v-278h86q117 0 165 40q13 11 23.5 25.5t16.5 26.5t12.5 33t8.5 31l7 35t6 32h56l-49 -275h-572v52
h90v582h-90v52z" />
    <glyph glyph-name="afii10024" unicode="&#x416;" horiz-adv-x="1243" 
d="M59 687l46 -3h105l74 3v-52q-31 0 -54 -8l316 -290v298h-90v52h330v-52h-90v-298l316 290q-23 8 -54 8v52l74 -3h105l46 3v-52h-25q-54 0 -77 -23l-33 -30q-12 -11 -33 -30t-38.5 -35t-32.5 -30q-8 -7 -27.5 -24t-31 -28t-11.5 -15q0 -2 5 -10l13 -19q37 -51 105 -149.5
t76 -110.5q5 -7 17 -26t21 -31t16 -16q11 -6 39 -6q6 0 17 0.5t15 0.5v-52h-295v52h10q43 0 45 9v1q0 3 -3.5 8t-8 11.5t-6.5 9.5l-57 82q-27 38 -79 114l-21 29q-7 11 -9 11h-1q-5 0 -34 -29q-2 -2 -13 -11t-15.5 -13.5t-10 -12.5t-5.5 -15q0 -3 0.5 -7.5t0.5 -6.5v-180h90
v-52h-330v52h90v194q0 12 -15 27l-18 18t-27.5 26t-16.5 10h-1q-2 0 -9 -11l-21 -29q-52 -76 -79 -114l-57 -82q-2 -3 -6.5 -9.5t-8 -11.5t-3.5 -8v-1q2 -9 45 -9h10v-49h-226l-69 -3v52h10q37 0 52 4.5t28 23.5q29 41 102 147t114 163l13 19q5 8 5 10q0 3 -5 8
q-24 24 -52 49.5t-63 56t-54 48.5l-33 30q-23 23 -75 23h-27v52z" />
    <glyph glyph-name="afii10025" unicode="&#x417;" horiz-adv-x="649" 
d="M429 359q17 -2 56 -17q54 -24 86.5 -64.5t32.5 -92.5v-6q-4 -56 -33.5 -96t-76 -59.5t-91.5 -28t-93 -8.5q-127 0 -192 52q-65 53 -65 149q0 24 24 24q3 0 8 -0.5t7 -0.5h8q9 0 13.5 -5.5t5.5 -11.5t1.5 -17t0.5 -14q20 -124 181 -124q65 0 104 35q44 41 44 116v9
q-3 61 -39 98q-25 25 -56 32.5t-76 7.5h-44q-26 0 -29 15v6q0 21 30 21h50q67 0 103.5 36.5t36.5 98.5q0 56 -30 95.5t-91 39.5q-45 0 -85 -19.5t-62 -56.5q-10 -16 -16 -37t-8.5 -35t-9 -24.5t-18.5 -10.5h-14q-17 0 -22 5.5t-5 19.5v184q0 26 21 26q8 0 28 -10l30 -18
q13 -8 18 -8h1q3 0 11 5q62 31 131 31q67 0 125 -17t101 -61t43 -108q0 -29 -10.5 -53t-21 -37.5t-37 -29t-36 -19.5t-40.5 -17z" />
    <glyph glyph-name="afii10026" unicode="&#x418;" horiz-adv-x="832" 
d="M46 687h330v-52h-90v-461l257 461h-88v52h330v-52h-90v-582h90v-52h-330v52h90v461l-257 -461h88v-52h-330v52h90v582h-90v52z" />
    <glyph glyph-name="afii10027" unicode="&#x419;" horiz-adv-x="832" 
d="M46 687h330v-52h-90v-461l257 461h-88v52h330v-52h-90v-582h90v-52h-330v52h90v461l-257 -461h88v-52h-330v52h90v582h-90v52zM484 809q-39 27 -39 64q0 31 21.5 53.5t52.5 22.5t52 -22.5t21 -52.5v-7q-4 -58 -57 -91t-119 -33q-67 0 -121.5 34.5t-56.5 96.5q0 31 22 53
t52 22q32 0 53.5 -22.5t21.5 -52.5q0 -36 -40 -65q28 -8 65 -8q41 0 72 8z" />
    <glyph glyph-name="afii10028" unicode="&#x41a;" horiz-adv-x="832" 
d="M46 687h330v-52h-90v-298l315 290q-23 8 -54 8v52l74 -3h105l46 3v-54h-54l-28 -5l-229 -206q6 -10 56 -81q66 -97 119 -172l52 -75q14 -20 20 -27t16.5 -11t29.5 -4q6 0 17 0.5t16 0.5v-52h-295v52h11q42 0 44 8v2q0 4 -10 17q-73 113 -155 224l-18 27l-78 -72v-206h90
v-52h-330v52h90v582h-90v52z" />
    <glyph glyph-name="afii10029" unicode="&#x41b;" horiz-adv-x="832" 
d="M189 687h596v-52h-90v-582h90v-52h-330v52h90v582h-206q0 -186 -3 -279q-4 -149 -19 -221q-13 -66 -39 -98q-38 -50 -124 -50q-54 0 -89.5 34t-35.5 86q0 35 21.5 60.5t60.5 25.5q35 0 58.5 -24t23.5 -59q0 -48 -34 -66v-1q26 0 45 9t29.5 21t18 34t10 36.5t6.5 40.5
q16 116 16 287q0 28 -0.5 82.5t-0.5 81.5h-94v52z" />
    <glyph glyph-name="afii10030" unicode="&#x41c;" horiz-adv-x="1008" 
d="M46 687h219q9 0 16 -2.5t12 -8.5t7 -10t6 -13t5 -12l140 -352q4 -10 23 -58t30 -73q11 25 30 73t23 58l140 352q1 3 5 12t6 13t7 10t12 8.5t16 2.5h219v-52h-90v-582h90v-52h-311v52h90l-1 570q-4 -16 -22 -56l-211 -529q-5 -12 -8 -18t-11.5 -12.5t-20.5 -6.5
q-13 0 -21.5 6t-11.5 12.5t-8 18.5l-206 515q-20 52 -21 55l-1 -538q0 -17 54 -17h36v-52l-67 3h-111l-64 -3v52h34q56 0 56 17v565h-90v52z" />
    <glyph glyph-name="afii10031" unicode="&#x41d;" horiz-adv-x="832" 
d="M46 687h330v-52h-90v-251h259v251h-90v52h330v-52h-90v-582h90v-52h-330v52h90v279h-259v-279h90v-52h-330v52h90v582h-90v52z" />
    <glyph glyph-name="afii10032" unicode="&#x41e;" horiz-adv-x="797" 
d="M378 701h13q90 0 159 -31.5t108.5 -84t59 -115t19.5 -131.5q0 -168 -102 -266q-92 -86 -235 -86q-156 0 -249 96q-92 95 -92 258q0 90 32.5 169t98.5 127q69 52 188 64zM219 310q1 -6 3.5 -34t3.5 -36.5t4.5 -31.5t8 -35t11.5 -29.5t17 -32.5q22 -34 57.5 -54.5
t74.5 -20.5q40 0 80 25q34 22 55.5 56.5t30 81t10.5 77.5t2 81v6q0 52 -7 97t-24.5 91.5t-55.5 74t-92 27.5q-179 0 -179 -306v-37z" />
    <glyph glyph-name="afii10033" unicode="&#x41f;" horiz-adv-x="832" 
d="M46 687h739v-52h-90v-582h90v-52h-330v52h90v582h-259v-582h90v-52h-330v52h90v582h-90v52z" />
    <glyph glyph-name="afii10034" unicode="&#x420;" horiz-adv-x="725" 
d="M46 687h387q98 -4 165.5 -56.5t67.5 -140.5q0 -50 -23 -89t-60.5 -61t-79.5 -32.5t-86 -10.5h-131v-244h90v-52h-330v52h90v582h-90v52zM280 344h87q72 0 103 22q37 23 37 97v25q0 44 -5 74q-14 73 -133 73h-89v-291z" />
    <glyph glyph-name="afii10035" unicode="&#x421;" horiz-adv-x="767" 
d="M604 639q7 9 32 29l11 10q3 2 7 6.5t7 6.5t7 5t8.5 4t10.5 1q20 0 20 -26v-226q0 -25 -19 -25h-21q-8 0 -13 1t-7.5 5.5t-3.5 7t-2.5 10.5t-2.5 11q-15 79 -65.5 134.5t-127.5 55.5q-20 0 -38 -3q-49 -8 -84.5 -30.5t-55 -50t-31 -66.5t-14.5 -71.5t-3 -73.5q0 -51 2 -83
t14 -75t34 -74q30 -41 79 -62t103 -21q81 0 136.5 54t63.5 132v6q0 21 26 21q28 0 30 -16v-7q0 -74 -43.5 -131t-106 -84.5t-127.5 -27.5q-82 0 -158.5 29.5t-127.5 86.5q-85 97 -85 243q0 131 70 223q52 68 133.5 100.5t174.5 32.5q94 0 167 -62z" />
    <glyph glyph-name="afii10036" unicode="&#x422;" horiz-adv-x="738" 
d="M61 687h616l23 -243h-56q0 4 -2.5 28t-4 33.5t-5 28t-9.5 32t-14 24.5q-33 45 -125 45h-40v-582h127v-52h-404v52h127v582h-40q-25 0 -46 -3t-36 -11.5t-26.5 -15.5t-19.5 -22.5t-13 -23.5t-8.5 -28.5t-4.5 -28t-3 -30.5t-3 -28h-56z" />
    <glyph glyph-name="afii10037" unicode="&#x423;" horiz-adv-x="802" 
d="M32 687h308v-52h-64l223 -352q2 8 7 21t6 16q18 43 48 124t35 94l30 78q1 2 1 5q0 14 -72 14v52l68 -3h103l53 3v-52q-4 0 -14.5 0.5t-16.5 0.5q-41 0 -51 -25l-123 -328q-49 -130 -78 -177q-73 -119 -189 -119q-57 0 -102 34t-45 93q0 39 24.5 61t59.5 22q34 0 57 -24
t23 -57q0 -51 -37 -70l13 -1q70 0 112 42q25 25 25 36q0 1 -6 13q-79 119 -251 392l-48 75q-1 2 -4 7l-4.5 7.5t-4.5 6.5t-5.5 6t-6.5 3.5t-8 1.5h-66v52z" />
    <glyph glyph-name="afii10038" unicode="&#x424;" horiz-adv-x="885" 
d="M260 687h364v-52h-113v-50h9q90 0 167 -28q69 -25 103.5 -77t34.5 -122q0 -67 -28 -114t-76 -70.5t-99 -33t-111 -9.5v-78h113v-52h-364v52h113v78h-9q-144 0 -224.5 60.5t-80.5 166.5q0 103 68 161q78 66 246 66v50h-113v52zM511 174q83 4 125 49q35 39 35 134
q0 97 -35 136q-42 45 -125 49v-368zM373 542q-83 -4 -125 -49q-35 -39 -35 -134q0 -97 35 -136q42 -45 125 -49v368z" />
    <glyph glyph-name="afii10039" unicode="&#x425;" horiz-adv-x="802" 
d="M48 687h314v-52h-65l119 -179l118 170q-23 9 -75 9v49h201l64 3v-52q-23 0 -69 -2q-2 0 -12.5 -1t-14 -2t-10 -5t-11.5 -12l-20 -28q-12 -17 -36 -52t-36 -52l-52 -75q-5 -8 -5 -9q0 -3 2.5 -7.5t6.5 -9.5t5 -7l196 -294q1 -1 6.5 -10.5t10 -13t12.5 -3.5q3 0 7 0.5
t6 0.5h59v-52h-314v52h64l-147 222l-148 -213q23 -9 75 -9v-49h-201l-64 -3v52q23 0 69 2q3 0 9.5 0.5t9 1t8 2t8.5 3.5t7 6t8 10q19 27 56 80t56 80l60 87q5 7 5 9q0 7 -12 21l-173 259q-1 2 -4 6.5l-4 6t-4 4t-6.5 3.5t-8.5 1h-70v52z" />
    <glyph glyph-name="afii10040" unicode="&#x426;" horiz-adv-x="832" 
d="M46 687h330v-52h-90v-577h259v577h-90v52h330v-52h-90v-577h99l33 -248h-56q0 2 -2 16.5t-3 18.5t-3 17t-3.5 18.5t-4.5 17t-6 17.5t-7 15.5t-9 15.5t-11 13t-13 12q-39 30 -133 30h-530v57h90v577h-90v52z" />
    <glyph glyph-name="afii10041" unicode="&#x427;" horiz-adv-x="832" 
d="M46 687h330v-52h-90v-185q0 -126 68 -126h15q53 0 115 14.5t62 35.5q0 3 -0.5 7.5t-0.5 5.5v248h-90v52h330v-52h-90v-582h90v-52h-330v52h90v262q-6 -2 -27 -10.5t-33 -11.5q-58 -16 -125 -16q-40 0 -60 4q-67 16 -115.5 61t-48.5 112v181h-90v52z" />
    <glyph glyph-name="afii10042" unicode="&#x428;" horiz-adv-x="1230" 
d="M46 687h330v-52h-90v-577h254v577h-90v52h330v-52h-90v-577h254v577h-90v52h330v-52h-90v-577h90v-57h-1138v57h90v577h-90v52z" />
    <glyph glyph-name="afii10043" unicode="&#x429;" horiz-adv-x="1230" 
d="M46 687h330v-52h-90v-577h254v577h-90v52h330v-52h-90v-577h254v577h-90v52h330v-52h-90v-577h99l33 -248h-56q-11 75 -21 103q-11 30 -30 48.5t-44.5 26.5t-46 10.5t-50.5 2.5h-932v57h90v577h-90v52z" />
    <glyph glyph-name="afii10044" unicode="&#x42a;" horiz-adv-x="927" 
d="M61 687h430v-52h-45v-246q97 19 168 19q92 0 153 -34q47 -26 74 -71t27 -100q0 -100 -73 -155q-60 -47 -174 -47h-403v52h90v582q-7 0 -23 0.5t-24 0.5q-95 0 -131 -46q-6 -7 -10.5 -16t-8 -21t-5.5 -19.5t-4.5 -23.5t-3 -21.5t-2.5 -23.5t-2 -21h-56zM446 53h116
q5 0 17 -0.5t18 -0.5q41 0 67.5 25t35 56.5t8.5 69.5q0 61 -27 99q-36 48 -106 48h-6q-124 0 -124 -26q0 -2 0.5 -6t0.5 -5v-260z" />
    <glyph glyph-name="afii10045" unicode="&#x42b;" horiz-adv-x="1038" 
d="M46 687h318v-52h-90v-246q97 19 168 19q92 0 153 -34q47 -26 74 -71t27 -100q0 -100 -73 -155q-60 -47 -174 -47h-403v52h90v582h-90v52zM662 687h330v-52h-90v-582h90v-52h-330v52h90v582h-90v52zM274 53h116q5 0 17 -0.5t18 -0.5q41 0 67.5 25t35 56.5t8.5 69.5
q0 61 -27 99q-36 48 -106 48h-6q-124 0 -124 -26q0 -2 0.5 -6t0.5 -5v-260z" />
    <glyph glyph-name="afii10046" unicode="&#x42c;" horiz-adv-x="755" 
d="M46 687h318v-52h-90v-246q97 19 168 19q91 0 154 -35q47 -26 73 -71t26 -99q0 -45 -19 -87.5t-53 -67.5q-65 -47 -143 -47h-434v52h90v582h-90v52zM274 53h116q5 0 17 -0.5t18 -0.5q59 0 84.5 45t25.5 106q0 63 -29 101q-33 46 -103 46h-7q-123 0 -123 -26q0 -2 0.5 -6
t0.5 -5v-260z" />
    <glyph glyph-name="afii10047" unicode="&#x42d;" horiz-adv-x="767" 
d="M547 357q-2 121 -37 183q-30 52 -82 80.5t-113 28.5q-68 0 -121 -44t-67 -111q-1 -11 -2.5 -15.5t-7.5 -9.5t-17 -5h-15q-26 0 -26 22v190q0 25 23 25q7 0 10 -1q4 -2 33 -25.5t38 -23.5q4 1 15 9q74 41 157 41q153 0 253 -84q59 -50 89 -121.5t30 -152.5
q0 -158 -96 -254q-103 -102 -277 -102q-33 0 -69 7t-73 23t-66.5 38.5t-48 58t-18.5 77.5q0 23 25 23h5q15 0 19.5 -6t7.5 -23q6 -68 66 -107t130 -39q103 0 167 73q31 36 48.5 89.5t17.5 102.5q-92 -49 -159 -49q-22 0 -43 6q-19 5 -64.5 32t-75.5 27h-4q-6 0 -15 -3.5
t-14 -3.5h-3q-14 3 -14 20q0 27 39.5 41t82.5 14q48 0 94 -17q10 -3 30 -12t36.5 -13.5t34.5 -4.5q24 0 46 6q4 1 14.5 5t16.5 5z" />
    <glyph glyph-name="afii10048" unicode="&#x42e;" horiz-adv-x="1184" 
d="M447 365q0 73 30.5 144.5t85.5 116.5q89 75 223 75q147 0 239 -91q48 -48 73.5 -117t25.5 -142q0 -163 -86 -261q-44 -52 -112 -77.5t-141 -25.5q-129 0 -215 67q-57 44 -90 116t-33 143h-161v-260h90v-52h-330v52h90v582h-90v52h330v-52h-90v-270h161zM606 310
q1 -6 3.5 -34t3.5 -36.5t4.5 -31.5t8 -35t11.5 -29.5t17 -32.5q22 -34 57.5 -54.5t74.5 -20.5q40 0 80 25q34 22 55.5 56.5t30 81t10.5 77.5t2 81v6q0 52 -7 97t-24.5 91.5t-55.5 74t-92 27.5q-179 0 -179 -306v-37z" />
    <glyph glyph-name="afii10049" unicode="&#x42f;" horiz-adv-x="832" 
d="M341 326q-82 13 -143.5 59t-61.5 124q0 46 28 81.5t72 56t91.5 30.5t93.5 10h364v-52h-90v-582h90v-52h-324v52h90v265h-48q-6 0 -9.5 -2t-8 -8t-5.5 -7l-27 -35q-17 -22 -50.5 -65.5t-50.5 -65.5q-4 -5 -12.5 -15t-14.5 -18t-13 -17t-10.5 -15t-3.5 -9v-2q1 -6 32 -6h19
v-49h-234l-71 -3v52q33 0 49 2q15 1 30 10.5t23 18t23 28.5t21 27q19 23 70.5 88t80.5 99zM551 635h-88q-90 0 -130 -27q-37 -24 -37 -100q0 -22 1 -33q2 -38 18 -61.5t45 -33.5t52.5 -12.5t59.5 -2.5h79v270z" />
    <glyph glyph-name="afii10065" unicode="&#x430;" horiz-adv-x="516" 
d="M173 408q22 -22 22 -52q0 -28 -19.5 -48t-47.5 -20q-29 0 -49 19.5t-20 50.5q0 98 177 98q48 0 90.5 -11.5t77.5 -45t40 -84.5v-234q0 -15 11 -20.5t24.5 -5t24.5 -5.5t11 -21q0 -13 -5 -19.5t-10.5 -7.5t-16.5 -1h-32q-23 0 -36.5 1.5t-31 7t-28 19.5t-15.5 37
q-15 -35 -53 -53.5t-79 -18.5q-40 0 -78 10t-69.5 38.5t-31.5 70.5q0 44 28.5 76.5t75.5 49t94 23.5t95 7v20q0 125 -92 125zM322 231q-7 -2 -20 -3t-17 -2q-52 -7 -92 -35.5t-40 -75.5q0 -35 20.5 -57t49.5 -22q44 0 71.5 29.5t27.5 75.5v90z" />
    <glyph glyph-name="afii10066" unicode="&#x431;" 
d="M94 392q65 64 171 64q115 0 175.5 -70t60.5 -168q0 -108 -74 -172q-63 -52 -162 -52q-115 0 -180 69q-51 55 -56 143v50q0 128 13 200q9 53 28.5 90t41.5 57t55 33t60 17t66.5 10.5t63.5 12.5l60 15q13 4 29 4q26 0 26 -24v-7q0 -85 -103 -98q-18 -3 -57.5 -6t-61.5 -6
t-52 -14.5t-51 -31.5q-42 -41 -53 -116zM165 182q1 -8 2 -25t2 -27.5t5 -24.5t11 -24q27 -40 80 -40q55 0 82 42q19 31 19 101v34q0 37 -1 60.5t-7 52t-16 44.5t-29.5 27.5t-47.5 11.5q-34 0 -56 -14t-30.5 -42t-11 -50t-2.5 -58v-68z" />
    <glyph glyph-name="afii10067" unicode="&#x432;" 
d="M23 445h258q33 0 62.5 -4.5t60 -15.5t49 -33.5t18.5 -55.5q0 -19 -7.5 -33.5t-22.5 -26t-26 -17t-30 -13.5q110 -38 110 -115q0 -39 -18.5 -66.5t-49 -40.5t-60 -18t-62.5 -5h-282v42h23q16 0 24 1h5q14 0 14 15v328q0 15 -14 15h-5q-8 1 -24 1h-23v42zM211 226v-170
q0 -13 18 -13h58q42 0 60 27t18 66q0 90 -63 90h-91zM211 265q6 0 18.5 -0.5t19.5 -0.5q99 0 99 74q0 31 -18 48t-48 17h-54q-17 0 -17 -16v-122z" />
    <glyph glyph-name="afii10068" unicode="&#x433;" horiz-adv-x="457" 
d="M20 445h397l13 -178h-56q-1 23 -3 38.5t-9 35.5t-17.5 32.5t-31 21t-48.5 8.5h-39q-19 0 -19 -15q0 -2 0.5 -5.5t0.5 -4.5v-307q0 -1 -0.5 -5t-0.5 -6q0 -16 19 -16h5q10 -1 29 -1h30v-42l-74 3h-125l-71 -3v42h23q16 0 24 1h5q14 0 14 15v328q0 15 -14 15h-5q-8 1 -24 1
h-23v42z" />
    <glyph glyph-name="afii10069" unicode="&#x434;" horiz-adv-x="590" 
d="M125 445h444v-42h-24q-15 0 -23 -1h-5q-15 0 -15 -15q0 -2 0.5 -5.5t0.5 -4.5v-306q0 -1 -0.5 -5t-0.5 -6q0 -16 17 -16h5q18 -1 53 -1l20 -201h-56q-7 61 -13 82q-20 77 -125 77h-208q-75 0 -105 -26q-7 -6 -13 -14t-10 -18.5t-6.5 -18t-5 -21.5t-3 -19.5t-2.5 -22
t-2 -19.5h-56l20 201h22q33 0 51 16q94 69 102 238l3 71q1 7 1 20q0 15 -26 15h-40v42zM145 46q11 -3 35 -3h185q16 0 16 16v328q0 17 -18 17q-3 0 -7.5 -0.5t-5.5 -0.5h-84q-21 0 -21 -18v-21q-1 -7 -1.5 -19t-0.5 -16q-9 -95 -29 -161t-69 -122z" />
    <glyph glyph-name="afii10070" unicode="&#x435;" horiz-adv-x="495" 
d="M165 213q0 -76 18 -112q33 -60 104 -60q34 0 64.5 15.5t48.5 42.5l6.5 13l5.5 11t5 7.5t7.5 5t11.5 1.5q30 0 30 -21q0 -7 -3 -13q-20 -51 -67.5 -78.5t-105.5 -30.5h-17q-117 0 -183 70q-62 65 -62 164q0 88 53 152q62 76 182 76q104 0 154 -60q50 -58 50 -155
q0 -28 -27 -28h-275zM165 252h202q0 39 -7.5 72.5t-32 61t-63.5 27.5q-99 0 -99 -161z" />
    <glyph glyph-name="afii10072" unicode="&#x436;" horiz-adv-x="885" 
d="M42 445q46 -3 92 -3h31l60 3v-42q-18 0 -18 -12q0 -4 14 -15l21 -17q23 -18 69.5 -54.5t69.5 -54.5v137l-3 12l-17 3l-46 1v42l68 -3h115l65 3v-42l-46 -1l-17 -3l-3 -12v-142q4 3 55 43l109 86q16 13 16 17q0 9 -18 12v42l60 -3h31q46 0 92 3v-42q-39 0 -62 -11
q-8 -4 -41 -29q-10 -8 -30 -23.5t-30 -23.5l-37 -29q-12 -9 -12 -12t13 -19q21 -26 64 -78.5t64 -78.5q2 -2 8.5 -11t8.5 -11t8 -9t8.5 -9t8.5 -6.5t10.5 -5.5t11 -2.5t13.5 -1.5h18v-42l-54 3h-103l-69 -3v42q29 0 29 12q0 7 -15 26.5t-44 53t-32 36.5q-27 32 -32 41
q-4 -4 -19 -14t-23 -19t-8 -18q0 -2 0.5 -6.5t0.5 -5.5v-93q0 -12 14 -12h6q7 -1 23 -1h23v-42l-68 3h-115l-65 -3v42l46 1l17 3l3 10v110l-2 11l-41 34q-5 -9 -32 -41q-10 -12 -30 -36.5t-30 -36.5q-3 -4 -11.5 -13.5t-14 -17.5t-5.5 -12q0 -12 29 -12v-42l-69 3h-103
l-54 -3v42h18q32 0 55 29q21 27 60.5 74.5t51.5 62.5q4 5 19.5 22.5t23.5 28.5t8 15q0 3 -12 12l-37 29q-10 8 -30 23.5t-30 23.5q-33 25 -41 29q-23 11 -62 11v42z" />
    <glyph glyph-name="afii10073" unicode="&#x437;" horiz-adv-x="472" 
d="M329 247q45 -11 76 -41.5t31 -73.5q0 -138 -226 -138q-179 0 -187 116q0 16 7 20t22 4h8q8 0 12.5 -4t5.5 -7.5t2 -12.5t1 -10q16 -59 124 -59q42 0 71.5 20.5t29.5 64.5v4q0 96 -104 96h-40q-13 3 -15 17v3q0 19 26 19h22q44 0 74.5 18t30.5 59q0 38 -26.5 55t-64.5 17
q-94 0 -119 -76q-1 -3 -2.5 -9t-2.5 -9.5t-4 -7.5t-7.5 -6t-11.5 -2h-6q-13 0 -19 5t-7 10t-1 15v98q0 25 20 25q11 0 29 -11.5t24 -11.5h2q2 0 22 9q32 13 85 13q34 0 64.5 -4t67.5 -14.5t59 -35t22 -61.5q0 -16 -7 -29.5t-13.5 -21.5t-24 -18t-24 -13t-26.5 -12z" />
    <glyph glyph-name="afii10074" unicode="&#x438;" horiz-adv-x="590" 
d="M20 445l71 -3h116l67 3v-42h-23q-16 0 -23 -1h-5q-15 0 -15 -14l1 -250q3 5 9 14t7 11l145 217q9 9 9 15q0 7 -12 7h-5q-8 1 -24 1h-23v42l71 -3h116l67 3v-42h-24q-15 0 -23 -1h-5q-15 0 -15 -15q0 -2 0.5 -5.5t0.5 -4.5v-306q0 -1 -0.5 -5.5t-0.5 -6.5q0 -15 15 -15h5
q8 -1 23 -1h24v-42l-67 3h-116l-71 -3v42h23q15 0 23 1h5q15 0 15 14l-1 250q-3 -5 -9 -14t-7 -11l-145 -217q-9 -9 -9 -15q0 -7 12 -7h5q8 -1 23 -1h24v-42l-71 3h-116l-67 -3v42h23q16 0 24 1h5q14 0 14 15v328q0 15 -14 15h-5q-8 1 -24 1h-23v42z" />
    <glyph glyph-name="afii10075" unicode="&#x439;" horiz-adv-x="590" 
d="M20 445l71 -3h116l67 3v-42h-23q-16 0 -23 -1h-5q-15 0 -15 -14l1 -250q3 5 9 14t7 11l145 217q9 9 9 15q0 7 -12 7h-5q-8 1 -24 1h-23v42l71 -3h116l67 3v-42h-24q-15 0 -23 -1h-5q-15 0 -15 -15q0 -2 0.5 -5.5t0.5 -4.5v-306q0 -1 -0.5 -5.5t-0.5 -6.5q0 -15 15 -15h5
q8 -1 23 -1h24v-42l-67 3h-116l-71 -3v42h23q15 0 23 1h5q15 0 15 14l-1 250q-3 -5 -9 -14t-7 -11l-145 -217q-9 -9 -9 -15q0 -7 12 -7h5q8 -1 23 -1h24v-42l-71 3h-116l-67 -3v42h23q16 0 24 1h5q14 0 14 15v328q0 15 -14 15h-5q-8 1 -24 1h-23v42zM363 567q-39 27 -39 64
q0 33 22 54.5t52 21.5q32 0 52.5 -22t20.5 -53v-7q-4 -58 -57 -91t-119 -33q-67 0 -121.5 34.5t-56.5 96.5q0 31 22 53t52 22q32 0 53.5 -22.5t21.5 -52.5q0 -36 -40 -65q31 -8 72 -8q37 0 65 8z" />
    <glyph glyph-name="afii10076" unicode="&#x43a;" horiz-adv-x="590" 
d="M20 445l65 -3h115l68 3v-42l-46 -1l-17 -3l-3 -12v-142q4 3 55 43l109 86q16 13 16 17q0 9 -18 12v42l60 -3h31q45 0 92 3v-42q-39 0 -62 -11q-8 -4 -41 -29q-10 -8 -30 -23.5t-30 -23.5l-37 -29q-12 -9 -12 -12t13 -19q22 -26 64 -78.5t64 -78.5q2 -2 8.5 -11t8.5 -11
t8 -9t8.5 -9t8.5 -6.5t10.5 -5.5t11 -2.5t13.5 -1.5h18v-42l-54 3h-103l-69 -3v42q29 0 29 12q0 7 -15 26.5t-44 53t-32 36.5q-27 32 -32 41q-4 -4 -19 -14t-23 -19t-8 -18q0 -2 0.5 -6.5t0.5 -5.5v-93q0 -12 14 -12h6q7 -1 23 -1h23v-42l-68 3h-115l-65 -3v42h23q16 0 24 1
h5q14 0 14 15v328q0 15 -14 15h-5q-8 1 -24 1h-23v42z" />
    <glyph glyph-name="afii10077" unicode="&#x43b;" horiz-adv-x="590" 
d="M122 445h447v-42h-24q-15 0 -23 -1h-5q-15 0 -15 -15q0 -2 0.5 -5.5t0.5 -4.5v-306q0 -1 -0.5 -5.5t-0.5 -6.5q0 -15 15 -15h5q8 -1 23 -1h24v-42l-71 3h-116l-67 -3v42h23q15 0 23 1h5q15 0 15 15v326q0 12 -5.5 15t-16.5 3h-81q-1 0 -6 0.5t-8 0.5q-18 0 -18 -17
q0 -2 0.5 -6t0.5 -5v-52q-1 -7 -1 -22v-39q-4 -118 -14 -166q-20 -106 -112 -106h-5q-39 0 -67 23.5t-28 67.5q0 28 16 48t48 20q27 0 44.5 -18t17.5 -44q0 -22 -12 -39q33 6 44 66q13 56 13 176v95q0 16 -15 16h-5q-8 1 -25 1h-24v42z" />
    <glyph glyph-name="afii10078" unicode="&#x43c;" horiz-adv-x="708" 
d="M30 445h167q18 0 27 -4q7 -5 13.5 -15.5t10 -20t9 -25t8.5 -21.5l63 -156q2 -6 14 -33t15 -40h2q3 13 15 40t14 33l63 156q2 4 9.5 26.5t12 31t17 18.5t29.5 10h158v-42h-24q-15 0 -23 -1h-5q-15 0 -15 -16q0 -2 0.5 -6t0.5 -5v-306q0 -1 -0.5 -5t-0.5 -6q0 -14 15 -14h5
q8 -1 23 -1h24v-42l-62 3h-108l-65 -3v42h23q16 0 24 1h5q14 0 14 17l-1 328q-2 -8 -8 -21.5t-7 -16.5q-18 -43 -53 -131t-53 -131q-2 -4 -7.5 -20.5t-9 -25t-10 -20t-14 -17t-16.5 -5.5q-24 0 -36 34q-32 74 -97 239q-2 6 -17 40t-20 53l-1 -296q0 -28 61 -28h5v-42l-54 3
h-88l-52 -3v42h9q57 0 57 26v318q0 15 -14 15h-5q-8 1 -24 1h-23v42z" />
    <glyph glyph-name="afii10079" unicode="&#x43d;" horiz-adv-x="590" 
d="M20 445l71 -3h116l67 3v-42l-46 -1l-17 -3l-3 -11v-123h173v123l-3 11l-17 3l-46 1v42l71 -3h116l67 3v-42h-24q-15 0 -23 -1h-5q-15 0 -15 -15q0 -2 0.5 -5.5t0.5 -4.5v-306q0 -1 -0.5 -5.5t-0.5 -6.5q0 -15 15 -15h5q8 -1 23 -1h24v-42l-67 3h-116l-71 -3v42h23
q15 0 23 1h5q15 0 15 13v169h-173v-169q0 -13 15 -13h5q7 -1 23 -1h23v-42l-71 3h-116l-67 -3v42h23q16 0 24 1h5q14 0 14 15v328q0 15 -14 15h-5q-8 1 -24 1h-23v42z" />
    <glyph glyph-name="afii10080" unicode="&#x43e;" 
d="M248 456h11q107 0 174.5 -65t67.5 -169q0 -102 -60 -163q-65 -65 -177 -65q-92 0 -153 46q-82 60 -82 180q0 205 219 236zM165 182q1 -8 2 -25t2 -27.5t5 -24.5t11 -24q27 -40 80 -40q55 0 82 42q19 31 19 101v34q0 37 -1 60.5t-7 52t-16 44.5t-29.5 27.5t-47.5 11.5
q-34 0 -56 -14t-30.5 -42t-11 -50t-2.5 -58v-68z" />
    <glyph glyph-name="afii10081" unicode="&#x43f;" horiz-adv-x="590" 
d="M20 445h549v-42h-24q-15 0 -23 -1h-5q-15 0 -15 -15q0 -2 0.5 -5.5t0.5 -4.5v-306q0 -1 -0.5 -5.5t-0.5 -6.5q0 -15 15 -15h5q8 -1 23 -1h24v-42l-67 3h-116l-71 -3v42h23q15 0 23 1h5q15 0 15 16v325q0 18 -15 18h-144q-15 -4 -15 -16q0 -2 0.5 -6t0.5 -5v-307
q0 -1 -0.5 -5t-0.5 -6q0 -14 15 -14h5q8 -1 23 -1h24v-42l-71 3h-116l-67 -3v42h23q16 0 24 1h5q14 0 14 15v328q0 15 -14 15h-5q-8 1 -24 1h-23v42z" />
    <glyph glyph-name="afii10082" unicode="&#x440;" horiz-adv-x="590" 
d="M23 444l39 8h143v-41q64 37 118 41h15q95 0 156 -65t61 -161q0 -115 -70 -173.5t-168 -58.5q-51 0 -106 35v-170h66v-52l-71 3h-116l-67 -3v52h66v511q0 23 -40 23q-5 0 -13.5 -0.5t-12.5 -0.5v52zM417 201q1 7 1 20q0 25 -3 49.5t-11.5 58.5t-30.5 55t-55 21t-68 -20.5
t-39 -41.5v-232q0 -28 33 -51.5t66 -23.5q93 0 107 165z" />
    <glyph glyph-name="afii10083" unicode="&#x441;" horiz-adv-x="472" 
d="M313 405q-4 0 -19.5 2t-23.5 2q-99 0 -99 -166v-32q0 -29 4 -55t15 -54t34.5 -44.5t57.5 -16.5q53 0 84 40q5 7 12 23t14 23t19 7h4q24 0 27 -15v-2q0 -12 -11 -32q-23 -45 -68 -68t-99 -23q-97 0 -163 62.5t-66 166.5q0 99 62.5 166t169.5 67q27 0 52.5 -4t52 -14
t42.5 -31t16 -50t-19 -49t-48 -20t-49 19t-20 49q0 27 19 49z" />
    <glyph glyph-name="afii10084" unicode="&#x442;" horiz-adv-x="501" 
d="M40 445h420l13 -178h-56q-4 70 -22.5 103t-66.5 33q-18 0 -18 -15q0 -2 0.5 -5.5t0.5 -4.5v-307q0 -1 -0.5 -5t-0.5 -6q0 -16 18 -16h9q22 -1 67 -1v-42h-308v42q45 0 67 1h9q17 0 17 16v328q0 15 -17 15q-13 0 -23.5 -2.5t-18.5 -6t-14.5 -11t-11 -12t-8 -16.5t-5 -16.5
t-3.5 -18.5l-2.5 -17.5t-1.5 -19t-1 -16.5h-56z" />
    <glyph glyph-name="afii10085" unicode="&#x443;" horiz-adv-x="560" 
d="M25 445l62 -3h109l66 3v-42h-16q-34 0 -34 -9q0 -6 5 -14l69 -165q24 -55 26 -64h1q1 5 4.5 13t4.5 10q5 15 62 150q2 6 9 19.5t11 23.5t4 17v3q-4 16 -46 16v42l53 -3h77l43 3v-42q-42 0 -57 -12q-8 -6 -21 -40q-24 -57 -72 -172t-72 -172q-2 -4 -13.5 -31.5t-15.5 -36
t-16.5 -33t-20.5 -34.5t-23.5 -27t-29.5 -24.5t-33.5 -14t-40.5 -6.5q-40 0 -69.5 28t-29.5 71q0 26 16.5 44.5t46.5 18.5q26 0 44.5 -17t18.5 -46q0 -47 -35 -56v-1q25 0 44.5 9t33.5 28t21 33t18 40l13 32q6 15 6 16l-3 12l-38 91q-19 44 -56 132.5t-55 132.5
q-1 3 -4 12.5t-5.5 12.5t-11.5 6.5t-24 3.5h-26v42zM91 -144q9 -11 20 -12z" />
    <glyph glyph-name="afii10086" unicode="&#x444;" horiz-adv-x="826" 
d="M289 687l39 8h143v-268q37 24 90 24q101 0 166 -64.5t65 -162.5q0 -105 -69 -167.5t-167 -62.5q-49 0 -85 25v-160h66v-52l-69 3h-113l-66 -3v52h66v160q-36 -25 -85 -25q-98 0 -167 63t-69 167q0 100 63 163q64 64 168 64q53 0 90 -24v175q0 20 -11.5 26.5t-31.5 6.5
h-23v52zM654 201q1 6 1 19q0 26 -4 53.5t-14.5 59t-34 51.5t-56.5 20q-22 0 -46.5 -14t-28.5 -34v-257q0 -25 24 -44t51 -19q95 0 108 165zM171 202q1 -5 1.5 -10.5t1 -12.5t0.5 -11q9 -53 35.5 -92.5t71.5 -39.5q25 0 49.5 18.5t24.5 44.5v257q-4 20 -28.5 34t-46.5 14
q-33 0 -56 -19t-33.5 -50.5t-15 -60.5t-4.5 -59v-13z" />
    <glyph glyph-name="afii10087" unicode="&#x445;" horiz-adv-x="560" 
d="M27 445l56 -3h104l66 3v-42l-40 -5q9 -15 40 -58t38 -43q5 0 27 31q4 5 16.5 19t19.5 24t7 14v1q0 17 -37 17v42l58 -3h90l48 3v-42q-44 0 -65 -9t-38 -33q-3 -4 -46 -58q-42 -50 -43 -56q0 -3 2 -6.5t5.5 -7t4.5 -5.5q40 -49 106 -141l20 -26q15 -18 48 -18h25v-42
l-56 3h-104l-66 -3v42l40 5l-90 120q-10 -15 -31 -40t-36 -43t-15 -25q0 -8 12 -12.5t25 -4.5v-42l-58 3h-89l-49 -3v42l51 4l25 8l40 45l91 114l-142 185l-18 3l-42 1v42z" />
    <glyph glyph-name="afii10088" unicode="&#x446;" horiz-adv-x="590" 
d="M20 445l71 -3h116l67 3v-42h-23q-16 0 -23 -1h-5q-15 0 -15 -16v-325q0 -18 15 -18h144q1 0 4 1t4 1.5t3 2t2.5 4.5t0.5 7v328q0 15 -14 15h-5q-8 1 -24 1h-23v42l71 -3h116l67 3v-42h-24q-15 0 -23 -1h-5q-15 0 -15 -15q0 -2 0.5 -5.5t0.5 -4.5v-306q0 -1 -0.5 -5
t-0.5 -6q0 -16 17 -16h5q18 -1 53 -1l20 -201h-56q-7 58 -11 73q-6 28 -19.5 46.5t-34 26.5t-38.5 10.5t-44 2.5h-374v42h23q16 0 24 1h5q14 0 14 15v328q0 15 -14 15h-5q-8 1 -24 1h-23v42z" />
    <glyph glyph-name="afii10089" unicode="&#x447;" horiz-adv-x="590" 
d="M20 445l71 -3h116l67 3v-42h-24q-15 0 -23 -1h-5q-14 0 -14 -13v-85q0 -81 41 -81h6q38 0 82 12.5t44 28.5v124q0 14 -14 14h-6q-8 1 -23 1h-23v42l71 -3h116l67 3v-42h-24q-15 0 -23 -1h-5q-15 0 -15 -15q0 -2 0.5 -5.5t0.5 -4.5v-306q0 -1 -0.5 -5.5t-0.5 -6.5
q0 -15 15 -15h5q8 -1 23 -1h24v-42l-67 3h-116l-71 -3v42h23q15 0 23 1h5q15 0 15 13v157q-60 -30 -136 -30q-44 0 -83.5 15.5t-61.5 47.5q-14 23 -14 67v72q0 16 -14 16h-6q-8 1 -23 1h-23v42z" />
    <glyph glyph-name="afii10090" unicode="&#x448;" horiz-adv-x="870" 
d="M20 445l71 -3h116l67 3v-42h-23q-16 0 -23 -1h-5q-15 0 -15 -16v-325q0 -18 15 -18h138q11 3 12 9q1 3 1 7v328q0 15 -14 15h-5q-8 1 -24 1h-23v42l71 -3h116l67 3v-42h-23q-16 0 -23 -1h-5q-15 0 -15 -16v-325q0 -18 15 -18h138q11 3 12 9q1 3 1 7v328q0 15 -14 15h-5
q-8 1 -24 1h-23v42l71 -3h116l67 3v-42h-24q-15 0 -23 -1h-5q-15 0 -15 -16q0 -2 0.5 -6t0.5 -5v-306q0 -1 -0.5 -5t-0.5 -6q0 -14 15 -14h5q8 -1 23 -1h24v-42h-830v42h23q16 0 24 1h5q14 0 14 15v328q0 15 -14 15h-5q-8 1 -24 1h-23v42z" />
    <glyph glyph-name="afii10091" unicode="&#x449;" horiz-adv-x="870" 
d="M20 445l71 -3h116l67 3v-42h-23q-16 0 -23 -1h-5q-15 0 -15 -16v-325q0 -18 15 -18h138q11 3 12 9q1 3 1 7v328q0 15 -14 15h-5q-8 1 -24 1h-23v42l71 -3h116l67 3v-42h-23q-16 0 -23 -1h-5q-15 0 -15 -16v-325q0 -18 15 -18h138q11 3 12 9q1 3 1 7v328q0 15 -14 15h-5
q-8 1 -24 1h-23v42l71 -3h116l67 3v-42h-24q-15 0 -23 -1h-5q-15 0 -15 -15q0 -2 0.5 -5.5t0.5 -4.5v-306q0 -1 -0.5 -5t-0.5 -6q0 -16 17 -16h5q18 -1 53 -1l20 -201h-56q0 3 -1.5 16t-2 18t-2 17t-3.5 18t-4.5 16.5t-6.5 17t-8.5 14.5t-11 13.5t-13.5 10.5q-30 18 -99 18
h-650v42h23q16 0 24 1h5q14 0 14 15v328q0 15 -14 15h-5q-8 1 -24 1h-23v42z" />
    <glyph glyph-name="afii10092" unicode="&#x44a;" horiz-adv-x="634" 
d="M40 445h304v-42h-21l-9 -4l-3 -11v-123h83q97 0 144 -28q61 -37 61 -101q0 -135 -213 -135h-263v42h23q16 0 24 1h5q14 0 14 14v329q0 16 -17 16q-13 0 -23.5 -2.5t-18.5 -6t-14.5 -11t-11 -12t-8 -16.5t-5 -16.5t-3.5 -18.5l-2.5 -17.5t-1.5 -19t-1 -16.5h-56zM311 48
h51q43 0 65 14q37 25 37 75q0 55 -42 78q-19 11 -61 11h-50v-178z" />
    <glyph glyph-name="afii10093" unicode="&#x44b;" horiz-adv-x="767" 
d="M20 445l71 -3h116l67 3v-42l-46 -1l-17 -3l-3 -11v-123h82q98 0 145 -29q27 -15 43.5 -42t16.5 -57q0 -33 -18 -62.5t-47 -46.5q-50 -27 -149 -27h-261v42h23q16 0 24 1h5q14 0 14 15v328q0 15 -14 15h-5q-8 1 -24 1h-23v42zM492 445l66 -3h118l69 3v-42h-23
q-16 0 -23 -1h-5q-15 0 -15 -15q0 -2 0.5 -6t0.5 -5v-306q0 -1 -0.5 -5t-0.5 -6q0 -15 15 -15h4q16 -1 47 -1v-42l-69 3h-118l-66 -3v42h23q2 0 7.5 -0.5t8.5 -0.5q27 0 27 17v327q0 17 -26 17h-40v42zM208 48h49q44 0 66 14q37 25 37 75q0 55 -41 78q-20 11 -62 11h-49
v-178z" />
    <glyph glyph-name="afii10094" unicode="&#x44c;" 
d="M20 445l71 -3h116l67 3v-42l-46 -1l-17 -3l-3 -11v-123h82q98 0 145 -29q27 -15 43.5 -42t16.5 -57q0 -33 -18 -62.5t-47 -46.5q-50 -27 -149 -27h-261v42h23q16 0 24 1h5q14 0 14 15v328q0 15 -14 15h-5q-8 1 -24 1h-23v42zM208 48h49q44 0 66 14q37 25 37 75
q0 55 -41 78q-20 11 -62 11h-49v-178z" />
    <glyph glyph-name="afii10095" unicode="&#x44d;" horiz-adv-x="472" 
d="M300 258q-2 28 -5 48t-12 47t-28.5 41.5t-49.5 14.5q-34 0 -64 -18t-46 -48q-3 -6 -6 -14t-5 -11.5t-5 -7t-7.5 -5t-11.5 -1.5h-5q-27 0 -27 26q0 3 0.5 8.5t0.5 7.5v82q0 25 19 25q12 0 30.5 -12.5t23.5 -12.5h2q4 1 10 5q58 24 98 24q94 0 159.5 -65t65.5 -168
q0 -105 -66 -168t-162 -63q-49 0 -93 19.5t-68 58.5q-19 31 -19 46q0 17 26 17h5q13 0 17.5 -4.5t10.5 -17.5q9 -30 38 -50.5t62 -20.5q112 0 112 176l-27 -15q-42 -20 -66 -20q-25 0 -49 23t-35 23q-3 0 -7 -1.5t-7 -1.5q-6 0 -9.5 5t-3.5 10q0 21 25.5 30.5t51.5 9.5
q20 0 46 -7q4 -1 24 -9.5t32 -8.5q1 0 25 3z" />
    <glyph glyph-name="afii10096" unicode="&#x44e;" horiz-adv-x="796" 
d="M299 265q1 20 15 56q25 66 83.5 100.5t130.5 34.5q62 0 110 -21t75 -56t40.5 -76t13.5 -86v-9q-3 -97 -65 -154q-64 -60 -170 -60q-118 0 -177.5 67t-59.5 165h-87v-169q0 -13 15 -13h5q7 -1 23 -1h23v-42l-71 3h-116l-67 -3v42h23q16 0 24 1h5q14 0 14 15v328
q0 15 -14 15h-5q-8 1 -24 1h-23v42l67 -3h116l71 3v-42l-46 -1l-17 -3l-3 -11v-123h91zM431 182q1 -8 2 -25t2 -27.5t5 -24.5t11 -24q27 -40 80 -40q55 0 82 42q19 31 19 101v34q0 37 -1 60.5t-7 52t-16 44.5t-29.5 27.5t-47.5 11.5q-34 0 -56 -14t-30.5 -42t-11 -50
t-2.5 -58v-68z" />
    <glyph glyph-name="afii10097" unicode="&#x44f;" horiz-adv-x="560" 
d="M209 217q-36 4 -69 14.5t-61.5 37.5t-28.5 64t25 61.5t69.5 34.5t80 13t82.5 3h230v-42h-24q-15 0 -23 -1h-5q-15 0 -15 -15q0 -2 0.5 -5.5t0.5 -4.5v-306q0 -1 -0.5 -5.5t-0.5 -6.5q0 -15 15 -15h5q8 -1 23 -1h24v-42l-68 3h-115l-65 -3v42h23q15 0 23 1h5q15 0 15 13
v155l-25 -2l-111 -148l-5 -13l9 -5l25 -1v-42l-69 3h-106l-56 -3v42q52 0 85 40l24 31q62 78 83 103zM355 251v135q0 11 -4.5 14t-15.5 3h-44q-67 0 -86 -16.5t-19 -53.5q0 -44 15 -59q24 -23 91 -23h63z" />
    <glyph glyph-name="afii10071" unicode="&#x451;" horiz-adv-x="495" 
d="M165 213q0 -76 18 -112q33 -60 104 -60q34 0 64.5 15.5t48.5 42.5l6.5 13l5.5 11t5 7.5t7.5 5t11.5 1.5q30 0 30 -21q0 -7 -3 -13q-20 -51 -67.5 -78.5t-105.5 -30.5h-17q-117 0 -183 70q-62 65 -62 164q0 88 53 152q62 76 182 76q104 0 154 -60q50 -58 50 -155
q0 -28 -27 -28h-275zM165 252h202q0 39 -7.5 72.5t-32 61t-63.5 27.5q-99 0 -99 -161zM135 687h8q35 0 58 -24t23 -56q0 -29 -19 -52t-51 -28h-8q-38 0 -59.5 24.5t-21.5 55.5q0 29 19 52t51 28zM341 687h8q37 0 59 -24t22 -56q0 -31 -19.5 -52.5t-50.5 -27.5h-8
q-35 0 -58 24t-23 56q0 29 19 52t51 28z" />
    <glyph glyph-name="afii10099" unicode="&#x452;" horiz-adv-x="560" 
d="M32 687l39 8h143v-99h299v-52h-299l1 -179q17 37 61 62t88 25q70 0 110 -33.5t40 -119.5q0 -83 -3.5 -137t-23.5 -126t-58 -124q-33 -46 -83.5 -75.5t-104.5 -29.5q-24 0 -24 20q0 3 0.5 5.5t1.5 4l2 3t3 2.5l3 1.5t4 1.5t4 1t4.5 0.5t4.5 0.5q56 7 92 67q25 39 37.5 94
t15 95t2.5 103v119q0 85 -37 85q-4 0 -22 -3q-55 -12 -83.5 -56.5t-28.5 -98.5v-195q0 -13 15 -13h5q7 -1 23 -1h23v-42l-67 3h-116l-71 -3v42h23q16 0 24 1h5q14 0 14 13v487h-66v52h66v8q0 20 -13.5 25.5t-38.5 5.5h-14v52z" />
    <glyph glyph-name="afii10101" unicode="&#x454;" horiz-adv-x="466" 
d="M165 229q0 -35 2.5 -59.5t12.5 -58t34 -52t62 -18.5h6q55 5 84 49q7 10 12 23t9.5 17t17.5 4h5q26 0 26 -17q0 -1 -3 -13q-20 -55 -68.5 -83t-108.5 -28q-100 0 -163.5 66t-63.5 163q0 105 64.5 170t160.5 65q41 0 81 -16q17 -11 26 -13h2q5 0 23.5 12.5t30.5 12.5
q19 0 19 -25v-98q0 -11 -4 -17t-8.5 -7.5t-12.5 -1.5h-5q-12 0 -17 3.5t-11 17.5q-12 37 -45.5 60.5t-72.5 23.5h-6q-46 -7 -66.5 -46t-21.5 -90q26 9 54 9q27 0 49 -7q7 -2 22 -9t24 -8h7q7 0 18 3.5t16 3.5q13 0 13 -15q0 -16 -42.5 -41t-72.5 -25h-2q-20 0 -45.5 21.5
t-41.5 23.5z" />
    <glyph glyph-name="afii10102" unicode="&#x455;" horiz-adv-x="419" 
d="M186 456q6 1 19 1q24 0 51 -5q33 -10 34 -10h2q6 0 20.5 7.5t23.5 7.5q20 0 20 -24v-84q0 -10 -1 -14.5t-6.5 -9t-17.5 -4.5h-6q-8 0 -12.5 1.5t-7 5.5t-3.5 7t-2 10t-2 11q-4 33 -32 48t-64 15q-90 0 -90 -58q0 -22 17 -36t36.5 -19t52 -11t44.5 -9q52 -14 87 -54
t35 -94q0 -72 -50 -108t-120 -36q-52 0 -88 18q-14 7 -15 7q-7 0 -25.5 -12.5t-30.5 -12.5h-5q-15 3 -15 28v112q0 25 25 25h6q7 0 12 -1.5t8 -6t4.5 -7.5t3.5 -10.5t3 -11.5q30 -85 116 -85q93 0 93 69q0 22 -10 37t-30.5 23.5t-32 11.5t-35.5 7q-163 32 -163 138
q0 63 44 98q33 27 107 35z" />
    <glyph glyph-name="afii10103" unicode="&#x456;" horiz-adv-x="295" 
d="M39 444l38 8h140v-393q0 -17 29 -17q5 0 15.5 0.5t14.5 0.5v-42l-62 3h-110l-69 -3v42h23q16 0 24 1h5q14 0 14 15v313q0 19 -12.5 24.5t-35.5 5.5h-14v42zM137 696h7q33 0 57.5 -23t24.5 -56q0 -30 -19.5 -52.5t-52.5 -28.5h-8q-35 0 -57.5 24t-22.5 57q0 31 20.5 52.5
t50.5 26.5z" />
    <glyph glyph-name="afii10104" unicode="&#x457;" horiz-adv-x="295" 
d="M39 444l38 8h140v-393q0 -17 29 -17q5 0 15.5 0.5t14.5 0.5v-42l-62 3h-110l-69 -3v42h23q16 0 24 1h5q14 0 14 15v313q0 19 -12.5 24.5t-35.5 5.5h-14v42zM47 687h7q37 0 59.5 -24.5t22.5 -54.5t-19 -52.5t-52 -28.5h-7q-34 0 -58 23.5t-24 55.5q0 31 19.5 53.5
t51.5 27.5zM253 687h7q34 0 58 -23.5t24 -55.5q0 -31 -19.5 -53.5t-51.5 -27.5h-7q-37 0 -59.5 24.5t-22.5 54.5t19 52.5t52 28.5z" />
    <glyph glyph-name="afii10105" unicode="&#x458;" horiz-adv-x="324" 
d="M72 444l62 8h126v-485q0 -76 -54 -121.5t-128 -45.5q-53 0 -99 23.5t-46 73.5q0 29 19.5 49t48.5 20q28 0 48 -18.5t20 -49.5q0 -25 -23 -53l30 -3q69 0 69 143q0 11 -0.5 32t-0.5 31v288q0 3 0.5 10t0.5 11q0 35 -49 35h-24v52zM171 696h7q33 0 57.5 -23t24.5 -56
q0 -30 -19.5 -53t-51.5 -28h-7q-33 0 -57.5 23t-24.5 56q0 30 19.5 53t51.5 28z" />
    <glyph glyph-name="afii10106" unicode="&#x459;" horiz-adv-x="796" 
d="M122 445h447v-42l-46 -1l-17 -3l-3 -11v-123q9 0 27.5 0.5t28.5 0.5q93 0 144 -31q57 -37 57 -98q0 -32 -17 -61t-46 -46q-50 -29 -154 -29h-228v42h23q15 0 23 1h5q15 0 15 15v326q0 12 -5.5 15t-16.5 3h-81q-1 0 -6 0.5t-8 0.5q-18 0 -18 -17q0 -2 0.5 -6t0.5 -5v-52
q-1 -7 -1 -22v-39q-4 -118 -14 -166q-20 -106 -112 -106h-5q-39 0 -67 23.5t-28 67.5q0 28 16 48t48 20q27 0 44.5 -18t17.5 -44q0 -22 -12 -39q33 6 44 66q13 56 13 176v95q0 16 -15 16h-5q-8 1 -25 1h-24v42zM503 48h24q46 0 72 24t26 65q0 42 -27 65.5t-73 23.5h-22v-178
z" />
    <glyph glyph-name="afii10107" unicode="&#x45a;" horiz-adv-x="796" 
d="M20 445l71 -3h116l67 3v-42l-46 -1l-17 -3l-3 -11v-123h173v123l-3 11l-17 3l-46 1v42l71 -3h116l67 3v-42l-46 -1l-17 -3l-3 -11v-123q9 0 27.5 0.5t28.5 0.5q93 0 144 -31q57 -37 57 -98q0 -32 -17 -61t-46 -46q-50 -29 -154 -29h-228v42h23q15 0 23 1h5q15 0 15 13
v169h-173v-169q0 -13 15 -13h5q7 -1 23 -1h23v-42l-71 3h-116l-67 -3v42h23q16 0 24 1h5q14 0 14 15v328q0 15 -14 15h-5q-8 1 -24 1h-23v42zM503 48h24q46 0 72 24t26 65q0 42 -27 65.5t-73 23.5h-22v-178z" />
    <glyph glyph-name="afii10108" unicode="&#x45b;" horiz-adv-x="590" 
d="M32 687l39 8h143v-99h240v-52h-240l1 -179q20 39 63.5 63t89.5 24q104 0 133 -66q14 -30 14 -89v-245q3 -10 36 -10q6 0 16 0.5t14 0.5v-42l-67 3h-116l-71 -3v42h23q15 0 23 1h5q15 0 15 16v255q0 93 -34 95h-4q-62 0 -98.5 -49.5t-36.5 -106.5v-195q0 -15 14 -15h5
q8 -1 23 -1h24v-42l-71 3h-116l-67 -3v42h23q16 0 24 1h5q14 0 14 13v487h-66v52h66v8q0 20 -13.5 25.5t-38.5 5.5h-14v52z" />
    <glyph glyph-name="afii10110" unicode="&#x45e;" horiz-adv-x="560" 
d="M25 445l62 -3h109l66 3v-42h-16q-34 0 -34 -9q0 -6 5 -14l69 -165q24 -55 26 -64h1q1 5 4.5 13t4.5 10q5 15 62 150q2 6 9 19.5t11 23.5t4 17v3q-4 16 -46 16v42l53 -3h77l43 3v-42q-42 0 -57 -12q-8 -6 -21 -40q-24 -57 -72 -172t-72 -172q-2 -4 -13.5 -31.5t-15.5 -36
t-16.5 -33t-20.5 -34.5t-23.5 -27t-29.5 -24.5t-33.5 -14t-40.5 -6.5q-40 0 -69.5 28t-29.5 71q0 26 16.5 44.5t46.5 18.5q26 0 44.5 -17t18.5 -46q0 -47 -35 -56v-1q25 0 44.5 9t33.5 28t21 33t18 40l13 32q6 15 6 16l-3 12l-38 91q-19 44 -56 132.5t-55 132.5
q-1 3 -4 12.5t-5.5 12.5t-11.5 6.5t-24 3.5h-26v42zM365 567q-40 23 -40 67q0 31 23 52t52 21q32 0 52.5 -22.5t20.5 -52.5q0 -60 -54 -96t-122 -36q-67 0 -121 34.5t-57 92.5v5q0 31 22 53t52 22q31 0 52.5 -23t21.5 -52q0 -42 -40 -65q31 -8 73 -8q37 0 65 8zM91 -144
q9 -11 20 -12z" />
    <glyph glyph-name="afii10193" unicode="&#x45f;" horiz-adv-x="590" 
d="M20 445l71 -3h116l67 3v-42h-23q-16 0 -23 -1h-5q-15 0 -15 -16v-325q0 -18 15 -18h144q1 0 4 1t4 1.5t3 2t2.5 4.5t0.5 7v328q0 15 -14 15h-5q-8 1 -24 1h-23v42l71 -3h116l67 3v-42h-24q-15 0 -23 -1h-5q-15 0 -15 -15q0 -2 0.5 -5.5t0.5 -4.5v-306q0 -1 -0.5 -5.5
t-0.5 -6.5q0 -15 15 -15h5q8 -1 23 -1h24v-42h-206q-23 0 -31.5 -51.5t-8.5 -107.5h-57q0 57 -9 108t-31 51h-206v42h23q16 0 24 1h5q14 0 14 15v328q0 15 -14 15h-5q-8 1 -24 1h-23v42z" />
    <glyph glyph-name="afii10146" unicode="&#x462;" horiz-adv-x="873" 
d="M164 751h318v-52h-90v-60h302l22 -179h-56q-5 43 -20 70t-40 39t-47.5 15.5t-58.5 3.5h-25q-13 0 -38.5 -0.5t-38.5 -0.5v-198q97 19 168 19q91 0 154 -35q47 -26 73 -71t26 -99q0 -45 -19 -87.5t-53 -67.5q-65 -47 -143 -47h-434v52h90v534h-20q-46 0 -70 -12
q-27 -14 -39 -47t-12 -68h-56l21 179h176v60h-90v52zM392 53h116q5 0 17 -0.5t18 -0.5q59 0 84.5 45t25.5 106q0 63 -29 101q-33 46 -103 46h-7q-123 0 -123 -26q0 -2 0.5 -6t0.5 -5v-260z" />
    <glyph glyph-name="afii10194" unicode="&#x463;" 
d="M86 445v52q0 12 -18 48q-9 21 -29 63q-18 39 -18 45q0 9 5 15.5t14 6.5q13 0 51.5 -42t54.5 -49q5 0 16 9t28 28l18 19q2 2 9.5 10t11.5 12t11 8t13 4q9 0 15 -5.5t6 -14.5q0 -6 -6 -18q-9 -18 -24 -51l-20 -44q-16 -34 -16 -45v-51h126v-52h-126v-128h82q98 0 145 -29
q27 -15 43.5 -42t16.5 -57q0 -33 -18 -62.5t-47 -46.5q-50 -27 -149 -27h-261v42h23q16 0 24 1h5q14 0 14 17v332h-66v52h66zM208 48h49q44 0 66 14q37 25 37 75q0 55 -41 78q-20 11 -62 11h-49v-178z" />
    <glyph glyph-name="uni046A" unicode="&#x46a;" horiz-adv-x="1097" 
d="M455 382q-33 42 -93 125t-71 97q-3 4 -10.5 13.5t-13.5 17t-11.5 15.5t-9 14.5t-3.5 9.5q0 13 20 13h569q21 0 21 -12q0 -5 -10 -20q-32 -41 -99 -133.5t-103 -139.5q61 0 119.5 -20t90.5 -63q22 -30 110 -172l28 -45q20 -30 58 -30q4 0 14.5 0.5t16.5 0.5v-52h-291v52
h11q47 0 50 9v2q0 6 -10 21q-15 31 -48.5 85.5t-45.5 76.5q-24 45 -50.5 63.5t-70.5 18.5v-276h49v-52l-68 3h-115l-65 -3v52h49v276q-75 0 -104 -52q-13 -22 -38.5 -66.5t-38.5 -66.5q-4 -8 -16.5 -27.5t-20 -33t-7.5 -19.5v-2q3 -9 50 -9h11v-49h-224l-67 -3v52
q47 0 61.5 4.5t27.5 24.5l28 45q7 11 32 53t42 68t36 51q32 43 90.5 63t119.5 20zM419 635l40 -55l130 -177h2l170 232h-342z" />
    <glyph glyph-name="uni046B" unicode="&#x46b;" horiz-adv-x="885" 
d="M372 264q-29 25 -82 69t-69 57q-44 32 -44 43v3q3 10 18 10q3 0 7.5 -0.5t6.5 -0.5h486q12 0 13 -7v-3q0 -4 -2.5 -8t-5.5 -6.5t-8 -6.5t-6 -5q-129 -109 -175 -145q43 -5 63 -8.5t52.5 -16.5t53.5 -34q1 -1 31 -37l60 -72q3 -3 11 -12.5t10.5 -11.5t8.5 -8.5t8.5 -8
t8 -5t9.5 -4.5t9.5 -2t12.5 -1h18v-42l-54 3h-103l-68 -3v42q31 0 31 13v2q-1 1 -2 2.5t-1 2.5l3 1q-13 18 -38 53l-30 42q-26 38 -38 47q-22 15 -74 19v-163l3 -14l13 -4l34 -1v-42l-56 3h-93l-53 -3v42l33 1l13 4l3 14v163q-50 -4 -72 -19q-13 -8 -36 -43l-45 -63
q-1 -2 -10.5 -15t-15.5 -20l3 -1q0 -1 -1.5 -3.5t-1.5 -4.5q0 -13 31 -13v-42l-68 3h-103l-54 -3v42h18q7 0 13.5 1.5t11 2.5t11 5.5t9 6t9 8.5t7.5 8.5t9 11t9 10.5l57 69q34 42 65 62.5t75 28.5q10 1 30.5 3t30.5 4zM309 402l40 -32l116 -94l13 8l144 118h-313z" />
    <glyph glyph-name="afii10148" unicode="&#x474;" horiz-adv-x="873" 
d="M443 182q3 10 11 30l24 57q11 27 35.5 89t38.5 95l48 117q21 56 31 71q19 28 51 44.5t65 16.5q39 0 67.5 -29.5t28.5 -69.5q0 -29 -18 -49.5t-51 -20.5q-31 0 -49 20t-18 48q0 32 27 56q-35 -12 -55 -69q-37 -90 -110 -270.5t-110 -270.5q-16 -38 -25 -47t-32 -9h-7
q-6 0 -11.5 1t-9 2t-7.5 5t-5.5 5t-4.5 7l-3.5 7t-3.5 8t-3 8l-30 75q-24 60 -73 180t-73 180l-42 102q-3 5 -7 17t-7 17q-10 25 -11 30h-79v52h309v-52h-75z" />
    <glyph glyph-name="afii10196" unicode="&#x475;" horiz-adv-x="643" 
d="M313 144q3 12 39 97l30 75q24 61 56.5 98.5t86.5 37.5q41 0 68.5 -23.5t27.5 -60.5q-2 -26 -21 -44.5t-46 -18.5q-29 0 -49 19t-20 50q0 12 3 22q-10 -10 -19 -25t-13 -23.5t-12.5 -30.5t-10.5 -26q-63 -148 -107 -262q-8 -20 -18 -29t-29 -9q-30 0 -43 32
q-20 48 -67.5 166.5t-74.5 182.5q-8 21 -16.5 26t-32.5 5h-20v42l59 -3h109l69 3v-42h-16q-35 0 -35 -9q0 -6 5 -14q12 -28 35 -84t34 -85q26 -63 27 -67h1z" />
    <glyph glyph-name="uni048C" unicode="&#x48c;" horiz-adv-x="873" 
d="M164 687h318v-52h-90v-51h324v-52h-324v-143q97 19 168 19q91 0 154 -35q47 -26 73 -71t26 -99q0 -45 -19 -87.5t-53 -67.5q-65 -47 -143 -47h-434v52h90v479h-198v52h198v51h-90v52zM392 53h116q5 0 17 -0.5t18 -0.5q59 0 84.5 45t25.5 106q0 63 -29 101q-33 46 -103 46
h-7q-123 0 -123 -26q0 -2 0.5 -6t0.5 -5v-260z" />
    <glyph glyph-name="uni048D" unicode="&#x48d;" 
d="M-49 646l54 2l117 6h86v-209h175v-52h-175v-128h82q98 0 145 -29q27 -15 43.5 -42t16.5 -57q0 -33 -18 -62.5t-47 -46.5q-50 -27 -149 -27h-261v42h23q16 0 24 1h5q14 0 14 17v332h-66v52h66v120q0 24 -19 32t-55 8q-10 0 -31 -0.5t-30 -0.5v42zM208 48h49q42 0 62 11
q41 23 41 78q0 50 -37 75q-22 14 -66 14h-49v-178z" />
    <glyph glyph-name="uni048E" unicode="&#x48e;" horiz-adv-x="725" 
d="M46 687h387q85 -5 140 -37q43 -25 68 -67.5t25 -91.5q0 -56 -33.5 -106t-87.5 -65l121 -97l-32 -41l-152 119l-54 -4h-142v-244h90v-52h-330v52h90v582h-90v52zM351 473q15 -9 30.5 -21t35.5 -29.5t29 -24.5l23 -18q9 -6 10 -6q27 6 27 95v18q0 38 -2 57q-3 31 -16 51
t-35.5 28t-40.5 10t-47 2h-85v-291h99q30 0 45 4l-105 84z" />
    <glyph glyph-name="uni048F" unicode="&#x48f;" horiz-adv-x="590" 
d="M23 444l39 8h143v-41q71 41 133 41q102 0 159 -67t57 -160q0 -77 -36 -133l77 -60l-32 -41l-79 62q-24 -28 -69 -43.5t-92 -15.5q-57 0 -112 35v-170h66v-52l-71 3h-116l-67 -3v52h66v511q0 23 -40 23q-5 0 -13.5 -0.5t-12.5 -0.5v52zM345 230l71 -55q0 5 1 16t1 17v18
q0 22 -3 46.5t-11.5 57.5t-29.5 54t-51 21q-33 0 -72.5 -21t-39.5 -51v-226q0 -9 12 -25q34 -45 85 -45q32 0 56 20q12 9 24.5 28t12.5 31q-1 3 -6 8q-17 11 -47 36t-35 29z" />
    <glyph glyph-name="afii10050" unicode="&#x490;" horiz-adv-x="652" 
d="M551 878h56l-33 -243h-288v-582h113v-52h-353v52h90v582h-90v52h307q33 0 52.5 1.5t46.5 10t45 25.5q19 18 31 49t14.5 47.5t8.5 57.5z" />
    <glyph glyph-name="afii10098" unicode="&#x491;" horiz-adv-x="457" 
d="M374 581h56l-22 -178h-184q-17 0 -17 -15q0 -2 0.5 -5.5t0.5 -4.5v-307q0 -1 -0.5 -5t-0.5 -6q0 -16 19 -16h5q10 -1 29 -1h30v-42l-74 3h-125l-71 -3v42h23q16 0 24 1h5q14 0 14 15v328q0 15 -14 15h-5q-8 1 -24 1h-23v42h212q79 0 108 28q6 6 11 15t8 15.5t6 20.5
t3.5 18t3 21t2.5 18z" />
    <glyph glyph-name="uni0492" unicode="&#x492;" horiz-adv-x="637" 
d="M46 687h514l33 -243h-56q-8 60 -17 91q-12 35 -30.5 57t-46.5 30.5t-48 10.5t-56 2h-53v-251h114v-52h-114v-279h113v-52h-353v52h90v279h-116v52h116v251h-90v52z" />
    <glyph glyph-name="uni0493" unicode="&#x493;" horiz-adv-x="457" 
d="M20 445h397l13 -178h-56q-1 23 -3 38.5t-9 35.5t-17.5 32.5t-31 21t-48.5 8.5h-39q-18 0 -18 -16v-122h106v-39h-106v-169q0 -13 18 -13h6q9 -1 29 -1h29v-42l-74 3h-125l-71 -3v42h23q15 0 23 1h5q15 0 15 13v169h-66v39h66v123l-3 11l-17 3l-46 1v42z" />
    <glyph glyph-name="uni0494" unicode="&#x494;" horiz-adv-x="784" 
d="M46 687h543l33 -243h-56q-13 96 -37 132q-15 26 -45.5 40t-55 16.5t-61.5 2.5h-81v-256h74q89 0 154 -13t117 -54q94 -76 94 -226q0 -140 -90 -219q-79 -67 -195 -67q-62 0 -110.5 25t-48.5 79q0 32 21.5 55.5t57.5 23.5q33 0 56 -22.5t23 -55.5t-22 -57h21q17 0 26 3
q101 36 101 234q0 79 -21.5 132.5t-59.5 78t-74 33t-82 8.5h-42v-284h113v-52h-353v52h90v582h-90v52z" />
    <glyph glyph-name="uni0495" unicode="&#x495;" horiz-adv-x="590" 
d="M20 445h399l11 -137h-56q-3 33 -12.5 53.5t-27.5 29t-32.5 10.5t-39.5 2h-36q-18 0 -18 -15v-123h120q88 -6 135 -46q67 -59 67 -178q0 -94 -55 -161q-67 -80 -199 -80q-56 0 -101 26t-45 78q0 28 19 45.5t50 17.5q27 -4 42 -21.5t15 -42.5q0 -33 -28 -52q29 -9 46 -9h5
q32 2 56 21.5t36 49.5t17.5 61t5.5 64q0 106 -37.5 147.5t-105.5 41.5q-8 0 -22 -0.5t-21 -0.5v-169q0 -13 15 -13h5q7 -1 23 -1h23v-42l-67 3h-116l-71 -3v42h23q16 0 24 1h5q14 0 14 14v328q0 16 -14 16h-5q-8 1 -24 1h-23v42z" />
    <glyph glyph-name="uni0496" unicode="&#x496;" horiz-adv-x="1243" 
d="M59 687l46 -3h105l74 3v-52q-31 0 -54 -8l316 -290v298h-90v52h330v-52h-90v-298l316 290q-23 8 -54 8v52l74 -3h105l46 3v-54h-54l-28 -5l-222 -200l-5 -8l18 -29l236 -338h70l33 -243h-56q-7 52 -16 93q-26 98 -128 98h-104v52h40l-180 259l-14 16l-77 -69v-206h90v-52
h-330v52h90v194q0 12 -15 27l-18 18t-27.5 26t-16.5 10h-1q-2 0 -9 -11l-21 -29q-52 -76 -79 -114l-57 -82q-2 -3 -6.5 -9.5t-8 -11.5t-3.5 -8v-1q2 -9 45 -9h10v-49h-226l-69 -3v52h10q37 0 52 4.5t28 23.5q29 41 102 147t114 163l13 19q5 8 5 10q0 3 -5 8q-24 24 -52 49.5
t-63 56t-54 48.5l-33 30q-23 23 -75 23h-27v52z" />
    <glyph glyph-name="uni0497" unicode="&#x497;" horiz-adv-x="885" 
d="M42 445q46 -3 92 -3h31l60 3v-42q-18 0 -18 -12q0 -4 14 -15l21 -17q23 -18 69.5 -54.5t69.5 -54.5v137l-3 12l-17 3l-46 1v42l68 -3h115l65 3v-42l-46 -1l-17 -3l-3 -12v-142q4 3 55 43l109 86q16 13 16 17q0 9 -18 12v42l60 -3h31q46 0 92 3v-42q-39 0 -62 -11
q-8 -4 -41 -29q-10 -8 -30 -23.5t-30 -23.5l-37 -29q-12 -9 -12 -12t13 -19l132 -162q28 -35 39.5 -43.5t33.5 -8.5q2 0 8 0.5t10 0.5l20 -201h-56q-9 95 -31.5 127t-75.5 32h-83v42h27l9 4l-7 13l-123 152q-4 -4 -19 -14t-23 -19t-8 -18q0 -2 0.5 -6.5t0.5 -5.5v-93
q0 -12 14 -12h6q7 -1 23 -1h23v-42l-68 3h-115l-65 -3v42l46 1l17 3l3 10v110l-2 11l-41 34q-5 -9 -32 -41q-10 -12 -30 -36.5t-30 -36.5q-3 -4 -11.5 -13.5t-14 -17.5t-5.5 -12q0 -12 29 -12v-42l-69 3h-103l-54 -3v42h18q32 0 55 29q21 27 60.5 74.5t51.5 62.5
q4 5 19.5 22.5t23.5 28.5t8 15q0 3 -12 12l-37 29q-10 8 -30 23.5t-30 23.5q-33 25 -41 29q-23 11 -62 11v42z" />
    <glyph glyph-name="uni0498" unicode="&#x498;" horiz-adv-x="649" 
d="M247 -10q-104 15 -151 71q-38 43 -43 121v7q0 22 25 22h21q20 0 20 -19v-7q0 -55 30.5 -89.5t68 -45.5t82.5 -11q68 0 109.5 40.5t41.5 108.5q0 39 -16.5 73.5t-47.5 54.5q-36 21 -105 21h-50q-26 0 -26 21q0 18 16 21h27q6 0 18.5 -0.5t19.5 -0.5q69 0 104.5 38.5
t35.5 97.5q0 63 -34.5 99t-86.5 36q-74 0 -119 -43t-55 -110q-1 -12 -2 -16.5t-7.5 -9t-20.5 -4.5h-13q-24 0 -24 24v188q0 23 22 23h7q9 -1 33 -18.5t35 -17.5h2q4 1 10 5l18 9q48 22 117 22q65 0 122.5 -17.5t100 -61t42.5 -107.5q0 -21 -8 -45q-9 -24 -21.5 -41.5
t-36.5 -31.5t-34 -19t-45 -19q18 -2 55 -17q53 -23 86.5 -62.5t33.5 -91.5q0 -89 -74 -141.5t-161 -56.5v-17q0 -7 2.5 -9t9.5 -5q39 -15 57.5 -35t18.5 -58q0 -31 -23 -51.5t-65 -29t-77.5 -11t-84.5 -2.5h-49v42h31q146 0 146 57q0 30 -27.5 45.5t-60.5 15.5v58z" />
    <glyph glyph-name="uni0499" unicode="&#x499;" horiz-adv-x="472" 
d="M145 -2q-55 5 -90 39q-23 23 -32 70q0 27 25 27h6q11 0 16.5 -3.5t6.5 -7.5t2 -11.5t2 -10.5q14 -61 122 -61q45 0 74 22.5t29 70.5q0 47 -29 70t-77 23h-30q-23 0 -23 20q0 19 20 19h37q38 0 67 18t29 57q0 40 -27 57t-67 17q-42 0 -74.5 -20.5t-43.5 -62.5
q0 -1 -1.5 -6t-2 -6t-2 -5t-3 -4.5t-4.5 -2.5t-7.5 -2.5t-9.5 -0.5q-29 0 -29 23v104q0 25 19 25q12 0 29 -11t25 -11h2q2 0 22 9q32 13 85 13q34 0 64.5 -4t67.5 -14.5t59 -35.5t22 -61q0 -16 -7 -29.5t-13.5 -21.5t-24 -18t-24 -13t-26.5 -12q45 -13 76 -42.5t31 -72.5
q0 -31 -16.5 -59.5t-42.5 -44.5q-15 -9 -42 -16.5t-47 -12t-21 -7.5v-21q0 -3 1 -5.5t3 -4t3.5 -2t4.5 -1t5 -1.5q32 -10 51.5 -31t19.5 -52v-12q-3 -24 -20 -41.5t-40 -26.5t-58 -14.5t-63 -6.5t-65 -1h-52v42h35q141 0 141 59q0 29 -27.5 44t-60.5 15v66z" />
    <glyph glyph-name="uni049A" unicode="&#x49a;" horiz-adv-x="832" 
d="M46 687h330v-52h-90v-298l315 290q-23 8 -54 8v52l74 -3h105l46 3v-54h-54l-28 -5l-229 -206l255 -369h71l33 -243h-56q-13 101 -39.5 143t-88.5 48h-144v52h64l-192 278l-78 -72v-206h90v-52h-330v52h90v582h-90v52z" />
    <glyph glyph-name="uni049B" unicode="&#x49b;" horiz-adv-x="590" 
d="M20 445l65 -3h115l68 3v-42l-46 -1l-17 -3l-3 -12v-142q4 3 55 43l109 86q16 13 16 17q0 9 -18 12v42l60 -3h31q45 0 92 3v-42q-39 0 -62 -11q-8 -4 -41 -29q-10 -8 -30 -23.5t-30 -23.5l-37 -29q-12 -9 -12 -12t13 -19l132 -162q28 -35 39.5 -43.5t33.5 -8.5q2 0 8 0.5
t10 0.5l20 -201h-56q-9 95 -31.5 127t-75.5 32h-83v42h27l9 4l-7 13l-123 152q-4 -4 -19 -14t-23 -19t-8 -18q0 -2 0.5 -6.5t0.5 -5.5v-93q0 -12 14 -12h6q7 -1 23 -1h23v-42l-68 3h-115l-65 -3v42h23q16 0 24 1h5q14 0 14 15v328q0 15 -14 15h-5q-8 1 -24 1h-23v42z" />
    <glyph glyph-name="uni049C" unicode="&#x49c;" horiz-adv-x="920" 
d="M46 687h330v-52h-90v-233h32v144h52v-144l25 1l216 169l67 56q-26 7 -44 7v52l74 -3h106l47 3v-54h-55l-31 -5l-27 -19l-240 -191q6 -5 14.5 -16.5t11.5 -14.5q143 -181 239 -296q20 -26 32 -32q13 -7 38 -7q6 0 17 0.5t16 0.5v-52h-301v52h10q37 0 39 8q0 4 -2 7
t-5.5 6.5t-4.5 5.5q-88 106 -181 225q-2 3 -15.5 21t-22.5 26t-17 8h-6v-157h-52v157h-32v-307h90v-52h-330v52h90v582h-90v52z" />
    <glyph glyph-name="uni049D" unicode="&#x49d;" horiz-adv-x="678" 
d="M20 445l71 -3h116l67 3v-42l-46 -1l-17 -3l-3 -11v-113h81v87h39v-87h11q9 0 24 11l103 89q12 12 12 15q0 6 -8 9.5t-15 3.5v42l60 -3h82l40 3v-42q-54 0 -96 -38q-2 -2 -32 -25.5t-46 -38t-16 -20.5q0 -3 2 -6.5t5.5 -7t4.5 -5.5q41 -56 123 -166l24 -33q16 -20 38 -20
h17v-42l-54 3h-102l-68 -3v42q33 0 33 12v2q0 7 -7 14q-13 20 -97 132l-16 21q-5 12 -17 12h-5v-96h-39v96h-81v-179q0 -13 15 -13h5q7 -1 23 -1h23v-42l-71 3h-116l-67 -3v42h23q16 0 24 1h5q14 0 14 15v328q0 15 -14 15h-5q-8 1 -24 1h-23v42z" />
    <glyph glyph-name="uni049E" unicode="&#x49e;" horiz-adv-x="832" 
d="M46 687h330v-52h-90v-43h93v-52h-93v-203l315 290q-23 8 -54 8v52l74 -3h105l46 3v-54h-54l-28 -5l-229 -206q6 -10 56 -81q66 -97 119 -172l52 -75q14 -20 20 -27t16.5 -11t29.5 -4q6 0 17 0.5t16 0.5v-52h-295v52h11q42 0 44 8v2q0 4 -10 17q-73 113 -155 224l-18 27
l-78 -72v-206h90v-52h-330v52h90v487h-116v52h116v43h-90v52z" />
    <glyph glyph-name="uni049F" unicode="&#x49f;" horiz-adv-x="590" 
d="M23 687l39 8h143v-99h53v-52h-53v-298q21 16 45 35t52.5 41.5t44.5 35.5l21 17q14 9 14 17q0 11 -18 11v42l60 -3h31q45 0 92 3v-42q-25 0 -51 -10.5t-38.5 -19t-45 -35t-39.5 -31.5q-30 -25 -40 -31q3 -3 40 -49l87 -108q4 -4 14.5 -18.5t14.5 -19t14 -14.5t17 -13.5
t17.5 -7t21.5 -3.5h12v-42l-54 3h-103l-69 -3v42h5q22 0 25 10v2q0 3 -4 9q-14 19 -85 105l-23 29q-10 10 -11 10q-6 0 -25 -17l-16 -13q-12 -9 -12 -21q0 -2 0.5 -6.5t0.5 -5.5v-54q0 -5 -0.5 -15t-0.5 -15v-5q0 -13 27 -13h39v-42l-67 3h-111l-64 -3v42h27q39 0 39 12v489
h-69v52h69v8q0 20 -13.5 25.5t-38.5 5.5h-14v52z" />
    <glyph glyph-name="uni04A0" unicode="&#x4a0;" horiz-adv-x="990" 
d="M61 687h473v-52h-90v-298l316 290q-23 8 -54 8v52l74 -3h105l46 3v-52h-25q-54 0 -77 -23l-33 -30q-12 -11 -33 -30t-38.5 -35t-32.5 -30q-8 -7 -27.5 -24t-31 -28t-11.5 -15q0 -2 5 -10l13 -19q37 -51 105 -149.5t76 -110.5q5 -7 17 -26t21 -31t16 -16q11 -6 39 -6
q6 0 17 0.5t15 0.5v-52h-295v52h10q43 0 45 9v1q0 3 -3.5 8t-8 11.5t-6.5 9.5l-57 82q-27 38 -79 114l-21 29q-7 11 -9 11h-1q-5 0 -34 -29q-2 -2 -13 -11t-15.5 -13.5t-10 -12.5t-5.5 -15q0 -3 0.5 -7.5t0.5 -6.5v-180h90v-52h-330v52h90v582h-40q-25 0 -46 -3t-36 -11.5
t-26.5 -15.5t-19.5 -22.5t-13 -23.5t-8.5 -28.5t-4.5 -28t-3 -30.5t-3 -28h-56z" />
    <glyph glyph-name="uni04A1" unicode="&#x4a1;" horiz-adv-x="693" 
d="M40 445h331v-42l-46 -1l-17 -3l-3 -12v-142q24 19 72 56.5t72 56.5q36 26 36 34q0 9 -17 11v42l61 -3h83l40 3v-42q-24 0 -50 -10.5t-39 -19t-47 -35t-43 -33.5q-30 -25 -38 -29q21 -26 62.5 -77t62.5 -76q4 -5 19.5 -25.5t23 -28.5t23 -17t32.5 -9h18v-42l-55 3h-103
l-69 -3v42q29 0 29 11q0 8 -16 28.5t-42.5 50.5t-32.5 38q-29 34 -33 41l-47 -39l-2 -11v-105l3 -10l17 -3l46 -1v-42l-68 3h-115l-65 -3v42h23q16 0 24 1h5q14 0 14 14v329q0 16 -18 16q-14 0 -26 -2.5t-20.5 -9.5t-15 -12t-10.5 -17t-7 -17.5t-4.5 -20.5t-2 -19.5
t-1.5 -20.5t-1 -17h-56z" />
    <glyph glyph-name="uni04A2" unicode="&#x4a2;" horiz-adv-x="832" 
d="M46 687h330v-52h-90v-251h259v251h-90v52h330v-52h-90v-582h99l33 -243h-56q-13 101 -39 137q-16 25 -46.5 37.5t-53 14.5t-60.5 2h-117v52h90v279h-259v-279h90v-52h-330v52h90v582h-90v52z" />
    <glyph glyph-name="uni04A3" unicode="&#x4a3;" horiz-adv-x="590" 
d="M20 445l71 -3h116l67 3v-42l-46 -1l-17 -3l-3 -11v-123h173v123l-3 11l-17 3l-46 1v42l71 -3h116l67 3v-42h-24q-15 0 -23 -1h-5q-15 0 -15 -15q0 -2 0.5 -5.5t0.5 -4.5v-306q0 -1 -0.5 -5t-0.5 -6q0 -16 17 -16h5q18 -1 53 -1l20 -201h-56q-4 54 -15.5 87.5t-32.5 48.5
t-41.5 19t-56.5 4h-80v42h23q15 0 23 1h5q15 0 15 13v169h-173v-169q0 -13 15 -13h5q7 -1 23 -1h23v-42l-67 3h-116l-71 -3v42h23q16 0 24 1h5q14 0 14 15v328q0 15 -14 15h-5q-8 1 -24 1h-23v42z" />
    <glyph glyph-name="uni04A4" unicode="&#x4a4;" horiz-adv-x="1004" 
d="M46 687h330v-52h-90v-251h260v251h-90v52h487l23 -243h-56q-6 68 -15 100q-10 31 -25.5 50t-37.5 27.5t-41 11t-49 2.5h-46v-582h90v-52h-330v52h90v279h-260v-279h90v-52h-330v52h90v582h-90v52z" />
    <glyph glyph-name="uni04A5" unicode="&#x4a5;" horiz-adv-x="693" 
d="M20 445l71 -3h116l67 3v-42l-46 -1l-17 -3l-3 -11v-123h174v123l-3 11l-17 3l-46 1v42h337l13 -178h-56q-4 70 -22.5 103t-66.5 33q-18 0 -18 -16q0 -2 0.5 -6t0.5 -5v-307q0 -1 -0.5 -5t-0.5 -6q0 -14 15 -14h5q8 -1 23 -1h24v-42l-71 3h-116l-67 -3v42h23q15 0 23 1h5
q15 0 15 13v169h-174v-169q0 -13 15 -13h5q7 -1 23 -1h23v-42l-71 3h-116l-67 -3v42h23q16 0 24 1h5q14 0 14 15v328q0 15 -14 15h-5q-8 1 -24 1h-23v42z" />
    <glyph glyph-name="uni04A6" unicode="&#x4a6;" horiz-adv-x="1153" 
d="M46 687h740v-52h-90v-256h49q55 0 89.5 -2t80.5 -13t82 -33q127 -77 127 -247q0 -63 -22.5 -120.5t-66.5 -95.5q-80 -68 -196 -68q-61 0 -110.5 25.5t-49.5 78.5q0 32 22.5 55.5t57.5 23.5q36 0 57.5 -24t21.5 -55t-22 -56h21q17 0 26 3q101 36 101 235q0 50 -9.5 89.5
t-24 65t-37.5 44.5t-44.5 28.5t-51.5 15t-51 7t-50 1.5v-284h90v-52h-330v52h90v582h-260v-582h90v-52h-330v52h90v582h-90v52z" />
    <glyph glyph-name="uni04A7" unicode="&#x4a7;" horiz-adv-x="826" 
d="M20 445h549v-42l-46 -1l-17 -3l-3 -11v-123h61q92 -6 139 -50q63 -60 63 -174q0 -88 -51 -156q-33 -43 -88 -64t-115 -21q-56 0 -101 26t-45 78q0 26 17 44.5t46 18.5h7q27 -4 41.5 -21.5t14.5 -41.5q0 -34 -28 -53q29 -9 46 -9h5q42 3 69 35.5t36.5 73t9.5 86.5
q0 189 -127 189v-169q0 -13 15 -13h5q7 -1 23 -1h23v-42l-67 3h-116l-71 -3v42h23q15 0 23 1h5q15 0 15 16v325q0 18 -15 18h-144q-15 -4 -15 -16q0 -2 0.5 -6t0.5 -5v-307q0 -1 -0.5 -5t-0.5 -6q0 -14 15 -14h5q8 -1 23 -1h24v-42l-67 3h-116l-71 -3v42h23q16 0 24 1h5
q14 0 14 14v328q0 16 -14 16h-5q-8 1 -24 1h-23v42z" />
    <glyph glyph-name="uni04A8" unicode="&#x4a8;" horiz-adv-x="826" 
d="M560 3q50 -46 209 -46q27 0 27 -20q0 -22 -25 -22h-9q-157 0 -249 43q-5 3 -19 12t-23.5 13.5t-18.5 4.5q-4 0 -10 -0.5t-10 -0.5q-99 0 -172 16.5t-123 70.5q-78 84 -78 266q0 185 72 265q53 59 125 77.5t170 18.5q65 0 136 -15.5t71 -40.5q0 -15 -23 -20l-23 -7
q-12 -3 -14 -3q-5 0 -9.5 2t-10.5 6t-9 5q-56 26 -129 26q-94 0 -141 -47q-35 -35 -45 -89.5t-10 -128.5v-57q0 -36 1 -59.5t5 -57.5t11.5 -56.5t22.5 -48t35.5 -40t51.5 -24.5t71 -10q-56 84 -56 193v18q0 89 14 135q34 117 163 126h47q94 0 140 -46q41 -41 41 -127
q0 -173 -71 -253q-55 -65 -135 -79zM648 297q1 7 1 20v37q0 64 -21 88q-20 24 -65 24q-33 0 -54 -14.5t-30 -42.5t-12 -52.5t-3 -60.5v-41q0 -82 13 -134q20 -71 38 -71q3 0 8 2t6 2q61 24 86.5 75.5t31.5 124.5v21q0 15 1 22z" />
    <glyph glyph-name="uni04A9" unicode="&#x4a9;" 
d="M348 0q34 -37 97 -42h18q38 0 38 -22q0 -20 -22 -20q-125 0 -184 46q-4 3 -12.5 12.5t-15.5 15t-14 5.5q-2 0 -6.5 -0.5t-5.5 -0.5q-122 8 -166 60q-46 53 -46 165q0 137 63 190q57 47 169 47q142 0 142 -36q0 -12 -17 -19t-36 -7q-4 0 -20 7q-29 13 -62 13t-55 -12
t-32 -34t-13.5 -43t-3.5 -49q0 -10 0.5 -29t0.5 -26q0 -6 -0.5 -20.5t-0.5 -22.5q0 -114 73 -134q-16 72 -16 126q0 86 34 123q32 34 103 34q81 0 112 -28t31 -84q0 -185 -153 -215zM320 48q26 7 42 23.5t22.5 43t8 44t1.5 45.5v21q0 62 -37 62q-30 0 -39 -20t-9 -56v-68
q0 -36 11 -95z" />
    <glyph glyph-name="uni04AA" unicode="&#x4aa;" horiz-adv-x="767" 
d="M372 -9q-16 1 -44 7q-135 33 -202 127t-67 220q0 130 70 222q51 68 132.5 101t175.5 33t167 -62q7 9 32 29l11 10q3 2 7 6.5t7 6.5t7 5t8.5 4t10.5 1q20 0 20 -26v-226q0 -25 -19 -25h-21q-8 0 -13 1.5t-7.5 5.5t-3.5 7t-2.5 11t-2.5 11q-14 77 -64.5 133t-125.5 56
q-28 0 -55 -6q-47 -11 -81 -36t-51.5 -52.5t-27.5 -68.5t-12 -72t-2 -75q0 -77 12.5 -133.5t49.5 -98.5q29 -33 74.5 -50.5t91.5 -17.5q76 0 132 46t69 117q3 13 4.5 26t2.5 16.5t5 5.5t15 2h5q27 0 27 -21v-8q-4 -65 -40.5 -118t-93.5 -84q-10 -5 -31 -12t-34.5 -13
t-13.5 -12v-10q0 -4 0.5 -7t3 -4.5t3.5 -2t4.5 -1.5t4.5 -1q72 -27 73 -84q0 -34 -22 -56t-64 -31t-77.5 -12t-86.5 -3h-49v42h35q141 0 141 58q0 30 -27 45t-61 15v59z" />
    <glyph glyph-name="uni04AB" unicode="&#x4ab;" horiz-adv-x="472" 
d="M204 1q-29 4 -64 24q-52 30 -78.5 83t-26.5 114q0 114 67.5 174t165.5 60q37 0 71 -7.5t62.5 -31t28.5 -60.5q0 -28 -18.5 -48.5t-50.5 -20.5q-30 0 -48.5 20.5t-18.5 47.5t19 49q-28 4 -42 4q-28 0 -48 -13t-29.5 -29.5t-15 -44t-6.5 -45t-1 -42.5v-8q0 -186 112 -186
q47 0 77 33q6 7 13.5 23.5t15.5 26.5t19 10h19q15 -8 15 -18q0 -16 -15 -38q-15 -28 -43.5 -49.5t-58.5 -26.5q1 -5 1 -14v-18q0 -8 14 -12q33 -10 53.5 -31.5t20.5 -52.5q0 -33 -21 -55t-60 -31.5t-73.5 -12.5t-82.5 -3h-61v42h35q141 0 141 58q0 29 -27.5 44.5t-60.5 15.5
v69z" />
    <glyph glyph-name="uni04AC" unicode="&#x4ac;" horiz-adv-x="738" 
d="M61 687h616l23 -243h-56q0 4 -2.5 28t-4 33.5t-5 28t-9.5 32t-14 24.5q-33 45 -125 45h-40v-582h127l33 -243h-56q-4 32 -7 48.5t-12 42t-22 43.5q-27 36 -70 46.5t-103 10.5h-167v52h127v582h-40q-25 0 -46 -3t-36 -11.5t-26.5 -15.5t-19.5 -22.5t-13 -23.5t-8.5 -28.5
t-4.5 -28t-3 -30.5t-3 -28h-56z" />
    <glyph glyph-name="uni04AD" unicode="&#x4ad;" horiz-adv-x="501" 
d="M40 445h421l13 -178h-56q-4 70 -22.5 103t-66.5 33q-18 0 -18 -15q0 -2 0.5 -5.5t0.5 -4.5v-307q0 -1 -0.5 -5t-0.5 -6q0 -16 18 -16h9q22 -1 67 -1l20 -201h-56q0 2 -1.5 16t-2 18l-2 16t-3.5 18t-5 15.5t-6.5 16.5t-8.5 14q-31 45 -124 45h-119v42q45 0 67 1h9
q17 0 17 16v328q0 15 -18 15q-29 0 -48 -11.5t-26.5 -32.5t-10.5 -40.5t-4 -43.5v-8h-56z" />
    <glyph glyph-name="uni04AE" unicode="&#x4ae;" horiz-adv-x="802" 
d="M20 687h320v-52h-67l173 -276h2q2 3 15 25l26 41q44 72 83 133q2 4 15 22t19.5 29.5t6.5 16.5q-5 9 -59 9v52l68 -3h105l55 3v-52q-59 0 -75 -6.5t-33 -33.5l-6 -9q-29 -47 -83 -132.5t-71 -112.5l-27 -44q-14 -19 -14 -34v-210h90v-52h-324v52h90v220l-227 362h-82v52z
" />
    <glyph glyph-name="uni04AF" unicode="&#x4af;" horiz-adv-x="560" 
d="M12 445l59 -3h108l70 3v-42h-20q-28 0 -32 -6v-3q0 -7 6 -19q17 -42 52 -138.5t57 -145.5q96 250 104 271q7 21 7 22v2q-4 17 -48 17v42l53 -3h77l43 3v-42q-42 0 -57 -12q-4 -4 -7.5 -9.5t-6.5 -15t-4 -12.5q-104 -273 -124 -323q-1 -5 -4 -12.5t-5 -14t-2 -12.5v-133
h66v-52l-69 3h-114l-65 -3v52h65v142l-138 362l-16 36l-16 3l-39 1v42z" />
    <glyph glyph-name="uni04B0" unicode="&#x4b0;" horiz-adv-x="802" 
d="M20 687h320v-52h-67l173 -276h2q2 3 15 25l26 41q44 72 83 133q2 4 15 22t19.5 29.5t6.5 16.5q-5 9 -59 9v52l68 -3h105l55 3v-52q-39 0 -58 -2q-7 -1 -11.5 -1.5t-9 -3t-6.5 -3.5t-6 -5.5t-5 -6t-5.5 -9t-6.5 -9.5l-45 -72q-6 -9 -66.5 -103.5t-89.5 -144.5h120v-52
h-120v-170h90v-52h-324v52h90v170h-119v52h119l-227 360h-82v52z" />
    <glyph glyph-name="uni04B1" unicode="&#x4b1;" horiz-adv-x="560" 
d="M12 445l59 -3h108l70 3v-42h-20q-28 0 -32 -6v-3q0 -7 6 -19q17 -42 52 -138.5t57 -145.5q96 250 104 271q7 21 7 22v2q-4 17 -48 17v42l53 -3h77l43 3v-42q-42 0 -57 -12q-5 -5 -15 -29q-126 -327 -138 -361h82v-52h-82v-90h66v-52l-69 3h-114l-65 -3v52h66v90h-82v52
h82l-139 364l-15 33l-16 4l-40 1v42z" />
    <glyph glyph-name="uni04B2" unicode="&#x4b2;" horiz-adv-x="802" 
d="M48 687h314v-52h-65l119 -179l118 170q-23 9 -75 9v49h201l64 3v-52q-23 0 -69 -2q-2 0 -12.5 -1t-14 -2t-10 -5t-11.5 -12l-20 -28q-12 -17 -36 -52t-36 -52l-52 -75q-5 -8 -5 -9q0 -3 2.5 -7.5t6.5 -9.5t5 -7l196 -294q2 -3 5.5 -9t5.5 -9t7 -6t12 -3q3 0 7 0.5t6 0.5
h65l33 -243h-56q-8 56 -15 85q-7 30 -22 51t-29.5 31.5t-39.5 16t-40.5 6.5t-43.5 1h-108v52h64l-147 222l-148 -213q23 -9 75 -9v-49h-201l-64 -3v52q23 0 69 2q3 0 9.5 0.5t9 1t8 2t8.5 3.5t7 6t8 10q19 27 56 80t56 80l60 87q5 7 5 9q0 7 -12 21l-173 259q-1 2 -4 6.5
l-4 6t-4 4t-6.5 3.5t-8.5 1h-70v52z" />
    <glyph glyph-name="uni04B3" unicode="&#x4b3;" horiz-adv-x="560" 
d="M27 445l56 -3h104l66 3v-42l-40 -5q9 -15 40 -58t38 -43q5 0 27 31q4 5 16.5 19t19.5 24t7 14v1q0 17 -37 17v42l58 -3h90l48 3v-42q-45 0 -66 -9.5t-38 -33.5q-8 -10 -23.5 -29.5t-23.5 -29.5q-4 -5 -15.5 -18.5t-18.5 -23t-7 -13.5q2 -4 5 -8q58 -76 114 -152l20 -26
q10 -17 37 -17h40l20 -201h-56q-9 83 -27 118t-69 41h-99v42h28l9 4l-3 9l-84 112q-10 -15 -31 -40t-36 -43t-15 -25q0 -8 12 -12.5t25 -4.5v-42l-58 3h-89l-49 -3v42l51 4l25 8l40 45l91 114l-142 185l-18 3l-42 1v42z" />
    <glyph glyph-name="uni04B4" unicode="&#x4b4;" horiz-adv-x="1063" 
d="M22 687h604l16 -243h-56q-2 78 -21.5 121t-48.5 56.5t-78 13.5h-39v-577h377v577h-90v52h330v-52h-90v-577h99l33 -248h-56q0 2 -2 17t-3 19t-3 18t-3.5 19t-5 17t-6.5 18t-7.5 16t-10 16t-12 13t-14.5 12q-38 26 -127 26h-649v57h90v577h-39q-86 0 -118 -45
q-28 -41 -30 -146h-56z" />
    <glyph glyph-name="uni04B5" unicode="&#x4b5;" horiz-adv-x="711" 
d="M37 445h346l11 -178h-56q-1 19 -1.5 26t-2.5 28t-5.5 31t-9.5 23.5t-15.5 19.5t-22.5 6q-10 0 -10 -15v-327q0 -16 16 -16h194q22 0 22 17q0 3 -0.5 7.5t-0.5 6.5v313q0 15 -15 15h-5q-8 1 -23 1h-23v42l71 -3h116l67 3v-42h-24q-15 0 -23 -1h-5q-15 0 -15 -15
q0 -2 0.5 -5.5t0.5 -4.5v-306q0 -1 -0.5 -5t-0.5 -6q0 -16 17 -16h5q18 -1 53 -1l20 -201h-56q-7 58 -11 73q-11 52 -46 69t-88 17h-434v42h23q16 0 24 1h5q14 0 14 14v329q0 14 -10 14q-1 0 -3.5 -0.5t-3.5 -0.5q-17 -6 -27.5 -19t-15 -35t-5.5 -37t-2 -42h-56z" />
    <glyph glyph-name="uni04B6" unicode="&#x4b6;" horiz-adv-x="832" 
d="M46 687h330v-52h-90v-185q0 -126 68 -126h15q53 0 115 14.5t62 35.5q0 3 -0.5 7.5t-0.5 5.5v248h-90v52h330v-52h-90v-582h99l33 -243h-56q-13 101 -39 137q-16 25 -46.5 37.5t-53 14.5t-60.5 2h-117v52h90v262q-6 -2 -27 -10.5t-33 -11.5q-58 -16 -125 -16q-40 0 -60 4
q-67 16 -115.5 61t-48.5 112v181h-90v52z" />
    <glyph glyph-name="uni04B7" unicode="&#x4b7;" horiz-adv-x="590" 
d="M20 445l71 -3h116l67 3v-42h-24q-15 0 -23 -1h-5q-14 0 -14 -13v-85q0 -81 41 -81h6q38 0 82 12.5t44 28.5v124q0 14 -14 14h-6q-8 1 -23 1h-23v42l71 -3h116l67 3v-42h-24q-15 0 -23 -1h-5q-15 0 -15 -15q0 -2 0.5 -5.5t0.5 -4.5v-306q0 -1 -0.5 -5t-0.5 -6
q0 -16 17 -16h5q18 -1 53 -1l20 -201h-56q-4 54 -15.5 87.5t-32.5 48.5t-41.5 19t-56.5 4h-80v42h23q15 0 23 1h5q15 0 15 13v157q-60 -30 -136 -30q-44 0 -83.5 15.5t-61.5 47.5q-14 23 -14 67v72q0 16 -14 16h-6q-8 1 -23 1h-23v42z" />
    <glyph glyph-name="uni04B8" unicode="&#x4b8;" horiz-adv-x="832" 
d="M46 687h330v-52h-90v-191q0 -120 72 -120q21 0 32 1v147h52v-141q103 20 103 43v261h-90v52h330v-52h-90v-582h90v-52h-330v52h90v262q-78 -28 -103 -31v-155h-52v149q-26 -2 -39 -2q-77 0 -146 48.5t-69 125.5v185h-90v52z" />
    <glyph glyph-name="uni04B9" unicode="&#x4b9;" horiz-adv-x="590" 
d="M20 445l71 -3h116l67 3v-42h-23q-16 0 -23 -1h-5q-15 0 -15 -15v-48q0 -6 -0.5 -18.5t-0.5 -19.5q0 -78 44 -78q4 0 12.5 0.5t11.5 0.5v91h39v-85l47 15l18 9l2 10v124l-3 11l-17 3l-46 1v42l71 -3h116l67 3v-42h-24q-15 0 -23 -1h-5q-15 0 -15 -15q0 -2 0.5 -5.5
t0.5 -4.5v-306q0 -1 -0.5 -5.5t-0.5 -6.5q0 -15 15 -15h5q8 -1 23 -1h24v-42l-67 3h-116l-71 -3v42h23q15 0 23 1h5q15 0 15 13v157l-65 -24l-2 -9v-88h-39v92q-5 0 -16 -0.5t-17 -0.5h-8q-100 6 -135 66q-13 22 -13 63v73q0 16 -14 16h-6q-8 1 -23 1h-23v42z" />
    <glyph glyph-name="uni04BA" unicode="&#x4ba;" horiz-adv-x="832" 
d="M46 687h330v-52h-90v-202q86 86 204 86q125 0 171 -61q34 -47 34 -145v-260h90v-52h-330v52h90v286q0 137 -67 137q-86 0 -139.5 -67.5t-53.5 -152.5q0 -8 0.5 -25t0.5 -25v-153h90v-52h-330v52h90v582h-90v52z" />
    <glyph glyph-name="uni04BB" unicode="&#x4bb;" horiz-adv-x="590" 
d="M32 687l39 8h143l1 -330q20 39 63.5 63t89.5 24q104 0 133 -66q14 -30 14 -89v-245q3 -10 36 -10q6 0 16 0.5t14 0.5v-42l-67 3h-116l-71 -3v42h23q15 0 23 1h5q15 0 15 16v255q0 93 -34 95h-4q-62 0 -98.5 -49.5t-36.5 -106.5v-195q0 -15 14 -15h5q8 -1 23 -1h24v-42
l-71 3h-116l-67 -3v42h23q16 0 24 1h5q14 0 14 13v542q0 22 -12 29t-35 7h-19v52z" />
    <glyph glyph-name="uni04BC" unicode="&#x4bc;" horiz-adv-x="941" 
d="M244 386q0 68 35.5 137.5t91.5 111.5q87 66 216 66q153 -2 233 -78q92 -87 92 -257q0 -30 -29 -30q-3 0 -9.5 0.5t-9.5 0.5h-462q1 -54 3.5 -86t16.5 -77.5t41 -74.5q61 -65 152 -65q174 0 232 75q2 2 6 9t6.5 10t9 6t14.5 3q28 0 29 -20q0 -10 -10 -24
q-68 -106 -275 -106q-43 0 -64 1q-80 6 -143 38.5t-101 82.5t-57.5 109t-19.5 123q-37 2 -72 12t-68 29.5t-53 53.5t-20 78q0 36 20.5 61.5t60.5 25.5q36 0 59.5 -23.5t23.5 -58.5t-22 -58t-56 -24q9 -8 20 -15t18 -11t22.5 -8.5t20.5 -6t24.5 -5.5t23.5 -5zM402 383h368
q0 117 -45.5 196.5t-137.5 79.5q-47 0 -88 -25q-97 -62 -97 -251z" />
    <glyph glyph-name="uni04BD" unicode="&#x4bd;" horiz-adv-x="695" 
d="M230 253q11 100 76.5 151.5t157.5 51.5q89 0 141 -48q60 -55 60 -166q0 -29 -27 -29h-273q0 -77 19 -113q29 -59 102 -59q34 0 65 15.5t48 43.5q2 4 6 12.5t6.5 12.5t8.5 8t16 4q29 0 29 -21q0 -3 -5 -18q-22 -53 -73.5 -78.5t-111.5 -25.5q-99 0 -169.5 57.5
t-76.5 162.5q-200 0 -200 116q0 28 16 47.5t47 19.5q27 0 45 -17.5t18 -44.5q0 -42 -38 -59q40 -23 113 -23zM365 252h201q0 39 -7 72t-31.5 61t-63.5 28q-99 0 -99 -161z" />
    <glyph glyph-name="uni04BE" unicode="&#x4be;" horiz-adv-x="941" 
d="M244 386q0 68 35.5 137.5t91.5 111.5q87 66 216 66q153 -2 233 -78q92 -87 92 -257q0 -30 -29 -30q-3 0 -9.5 0.5t-9.5 0.5h-462q0 -121 27 -183q24 -56 74 -88t111 -32q80 0 140.5 15.5t96.5 64.5q6 9 8.5 12.5t8.5 7t15 3.5q29 0 29 -20q0 -9 -7 -20q-16 -25 -38 -43.5
t-40 -28t-50 -18t-46.5 -11t-52.5 -7.5h-8q-19 0 -33.5 -19.5t-14.5 -40.5v-5q2 -22 18.5 -39.5t37.5 -17.5h3q6 1 15 9t17 8q10 0 19.5 -7.5t9.5 -17.5q0 -25 -35 -44.5t-68 -19.5q-42 0 -77.5 29t-35.5 71q0 26 14.5 52.5t35.5 39.5v1q-77 0 -151.5 36.5t-117.5 99.5
q-65 93 -65 217q-37 2 -72 12t-68 29.5t-53 53.5t-20 78q0 36 20.5 61.5t60.5 25.5q36 0 59.5 -23.5t23.5 -58.5t-22 -58t-56 -24q9 -8 20 -15t18 -11t22.5 -8.5t20.5 -6t24.5 -5.5t23.5 -5zM402 383h368q0 117 -45.5 196.5t-137.5 79.5q-47 0 -88 -25q-97 -62 -97 -251z
" />
    <glyph glyph-name="uni04BF" unicode="&#x4bf;" horiz-adv-x="695" 
d="M230 253q11 100 76.5 151.5t157.5 51.5q89 0 141 -48q60 -55 60 -166q0 -29 -27 -29h-273q0 -77 19 -113q30 -59 102 -59q33 0 64 15t48 42q5 7 10 18t10 16t17 5q30 0 30 -21t-20.5 -47t-43.5 -41q-5 -4 -22 -13.5t-26 -16t-20.5 -17.5t-17 -23t-5.5 -27q0 -23 19 -45
t43 -22q10 0 21 10.5t20 10.5q11 0 20 -9t9 -19q0 -2 -2 -8q-13 -27 -43.5 -41.5t-59.5 -14.5q-47 0 -85.5 31.5t-38.5 81.5v6q4 36 50 82q-97 6 -162.5 62t-71.5 158q-200 0 -200 116q0 28 16 47.5t47 19.5q27 0 45 -17.5t18 -44.5q0 -42 -38 -59q40 -23 113 -23zM365 252
h201q0 39 -7 72t-31.5 61t-63.5 28q-99 0 -99 -161z" />
    <glyph glyph-name="uni04C0" unicode="&#x4c0;" horiz-adv-x="420" 
d="M41 687h338v-52h-94v-582h94v-52h-338v52h94v582h-94v52z" />
    <glyph glyph-name="uni04C3" unicode="&#x4c3;" horiz-adv-x="832" 
d="M46 687h330v-52h-90v-256l45 1l270 247q-23 8 -54 8v52l74 -3h105l46 3v-52q-36 0 -54 -2q-21 -2 -32 -8.5t-27 -22.5q-165 -149 -243 -223q62 -4 99.5 -10t85.5 -26t81 -54q72 -75 72 -204q0 -143 -93 -220q-78 -66 -190 -66q-38 0 -72.5 9t-61.5 34t-27 62
q0 33 22.5 56t55.5 23q34 0 57 -22t23 -56q0 -35 -22 -57h20q38 0 65 23.5t39.5 62t18 75t5.5 75.5q0 68 -18 117.5t-42.5 75t-64 40t-68.5 17.5t-69 3h-46v-284h90v-52h-330v52h90v582h-90v52z" />
    <glyph glyph-name="uni04C4" unicode="&#x4c4;" horiz-adv-x="590" 
d="M20 445l71 -3h116l67 3v-42l-46 -1l-17 -3l-3 -11v-123h11q11 0 31.5 14.5t51.5 41t37 31.5l27 21q16 11 16 19q0 11 -18 11v42l60 -3h31q45 0 92 3v-42q-40 0 -63 -11l-30 -21q-131 -104 -133 -106q97 0 153 -56q56 -59 56 -169q0 -90 -50 -154q-67 -86 -204 -86
q-53 0 -99.5 25t-46.5 79q0 26 17.5 44.5t47.5 18.5h6q25 -3 40 -21.5t15 -42.5q0 -33 -28 -52q29 -9 46 -9h5q32 2 56 21.5t36 49.5t17.5 61t5.5 64q0 106 -37.5 147.5t-105.5 41.5q-8 0 -22 -0.5t-21 -0.5v-169q0 -13 15 -13h5q7 -1 23 -1h23v-42l-67 3h-116l-71 -3v42h23
q16 0 24 1h5q14 0 14 14v328q0 16 -14 16h-5q-8 1 -24 1h-23v42z" />
    <glyph glyph-name="uni04C7" unicode="&#x4c7;" horiz-adv-x="832" 
d="M46 687h330v-52h-90v-251h259v251h-90v52h330v-52h-90v-671q0 -85 -63 -124.5t-155 -39.5q-63 0 -113 29.5t-50 85.5q0 33 22 56t55 23t57 -21.5t24 -57.5q0 -19 -7 -32t-24 -33q27 -3 28 -3h5q72 0 72 82q0 6 -0.5 17t-0.5 15v371h-259v-279h90v-52h-330v52h90v582h-90
v52z" />
    <glyph glyph-name="uni04C8" unicode="&#x4c8;" horiz-adv-x="590" 
d="M20 445l71 -3h116l67 3v-42l-46 -1l-17 -3l-3 -11v-123h173v123l-3 11l-17 3l-46 1v42l71 -3h116l67 3v-42h-23q-16 0 -23 -1h-6q-14 0 -14 -15v-417q0 -47 -17 -81t-46 -53t-62 -27.5t-71 -8.5q-53 0 -96 24.5t-43 74.5q0 25 16.5 44t41.5 19q30 0 49 -18t19 -45
t-20 -47q18 -5 36 -5q24 0 39.5 8.5t22 26.5t8 33.5t1.5 41.5v269h-173v-169q0 -13 15 -13h5q7 -1 23 -1h23v-42l-67 3h-116l-71 -3v42h23q16 0 24 1h5q14 0 14 14v328q0 16 -14 16h-5q-8 1 -24 1h-23v42z" />
    <glyph glyph-name="uni04CB" unicode="&#x4cb;" horiz-adv-x="832" 
d="M46 687h330v-52h-90v-185q0 -126 68 -126h15q53 0 115 14.5t62 35.5q0 3 -0.5 7.5t-0.5 5.5v248h-90v52h330v-52h-90v-582h90v-52h-118q-34 0 -53 -1t-46.5 -10t-44.5 -26q-19 -19 -31 -49t-15 -47.5t-8 -57.5h-56l33 243h99v262q-6 -2 -27 -10.5t-33 -11.5
q-58 -16 -125 -16q-40 0 -60 4q-67 16 -115.5 61t-48.5 112v181h-90v52z" />
    <glyph glyph-name="uni04CC" unicode="&#x4cc;" horiz-adv-x="590" 
d="M20 445l71 -3h116l67 3v-42h-24q-15 0 -23 -1h-5q-14 0 -14 -13v-85q0 -81 41 -81h6q38 0 82 12.5t44 28.5v124q0 14 -14 14h-6q-8 1 -23 1h-23v42l71 -3h116l67 3v-42h-24q-15 0 -23 -1h-5q-15 0 -15 -15q0 -2 0.5 -5.5t0.5 -4.5v-306q0 -1 -0.5 -5.5t-0.5 -6.5
q0 -15 15 -15h5q8 -1 23 -1h24v-42h-80q-89 0 -117 -41q-22 -29 -29 -118h-56l20 201h26q17 0 26 1h6q16 0 16 13v157q-60 -30 -136 -30q-44 0 -83.5 15.5t-61.5 47.5q-14 23 -14 67v72q0 16 -14 16h-6q-8 1 -23 1h-23v42z" />
    <glyph glyph-name="uni04D4" unicode="&#x4d4;" horiz-adv-x="961" 
d="M296 687h573l33 -243h-56q-11 87 -28 120q-6 11 -13 20q-17 23 -46 35t-52 14t-60 2h-61v-278h29q52 0 77.5 20.5t25.5 83.5v11h56v-282h-56v11q0 63 -25.5 83.5t-77.5 20.5h-29v-252h60q35 0 56 1.5t49 10t50 24.5q11 8 20 18.5t16 25t11.5 25t9.5 30t7 28.5t6 31.5
t5 28.5h56l-49 -275h-506v52h68v252h-145q-3 0 -5 -1t-3.5 -3.5t-2.5 -4t-2.5 -5t-1.5 -4.5l-14 -37q-27 -70 -52 -131l-16 -41l-2 -4q-2 -5 -2 -7q0 -14 70 -14v-52l-67 3h-106l-57 -3v52q5 0 17.5 -0.5t18.5 -0.5q48 0 57 28q17 37 61 155q52 134 158 400h-55v52zM313 357
h132v278l-21 -2z" />
    </font>
</defs>
</svg>
