<?xml version="1.0" encoding="iso-8859-1"?>
<!-- Generator: Adobe Illustrator 19.0.0, SVG Export Plug-In . SVG Version: 6.00 Build 0)  -->
<svg version="1.1" id="Capa_1" xmlns="http://www.w3.org/2000/svg" xmlns:xlink="http://www.w3.org/1999/xlink" x="0px" y="0px"
	 viewBox="0 0 511.874 511.874" style="enable-background:new 0 0 511.874 511.874;" xml:space="preserve">
<rect x="27.997" y="51.967" style="fill:#CCD1D9;" width="15.996" height="264.01"/>
<g>
	<rect x="43.987" y="52.047" style="fill:#AC92EC;" width="439.89" height="263.86"/>
	<path style="fill:#AC92EC;" d="M255.937,355.897c6.639,0,11.996,5.358,11.996,11.997s-5.357,11.997-11.996,11.997
		c-6.639,0-11.997-5.358-11.997-11.997S249.298,355.897,255.937,355.897z"/>
</g>
<g>
	<path style="fill:#CCD1D9;" d="M507.875,372.049v15.84c0,13.513-10.48,23.994-23.994,23.994c-5.678,0-85.018,0-176.035,0
		c-34.068,0-69.748,0-103.817,0c-91.017,0-170.357,0-176.035,0C14.474,411.883,4,401.402,4,387.889v-15.84
		c0,13.2,10.794,23.994,23.994,23.994h227.943H483.88C497.082,396.043,507.875,385.249,507.875,372.049z"/>
	<path style="fill:#CCD1D9;" d="M307.845,411.883l15.996,71.982H188.032l15.996-71.982
		C238.098,411.883,273.777,411.883,307.845,411.883z"/>
</g>
<g style="opacity:0.5;">
	<polygon style="fill:#FFFFFF;" points="200.474,427.879 188.032,483.866 204.028,483.866 216.47,427.879 	"/>
</g>
<g style="opacity:0.1;">
	<polygon points="311.392,427.879 323.841,483.866 307.845,483.866 295.396,427.879 	"/>
</g>
<g style="opacity:0.5;">
	<path style="fill:#FFFFFF;" d="M29.446,396.043h-1.453c-13.2,0-23.994-10.794-23.994-23.994v15.84
		c0,13.513,10.474,23.994,23.994,23.994c1.726,0,10.357,0,23.994,0C41.365,411.883,32.711,405.369,29.446,396.043z"/>
</g>
<g style="opacity:0.1;">
	<path d="M482.427,396.043h1.453c13.201,0,23.994-10.794,23.994-23.994v15.84c0,13.513-10.48,23.994-23.994,23.994
		c-1.734,0-10.355,0-23.994,0C470.509,411.883,479.164,405.369,482.427,396.043z"/>
</g>
<g>
	<path style="fill:#F5F7FA;" d="M507.875,339.901v32.148c0,13.2-10.793,23.994-23.994,23.994H255.937v-16.152
		c6.639,0,11.996-5.358,11.996-11.997s-5.357-11.997-11.996-11.997v-15.996H507.875z"/>
	<path style="fill:#F5F7FA;" d="M255.937,379.891v16.152H27.993c-13.2,0-23.994-10.794-23.994-23.994v-0.156v-31.992h251.938v15.996
		c-6.639,0-11.997,5.358-11.997,11.997S249.298,379.891,255.937,379.891z"/>
</g>
<path style="fill:#FFFFFF;" d="M27.993,372.049v-0.156v-31.992H3.999v31.992v0.156c0,13.2,10.794,23.994,23.994,23.994h23.994
	C38.787,396.043,27.993,385.249,27.993,372.049z"/>
<path style="fill:#656D78;" d="M507.875,52.131v287.77H255.937H3.999V52.131c0-13.195,10.794-23.994,23.994-23.994H483.88
	C497.082,28.137,507.875,38.936,507.875,52.131z M483.88,315.907V67.967V51.971h-15.996h-15.996h-23.994h-15.996h-15.996h-15.996
	H363.91H187.954h-31.992H123.97H91.978H59.985H27.993v15.996v247.94H483.88z"/>
<g style="opacity:0.2;">
	<path style="fill:#FFFFFF;" d="M27.993,67.967V52.131v-0.16h0.016c0.086-13.121,10.833-23.834,23.978-23.834H27.993
		c-13.2,0-23.994,10.799-23.994,23.994v287.77h23.994v-23.994V67.967z"/>
</g>
<g style="opacity:0.3;">
	<path d="M483.88,67.967V52.131v-0.16h-0.016c-0.094-13.121-10.84-23.834-23.979-23.834h23.994
		c13.201,0,23.994,10.799,23.994,23.994v287.77h-23.994v-23.994V67.967H483.88z"/>
</g>
<g style="opacity:0.1;">
	<path d="M311.4,427.879l-3.555-15.996c-34.068,0-69.748,0-103.817,0l-3.554,15.996H311.4z"/>
</g>
<g>
	<path style="fill:#3A3847;" d="M507.875,343.853H3.999c-2.21,0-3.999-1.789-3.999-3.999s1.789-3.999,3.999-3.999h503.875
		c2.211,0,4,1.789,4,3.999S510.085,343.853,507.875,343.853z"/>
	<path style="fill:#3A3847;" d="M255.937,383.828c-8.818,0-15.996-7.17-15.996-15.996s7.178-15.996,15.996-15.996
		s15.996,7.17,15.996,15.996S264.755,383.828,255.937,383.828z M255.937,359.833c-4.405,0-7.998,3.593-7.998,7.998
		s3.593,7.998,7.998,7.998c4.412,0,7.998-3.593,7.998-7.998S260.349,359.833,255.937,359.833z"/>
	<path style="fill:#3A3847;" d="M188.009,487.818c-0.289,0-0.578-0.031-0.875-0.094c-2.156-0.484-3.515-2.617-3.038-4.772
		l15.996-71.982c0.484-2.147,2.647-3.476,4.772-3.038c2.156,0.484,3.515,2.616,3.039,4.771l-15.996,71.982
		C191.492,486.552,189.836,487.818,188.009,487.818z"/>
	<path style="fill:#3A3847;" d="M323.873,487.818c-1.834,0-3.49-1.266-3.904-3.133l-15.996-71.982
		c-0.477-2.155,0.883-4.287,3.039-4.771c2.178-0.477,4.295,0.891,4.771,3.038l15.996,71.982c0.477,2.155-0.883,4.288-3.039,4.772
		C324.451,487.787,324.154,487.818,323.873,487.818z"/>
	<path style="fill:#3A3847;" d="M335.917,487.818h-159.96c-2.211,0-3.999-1.789-3.999-3.999c0-2.211,1.788-3.999,3.999-3.999h159.96
		c2.211,0,3.998,1.788,3.998,3.999C339.916,486.029,338.128,487.818,335.917,487.818z"/>
	<path style="fill:#3A3847;" d="M483.88,319.984H27.993c-2.21,0-3.999-1.789-3.999-3.999V52.049c0-2.21,1.789-3.999,3.999-3.999
		H483.88c2.211,0,4,1.789,4,3.999v263.936C487.88,318.195,486.091,319.984,483.88,319.984z M31.992,311.986h447.89V56.048H31.992
		V311.986z"/>
	<path style="fill:#3A3847;" d="M483.88,399.964H27.993C12.559,399.964,0,387.404,0,371.971V52.049
		c0-15.434,12.56-27.993,27.993-27.993H483.88c15.434,0,27.994,12.56,27.994,27.993v319.922
		C511.875,387.405,499.314,399.964,483.88,399.964z M27.993,32.054c-11.021,0-19.995,8.971-19.995,19.995v319.922
		c0,11.028,8.975,19.995,19.995,19.995H483.88c11.029,0,19.996-8.967,19.996-19.995V52.049c0-11.024-8.967-19.995-19.996-19.995
		C483.88,32.054,27.993,32.054,27.993,32.054z"/>
	<path style="fill:#3A3847;" d="M483.88,415.835H27.993C12.302,415.835,0,403.541,0,387.842v-15.996c0-2.21,1.789-3.999,3.999-3.999
		s3.999,1.789,3.999,3.999v15.996c0,11.216,8.787,19.995,19.995,19.995H483.88c11.217,0,19.996-8.779,19.996-19.995v-15.871
		c0-2.21,1.789-3.999,3.998-3.999c2.211,0,4,1.789,4,3.999v15.871C511.875,403.541,499.58,415.835,483.88,415.835z"/>
	<path style="fill:#3A3847;" d="M43.989,319.984c-2.21,0-3.999-1.789-3.999-3.999V52.049c0-2.21,1.789-3.999,3.999-3.999
		s3.999,1.789,3.999,3.999v263.936C47.988,318.195,46.2,319.984,43.989,319.984z"/>
	<path style="fill:#3A3847;" d="M35.991,80.042h-7.998c-2.21,0-3.999-1.788-3.999-3.999c0-2.21,1.789-3.999,3.999-3.999h7.998
		c2.21,0,3.999,1.789,3.999,3.999C39.99,78.254,38.202,80.042,35.991,80.042z"/>
	<path style="fill:#3A3847;" d="M35.991,104.037h-7.998c-2.21,0-3.999-1.788-3.999-3.999c0-2.21,1.789-3.999,3.999-3.999h7.998
		c2.21,0,3.999,1.789,3.999,3.999C39.99,102.249,38.202,104.037,35.991,104.037z"/>
	<path style="fill:#3A3847;" d="M35.991,128.031h-7.998c-2.21,0-3.999-1.788-3.999-3.999c0-2.21,1.789-3.999,3.999-3.999h7.998
		c2.21,0,3.999,1.789,3.999,3.999C39.99,126.243,38.202,128.031,35.991,128.031z"/>
	<path style="fill:#3A3847;" d="M35.991,152.025h-7.998c-2.21,0-3.999-1.788-3.999-3.999c0-2.21,1.789-3.999,3.999-3.999h7.998
		c2.21,0,3.999,1.789,3.999,3.999C39.99,150.237,38.202,152.025,35.991,152.025z"/>
	<path style="fill:#3A3847;" d="M35.991,176.019h-7.998c-2.21,0-3.999-1.788-3.999-3.999c0-2.21,1.789-3.999,3.999-3.999h7.998
		c2.21,0,3.999,1.789,3.999,3.999C39.99,174.231,38.202,176.019,35.991,176.019z"/>
	<path style="fill:#3A3847;" d="M35.991,200.013h-7.998c-2.21,0-3.999-1.789-3.999-3.999s1.789-3.999,3.999-3.999h7.998
		c2.21,0,3.999,1.789,3.999,3.999S38.202,200.013,35.991,200.013z"/>
	<path style="fill:#3A3847;" d="M35.991,224.007h-7.998c-2.21,0-3.999-1.789-3.999-3.999s1.789-3.999,3.999-3.999h7.998
		c2.21,0,3.999,1.789,3.999,3.999S38.202,224.007,35.991,224.007z"/>
	<path style="fill:#3A3847;" d="M35.991,248.001h-7.998c-2.21,0-3.999-1.789-3.999-3.999s1.789-3.999,3.999-3.999h7.998
		c2.21,0,3.999,1.789,3.999,3.999S38.202,248.001,35.991,248.001z"/>
	<path style="fill:#3A3847;" d="M35.991,271.996h-7.998c-2.21,0-3.999-1.789-3.999-3.999s1.789-3.999,3.999-3.999h7.998
		c2.21,0,3.999,1.789,3.999,3.999S38.202,271.996,35.991,271.996z"/>
	<path style="fill:#3A3847;" d="M35.991,295.99h-7.998c-2.21,0-3.999-1.789-3.999-3.999s1.789-3.999,3.999-3.999h7.998
		c2.21,0,3.999,1.789,3.999,3.999S38.202,295.99,35.991,295.99z"/>
	<path style="fill:#3A3847;" d="M99.976,80.042H67.983c-2.21,0-3.999-1.788-3.999-3.999c0-2.21,1.789-3.999,3.999-3.999h31.992
		c2.21,0,3.999,1.789,3.999,3.999C103.975,78.254,102.186,80.042,99.976,80.042z"/>
	<path style="fill:#3A3847;" d="M243.94,104.037H131.968c-2.211,0-3.999-1.788-3.999-3.999c0-2.21,1.788-3.999,3.999-3.999H243.94
		c2.21,0,3.999,1.789,3.999,3.999C247.939,102.249,246.15,104.037,243.94,104.037z"/>
	<path style="fill:#3A3847;" d="M115.972,104.037h-39.99c-2.21,0-3.999-1.788-3.999-3.999c0-2.21,1.789-3.999,3.999-3.999h39.99
		c2.21,0,3.999,1.789,3.999,3.999C119.971,102.249,118.182,104.037,115.972,104.037z"/>
	<path style="fill:#3A3847;" d="M339.916,128.031H235.942c-2.21,0-3.999-1.788-3.999-3.999c0-2.21,1.788-3.999,3.999-3.999h103.974
		c2.211,0,4,1.789,4,3.999C343.916,126.243,342.126,128.031,339.916,128.031z"/>
	<path style="fill:#3A3847;" d="M387.904,128.031h-31.992c-2.209,0-3.998-1.788-3.998-3.999c0-2.21,1.789-3.999,3.998-3.999h31.992
		c2.211,0,4,1.789,4,3.999C391.904,126.243,390.115,128.031,387.904,128.031z"/>
	<path style="fill:#3A3847;" d="M219.946,128.031H83.979c-2.21,0-3.999-1.788-3.999-3.999c0-2.21,1.789-3.999,3.999-3.999h135.967
		c2.21,0,3.999,1.789,3.999,3.999C223.945,126.243,222.156,128.031,219.946,128.031z"/>
	<path style="fill:#3A3847;" d="M107.974,176.019H83.979c-2.21,0-3.999-1.788-3.999-3.999c0-2.21,1.789-3.999,3.999-3.999h23.994
		c2.21,0,3.999,1.789,3.999,3.999C111.973,174.231,110.184,176.019,107.974,176.019z"/>
	<path style="fill:#3A3847;" d="M242.69,176.019H123.97c-2.21,0-3.999-1.788-3.999-3.999c0-2.21,1.789-3.999,3.999-3.999h118.721
		c2.21,0,3.999,1.789,3.999,3.999C246.689,174.231,244.9,176.019,242.69,176.019z"/>
	<path style="fill:#3A3847;" d="M275.931,152.025H91.978c-2.21,0-3.999-1.788-3.999-3.999c0-2.21,1.789-3.999,3.999-3.999h183.954
		c2.211,0,4,1.789,4,3.999C279.931,150.237,278.142,152.025,275.931,152.025z"/>
	<path style="fill:#3A3847;" d="M267.933,200.013h-71.981c-2.211,0-3.999-1.789-3.999-3.999s1.788-3.999,3.999-3.999h71.981
		c2.211,0,4,1.789,4,3.999S270.144,200.013,267.933,200.013z"/>
	<path style="fill:#3A3847;" d="M211.948,224.007H75.981c-2.21,0-3.999-1.789-3.999-3.999s1.789-3.999,3.999-3.999h135.967
		c2.21,0,3.999,1.789,3.999,3.999S214.158,224.007,211.948,224.007z"/>
	<path style="fill:#3A3847;" d="M139.966,271.996H75.981c-2.21,0-3.999-1.789-3.999-3.999s1.789-3.999,3.999-3.999h63.984
		c2.21,0,3.999,1.789,3.999,3.999S142.176,271.996,139.966,271.996z"/>
	<path style="fill:#3A3847;" d="M299.925,248.001H187.954c-2.211,0-3.999-1.789-3.999-3.999s1.788-3.999,3.999-3.999h111.971
		c2.211,0,4,1.789,4,3.999S302.136,248.001,299.925,248.001z"/>
	<path style="fill:#3A3847;" d="M323.919,248.001h-7.998c-2.209,0-3.998-1.789-3.998-3.999s1.789-3.999,3.998-3.999h7.998
		c2.211,0,4,1.789,4,3.999S326.13,248.001,323.919,248.001z"/>
	<path style="fill:#3A3847;" d="M171.958,248.001H83.979c-2.21,0-3.999-1.789-3.999-3.999s1.789-3.999,3.999-3.999h87.979
		c2.21,0,3.999,1.789,3.999,3.999S174.168,248.001,171.958,248.001z"/>
	<path style="fill:#3A3847;" d="M99.976,295.99H67.983c-2.21,0-3.999-1.789-3.999-3.999s1.789-3.999,3.999-3.999h31.992
		c2.21,0,3.999,1.789,3.999,3.999S102.186,295.99,99.976,295.99z"/>
	<path style="fill:#3A3847;" d="M275.931,224.007h-47.987c-2.211,0-3.999-1.789-3.999-3.999s1.788-3.999,3.999-3.999h47.987
		c2.211,0,4,1.789,4,3.999S278.142,224.007,275.931,224.007z"/>
	<path style="fill:#3A3847;" d="M339.916,200.013H283.93c-2.209,0-3.998-1.789-3.998-3.999s1.789-3.999,3.998-3.999h55.986
		c2.211,0,4,1.789,4,3.999S342.126,200.013,339.916,200.013z"/>
	<path style="fill:#3A3847;" d="M179.956,200.013H83.979c-2.21,0-3.999-1.789-3.999-3.999s1.789-3.999,3.999-3.999h95.977
		c2.21,0,3.999,1.789,3.999,3.999S182.166,200.013,179.956,200.013z"/>
</g>
<g style="opacity:0.3;">
	<rect x="43.987" y="52.047" style="fill:#FFFFFF;" width="15.996" height="263.27"/>
</g>
<g style="opacity:0.2;">
	<rect x="467.887" y="52.047" width="15.996" height="263.27"/>
</g>
<g>
</g>
<g>
</g>
<g>
</g>
<g>
</g>
<g>
</g>
<g>
</g>
<g>
</g>
<g>
</g>
<g>
</g>
<g>
</g>
<g>
</g>
<g>
</g>
<g>
</g>
<g>
</g>
<g>
</g>
</svg>
