<?xml version="1.0" encoding="iso-8859-1"?>
<!-- Generator: Adobe Illustrator 21.0.0, SVG Export Plug-In . SVG Version: 6.00 Build 0)  -->
<svg version="1.1" id="Capa_1" xmlns="http://www.w3.org/2000/svg" xmlns:xlink="http://www.w3.org/1999/xlink" x="0px" y="0px"
	 viewBox="0 0 591.146 591.146" style="enable-background:new 0 0 591.146 591.146;" xml:space="preserve">
<g>
	<g>
		<g id="filled_outline_11_">
			<path style="fill:#556575;" d="M68.967,9.852h266.016c32.651,0,59.115,26.464,59.115,59.115v453.212
				c0,32.651-26.464,59.115-59.115,59.115H68.967c-32.651,0-59.115-26.464-59.115-59.115V68.967
				C9.852,36.316,36.316,9.852,68.967,9.852z"/>
			<path style="fill:#506070;" d="M9.852,455.675v66.504c0,32.651,26.464,59.115,59.115,59.115l0,0h266.016
				c32.651,0,59.115-26.464,59.115-59.115l0,0V71.43L9.852,455.675z"/>
			<path style="fill:#405161;" d="M334.983,502.474H68.967c-32.651,0-59.115-26.464-59.115-59.115v78.819
				c0,32.651,26.464,59.115,59.115,59.115l0,0h266.016c32.651,0,59.115-26.464,59.115-59.115l0,0v-78.819
				C394.097,476.01,367.634,502.474,334.983,502.474z"/>
			<path style="fill:#405161;" d="M325.13,472.917H78.819c-21.764,0-39.41-17.646-39.41-39.41V78.819
				c0-21.764,17.646-39.41,39.41-39.41H325.13c21.764,0,39.41,17.646,39.41,39.41v354.688
				C364.54,455.271,346.894,472.917,325.13,472.917z M78.819,59.115c-10.887,0-19.705,8.818-19.705,19.705v354.688
				c0,10.887,8.818,19.705,19.705,19.705H325.13c10.887,0,19.705-8.818,19.705-19.705V78.819c0-10.887-8.818-19.705-19.705-19.705
				H78.819z"/>
			<rect x="482.769" y="128.082" style="fill:#DADDDF;" width="78.819" height="78.819"/>
			<polygon style="fill:#4398D1;" points="463.064,206.901 463.064,295.573 492.622,325.13 492.622,364.54 551.736,364.54 
				551.736,325.13 581.293,295.573 581.293,206.901 			"/>
			<rect x="275.868" y="532.031" style="fill:#374A5D;" width="59.115" height="19.705"/>
			<rect x="236.458" y="532.031" style="fill:#66A816;" width="19.705" height="19.705"/>
			<path style="fill:#4398D1;" d="M492.622,591.146c-21.764,0-39.41-17.646-39.41-39.41V403.95c0-10.887-8.818-19.705-19.705-19.705
				h-9.852V364.54h9.852c21.764,0,39.41,17.646,39.41,39.41v147.786c0,10.887,8.818,19.705,19.705,19.705
				s19.705-8.818,19.705-19.705V364.54h19.705v187.196C532.031,573.5,514.386,591.146,492.622,591.146z"/>
			<rect x="226.606" y="384.245" style="fill:#4398D1;" width="88.672" height="39.41"/>
			<rect x="226.606" y="403.95" style="fill:#3E8CC7;" width="88.672" height="19.705"/>
			<rect x="482.769" y="128.082" style="fill:#DADDDF;" width="78.819" height="78.819"/>
			<rect x="482.769" y="187.196" style="fill:#C7CACC;" width="78.819" height="19.705"/>
			<rect x="482.769" y="187.196" style="fill:#C7CACC;" width="78.819" height="19.705"/>
			<polygon style="fill:#4398D1;" points="463.064,206.901 463.064,295.573 492.622,325.13 492.622,364.54 551.736,364.54 
				551.736,325.13 581.293,295.573 581.293,206.901 			"/>
			<path style="fill:#4398D1;" d="M492.622,591.146c-21.764,0-39.41-17.646-39.41-39.41V403.95c0-10.887-8.818-19.705-19.705-19.705
				h-9.852V364.54h9.852c21.764,0,39.41,17.646,39.41,39.41v147.786c0,10.887,8.818,19.705,19.705,19.705
				s19.705-8.818,19.705-19.705V364.54h19.705v187.196C532.031,573.5,514.386,591.146,492.622,591.146z"/>
			<rect x="512.326" y="364.54" style="fill:#3E8CC7;" width="19.705" height="19.705"/>
			<polygon style="fill:#3E8CC7;" points="482.769,315.278 492.622,325.13 492.622,364.54 551.736,364.54 551.736,325.13 
				581.293,295.573 581.293,216.753 			"/>
			<path d="M68.967,591.146h266.016c38.07-0.039,68.928-30.897,68.967-68.967V68.967C403.91,30.897,373.052,0.039,334.983,0H68.967
				C30.897,0.039,0.039,30.897,0,68.967v453.212C0.039,560.249,30.897,591.106,68.967,591.146z M19.705,68.967
				c0.03-27.193,22.069-49.233,49.262-49.262h266.016c27.193,0.03,49.233,22.069,49.262,49.262v374.392
				c-0.03,27.193-22.069,49.233-49.262,49.262H68.967c-27.193-0.03-49.233-22.069-49.262-49.262V68.967z M19.705,491.538
				c12.946,13.291,30.71,20.789,49.262,20.789h266.016c18.552,0,36.316-7.498,49.262-20.789v30.641
				c-0.03,27.193-22.069,49.233-49.262,49.262H68.967c-27.193-0.03-49.233-22.069-49.262-49.262V491.538z"/>
			<rect x="275.868" y="532.031" width="59.115" height="19.705"/>
			<path d="M581.293,197.049h-9.852v-68.967c0-5.439-4.414-9.852-9.852-9.852h-78.819c-5.439,0-9.852,4.414-9.852,9.852v68.967
				h-9.852c-5.439,0-9.852,4.414-9.852,9.852v88.672c0,2.611,1.035,5.123,2.887,6.966l26.671,26.671v35.331
				c0,5.439,4.414,9.852,9.852,9.852h19.705v177.344c0,10.887-8.818,19.705-19.705,19.705s-19.705-8.818-19.705-19.705V403.95
				c0-21.764-17.646-39.41-39.41-39.41h-9.852v19.705h9.852c10.887,0,19.705,8.818,19.705,19.705v147.786
				c0,21.764,17.646,39.41,39.41,39.41s39.41-17.646,39.41-39.41V374.392h19.705c5.439,0,9.852-4.414,9.852-9.852v-35.331
				l26.671-26.671c1.852-1.842,2.887-4.355,2.887-6.966v-88.672C591.146,201.463,586.732,197.049,581.293,197.049z M492.622,137.934
				h59.115v59.115h-59.115V137.934z M571.441,291.494l-26.671,26.671c-1.852,1.842-2.887,4.355-2.887,6.966v29.557h-39.41V325.13
				c0-2.611-1.034-5.123-2.887-6.966l-26.671-26.671v-74.741h98.524V291.494z"/>
			<rect x="236.458" y="532.031" width="19.705" height="19.705"/>
			<path d="M78.819,472.917H325.13c21.764,0,39.41-17.646,39.41-39.41V78.819c0-21.764-17.646-39.41-39.41-39.41H78.819
				c-21.764,0-39.41,17.646-39.41,39.41v354.688C39.41,455.271,57.055,472.917,78.819,472.917z M59.115,78.819
				c0-10.887,8.818-19.705,19.705-19.705H325.13c10.887,0,19.705,8.818,19.705,19.705v354.688c0,10.887-8.818,19.705-19.705,19.705
				H78.819c-10.887,0-19.705-8.818-19.705-19.705V78.819z"/>
			<path d="M226.606,433.507h88.672c5.439,0,9.852-4.414,9.852-9.852v-39.41c0-5.439-4.414-9.852-9.852-9.852h-88.672
				c-5.439,0-9.852,4.414-9.852,9.852v39.41C216.753,429.093,221.167,433.507,226.606,433.507z M236.458,394.097h68.967v19.705
				h-68.967V394.097z"/>
		</g>
	</g>
</g>
<g>
</g>
<g>
</g>
<g>
</g>
<g>
</g>
<g>
</g>
<g>
</g>
<g>
</g>
<g>
</g>
<g>
</g>
<g>
</g>
<g>
</g>
<g>
</g>
<g>
</g>
<g>
</g>
<g>
</g>
</svg>
