<svg id="Layer_2" height="512" viewBox="0 0 128 128" width="512" xmlns="http://www.w3.org/2000/svg" data-name="Layer 2"><path d="m106.167 0h-84.334a5.756 5.756 0 0 0 -5.75 5.75v116.5a5.756 5.756 0 0 0 5.75 5.75h84.333a5.756 5.756 0 0 0 5.75-5.75v-116.5a5.756 5.756 0 0 0 -5.749-5.75zm2.25 122.25a2.253 2.253 0 0 1 -2.25 2.25h-84.334a2.253 2.253 0 0 1 -2.25-2.25v-116.5a2.253 2.253 0 0 1 2.25-2.25h84.333a2.253 2.253 0 0 1 2.25 2.25z"/><path d="m96.911 105.455-10.011-7.833a1.748 1.748 0 0 0 -1.078-.372h-43.647a1.749 1.749 0 0 0 -1.079.372l-10.008 7.833a1.749 1.749 0 0 0 -.671 1.378v7.834a1.75 1.75 0 0 0 1.75 1.75h63.666a1.75 1.75 0 0 0 1.75-1.75v-7.834a1.751 1.751 0 0 0 -.672-1.378zm-2.828 7.462h-60.166v-5.231l8.862-6.936h42.443l8.861 6.936z"/><path d="m98.292 7.006a6.619 6.619 0 1 0 6.619 6.619 6.627 6.627 0 0 0 -6.619-6.619zm0 9.738a3.119 3.119 0 1 1 3.119-3.119 3.123 3.123 0 0 1 -3.119 3.119z"/><path d="m36.328 13.625a6.619 6.619 0 1 0 -6.619 6.619 6.627 6.627 0 0 0 6.619-6.619zm-9.739 0a3.119 3.119 0 1 1 3.12 3.119 3.123 3.123 0 0 1 -3.12-3.119z"/><path d="m64 11.7a35.765 35.765 0 0 0 -21.259 64.531l-11.275 4.923a1.75 1.75 0 0 0 -1.05 1.6v8.409a1.75 1.75 0 0 0 1.75 1.75h14.5a1.75 1.75 0 0 0 1.234-.513l9.735-9.735a35.771 35.771 0 1 0 6.365-70.965zm-18.059 77.717h-12.024v-5.517l13.13-5.734 18-7.86zm18.059-9.67a32.728 32.728 0 0 1 -3.273-.165l13.343-13.345a1.75 1.75 0 0 0 -1.937-2.837l-25.639 11.2a32.28 32.28 0 1 1 17.506 5.147z"/><path d="m64 37.222a10.25 10.25 0 1 0 10.25 10.25 10.261 10.261 0 0 0 -10.25-10.25zm0 17a6.75 6.75 0 1 1 6.75-6.75 6.758 6.758 0 0 1 -6.75 6.75z"/><path d="m64 22.9a1.75 1.75 0 0 0 0 3.5 21.094 21.094 0 0 1 21.069 21.072 1.75 1.75 0 0 0 3.5 0 24.6 24.6 0 0 0 -24.569-24.572z"/></svg>