<svg id="Layer_2" height="512" viewBox="0 0 128 128" width="512" xmlns="http://www.w3.org/2000/svg" data-name="Layer 2"><rect fill="#284cb2" height="124.5" rx="4" width="92.333" x="17.833" y="1.75"/><path d="m95.833 114.667h-63.666v-7.834l10.008-7.833h43.65l10.008 7.833z" fill="#06daf7"/><circle cx="98.292" cy="13.625" fill="#1d3ba8" r="4.869"/><circle cx="29.708" cy="13.625" fill="#1d3ba8" r="4.869"/><path d="m32.167 91.167h14.5l26.166-26.167-40.666 17.758z" fill="#ff6ca8"/><path d="m64 13.448a34.028 34.028 0 0 0 -17.652 63.117l26.485-11.565-15.784 15.784a34.027 34.027 0 1 0 6.951-67.336z" fill="#e8f3fc"/><circle cx="64" cy="47.472" fill="#284cb2" r="8.5"/><path d="m106.167 0h-84.334a5.756 5.756 0 0 0 -5.75 5.75v116.5a5.756 5.756 0 0 0 5.75 5.75h84.333a5.756 5.756 0 0 0 5.75-5.75v-59.75a1.75 1.75 0 1 0 -3.5 0v59.75a2.253 2.253 0 0 1 -2.25 2.25h-84.333a2.253 2.253 0 0 1 -2.25-2.25v-116.5a2.253 2.253 0 0 1 2.25-2.25h84.333a2.253 2.253 0 0 1 2.25 2.25v27.917a1.75 1.75 0 1 0 3.5 0v-27.917a5.756 5.756 0 0 0 -5.749-5.75z"/><path d="m110.167 44.042a1.75 1.75 0 0 0 -1.75 1.75v4.583a1.75 1.75 0 0 0 3.5 0v-4.583a1.75 1.75 0 0 0 -1.75-1.75z"/><path d="m86.9 97.622a1.748 1.748 0 0 0 -1.078-.372h-43.647a1.749 1.749 0 0 0 -1.079.372l-10.008 7.833a1.749 1.749 0 0 0 -.671 1.378v7.834a1.75 1.75 0 0 0 1.75 1.75h63.666a1.75 1.75 0 0 0 1.75-1.75v-7.834a1.751 1.751 0 0 0 -.672-1.378zm7.18 15.295h-60.163v-5.231l8.862-6.936h42.443l8.861 6.936z"/><path d="m104.911 13.625a6.62 6.62 0 1 0 -6.619 6.619 6.627 6.627 0 0 0 6.619-6.619zm-6.619 3.119a3.119 3.119 0 1 1 3.119-3.119 3.123 3.123 0 0 1 -3.119 3.119z"/><path d="m36.328 13.625a6.619 6.619 0 1 0 -6.619 6.619 6.627 6.627 0 0 0 6.619-6.619zm-9.739 0a3.119 3.119 0 1 1 3.12 3.119 3.123 3.123 0 0 1 -3.12-3.119z"/><path d="m64 11.7a35.557 35.557 0 0 0 -28.327 13.919 1.75 1.75 0 0 0 2.77 2.141 32.275 32.275 0 1 1 25.557 51.987 32.728 32.728 0 0 1 -3.273-.165l13.343-13.345a1.75 1.75 0 0 0 -1.937-2.837l-25.639 11.2a32.056 32.056 0 0 1 -14.768-27.127 1.75 1.75 0 0 0 -3.5 0 35.491 35.491 0 0 0 14.515 28.758l-11.275 4.923a1.75 1.75 0 0 0 -1.05 1.6v8.409a1.75 1.75 0 0 0 1.75 1.75h14.5a1.75 1.75 0 0 0 1.234-.513l9.735-9.735a35.771 35.771 0 1 0 6.365-70.965zm-18.059 77.717h-12.024v-5.517l13.13-5.734 18-7.86z"/><path d="m53.75 47.472a10.25 10.25 0 1 0 10.25-10.25 10.261 10.261 0 0 0 -10.25 10.25zm10.25-6.75a6.75 6.75 0 1 1 -6.75 6.75 6.758 6.758 0 0 1 6.75-6.75z"/><path d="m85.069 47.472a1.75 1.75 0 0 0 3.5 0 24.6 24.6 0 0 0 -24.569-24.572 1.75 1.75 0 0 0 0 3.5 21.094 21.094 0 0 1 21.069 21.072z"/></svg>