<svg height="504pt" viewBox="0 0 504.07695 504" width="504pt" xmlns="http://www.w3.org/2000/svg"><path d="m495.515625 25.46875c.054687-5.03125-2.128906-9.828125-5.960937-13.09375-1.261719-1.089844-2.710938-1.945312-4.277344-2.515625-.335938-.167969-.839844-.335937-1.261719-.503906-.796875-.246094-1.609375-.441407-2.433594-.585938-.914062-.167969-1.839843-.253906-2.769531-.253906h-25.347656l-57.242188-.082031c-2.277344.4375-4.34375 1.617187-5.875 3.355468l-182.390625 182.390626c-6.683593-2.050782-13.5-3.648438-20.398437-4.785157-12.367188-2.050781-24.941406-2.558593-37.433594-1.511719-56.683594 4.507813-106.265625 39.890626-128.960938 92.023438-22.695312 52.136719-14.804687 112.535156 20.519532 157.09375 3.523437 4.367188 7.132812 8.476562 10.910156 12.339844 49.824219 50.652344 127.824219 60.65625 188.820312 24.222656 60.996094-36.433594 89.164063-109.859375 68.1875-177.738281l18.128907-18.128907c1.066406-1.09375 1.617187-2.589843 1.511719-4.113281l-4.113282-44.65625c-.101562-1.335937.316406-2.660156 1.175782-3.691406 1.058593-1.355469 2.734374-2.082031 4.449218-1.929687l20.144532 1.847656 20.730468 1.929687c1.523438.113281 3.019532-.441406 4.101563-1.523437 1.082031-1.078125 1.636719-2.578125 1.523437-4.101563l-3.777344-40.875c-.105468-1.335937.316407-2.664062 1.171876-3.695312 1.046874-1.371094 2.730468-2.101563 4.449218-1.929688l20.144532 1.847657 20.730468 1.929687c1.527344.117187 3.023438-.441406 4.105469-1.519531 1.078125-1.082032 1.636719-2.578125 1.519531-4.105469l-3.691406-41.042969c-.117188-1.335937.304688-2.667968 1.175781-3.691406 1.046875-1.316406 2.6875-2.011719 4.363281-1.847656l24.089844 2.183594 20.816406 1.84375c1.5.132812 2.980469-.421876 4.027344-1.507813l16.953125-17.460937c1.507813-1.582032 2.347657-3.6875 2.351563-5.875zm-347.574219 388.449219c-16.078125 15.945312-42 15.945312-58.082031 0-.328125-.292969-.609375-.628907-.839844-1.007813-.976562-.902344-1.847656-1.917968-2.601562-3.019531l-.082031-.085937c-.832032-.988282-1.5625-2.054688-2.183594-3.1875-.753906-1.082032-1.402344-2.234376-1.929688-3.441407-.671875-1.277343-1.261718-2.59375-1.761718-3.945312-.425782-1.035157-.761719-2.101563-1.007813-3.1875-4.074219-14.296875-.085937-29.679688 10.425781-40.1875 10.511719-10.511719 25.890625-14.503907 40.1875-10.425781 1.089844.246093 2.15625.582031 3.1875 1.007812 1.351563.5 2.671875 1.089844 3.945313 1.761719 1.207031.527343 2.359375 1.175781 3.441406 1.929687 1.132813.621094 2.203125 1.351563 3.191406 2.183594l.082031.082031c1.101563.75 2.117188 1.625 3.023438 2.601563.375.230468.714844.511718 1.003906.839844 16.035156 16.042968 16.035156 42.039062 0 58.082031zm0 0" fill="#fec108"/><path d="m470.335938 25.46875c.054687-5.03125-2.128907-9.828125-5.960938-13.09375-1.261719-1.089844-2.710938-1.945312-4.28125-2.515625-.335938-.167969-.835938-.335937-1.257812-.503906-.796876-.246094-1.609376-.441407-2.433594-.585938-.914063-.167969-1.839844-.253906-2.769532-.253906h-.167968l-57.242188-.082031c-2.277344.4375-4.34375 1.617187-5.875 3.355468l-182.390625 182.390626c-6.683593-2.050782-13.5-3.648438-20.398437-4.785157l-4.78125 4.785157c-10.628906-3.265626-21.574219-5.375-32.652344-6.296876-56.683594 4.507813-106.265625 39.890626-128.960938 92.023438-22.695312 52.136719-14.804687 112.535156 20.519532 157.09375 3.523437 4.367188 7.132812 8.476562 10.910156 12.339844 25.976562 26.441406 60.65625 42.574218 97.617188 45.40625 46.472656-3.890625 88.679687-28.644532 114.761718-67.304688 26.085938-38.664062 33.238282-87.066406 19.449219-131.617187l18.128906-18.128907c1.066407-1.09375 1.617188-2.589843 1.511719-4.113281l-4.113281-44.65625c-.128907-1.527343.421875-3.03125 1.503906-4.117187 1.085937-1.082032 2.589844-1.632813 4.117187-1.503906l20.734376 1.929687 20.144531 1.847656c1.519531.101563 3.011719-.457031 4.089843-1.535156 1.078126-1.078125 1.636719-2.570313 1.53125-4.089844l-3.777343-40.875c-.128907-1.527343.421875-3.035156 1.507812-4.117187 1.082031-1.085938 2.589844-1.636719 4.117188-1.507813l20.730469 1.929688 20.144531 1.847656c1.523437.105469 3.011719-.457031 4.089843-1.53125 1.078126-1.078125 1.636719-2.570313 1.535157-4.09375l-3.691407-41.042969c-.132812-1.503906.410157-2.988281 1.480469-4.058594 1.066407-1.066406 2.550781-1.609374 4.058594-1.480468l20.816406 1.847656 24.085938 2.179688c1.503906.132812 2.984375-.421876 4.03125-1.507813l.335937-.335937 16.617188-17.125c1.507812-1.582032 2.347656-3.6875 2.351562-5.875zm-322.394532 388.449219c-10.890625 10.898437-26.980468 14.761719-41.628906 9.988281-14.1875 4.617188-2.265625 1.261719-13.515625-9.988281-.328125-.292969-.609375-.628907-.839844-1.007813-.976562-.902344-1.847656-1.917968-2.601562-3.019531l-.082031-.085937c-.832032-.988282-1.5625-2.054688-2.183594-3.1875-.753906-1.082032-1.402344-2.234376-1.929688-3.441407-.671875-1.277343-1.261718-2.59375-1.761718-3.945312-.425782-1.035157-.761719-2.101563-1.007813-3.1875-4.109375-14.296875-.121094-29.699219 10.40625-40.207031 10.914063-10.910157-1.761719-14.351563 12.085937-10.40625.460938.101562.910157.242187 1.34375.417968 7.726563-2.527344 16.03125-2.675781 23.839844-.417968 1.089844.246093 2.15625.582031 3.1875 1.007812 1.351563.5 2.671875 1.089844 3.945313 1.761719 1.207031.527343 2.359375 1.175781 3.441406 1.929687 1.132813.621094 2.203125 1.351563 3.191406 2.183594l.082031.082031c1.101563.75 2.117188 1.625 3.023438 2.601563.375.230468.714844.511718 1.003906.839844 16.035156 16.042968 16.035156 42.039062 0 58.082031zm0 0" fill="#ffdc00"/><path d="m162.382812 503.703125c-3.015624 0-6.027343-.085937-9.050781-.253906-46.386719-2.414063-89.476562-24.738281-118.195312-61.246094-43.644531-55.0625-46.9375-131.941406-8.160157-190.535156 38.773438-58.59375 110.824219-85.613281 178.566407-66.964844l178.84375-178.84375c2.882812-3.078125 6.710937-5.101563 10.878906-5.753906.351563-.0468752.863281.101562 1.046875-.0664065l82.371094.0742185c6.707031.050781 13.128906 2.707031 17.910156 7.414063 4.769531 4.761718 7.414062 11.246094 7.335938 17.988281l.148437 80.207031c.011719 4.375-1.691406 8.582032-4.738281 11.722656l-.007813.007813-16.96875 17.457031c-2.8125 2.886719-6.773437 4.355469-10.789062 4l-40.960938-3.683594 3.339844 37.148438c.359375 3.996094-1.074219 7.949219-3.910156 10.785156-2.839844 2.835938-6.792969 4.265625-10.789063 3.902344l-37.050781-3.390625 3.382813 37.042969c.363281 4-1.066407 7.957031-3.910157 10.796875-2.839843 2.839843-6.796875 4.269531-10.800781 3.898437l-37.03125-3.382812 3.730469 40.78125c.371093 4.003906-1.058594 7.960937-3.90625 10.800781l-14.605469 14.609375c13.445312 48.878906 3.296875 101.234375-27.441406 141.550781-30.738282 40.3125-78.542969 63.960938-129.238282 63.933594zm-.214843-308.089844c-62.890625.109375-118.609375 40.570313-138.175781 100.339844-19.570313 59.765625 1.429687 125.34375 52.074218 162.628906 50.644532 37.285157 119.5 37.859375 170.757813 1.417969 51.257812-36.4375 73.34375-101.65625 54.769531-161.742188-.917969-2.972656-.117188-6.207031 2.085938-8.402343l17.039062-17.039063-3.945312-43.15625c-.367188-4 1.0625-7.957031 3.90625-10.796875 2.839843-2.84375 6.792968-4.273437 10.792968-3.910156l37.042969 3.390625-3.390625-37.042969c-.363281-4 1.070312-7.953125 3.910156-10.792969 2.839844-2.839843 6.792969-4.273437 10.792969-3.90625l37.050781 3.386719-3.339844-37.140625c-.355468-3.996094 1.074219-7.945312 3.910157-10.78125 2.835937-2.835937 6.785156-4.265625 10.78125-3.910156l43.222656 3.890625 15.824219-16.28125.011718-.027344-.144531-80.28125c.046875-2.253906-.816406-4.433593-2.394531-6.042969-1.582031-1.613281-3.742188-2.519531-5.996094-2.519531h-.042968l-81.410157-.070312c-.371093.28125-.722656.585937-1.054687.910156l-182.34375 182.347656c-2.199219 2.199219-5.433594 3-8.402344 2.085938-14.039062-4.332031-28.644531-6.542969-43.332031-6.554688zm0 0"/><path d="m118.878906 434.320312c-23.585937-.015624-43.875-16.6875-48.464844-39.824218-4.585937-23.136719 7.808594-46.292969 29.601563-55.304688 21.796875-9.015625 46.925781-1.378906 60.019531 18.238282 13.09375 19.617187 10.507813 45.753906-6.175781 62.425781-9.269531 9.28125-21.859375 14.488281-34.980469 14.464843zm.003906-82.105468c-15.582031.007812-28.988281 11.023437-32.019531 26.308594-3.03125 15.285156 5.15625 30.582031 19.554688 36.539062 14.398437 5.957031 31 .910156 39.652343-12.050781 8.652344-12.957031 6.941407-30.226563-4.078124-41.238281-6.128907-6.132813-14.441407-9.570313-23.109376-9.558594zm0 0"/><path d="m242.3125 226.28125c-3.394531 0-6.457031-2.046875-7.753906-5.183594-1.300782-3.136718-.582032-6.746094 1.816406-9.144531l130.6875-130.6875c2.109375-2.171875 5.226562-3.042969 8.15625-2.273437 2.929688.769531 5.21875 3.058593 5.988281 5.988281.765625 2.929687-.101562 6.046875-2.277343 8.15625l-130.683594 130.683593c-1.574219 1.578126-3.710938 2.460938-5.933594 2.460938zm0 0"/><path d="m403.355469 66.84375c0-4.636719-3.757813-8.394531-8.394531-8.394531-4.632813 0-8.390626 3.757812-8.390626 8.394531s3.757813 8.394531 8.390626 8.394531c4.636718 0 8.394531-3.757812 8.394531-8.394531zm0 0"/></svg>