<?xml version="1.0" encoding="iso-8859-1"?>
<!-- Generator: Adobe Illustrator 19.0.0, SVG Export Plug-In . SVG Version: 6.00 Build 0)  -->
<svg version="1.1" id="Capa_1" xmlns="http://www.w3.org/2000/svg" xmlns:xlink="http://www.w3.org/1999/xlink" x="0px" y="0px"
	 viewBox="0 0 512.107 512.107" style="enable-background:new 0 0 512.107 512.107;" xml:space="preserve">
<path style="fill:#455A64;" d="M494.392,418.624L267.149,191.381c6.951-16.705,10.525-34.621,10.517-52.715
	C277.667,62.083,215.583,0,139,0S0.333,62.083,0.333,138.667S62.416,277.333,139,277.333c18.093,0.008,36.01-3.567,52.715-10.517
	l78.037,78.016l-31.616,31.616c-4.164,4.165-4.164,10.917,0,15.083l42.667,42.667c4.165,4.164,10.917,4.164,15.083,0L331,399.083
	L347.917,416l-35.115,35.115c-4.164,4.165-4.164,10.917,0,15.083l42.667,42.667c4.165,4.164,10.917,4.164,15.083,0l31.616-31.616
	l19.2,19.2c20.826,20.83,54.595,20.834,75.425,0.008c1.82-1.82,3.506-3.769,5.045-5.832
	C517.515,468.089,514.35,437.474,494.392,418.624z M139,213.333c-41.237,0-74.667-33.429-74.667-74.667S97.763,64,139,64
	c41.237,0,74.667,33.429,74.667,74.667S180.237,213.333,139,213.333L139,213.333z"/>
<path d="M363,512c-2.831,0.005-5.548-1.115-7.552-3.115l-42.667-42.667c-4.164-4.165-4.164-10.917,0-15.083L347.917,416L331,399.083
	l-35.115,35.115c-4.165,4.164-10.917,4.164-15.083,0l-42.667-42.667c-4.164-4.165-4.164-10.917,0-15.083l31.616-31.616
	l-78.037-78.016c-16.705,6.95-34.621,10.524-52.715,10.517c-76.583,0-138.667-62.083-138.667-138.667C0.333,62.083,62.416,0,139,0
	s138.667,62.083,138.667,138.667c0.008,18.093-3.567,36.01-10.517,52.715l227.243,227.243l0,0
	c19.961,18.873,23.1,49.514,7.381,72.043c-17.616,23.607-51.034,28.463-74.641,10.847c-2.062-1.539-4.01-3.225-5.829-5.045
	l-19.2-19.2l-31.616,31.616C368.499,510.869,365.809,511.988,363,512z M402.168,451.499c2.831-0.005,5.548,1.115,7.552,3.115
	l26.667,26.667c6.486,6.668,15.6,10.107,24.875,9.387c9.322-0.613,17.904-5.294,23.467-12.8c9.102-14.044,6.818-32.594-5.419-44.011
	L246.776,201.323c-3.213-3.184-4.068-8.049-2.133-12.139c7.654-15.743,11.651-33.012,11.691-50.517
	c0-64.801-52.532-117.333-117.333-117.333S21.667,73.865,21.667,138.667S74.198,256,139,256c17.478-0.005,34.731-3.95,50.475-11.541
	c4.089-1.935,8.954-1.08,12.139,2.133l90.709,90.709c4.164,4.165,4.164,10.917,0,15.083L260.749,384l27.584,27.584l35.115-35.115
	c4.165-4.164,10.917-4.164,15.083,0l32,32c4.164,4.165,4.164,10.917,0,15.083l-35.115,35.115L363,486.251l31.723-31.616
	C396.697,452.654,399.371,451.527,402.168,451.499z"/>
<path d="M139,213.333c-41.237,0-74.667-33.429-74.667-74.667S97.763,64,139,64c41.237,0,74.667,33.429,74.667,74.667
	S180.237,213.333,139,213.333L139,213.333z M139,85.333c-29.455,0-53.333,23.878-53.333,53.333S109.545,192,139,192
	s53.333-23.878,53.333-53.333S168.455,85.333,139,85.333L139,85.333z"/>
<g>
</g>
<g>
</g>
<g>
</g>
<g>
</g>
<g>
</g>
<g>
</g>
<g>
</g>
<g>
</g>
<g>
</g>
<g>
</g>
<g>
</g>
<g>
</g>
<g>
</g>
<g>
</g>
<g>
</g>
</svg>
