<svg viewBox="-21 0 512 512.0005" xmlns="http://www.w3.org/2000/svg"><path d="m212.132812 427.148438 42.425782-42.425782-84.851563-84.855468-127.28125 127.28125 84.851563 84.851562 42.429687-42.425781-21.214843-21.214844 42.425781-42.425781zm0 0" fill="#ff9f00"/><path d="m434.398438 35.160156c-46.882813-46.878906-122.824219-46.878906-169.707032 0-39.457031 39.457032-45.183594 99.492188-18.242187 145.523438l-246.449219 246.464844 42.425781 42.425781 246.449219-246.464844c46.03125 26.941406 106.066406 21.214844 145.523438-18.242187 46.878906-46.882813 46.878906-122.824219 0-169.707032zm-116.675782 116.675782c-17.605468-17.609376-17.605468-46.035157 0-63.640626 17.609375-17.609374 46.035156-17.609374 63.640625 0 17.609375 17.605469 17.609375 46.03125 0 63.640626-17.605469 17.605468-46.03125 17.605468-63.640625 0zm0 0" fill="#ffe470"/><path d="m434.398438 204.867188c-39.457032 39.457031-99.492188 45.183593-145.523438 18.242187l-246.449219 246.464844-21.210937-21.214844 296.507812-296.527344c17.609375 17.609375 46.035156 17.609375 63.640625 0 17.609375-17.605469 17.609375-46.03125 0-63.636719l53.035157-53.035156c46.878906 46.882813 46.878906 122.824219 0 169.707032zm0 0" fill="#fdbf00"/></svg>