<?xml version="1.0" encoding="iso-8859-1"?>
<!-- Generator: Adobe Illustrator 19.0.0, SVG Export Plug-In . SVG Version: 6.00 Build 0)  -->
<svg version="1.1" id="Capa_1" xmlns="http://www.w3.org/2000/svg" xmlns:xlink="http://www.w3.org/1999/xlink" x="0px" y="0px"
	 viewBox="0 0 512 512" style="enable-background:new 0 0 512 512;" xml:space="preserve">
<path style="fill:#FFB125;" d="M72.724,501.176l9.529-9.529c1.142-1.142,1.903-2.61,2.177-4.202l6.234-36.193
	c0.562-3.262,3.117-5.817,6.379-6.379l33.197-5.718c3.262-0.562,5.817-3.117,6.379-6.379l5.718-33.198
	c0.562-3.262,3.117-5.817,6.379-6.379l36.193-6.234c1.592-0.274,3.06-1.035,4.202-2.177l130.507-130.507
	c3.054-3.054,3.054-8.005,0-11.059l-50.807-50.807c-3.054-3.054-8.005-3.054-11.059,0L10.858,439.31
	c-1.429,1.429-2.249,3.355-2.289,5.375l-1.026,51.833c-0.088,4.439,3.534,8.061,7.973,7.973l51.833-1.026
	C69.37,503.425,71.296,502.605,72.724,501.176z"/>
<path style="fill:#FF901D;" d="M287.07,221.733L40.175,468.627c-1.429,1.429-2.249,3.355-2.289,5.375l-0.595,30.058l30.058-0.595
	c2.02-0.04,3.946-0.86,5.375-2.289l9.529-9.529c1.142-1.142,1.903-2.61,2.177-4.202l6.234-36.193
	c0.562-3.262,3.117-5.817,6.379-6.379l33.197-5.718c3.262-0.562,5.817-3.117,6.379-6.379l5.718-33.198
	c0.562-3.262,3.117-5.817,6.379-6.379l36.193-6.234c1.592-0.274,3.06-1.035,4.202-2.177l130.507-130.507
	c3.054-3.054,3.054-8.005,0-11.059l-21.49-21.49C295.075,218.679,290.124,218.679,287.07,221.733z"/>
<path style="fill:#2D5872;" d="M461.691,50.344c-57.119-57.119-149.726-57.119-206.845,0s-57.119,149.726,0,206.845
	s149.726,57.119,206.845,0C518.809,200.07,518.809,107.462,461.691,50.344z M381.467,130.568c-13.159-13.159-13.159-34.493,0-47.652
	s34.493-13.159,47.652,0s13.159,34.493,0,47.652C415.96,143.727,394.625,143.727,381.467,130.568z"/>
<path style="fill:#1D4859;" d="M482.072,75.84c9.867,46.768-3.35,97.433-39.668,133.751c-57.119,57.119-149.726,57.119-206.845,0
	c-7.884-7.884-14.674-16.447-20.382-25.496c5.651,26.785,18.868,52.294,39.668,73.094c57.119,57.119,149.726,57.119,206.845,0
	C510.925,207.954,517.715,132.354,482.072,75.84z"/>
<path d="M434.428,135.876c16.064-16.064,16.064-42.203-0.001-58.268c-7.782-7.782-18.128-12.068-29.134-12.068
	s-21.352,4.286-29.135,12.068c-7.782,7.782-12.067,18.129-12.067,29.134s4.285,21.352,12.067,29.134
	c7.782,7.782,18.128,12.068,29.135,12.068C416.299,147.944,426.645,143.658,434.428,135.876z M386.775,125.259
	c-4.946-4.946-7.669-11.523-7.669-18.517c0-6.995,2.723-13.571,7.67-18.518c4.946-4.946,11.523-7.67,18.517-7.67
	c6.995,0,13.57,2.724,18.516,7.67c4.947,4.947,7.671,11.523,7.671,18.518c0,6.995-2.723,13.571-7.67,18.517
	c-4.946,4.946-11.523,7.67-18.517,7.67C398.297,132.93,391.722,130.205,386.775,125.259
	C386.776,125.259,386.776,125.259,386.775,125.259z"/>
<path d="M467,45.035c-25.934-25.934-60.328-41.766-96.848-44.58c-36.107-2.781-72.131,7.253-101.407,28.262
	c-3.368,2.417-4.14,7.108-1.722,10.476c2.419,3.368,7.109,4.138,10.477,1.722c26.406-18.95,58.903-28.001,91.499-25.491
	c32.949,2.539,63.983,16.826,87.384,40.227c54.101,54.1,54.101,142.128,0,196.228c-26.207,26.207-61.052,40.64-98.114,40.64
	c-22.649,0-44.466-5.399-63.993-15.573c-0.104-0.061-0.202-0.13-0.31-0.186c-7.724-4.041-15.039-8.806-21.874-14.235
	c-0.093-0.074-0.186-0.149-0.279-0.223c-2.564-2.047-5.057-4.192-7.48-6.424c-0.251-0.232-0.502-0.465-0.752-0.699
	c-1.157-1.082-2.303-2.177-3.426-3.3c-1.108-1.108-2.188-2.239-3.255-3.38c-0.228-0.244-0.458-0.486-0.684-0.731
	c-0.957-1.037-1.894-2.091-2.817-3.154c-0.342-0.395-0.681-0.793-1.018-1.191c-0.691-0.814-1.369-1.637-2.041-2.466
	c-0.594-0.735-1.178-1.476-1.756-2.222c-0.37-0.477-0.737-0.956-1.101-1.438c-15.934-21.131-25.588-46.497-27.58-73.114
	c-2.448-32.727,6.749-65.3,25.896-91.717c2.434-3.357,1.684-8.051-1.672-10.484c-3.356-2.432-8.051-1.685-10.483,1.673
	c-21.229,29.287-31.425,65.387-28.713,101.649c1.431,19.127,6.437,37.668,14.587,54.728L5.548,434.003
	c-2.812,2.814-4.406,6.555-4.485,10.533L0.038,496.37c-0.083,4.147,1.552,8.208,4.486,11.141C7.387,510.374,11.323,512,15.367,512
	c0.099,0,0.198-0.001,0.298-0.003l51.833-1.026c3.978-0.079,7.719-1.672,10.535-4.486l9.529-9.53
	c2.249-2.25,3.724-5.097,4.266-8.235l6.232-36.192c0.022-0.13,0.126-0.233,0.256-0.256l33.198-5.718
	c6.379-1.099,11.403-6.123,12.503-12.503l5.717-33.197c0.022-0.13,0.125-0.233,0.256-0.256l36.191-6.234
	c3.139-0.541,5.987-2.016,8.236-4.267l16.247-16.245c2.931-2.931,2.931-7.684,0-10.616c-2.931-2.931-7.685-2.932-10.616,0
	L183.8,379.482c-0.045,0.045-0.103,0.075-0.167,0.086l-36.192,6.234c-6.379,1.099-11.403,6.123-12.503,12.503l-5.718,33.197
	c-0.022,0.13-0.125,0.233-0.255,0.256l-33.198,5.718c-6.379,1.099-11.403,6.123-12.503,12.503l-6.232,36.19
	c-0.012,0.065-0.043,0.126-0.088,0.171l-9.528,9.528c-0.058,0.058-0.135,0.091-0.216,0.092l-51.833,1.026
	c-0.055-0.003-0.134,0.001-0.228-0.091c-0.094-0.094-0.092-0.184-0.092-0.228l0.365-18.456l225.323-225.323
	c0.215,0.254,0.421,0.515,0.637,0.767c0.467,0.546,0.933,1.092,1.408,1.633c0.386,0.439,0.777,0.873,1.169,1.307
	c0.583,0.648,1.172,1.292,1.767,1.931c0.324,0.348,0.647,0.697,0.975,1.042c0.936,0.987,1.881,1.966,2.845,2.93
	c1.015,1.015,2.044,2.009,3.081,2.992c0.282,0.267,0.569,0.528,0.853,0.793c0.787,0.734,1.579,1.461,2.378,2.177
	c0.287,0.257,0.576,0.511,0.865,0.765c0.865,0.763,1.738,1.516,2.618,2.258c0.196,0.165,0.392,0.332,0.589,0.496
	c5.801,4.843,11.905,9.221,18.267,13.117l-44.767,44.768c-2.931,2.931-2.931,7.685,0,10.616c2.932,2.931,7.685,2.931,10.617,0
	l47.902-47.903c20.446,9.788,42.988,14.959,66.328,14.959c41.073,0,79.687-15.995,108.731-45.038
	C526.953,202.542,526.953,104.99,467,45.035z M231.531,240.859L15.843,456.548l0.232-11.714c0.002-0.082,0.035-0.159,0.092-0.216
	l210.786-210.786c1.46,2.39,2.993,4.733,4.586,7.037C231.536,240.866,231.533,240.863,231.531,240.859z"/>
<g>
</g>
<g>
</g>
<g>
</g>
<g>
</g>
<g>
</g>
<g>
</g>
<g>
</g>
<g>
</g>
<g>
</g>
<g>
</g>
<g>
</g>
<g>
</g>
<g>
</g>
<g>
</g>
<g>
</g>
</svg>
