<svg id="heaven-keys" enable-background="new 0 0 300 300" height="512" viewBox="0 0 300 300" width="512" xmlns="http://www.w3.org/2000/svg"><g><circle cx="130.311" cy="128" fill="#e5efef" r="92"/><g fill="#4c241d"><path d="m195.967 57.725c-1.023 0-2.047-.391-2.828-1.172l-11.34-11.342c-1.562-1.562-1.562-4.096 0-5.656 1.562-1.562 4.094-1.562 5.656 0l11.34 11.342c1.562 1.562 1.562 4.096 0 5.656-.781.781-1.805 1.172-2.828 1.172z"/><path d="m184.627 57.725c-1.023 0-2.047-.391-2.828-1.172-1.562-1.561-1.562-4.094 0-5.656l11.34-11.342c1.562-1.562 4.094-1.562 5.656 0 1.562 1.561 1.562 4.094 0 5.656l-11.34 11.342c-.781.781-1.805 1.172-2.828 1.172z"/><circle cx="150.311" cy="84" r="4"/></g><g><path d="m128.754 181.698-11.314-11.314 113.138-113.136c3.124-3.124 8.19-3.124 11.314 0 3.124 3.124 3.124 8.19 0 11.314z" fill="#b5a19c"/><path d="m128.754 185.699c-1.061 0-2.078-.422-2.828-1.172l-11.312-11.314c-1.562-1.562-1.562-4.094 0-5.656l113.136-113.137c4.531-4.535 12.436-4.535 16.971 0 2.266 2.266 3.514 5.279 3.514 8.484s-1.248 6.219-3.516 8.486l-113.137 113.137c-.75.75-1.768 1.172-2.828 1.172zm-5.656-15.314 5.656 5.658 110.308-110.311c.756-.756 1.172-1.76 1.172-2.828s-.416-2.072-1.172-2.826c-1.512-1.516-4.146-1.514-5.654-.002z" fill="#4c241d"/></g><g><path d="m213.163 73.917h32v60h-32z" fill="#6b4f5b" transform="matrix(.707 .707 -.707 .707 140.601 -131.607)"/><path d="m219.264 140.443c-1.023 0-2.047-.391-2.828-1.172l-22.627-22.627c-1.562-1.562-1.562-4.094 0-5.656l42.426-42.426c1.562-1.562 4.094-1.562 5.656 0l22.627 22.627c1.562 1.562 1.562 4.094 0 5.656l-42.426 42.426c-.781.782-1.805 1.172-2.828 1.172zm-16.971-26.627 16.971 16.971 36.77-36.77-16.971-16.971z" fill="#4c241d"/></g><path d="m241.891 100.846c-1.023 0-2.047-.391-2.828-1.172-1.562-1.562-1.562-4.094 0-5.656l11.314-11.314c1.562-1.562 4.094-1.562 5.656 0s1.562 4.094 0 5.656l-11.314 11.314c-.781.781-1.805 1.172-2.828 1.172z" fill="#4c241d"/><path d="m205.121 126.301c-1.023 0-2.047-.391-2.828-1.172-1.562-1.562-1.562-4.096 0-5.656l11.314-11.312c1.562-1.562 4.094-1.562 5.656 0s1.562 4.096 0 5.656l-11.314 11.312c-.781.781-1.804 1.172-2.828 1.172z" fill="#4c241d"/><path d="m241.891 117.816c-1.023 0-2.047-.391-2.828-1.172l-8.484-8.486c-1.562-1.562-1.562-4.096 0-5.656 1.562-1.562 4.094-1.562 5.656 0l8.484 8.486c1.562 1.562 1.562 4.096 0 5.656-.781.782-1.805 1.172-2.828 1.172z" fill="#4c241d"/><g><path d="m100.911 173.479h32v17.497h-32z" fill="#6b4f5b" transform="matrix(.707 .707 -.707 .707 163.097 -29.295)"/><path d="m122.039 203.729c-1.061 0-2.078-.422-2.828-1.172l-22.629-22.629c-.75-.75-1.172-1.768-1.172-2.828s.422-2.078 1.172-2.828l12.373-12.371c1.562-1.562 4.094-1.562 5.656 0l22.627 22.627c1.562 1.562 1.562 4.094 0 5.656l-12.371 12.373c-.75.75-1.767 1.172-2.828 1.172zm-16.973-26.629 16.973 16.973 6.715-6.717-16.971-16.971z" fill="#4c241d"/></g><g><path d="m82.311 260c-24.262 0-44-19.738-44-44s19.738-44 44-44 44 19.738 44 44-19.739 44-44 44zm0-72c-15.439 0-28 12.561-28 28s12.561 28 28 28 28-12.561 28-28-12.561-28-28-28z" fill="#b5a19c"/><path d="m82.311 264c-26.467 0-48-21.533-48-48s21.533-48 48-48 48 21.533 48 48-21.534 48-48 48zm0-88c-22.057 0-40 17.943-40 40s17.943 40 40 40 40-17.943 40-40-17.944-40-40-40zm0 72c-17.645 0-32-14.355-32-32s14.355-32 32-32 32 14.355 32 32-14.356 32-32 32zm0-56c-13.234 0-24 10.766-24 24s10.766 24 24 24 24-10.766 24-24-10.766-24-24-24z" fill="#4c241d"/></g><g><path d="m171.247 181.698 11.314-11.314-113.138-113.136c-3.124-3.124-8.19-3.124-11.314 0-3.124 3.124-3.124 8.19 0 11.314z" fill="#b5a19c"/><path d="m171.246 185.699c-1.061 0-2.078-.422-2.828-1.172l-113.137-113.138c-2.268-2.266-3.516-5.279-3.516-8.484s1.248-6.219 3.516-8.486c4.68-4.678 12.291-4.68 16.971.002l113.137 113.137c1.562 1.562 1.562 4.094 0 5.656l-11.314 11.314c-.751.749-1.768 1.171-2.829 1.171zm-107.478-126.793c-1.025 0-2.051.391-2.83 1.17-.756.756-1.172 1.76-1.172 2.828s.416 2.072 1.172 2.826l110.309 110.312 5.658-5.658-110.309-110.308c-.78-.779-1.805-1.17-2.828-1.17z" fill="#4c241d"/></g><g><path d="m54.837 73.917h32v60h-32z" fill="#6b4f5b" transform="matrix(-.707 .707 -.707 -.707 194.407 127.307)"/><path d="m80.736 140.443c-1.023 0-2.047-.391-2.828-1.172l-42.426-42.425c-1.562-1.562-1.562-4.094 0-5.656l22.627-22.627c1.562-1.562 4.094-1.562 5.656 0l42.428 42.426c.75.75 1.172 1.768 1.172 2.828s-.422 2.078-1.172 2.828l-22.629 22.627c-.781.781-1.804 1.171-2.828 1.171zm-36.769-46.425 36.77 36.77 16.973-16.971-36.771-36.77z" fill="#4c241d"/></g><path d="m58.109 100.846c-1.023 0-2.047-.391-2.828-1.172l-11.314-11.315c-1.562-1.562-1.562-4.094 0-5.656s4.094-1.562 5.656 0l11.314 11.314c1.562 1.562 1.562 4.094 0 5.656-.781.782-1.804 1.173-2.828 1.173z" fill="#4c241d"/><path d="m94.879 126.301c-1.023 0-2.047-.391-2.828-1.172l-11.314-11.312c-1.562-1.561-1.562-4.094 0-5.656s4.094-1.562 5.656 0l11.314 11.312c1.562 1.561 1.562 4.094 0 5.656-.781.781-1.805 1.172-2.828 1.172z" fill="#4c241d"/><path d="m58.109 117.816c-1.023 0-2.047-.391-2.828-1.172-1.562-1.562-1.562-4.094 0-5.656l8.486-8.486c1.562-1.562 4.094-1.562 5.656 0s1.562 4.094 0 5.656l-8.486 8.486c-.781.782-1.804 1.172-2.828 1.172z" fill="#4c241d"/><g><path d="m167.09 173.479h32v17.497h-32z" fill="#6b4f5b" transform="matrix(-.707 .707 -.707 -.707 441.408 181.619)"/><path d="m177.963 203.729c-1.061 0-2.078-.422-2.828-1.172l-12.373-12.373c-1.562-1.562-1.562-4.094 0-5.656l22.627-22.627c1.562-1.562 4.094-1.562 5.656 0l12.373 12.371c.75.75 1.172 1.768 1.172 2.828s-.422 2.078-1.172 2.828l-22.627 22.629c-.75.75-1.768 1.172-2.828 1.172zm-6.717-16.374 6.717 6.717 16.971-16.973-6.717-6.715z" fill="#4c241d"/></g><g><path d="m173.69 216c0-24.262 19.738-44 44-44s44 19.738 44 44-19.738 44-44 44-44-19.738-44-44zm16 0c0 15.439 12.561 28 28 28s28-12.561 28-28-12.561-28-28-28-28 12.561-28 28z" fill="#b5a19c"/><path d="m217.689 264c-26.467 0-48-21.533-48-48s21.533-48 48-48 48 21.533 48 48-21.533 48-48 48zm0-88c-22.057 0-40 17.943-40 40s17.943 40 40 40 40-17.943 40-40-17.943-40-40-40zm0 72c-17.645 0-32-14.355-32-32s14.355-32 32-32 32 14.355 32 32-14.355 32-32 32zm0-56c-13.234 0-24 10.766-24 24s10.766 24 24 24 24-10.766 24-24-10.765-24-24-24z" fill="#4c241d"/></g></g></svg>