<svg height="512" viewBox="0 0 64 64" width="512" xmlns="http://www.w3.org/2000/svg"><g id="Setting"><path d="m61 35.56v4.88a1.992 1.992 0 0 1 -1.51 1.94l-4.75 1.18a1.516 1.516 0 0 0 -1.04.93c-.01.01-.01.01-.01.02a1.569 1.569 0 0 0 .08 1.4l2.52 4.19a2 2 0 0 1 -.3 2.44l-3.45 3.45a2 2 0 0 1 -2.44.3l-4.19-2.52a1.569 1.569 0 0 0 -1.4-.08c-.01 0-.01 0-.02.01a1.516 1.516 0 0 0 -.93 1.04l-1.18 4.75a1.992 1.992 0 0 1 -1.94 1.51h-4.88a1.992 1.992 0 0 1 -1.94-1.51l-1.18-4.75a1.516 1.516 0 0 0 -.93-1.04c-.01-.01-.01-.01-.02-.01a1.569 1.569 0 0 0 -1.4.08l-4.19 2.52a2 2 0 0 1 -2.44-.3l-3.45-3.45a2 2 0 0 1 -.3-2.44l1.81-3.01.71-1.18a1.569 1.569 0 0 0 .08-1.4c0-.01 0-.01-.01-.02a1.516 1.516 0 0 0 -1.04-.93l-.66-.16-3.69-.92-.4-.1a1.992 1.992 0 0 1 -1.51-1.94v-4.88a1.992 1.992 0 0 1 1.51-1.94l1.27-.31 3.48-.87a1.516 1.516 0 0 0 1.04-.93c.01-.01.01-.01.01-.02a1.569 1.569 0 0 0 -.08-1.4l-2.52-4.19a2 2 0 0 1 .3-2.44l3.45-3.45a2 2 0 0 1 2.44-.3l4.19 2.52a1.569 1.569 0 0 0 1.4.08c.01 0 .01 0 .02-.01a1.516 1.516 0 0 0 .93-1.04l.87-3.48a10.978 10.978 0 0 1 3.69 8.22c0 .35-.02.7-.05 1.05a10.986 10.986 0 0 0 -9.9 9.9c-.03.35-.05.7-.05 1.05a11 11 0 1 0 19.22-7.31l1.27-.31a1.992 1.992 0 0 0 1.51-1.94v-4.88a1.992 1.992 0 0 0 -1.51-1.94l-.4-.1 3.01-1.81a2 2 0 0 1 2.44.3l3.45 3.45a2 2 0 0 1 .3 2.44l-2.52 4.19a1.569 1.569 0 0 0 -.08 1.4c0 .01 0 .01.01.02a1.516 1.516 0 0 0 1.04.93l4.75 1.18a1.992 1.992 0 0 1 1.51 1.94z" fill="#c0ab91"/><path d="m49 23.56v4.88a1.992 1.992 0 0 1 -1.51 1.94l-1.27.31-3.48.87a1.516 1.516 0 0 0 -1.04.93c-.01.01-.01.01-.01.02a1.569 1.569 0 0 0 .08 1.4l2.52 4.19a2 2 0 0 1 -.3 2.44l-3.45 3.45a2 2 0 0 1 -2.44.3l-4.19-2.52a1.569 1.569 0 0 0 -1.4-.08c-.01 0-.01 0-.02.01a1.516 1.516 0 0 0 -.93 1.04l-.87 3.48a10.978 10.978 0 0 1 -3.69-8.22c0-.35.02-.7.05-1.05a10.986 10.986 0 0 0 9.9-9.9c.03-.35.05-.7.05-1.05a11 11 0 1 0 -19.22 7.31l-1.27.31a1.992 1.992 0 0 0 -1.51 1.94v4.88a1.992 1.992 0 0 0 1.51 1.94l.4.1-3.01 1.81a2 2 0 0 1 -2.44-.3l-3.45-3.45a2 2 0 0 1 -.3-2.44l2.52-4.19a1.569 1.569 0 0 0 .08-1.4c0-.01 0-.01-.01-.02a1.516 1.516 0 0 0 -1.04-.93l-4.75-1.18a1.992 1.992 0 0 1 -1.51-1.94v-4.88a1.992 1.992 0 0 1 1.51-1.94l4.75-1.18a1.516 1.516 0 0 0 1.04-.93c.01-.01.01-.01.01-.02a1.569 1.569 0 0 0 -.08-1.4l-2.52-4.19a2 2 0 0 1 .3-2.44l3.45-3.45a2 2 0 0 1 2.44-.3l4.19 2.52a1.569 1.569 0 0 0 1.4.08c.01 0 .01 0 .02-.01a1.516 1.516 0 0 0 .93-1.04l1.18-4.75a1.992 1.992 0 0 1 1.94-1.51h4.88a1.992 1.992 0 0 1 1.94 1.51l1.18 4.75a1.516 1.516 0 0 0 .93 1.04c.01.01.01.01.02.01a1.569 1.569 0 0 0 1.4-.08l4.19-2.52a2 2 0 0 1 2.44.3l3.45 3.45a2 2 0 0 1 .3 2.44l-1.81 3.01-.71 1.18a1.569 1.569 0 0 0 -.08 1.4c0 .01 0 .01.01.02a1.516 1.516 0 0 0 1.04.93l.66.16 3.69.92.4.1a1.992 1.992 0 0 1 1.51 1.94z" fill="#ffde55"/><g fill="#ff7956"><circle cx="43" cy="26" r="2"/><circle cx="38" cy="14" r="2"/><circle cx="38" cy="38" r="2"/><circle cx="26" cy="9" r="2"/><circle cx="14" cy="14" r="2"/><path d="m15 36.27v3.46a2 2 0 1 1 0-3.46z"/><circle cx="9" cy="26" r="2"/></g><path d="m59.731 32.649-4.748-1.179a.515.515 0 0 1 -.351-.324c-.009-.022-.018-.043-.028-.065a.562.562 0 0 1 .023-.476l2.519-4.189a2.989 2.989 0 0 0 -.449-3.663l-3.45-3.45a2.988 2.988 0 0 0 -3.662-.45l-2.656 1.6-3.946-.98a.515.515 0 0 1 -.351-.324c-.009-.022-.018-.043-.028-.065a.562.562 0 0 1 .023-.476l2.519-4.189a2.989 2.989 0 0 0 -.449-3.663l-3.45-3.456a2.989 2.989 0 0 0 -3.663-.45l-4.176 2.515a.575.575 0 0 1 -.489.031l-.065-.028a.513.513 0 0 1 -.323-.349l-1.18-4.749a2.988 2.988 0 0 0 -2.911-2.27h-4.88a2.989 2.989 0 0 0 -2.911 2.269l-1.179 4.748a.517.517 0 0 1 -.324.351l-.065.028a.562.562 0 0 1 -.476-.023l-4.189-2.519a2.989 2.989 0 0 0 -3.663.449l-3.453 3.45a2.99 2.99 0 0 0 -.45 3.663l2.512 4.176a.567.567 0 0 1 .031.489c-.01.022-.019.043-.028.065a.513.513 0 0 1 -.349.323l-4.746 1.18a2.988 2.988 0 0 0 -2.27 2.911v4.88a2.989 2.989 0 0 0 2.269 2.911l4.748 1.179a.517.517 0 0 1 .351.324c.009.022.018.043.028.065a.562.562 0 0 1 -.023.476l-2.519 4.189a2.989 2.989 0 0 0 .446 3.663l3.45 3.45a2.99 2.99 0 0 0 3.662.45l2.656-1.6 3.946.98a.517.517 0 0 1 .351.324c.009.022.018.043.028.065a.562.562 0 0 1 -.023.476l-2.519 4.189a2.989 2.989 0 0 0 .449 3.663l3.45 3.45a2.991 2.991 0 0 0 3.663.45l4.176-2.512a.567.567 0 0 1 .489-.031l.065.028a.515.515 0 0 1 .323.349l1.18 4.749a2.988 2.988 0 0 0 2.914 2.273h4.88a2.989 2.989 0 0 0 2.911-2.269l1.179-4.748a.515.515 0 0 1 .324-.351l.065-.028a.562.562 0 0 1 .476.023l4.189 2.519a2.986 2.986 0 0 0 3.663-.449l3.45-3.45a2.99 2.99 0 0 0 .45-3.663l-2.512-4.176a.567.567 0 0 1 -.031-.489c.01-.022.019-.043.028-.065a.515.515 0 0 1 .349-.323l4.749-1.18a2.988 2.988 0 0 0 2.27-2.911v-4.88a2.989 2.989 0 0 0 -2.269-2.911zm-46.347 10.785a.994.994 0 0 1 -1.217-.151l-3.45-3.45a.993.993 0 0 1 -.15-1.217l2.528-4.2a2.565 2.565 0 0 0 .139-2.285c-.005-.015-.012-.03-.018-.044a2.526 2.526 0 0 0 -1.714-1.5l-4.752-1.178a.992.992 0 0 1 -.75-.969v-4.88a.992.992 0 0 1 .751-.969l4.749-1.181a2.522 2.522 0 0 0 1.713-1.5c.006-.015.013-.029.018-.044a2.571 2.571 0 0 0 -.147-2.3l-2.521-4.19a1 1 0 0 1 .151-1.217l3.45-3.45a.993.993 0 0 1 1.217-.15l4.2 2.528a2.568 2.568 0 0 0 2.285.139c.015-.005.029-.012.044-.018a2.526 2.526 0 0 0 1.5-1.714l1.18-4.751a.992.992 0 0 1 .97-.743h4.88a.992.992 0 0 1 .969.751l1.181 4.749a2.522 2.522 0 0 0 1.5 1.713c.015.006.029.013.044.018a2.571 2.571 0 0 0 2.3-.147l4.19-2.521a1 1 0 0 1 1.217.151l3.45 3.45a.994.994 0 0 1 .15 1.218l-2.528 4.2a2.565 2.565 0 0 0 -.139 2.285c0 .015.012.029.018.044a2.527 2.527 0 0 0 1.719 1.5l4.746 1.179a.992.992 0 0 1 .75.969v4.88a.99.99 0 0 1 -.747.968l-4.76 1.183a2.522 2.522 0 0 0 -1.713 1.5c-.006.014-.013.029-.018.044a2.571 2.571 0 0 0 .147 2.3l2.521 4.19a1 1 0 0 1 -.151 1.217l-3.45 3.45a.992.992 0 0 1 -1.217.15l-4.2-2.528a2.565 2.565 0 0 0 -2.285-.139l-.044.018a2.522 2.522 0 0 0 -1.5 1.713l-.424 1.7a10 10 0 0 1 -2.166-6.205c0-.059.007-.116.008-.174a11.98 11.98 0 0 0 9.939-10.691c.032-.378.053-.757.053-1.135a12 12 0 1 0 -21.931 6.718 2.974 2.974 0 0 0 -2.015 2.289c-.018 0-.036-.007-.054-.007a3 3 0 0 0 0 6c.018 0 .036-.007.054-.007a2.981 2.981 0 0 0 .812 1.55zm31.763-5.85-2.512-4.176a.571.571 0 0 1 -.031-.489c.01-.022.019-.043.028-.065a.517.517 0 0 1 .351-.324l2.866-.712a9.99 9.99 0 0 1 -14.035 14.029l.716-2.864a.515.515 0 0 1 .324-.351l.065-.028a.562.562 0 0 1 .476.023l4.189 2.519a2.984 2.984 0 0 0 3.663-.449l3.45-3.45a2.99 2.99 0 0 0 .45-3.663zm-16.881-1.85a9.972 9.972 0 0 1 7.468-7.468 9.972 9.972 0 0 1 -7.468 7.468zm-9.413-9.318 2.512 4.176a.571.571 0 0 1 .031.489c-.01.022-.019.043-.028.065a.515.515 0 0 1 -.351.324l-2.866.712a9.99 9.99 0 0 1 14.035-14.029l-.716 2.864a.517.517 0 0 1 -.324.351l-.065.028a.558.558 0 0 1 -.476-.023l-4.189-2.519a2.991 2.991 0 0 0 -3.663.449l-3.45 3.45a2.99 2.99 0 0 0 -.45 3.663zm-5.853 11.584a1 1 0 0 1 1-1v2a1 1 0 0 1 -1-1zm47 2.44a.992.992 0 0 1 -.751.969l-4.749 1.181a2.522 2.522 0 0 0 -1.713 1.495c-.006.015-.013.029-.018.044a2.571 2.571 0 0 0 .147 2.3l2.521 4.19a1 1 0 0 1 -.151 1.217l-3.45 3.45a.991.991 0 0 1 -1.217.15l-4.2-2.528a2.565 2.565 0 0 0 -2.285-.139c-.015 0-.029.012-.044.018a2.526 2.526 0 0 0 -1.5 1.714l-1.18 4.751a.992.992 0 0 1 -.969.75h-4.881a.992.992 0 0 1 -.969-.751l-1.181-4.751a2.522 2.522 0 0 0 -1.495-1.713c-.015-.006-.029-.013-.044-.018a2.571 2.571 0 0 0 -2.3.147l-4.19 2.521a1 1 0 0 1 -1.217-.151l-3.45-3.45a.994.994 0 0 1 -.15-1.218l2.528-4.2a2.565 2.565 0 0 0 .139-2.285c0-.015-.012-.029-.018-.044a2.527 2.527 0 0 0 -1.719-1.5l-4.744-1.18a.992.992 0 0 1 -.75-.969v-4.88a.99.99 0 0 1 .747-.968l4.753-1.182a2.522 2.522 0 0 0 1.713-1.495c.006-.014.013-.029.018-.044a2.571 2.571 0 0 0 -.147-2.3l-2.521-4.19a1 1 0 0 1 .151-1.217l3.45-3.45a.993.993 0 0 1 1.217-.15l4.2 2.528a2.574 2.574 0 0 0 2.285.139l.044-.018a2.522 2.522 0 0 0 1.5-1.713l.424-1.7a10 10 0 0 1 2.166 6.2c0 .059-.007.116-.008.174a11.98 11.98 0 0 0 -9.939 10.691c-.032.378-.053.757-.053 1.135a12 12 0 1 0 21.931-6.718 2.981 2.981 0 0 0 2.069-2.842v-4.88a2.994 2.994 0 0 0 -.866-2.1l1.482-.891a.994.994 0 0 1 1.217.151l3.45 3.45a.993.993 0 0 1 .15 1.217l-2.528 4.2a2.565 2.565 0 0 0 -.139 2.285c0 .015.012.03.018.044a2.526 2.526 0 0 0 1.714 1.5l4.751 1.18a.992.992 0 0 1 .75.969z"/><path d="m37 56h2v2h-2z"/><path d="m50.435 50.435h2v2h-2z" transform="matrix(.707 -.707 .707 .707 -21.305 51.435)"/><path d="m56 37h2v2h-2z"/><path d="m50.435 23.565h2v2h-2z" transform="matrix(.707 -.707 .707 .707 -2.305 43.565)"/><path d="m23.565 23.565h2v2h-2z" transform="matrix(.707 -.707 .707 .707 -10.175 24.565)"/><path d="m18 37h2v2h-2z"/><path d="m23.565 50.435h2v2h-2z" transform="matrix(.707 -.707 .707 .707 -29.175 32.435)"/><path d="m26 12a3 3 0 1 0 -3-3 3 3 0 0 0 3 3zm0-4a1 1 0 1 1 -1 1 1 1 0 0 1 1-1z"/><path d="m9 23a3 3 0 1 0 3 3 3 3 0 0 0 -3-3zm0 4a1 1 0 1 1 1-1 1 1 0 0 1 -1 1z"/><path d="m43 29a3 3 0 1 0 -3-3 3 3 0 0 0 3 3zm0-4a1 1 0 1 1 -1 1 1 1 0 0 1 1-1z"/><path d="m14 17a3 3 0 1 0 -3-3 3 3 0 0 0 3 3zm0-4a1 1 0 1 1 -1 1 1 1 0 0 1 1-1z"/><path d="m38 17a3 3 0 1 0 -3-3 3 3 0 0 0 3 3zm0-4a1 1 0 1 1 -1 1 1 1 0 0 1 1-1z"/><path d="m38 35a3 3 0 1 0 3 3 3 3 0 0 0 -3-3zm0 4a1 1 0 1 1 1-1 1 1 0 0 1 -1 1z"/></g></svg>