<svg id="Capa_1" enable-background="new 0 0 512 512" height="512" viewBox="0 0 512 512" width="512" xmlns="http://www.w3.org/2000/svg"><g><g><path d="m255.716 338.788h16.559c36.575 0 66.225 29.65 66.225 66.225l.002 91.068c0 4.572-3.706 8.279-8.279 8.279h-314.586c-4.572 0-8.279-3.706-8.279-8.279v-91.065c0-36.575 29.65-66.225 66.225-66.225l16.558-.002h165.575z" fill="#817d84"/><path d="m246.066 363.622 23.166 50.679c1.854 4.056.162 8.852-3.827 10.846l-11.155 5.577c-6.102 3.051-6.102 11.758 0 14.809l8.032 4.016c5.054 2.527 6.147 9.263 2.151 13.258l-41.55 41.55h-99.344l-41.55-41.55c-3.996-3.996-2.903-10.732 2.152-13.258l8.032-4.016c6.102-3.051 6.102-11.758 0-14.809l-11.155-5.577c-3.989-1.995-5.681-6.79-3.827-10.846l23.166-50.679 72.57 24.84z" fill="#756e79"/><path d="m206.327 410.537-16.557 93.822h-33.115l-16.557-93.823v-35.245l32.831 13.171 33.115-13.171z" fill="#d8e2f3"/><path d="m338.5 405.013c0-36.575-29.65-66.226-66.225-66.226h-16.559-6.422c36.567.01 66.206 29.656 66.206 66.225l.002 91.067c0 4.572-3.706 8.279-8.279 8.279h23c4.572 0 8.279-3.707 8.279-8.279z" fill="#756e79"/><path d="m131.817 273.959h82.787v114.503h-82.787z" fill="#f6e2c1"/><path d="m191.605 273.96h23v114.502h-23z" fill="#f2d0ac"/><path d="m131.817 322.227-41.393 16.561 29.327 73.313c1.953 4.882 7.903 6.73 12.278 3.814l41.181-27.453z" fill="#edf6ff"/><path d="m214.605 322.227 41.393 16.561-29.327 73.313c-1.953 4.882-7.903 6.73-12.278 3.814l-41.182-27.453z" fill="#edf6ff"/><g><path d="m255.998 140.101h16.557c9.144 0 16.557 7.413 16.557 16.557v33.115c0 9.144-7.413 16.557-16.557 16.557h-16.557-165.573-16.557c-9.144 0-16.557-7.413-16.557-16.557v-33.115c0-9.144 7.413-16.557 16.557-16.557h16.557z" fill="#f6e2c1"/><path d="m173.212 43.755-82.786 74.788.001 87.788c0 45.721 37.064 82.786 82.786 82.786s82.786-37.064 82.786-82.786v-87.788z" fill="#f6e2c1"/><path d="m232.998 97.765v108.566c0 41.817-31.011 76.372-71.286 81.973 3.761.523 7.596.813 11.5.813 45.721 0 82.786-37.065 82.786-82.786v-87.788z" fill="#f2d0ac"/><path d="m214.604 40.754h-82.785c-22.861 0-41.394 18.533-41.394 41.394v41.394h16.556c9.144 0 16.557-7.413 16.557-16.558v-16.557h99.345v16.558c0 9.145 7.413 16.558 16.558 16.558h16.557v-41.395c0-22.861-18.533-41.394-41.394-41.394z" fill="#817d84"/></g><path d="m232.12 329.235-31.107 77.76 13.38 8.919c4.375 2.917 10.326 1.068 12.279-3.813l29.327-73.313z" fill="#d8e2f3"/><g><g><path d="m504.641 90.427c0-46.221-37.878-83.594-84.286-82.773-45.293.801-81.287 37.474-81.287 82.774 0 30.612 16.622 57.33 41.328 71.652 5.112 2.964 8.344 8.34 8.344 14.249v18.442h66.229v-18.317c0-5.977 3.262-11.42 8.43-14.424 24.658-14.334 41.242-41.027 41.242-71.603z" fill="#ffe07d"/><path d="m420.355 7.654c-3.379.06-6.697.342-9.961.79 40.259 5.615 71.248 40.178 71.248 81.983 0 30.577-16.584 57.269-41.242 71.603-5.167 3.004-8.43 8.447-8.43 14.424v18.316h23v-18.316c0-5.977 3.262-11.42 8.43-14.424 24.658-14.334 41.242-41.026 41.242-71.603-.001-46.221-37.879-83.595-84.287-82.773z" fill="#f1cb86"/><path d="m438.969 256h-34.229c-8.836 0-16-7.163-16-16v-22.115h66.229v22.115c0 8.836-7.163 16-16 16z" fill="#817d84"/><path d="m431.969 217.885v22.115c0 8.836-7.164 16-16 16h23c8.836 0 16-7.164 16-16v-22.115z" fill="#756e79"/><path d="m454.969 222.885c9.144 0 16.557-7.413 16.557-16.557s-7.413-16.557-16.557-16.557h-66.229c-9.144 0-16.557 7.413-16.557 16.557s7.413 16.557 16.557 16.557z" fill="#edf6ff"/><path d="m454.969 189.77h-23c9.144 0 16.557 7.413 16.557 16.558 0 9.144-7.413 16.557-16.557 16.557h23c9.144 0 16.557-7.413 16.557-16.557s-7.413-16.558-16.557-16.558z" fill="#d8e2f3"/></g></g></g><g><path d="m272.416 331.288h-15.112l-35.34-14.138v-34.952c22.909-14.815 38.712-39.715 41.08-68.367h9.372c13.266 0 24.058-10.792 24.058-24.058v-33.115c0-13.266-10.792-24.058-24.058-24.058h-9.058v-50.452c0-26.96-21.934-48.894-48.893-48.894h-82.785c-26.96 0-48.893 21.934-48.893 48.894v50.451h-9.058c-13.266 0-24.058 10.792-24.058 24.058v33.115c0 13.266 10.792 24.058 24.058 24.058h9.371c2.367 28.652 18.169 53.551 41.077 68.367v34.953l-35.34 14.139-15.111.002c-40.653-.001-73.726 33.072-73.726 73.725v91.065c0 8.7 7.078 15.778 15.778 15.778h26.256c4.143 0 7.5-3.357 7.5-7.5s-3.357-7.5-7.5-7.5h-26.256c-.429 0-.778-.35-.778-.778v-91.065c0-32.382 26.344-58.726 58.727-58.726l11.479-.001 6.855 17.137-21.83 47.758c-3.553 7.771-.349 16.853 7.294 20.673l11.154 5.577c.14.07.431.215.431.697 0 .48-.291.626-.43.696l-8.033 4.016c-4.523 2.263-7.708 6.594-8.519 11.586-.81 4.992.842 10.107 4.418 13.685l28.746 28.746h-33.258c-4.143 0-7.5 3.357-7.5 7.5s3.357 7.5 7.5 7.5h258.33c8.701 0 15.779-7.078 15.779-15.778l-.002-91.068c.001-40.654-33.073-73.726-73.725-73.726zm-21.659 120.955 8.031 4.016c.088.044.356.179.42.571.064.395-.148.607-.218.676l-39.355 39.354h-21.067l13.028-73.829c2.254 1.17 4.727 1.78 7.23 1.78 1.571 0 3.153-.236 4.697-.716 4.562-1.417 8.196-4.773 9.971-9.209l12.889-32.221 15.887 34.754c.175.384.018.833-.36 1.022l-11.154 5.577c-5.38 2.689-8.722 8.098-8.722 14.113 0 6.014 3.342 11.423 8.723 14.112zm-31.189-42.929c-.034.086-.139.345-.493.455-.351.11-.587-.045-.663-.096l-35.121-23.413 34.21-54.74 28.607 11.445zm52.847-261.713c4.994 0 9.058 4.064 9.058 9.058v33.115c0 4.994-4.063 9.058-9.058 9.058h-9.058v-51.23h9.058zm-140.736-99.346h82.785c18.689 0 33.894 15.204 33.894 33.894v33.894h-9.057c-4.994 0-9.058-4.063-9.058-9.058v-9.058h.78c4.143 0 7.5-3.357 7.5-7.5s-3.357-7.5-7.5-7.5h-115.902c-4.143 0-7.5 3.357-7.5 7.5s3.357 7.5 7.5 7.5h.777v9.058c0 4.994-4.063 9.058-9.058 9.058h-9.055v-33.894c0-18.69 15.204-33.894 33.894-33.894zm-67.009 141.517v-33.115c0-4.994 4.063-9.058 9.058-9.058h9.058l.001 51.23h-9.059c-4.995.001-9.058-4.062-9.058-9.057zm33.116 16.559-.001-75.289h9.055c13.266 0 24.058-10.792 24.058-24.058v-9.058h84.345v9.058c0 13.266 10.792 24.058 24.058 24.058h9.057v75.289c0 41.513-33.773 75.285-75.286 75.285s-75.286-33.772-75.286-75.285zm75.285 90.285c11.981 0 23.422-2.352 33.893-6.608v30.07l-33.893 54.233-33.894-54.234v-30.069c10.471 4.256 21.912 6.608 33.894 6.608zm-44.43 34.904 34.21 54.74-35.122 23.413c-.077.051-.309.204-.662.096-.354-.11-.459-.369-.492-.454l-26.542-66.35zm-41.488 125.986c-.07-.069-.282-.281-.219-.675.064-.394.333-.528.42-.572l8.033-4.016c5.38-2.69 8.722-8.098 8.722-14.112 0-6.016-3.342-11.424-8.722-14.113l-11.155-5.578c-.377-.188-.535-.636-.359-1.02l15.885-34.752 12.889 32.219c1.774 4.436 5.408 7.791 9.971 9.208 1.544.479 3.125.716 4.696.716 2.504 0 4.977-.61 7.231-1.781l13.029 73.83h-21.068zm75.653 39.353-14.611-82.801 24.876-16.583 24.877 16.584-14.611 82.8zm167.558 0h-89.514l28.747-28.747c3.576-3.577 5.228-8.692 4.417-13.685-.81-4.992-3.994-9.323-8.518-11.585l-8.031-4.016c-.14-.07-.431-.216-.431-.696 0-.483.291-.627.431-.697l11.153-5.576c7.642-3.82 10.847-12.9 7.295-20.674l-21.832-47.761 6.854-17.134h11.481c32.382 0 58.726 26.344 58.726 58.725l.002 91.068c0 .429-.35.778-.78.778z"/><path d="m147.455 173.213v-8.277c0-4.143-3.357-7.5-7.5-7.5s-7.5 3.357-7.5 7.5v8.277c0 4.143 3.357 7.5 7.5 7.5s7.5-3.358 7.5-7.5z"/><path d="m206.186 180.713c4.143 0 7.5-3.357 7.5-7.5v-8.277c0-4.143-3.357-7.5-7.5-7.5s-7.5 3.357-7.5 7.5v8.277c0 4.142 3.357 7.5 7.5 7.5z"/><path d="m467.027 168.515c27.741-16.127 44.973-46.049 44.973-78.088 0-24.418-9.594-47.292-27.014-64.407-17.417-17.112-40.508-26.284-64.905-25.866-14.426.256-28.698 3.969-41.273 10.736-3.647 1.964-5.013 6.512-3.05 10.159 1.963 3.646 6.509 5.016 10.159 3.05 10.628-5.721 22.212-8.73 34.43-8.947 20.367-.377 39.603 7.299 54.127 21.567 14.526 14.273 22.526 33.346 22.526 53.708 0 26.716-14.374 51.668-37.512 65.119-7.501 4.361-12.16 12.372-12.16 20.908v5.816h-18.114v-51.23h9.057c4.143 0 7.5-3.357 7.5-7.5s-3.357-7.5-7.5-7.5h-33.114c-4.143 0-7.5 3.357-7.5 7.5s3.357 7.5 7.5 7.5h9.058v51.23h-18.115v-5.941c0-8.473-4.63-16.419-12.082-20.737-23.186-13.441-37.589-38.411-37.59-65.164 0-17.969 6.367-35.336 17.928-48.903 2.686-3.152 2.309-7.887-.845-10.573-3.153-2.687-7.887-2.309-10.573.845-13.871 16.278-21.51 37.101-21.51 58.632.001 32.084 17.27 62.026 45.067 78.142 2.84 1.646 4.604 4.619 4.604 7.76v7.145c-9.602 3.16-16.557 12.207-16.557 22.854s6.954 19.695 16.557 22.854v10.816c0 12.958 10.542 23.5 23.5 23.5h34.229c12.958 0 23.5-10.542 23.5-23.5v-10.818c9.603-3.16 16.558-12.207 16.558-22.854s-6.954-19.695-16.558-22.854v-7.02c0-3.213 1.801-6.255 4.699-7.939zm-19.699 71.485c0 4.687-3.814 8.5-8.5 8.5h-34.229c-4.686 0-8.5-3.813-8.5-8.5v-9.614h51.229zm7.5-24.614h-66.229c-4.994 0-9.057-4.063-9.057-9.058 0-4.994 4.062-9.058 9.057-9.058h66.229c4.994 0 9.058 4.063 9.058 9.058 0 4.994-4.064 9.058-9.058 9.058z"/><path d="m200.512 231.989c2.075-3.585.851-8.173-2.735-10.247-3.582-2.073-8.173-.853-10.247 2.735-3.098 5.352-8.857 8.677-15.032 8.677s-11.936-3.326-15.032-8.68c-2.074-3.584-6.662-4.81-10.248-2.736-3.585 2.075-4.811 6.663-2.736 10.248 5.771 9.973 16.506 16.168 28.017 16.168 11.509 0 22.243-6.194 28.013-16.165z"/></g></g></svg>