<?xml version="1.0" standalone="no"?>
<!DOCTYPE svg PUBLIC "-//W3C//DTD SVG 1.1//EN" "http://www.w3.org/Graphics/SVG/1.1/DTD/svg11.dtd" >
<svg xmlns="http://www.w3.org/2000/svg" xmlns:xlink="http://www.w3.org/1999/xlink" version="1.1">
<metadata>
Created by FontForge 20170924 at Sun Jan 12 06:42:58 2020
 By www-data
Based on FullType, Created by zhqslp@vip.sina.com, http://www.etrump.net/. Shanghai ETrump Information Technology Co., Ltd. All Rights Reserved.
</metadata>
<defs>
<font id="ETrumpWeiBei" horiz-adv-x="142" >
  <font-face 
    font-family="ETrump WeiBei"
    font-weight="400"
    font-stretch="normal"
    units-per-em="256"
    panose-1="2 1 5 9 6 1 1 1 1 1"
    ascent="204"
    descent="-52"
    x-height="137"
    cap-height="184"
    bbox="-12 -57 250.645 209"
    underline-thickness="13"
    underline-position="-28"
    unicode-range="U+0021-8BC1"
  />
<missing-glyph horiz-adv-x="256" 
d="M65 205h128v-226h-128v226zM177 -6v196h-98v-196h98z" />
    <glyph glyph-name=".notdef" horiz-adv-x="256" 
d="M65 205h128v-226h-128v226zM177 -6v196h-98v-196h98z" />
    <glyph glyph-name="exclam" unicode="!" horiz-adv-x="72" 
d="M28 47l-6 97v41h28v-41l-6 -97h-16zM22 1v26h26v-26h-26z" />
    <glyph glyph-name="quotedbl" unicode="&#x22;" horiz-adv-x="90" 
d="M18 119l-8 41v25h26v-25l-4 -41h-14zM58 119l-6 41v25h26v-25l-6 -41h-14z" />
    <glyph glyph-name="numbersign" unicode="#" 
d="M2 115v19h136v-19h-136zM2 51v19h136v-19h-136zM52 188h18l-38 -190h-20zM108 188h20l-40 -190h-18z" />
    <glyph glyph-name="dollar" unicode="$" 
d="M62 209h15v-227h-15v227zM70 190q24 0 42 -11t23 -35l-23 -8q-3 20 -14.5 26t-28.5 6q-20 0 -31.5 -7t-11.5 -21q0 -12 14.5 -19t54.5 -15q38 -16 44.5 -38t-4 -38.5t-26 -24t-35.5 -7.5q-31 0 -51 12.5t-23 44.5l18 8q2 -19 15.5 -31t34.5 -12q22 0 35 6.5t15 19.5
t-7 22t-35 15q-46 8 -60 23.5t-14 35.5q0 24 20 36t48 12z" />
    <glyph glyph-name="percent" unicode="%" horiz-adv-x="224" 
d="M154 184h18l-100 -194h-18zM13 136q0 21 11.5 35.5t29.5 14.5q16 0 28 -14.5t12 -35.5q0 -20 -12 -34.5t-28 -14.5q-18 0 -29.5 14.5t-11.5 34.5zM38.5 112.5q6.5 -9.5 15.5 -9.5q10 0 16.5 9.5t6.5 23.5t-6.5 23.5t-16.5 9.5q-9 0 -15.5 -9.5t-6.5 -23.5t6.5 -23.5z
M132 40q0 20 12 34t28 14q17 0 29 -14t12 -34t-12 -34t-29 -14q-16 0 -28 14t-12 34zM156.5 16.5q6.5 -9.5 15.5 -9.5q10 0 16.5 9.5t6.5 23.5t-6.5 23.5t-16.5 9.5q-9 0 -15.5 -9.5t-6.5 -23.5t6.5 -23.5z" />
    <glyph glyph-name="ampersand" unicode="&#x26;" horiz-adv-x="172" 
d="M54 106q-22 25 -19 45.5t23 31t41 1t23 -34.5t-36 -46q18 -21 34 -41q6 10 10 32l24 -5q-8 -34 -18 -46q10 -13 28 -28l-16 -18q-14 11 -26 25q-20 -20 -42 -23.5t-44 9t-24 44t42 54.5zM66 91q-28 -17 -29 -35t9 -28.5t28 -9t34 22.5q-18 21 -42 50zM70 167
q-12 -5 -13 -17.5t19 -31.5q20 11 22 25.5t-7 21.5t-21 2z" />
    <glyph glyph-name="quotesingle" unicode="'" horiz-adv-x="48" 
d="M10 185h26v-25l-4 -40h-16l-6 40v25z" />
    <glyph glyph-name="parenleft" unicode="(" horiz-adv-x="84" 
d="M61 194h16q-36 -56 -38 -114t36 -127h-16q-38 47 -44 110t46 131z" />
    <glyph glyph-name="parenright" unicode=")" horiz-adv-x="84" 
d="M14 194h16q50 -69 46 -127.5t-46 -113.5h-14q36 60 36 120t-38 121z" />
    <glyph glyph-name="asterisk" unicode="*" horiz-adv-x="100" 
d="M42 157l-2 31h18l-2 -32l28 13l6 -19l-30 -7l20 -23l-14 -11l-18 26l-16 -26l-14 11l20 24l-30 6l6 18z" />
    <glyph glyph-name="plus" unicode="+" horiz-adv-x="150" 
d="M11 108v-22h127v22h-127zM63 35h23v124h-23v-124z" />
    <glyph glyph-name="comma" unicode="," horiz-adv-x="72" 
d="M22 4v25h26v-25q0 -22 -16 -35l-10 8q12 9 14 27h-14z" />
    <glyph glyph-name="hyphen" unicode="-" horiz-adv-x="86" 
d="M8 86v-24h69v24h-69z" />
    <glyph glyph-name="period" unicode="." horiz-adv-x="72" 
d="M22 1v26h26v-26h-26z" />
    <glyph glyph-name="slash" unicode="/" horiz-adv-x="72" 
d="M0 -2l52 190h20l-54 -190h-18z" />
    <glyph glyph-name="zero" unicode="0" 
d="M70 185q30 0 44 -22.5t14 -66.5q0 -56 -15 -75.5t-43 -19.5t-44 19.5t-16 75.5q0 40 14 64.5t46 24.5zM70 162q-18 0 -27 -16t-9 -50q0 -45 9 -58.5t27 -13.5t27 13.5t9 58.5q0 34 -8 50t-28 16z" />
    <glyph glyph-name="one" unicode="1" 
d="M34 120v23q30 16 45 42h15v-161h38v-23h-98v23h36v121q-8 -12 -36 -25zM61 162h33h-33z" />
    <glyph glyph-name="two" unicode="2" 
d="M36 175q14 10 38 10t40 -15.5t14 -41.5q-4 -20 -19 -37t-36 -33t-35 -34h90v-23h-122q4 25 22 43.5t35 32.5t28 26.5t13 24.5q4 14 -6 24t-26 10q-12 0 -21 -5t-16 -24l-22 5q9 27 23 37z" />
    <glyph glyph-name="three" unicode="3" 
d="M12 138q6 23 19 35t39 12t39 -15t13 -34q0 -23 -26 -35q20 -7 27 -19t7 -30q0 -23 -18 -37t-42 -14q-19 0 -35 9.5t-23 34.5l22 7q6 -18 14.5 -23t21.5 -5q14 0 25 7.5t11 21.5q0 22 -12 30t-38 5v20q24 0 33 8t9 22q0 13 -9.5 18.5t-19.5 5.5q-15 0 -23 -5.5t-12 -22.5z
" />
    <glyph glyph-name="four" unicode="4" 
d="M2 66l84 119h19v-117h25v-23h-25v-44h-24v44h-79v21zM81 143l-53 -75h53v75zM69 162h36h-36z" />
    <glyph glyph-name="five" unicode="5" 
d="M26 185h96v-23h-78l-6 -53q16 14 34 14q26 0 39 -11.5t18 -29.5q6 -23 -3 -49q-8 -16 -22 -24t-30 -8q-23 0 -38.5 9t-23.5 32l21 9q7 -17 17 -22t22 -5q16 0 26 8t10 30q0 15 -9 28t-27 13q-22 0 -36 -18l-22 3z" />
    <glyph glyph-name="six" unicode="6" 
d="M74 185q21 0 34.5 -10.5t20.5 -28.5l-19 -8q-8 15 -15 19.5t-21 4.5q-18 0 -30 -16q-12 -21 -12 -50q16 24 42 24t41 -15t15 -43q0 -29 -16 -45t-40 -16q-30 0 -48 21.5t-18 63.5q0 47 18 74q18 25 48 25zM36 60q0 -14 10 -25t28 -11q14 0 24 9.5t10 28.5q0 16 -8 26.5
t-25 10.5q-20 0 -29.5 -12.5t-9.5 -26.5z" />
    <glyph glyph-name="seven" unicode="7" 
d="M12 162v23h118v-20q-26 -37 -46 -81t-24 -83h-22q4 40 19 76t45 85h-90z" />
    <glyph glyph-name="eight" unicode="8" 
d="M94 101q12 -3 24 -13t12 -36q0 -22 -17 -36.5t-45 -14.5q-26 0 -43 14.5t-17 36.5q0 25 12 35.5t22 13.5q-12 4 -19 12t-7 23q0 22 15 35.5t37 13.5q24 0 39 -13.5t15 -35.5q0 -13 -7 -21t-21 -14zM68 110q14 0 22 7.5t8 18.5q0 12 -7 19t-23 7q-14 0 -22 -6t-8 -20
q0 -11 8 -18.5t22 -7.5zM68 90q-18 0 -27 -10t-9 -26q0 -17 10 -23.5t26 -6.5q18 0 28 6.5t10 23.5q0 16 -10 26t-28 10z" />
    <glyph glyph-name="nine" unicode="9" 
d="M66 1q-24 0 -37.5 12.5t-17.5 29.5l19 9q5 -14 13.5 -21t22.5 -7q20 0 30 18q10 19 11 40q-17 -16 -41 -16t-40 16.5t-16 43.5q0 26 17 42.5t45 16.5t43 -21.5t15 -57.5q0 -51 -14 -75q-18 -30 -50 -30zM105 126q0 17 -9.5 26.5t-25.5 9.5t-26 -9.5t-10 -26.5
q0 -18 10 -29t26 -11t25.5 11t9.5 29z" />
    <glyph glyph-name="colon" unicode=":" horiz-adv-x="72" 
d="M22 1v26h26v-26h-26zM22 108v26h26v-26h-26z" />
    <glyph glyph-name="semicolon" unicode=";" horiz-adv-x="72" 
d="M22 4v25h26v-25q0 -22 -16 -35l-10 8q12 9 14 27h-14zM22 108v26h26v-26h-26z" />
    <glyph glyph-name="less" unicode="&#x3c;" horiz-adv-x="150" 
d="M14 103l120 51v-23l-94 -40l94 -38v-24l-120 51v23z" />
    <glyph glyph-name="equal" unicode="=" horiz-adv-x="150" 
d="M12 136v-22h124v22h-124zM12 81v-21h124v21h-124z" />
    <glyph glyph-name="greater" unicode="&#x3e;" horiz-adv-x="150" 
d="M14 131v23l118 -50v-25l-118 -51v24l92 40z" />
    <glyph glyph-name="question" unicode="?" horiz-adv-x="128" 
d="M12 135q6 43 37 50t54 -5t25 -40t-23 -47t-25 -47h-22q-2 34 22 52.5t25 36.5t-14 27.5t-33 3.5t-24 -35zM56 1v26h24v-26h-24z" />
    <glyph glyph-name="at" unicode="@" horiz-adv-x="260" 
d="M23 124q17 36 50 56t91 9.5t72 -71t-31 -95.5t-63 3q-28 -30 -58 -14t-25 60t40 64t61 -16l4 20l22 -1l-16 -77q-12 -39 7 -35t35 31.5t4 65t-56 47.5t-79 -9t-47 -56t3 -81t83 -52.5t104 37.5l24 1q-30 -52 -95 -57.5t-101 22.5t-41 70t12 78zM106 116q-22 -17 -25 -50
t22 -39t42 29t0 56t-39 4z" />
    <glyph glyph-name="A" unicode="A" horiz-adv-x="172" 
d="M0 1l72 183h26l72 -183h-26l-20 52h-78l-20 -52h-26zM84 161l-30 -85h62z" />
    <glyph glyph-name="B" unicode="B" horiz-adv-x="168" 
d="M20 184h74q24 0 38 -15t14 -32q0 -23 -26 -39q32 -14 32 -42q0 -22 -14 -38.5t-38 -16.5h-80v183zM44 161v-51h46q24 0 29 16t-3 25.5t-30 9.5h-42zM44 87v-63h44q26 0 34 13t1 31.5t-33 18.5h-46z" />
    <glyph glyph-name="C" unicode="C" horiz-adv-x="186" 
d="M96 184q24 0 41.5 -10t29.5 -33l-21 -9q-11 19 -22.5 24t-27.5 5q-26 0 -42 -17t-16 -48q0 -36 15 -54t47 -18q16 0 29.5 8t20.5 27l22 -8q-8 -23 -26 -36.5t-46 -13.5q-44 0 -66 25.5t-22 69.5q0 40 24 64t60 24z" />
    <glyph glyph-name="D" unicode="D" horiz-adv-x="180" 
d="M20 184h76q68 0 68 -91.5t-68 -91.5h-76v183zM44 161v-137h48q46 -1 46 68t-46 69h-48z" />
    <glyph glyph-name="E" unicode="E" horiz-adv-x="162" 
d="M20 184h124v-23h-100v-57h84v-23h-84v-57h100v-23h-124v183z" />
    <glyph glyph-name="F" unicode="F" horiz-adv-x="150" 
d="M20 184h118v-23h-94v-57h76v-23h-76v-80h-24v183z" />
    <glyph glyph-name="G" unicode="G" horiz-adv-x="198" 
d="M106 161q-34 0 -51 -18.5t-17 -46.5q0 -40 19 -56t51 -16q30 0 52 16v33h-52v23h76v-66q-32 -29 -76 -29q-42 0 -68 23t-26 72q0 35 22 61.5t70 26.5q56 0 76 -44l-19 -9q-19 30 -57 30z" />
    <glyph glyph-name="H" unicode="H" horiz-adv-x="184" 
d="M20 184h24v-76h96v76h24v-183h-24v84h-96v-84h-24v183zM44 161h-24h24z" />
    <glyph glyph-name="I" unicode="I" horiz-adv-x="80" 
d="M4 184h62v-23h-19v-137h19v-23h-62v23h19v137h-19v23z" />
    <glyph glyph-name="J" unicode="J" horiz-adv-x="128" 
d="M84 184h24v-128q0 -55 -50 -55t-52 55l22 5q2 -39 29 -39t27 34v128zM84 161h24h-24z" />
    <glyph glyph-name="K" unicode="K" horiz-adv-x="172" 
d="M20 184h24v-88l90 88h32l-76 -74l80 -109h-32l-66 92l-28 -28v-64h-24v183zM44 161h-24h24z" />
    <glyph glyph-name="L" unicode="L" horiz-adv-x="134" 
d="M20 184h24v-160h80v-23h-104v183zM44 161h-24h24z" />
    <glyph glyph-name="M" unicode="M" horiz-adv-x="212" 
d="M20 1v183h36l50 -152l52 152h36v-183h-26v153l-46 -135h-32l-46 135v-153h-24zM64 161h-44h44z" />
    <glyph glyph-name="N" unicode="N" horiz-adv-x="184" 
d="M20 1v183h24l96 -144v144h24v-183h-24l-96 143v-143h-24zM59 161h-39h39z" />
    <glyph glyph-name="O" unicode="O" horiz-adv-x="198" 
d="M11 92q0 40 25.5 66t63.5 26q36 0 62 -26t26 -66q0 -39 -26 -65t-62 -26q-38 0 -63.5 26t-25.5 65zM54.5 43q18.5 -19 45.5 -19q26 0 44 19t18 49q0 31 -18 50t-44 19q-27 0 -45.5 -19t-18.5 -50q0 -30 18.5 -49z" />
    <glyph glyph-name="P" unicode="P" horiz-adv-x="156" 
d="M20 184h60q64 0 64 -54.5t-64 -54.5h-36v-74h-24v183zM44 161v-63h36q38 0 38 31.5t-38 31.5h-36z" />
    <glyph glyph-name="Q" unicode="Q" horiz-adv-x="198" 
d="M11 92q0 40 25.5 66t63.5 26q36 0 62 -26t26 -66q0 -39 -26 -65t-63 -26t-62.5 26t-25.5 65zM54.5 43q18.5 -19 45.5 -19q26 0 44 19t18 49q0 31 -18 50t-44 19q-27 0 -45.5 -19t-18.5 -50q0 -30 18.5 -49zM98 39l6 18q32 -8 86 -48l-8 -19q-50 36 -84 49z" />
    <glyph glyph-name="R" unicode="R" horiz-adv-x="170" 
d="M20 184h70q54 0 54 -52q0 -38 -30 -48l50 -83h-26l-48 80h-46v-80h-24v183zM44 161v-57h46q28 0 28 28q0 29 -28 29h-46z" />
    <glyph glyph-name="S" unicode="S" horiz-adv-x="172" 
d="M86 184q24 0 40.5 -11.5t23.5 -30.5l-22 -8q-6 16 -16 21.5t-28 5.5t-30 -6.5t-12 -19.5t14 -18t54 -14q38 -13 45 -35t-2 -37.5t-24 -22.5t-39 -7q-32 0 -51 12t-28 40l21 9q7 -20 18.5 -29t33.5 -9q24 0 36 6.5t14 17.5t-7 20t-35 15q-46 8 -60 21.5t-14 31.5
q0 22 21 35t47 13z" />
    <glyph glyph-name="T" unicode="T" horiz-adv-x="156" 
d="M66 1v160h-60v23h144v-23h-60v-160h-24z" />
    <glyph glyph-name="U" unicode="U" horiz-adv-x="186" 
d="M20 184h24v-114q0 -46 48 -46t48 46v114h24v-114q0 -69 -72 -69t-72 69v114zM44 161h-24h24z" />
    <glyph glyph-name="V" unicode="V" horiz-adv-x="172" 
d="M0 184h26l58 -156l58 156h26l-70 -183h-26zM34 161h-25h25z" />
    <glyph glyph-name="W" unicode="W" horiz-adv-x="242" 
d="M2 184h26l36 -155l40 146h34l38 -147l38 156h24l-50 -183h-24l-44 152l-42 -152h-28zM32 161h-24h24z" />
    <glyph glyph-name="X" unicode="X" horiz-adv-x="172" 
d="M8 184h28l132 -183h-28zM136 184h28l-136 -183h-28zM52 161h-27h27z" />
    <glyph glyph-name="Y" unicode="Y" horiz-adv-x="172" 
d="M0 184h28l56 -85l58 85h28l-73 -106v-77h-24v77zM42 161h-26h26z" />
    <glyph glyph-name="Z" unicode="Z" horiz-adv-x="156" 
d="M16 161v23h128v-28l-112 -132h116v-23h-144v28l112 132h-100z" />
    <glyph glyph-name="bracketleft" unicode="[" horiz-adv-x="72" 
d="M17 190h50v-19h-28v-196h28v-19h-50v234z" />
    <glyph glyph-name="backslash" unicode="\" horiz-adv-x="72" 
d="M0 188h18l54 -190h-20z" />
    <glyph glyph-name="bracketright" unicode="]" horiz-adv-x="72" 
d="M5 190h50v-234h-50v19h26v196h-26v19z" />
    <glyph glyph-name="asciicircum" unicode="^" horiz-adv-x="120" 
d="M6 88l44 100h18l44 -100h-22l-32 73l-28 -73h-24z" />
    <glyph glyph-name="underscore" unicode="_" horiz-adv-x="148" 
d="M0 -10v-17h148v17h-148z" />
    <glyph glyph-name="grave" unicode="`" horiz-adv-x="80" 
d="M10 186h30l18 -36h-20z" />
    <glyph glyph-name="a" unicode="a" 
d="M14 102q10 23 26 29t32 6q30 0 42 -11.5t12 -30.5v-61q0 -17 6 -32h-24q-4 6 -4 20q-12 -13 -26 -17t-24 -4q-22 0 -34 10t-12 28q0 15 14 25.5t34 12.5q32 4 46 9q0 19 -7 25.5t-23 6.5q-14 0 -22 -4t-16 -20zM102 68q-14 -6 -40 -9q-20 -3 -24 -9t-4 -14q0 -10 7 -13
t15 -3q24 0 35 9t11 21v18z" />
    <glyph glyph-name="b" unicode="b" 
d="M16 184h24v-64q8 17 34 17q30 0 44 -16.5t14 -51.5q0 -36 -14 -52t-44 -16q-23 0 -36 15v-15h-22v183zM40 69q0 -27 9 -38t25 -11t26 11t10 38q0 26 -10 37.5t-26 11.5t-25 -11.5t-9 -37.5z" />
    <glyph glyph-name="c" unicode="c" horiz-adv-x="128" 
d="M70 137q22 0 34 -10t18 -27l-20 -6q-4 11 -11 17.5t-21 6.5q-18 0 -27 -14t-9 -40q0 -24 10 -34t28 -10q12 0 20 6.5t10 20.5l22 -6q-4 -19 -18 -29.5t-36 -10.5q-26 0 -43 15t-17 48q0 35 16 54t44 19z" />
    <glyph glyph-name="d" unicode="d" 
d="M100 120v64h24v-182h-24v17q-8 -18 -34 -18t-42 16.5t-16 51.5t16 51.5t42 16.5t34 -17zM66 118q-16 0 -25 -11.5t-9 -37.5t9 -37.5t25 -11.5t25 11.5t9 37.5t-9 37.5t-25 11.5z" />
    <glyph glyph-name="e" unicode="e" 
d="M69 1q-23 0 -41 16t-18 50q0 31 16 50.5t46 19.5q26 0 42 -19.5t16 -49.5v-11h-98q0 -16 11 -27q14 -10 29 -10q12 0 22 5t12 16h22q-6 -22 -21 -31t-38 -9zM108 76q0 14 -9 28q-11 14 -29 14t-28 -13q-10 -12 -10 -29h76z" />
    <glyph glyph-name="f" unicode="f" horiz-adv-x="72" 
d="M21 137q0 33 13.5 43t41.5 6l-2 -20q-24 3 -26.5 -5.5t-2.5 -23.5h25v-19h-25v-117h-24v117h-19v19h19z" />
    <glyph glyph-name="g" unicode="g" 
d="M62 -38q20 0 30 12t10 35v5q-14 -16 -36 -16q-28 0 -44 19t-16 53q0 30 16 48.5t42 18.5q24 0 36 -17l4 -6v19h22v-124q0 -33 -16 -49.5t-48 -16.5q-22 0 -36 10.5t-16 30.5h24q2 -10 9 -16t19 -6zM66 117q-18 0 -27 -12t-9 -39q0 -24 10 -36t26 -12t26 11t10 31
q0 28 -9 42.5t-27 14.5z" />
    <glyph glyph-name="h" unicode="h" 
d="M16 184h24v-66q7 9 16 14t23 5q17 0 31 -10.5t14 -49.5v-76h-24v73q0 16 -4.5 30t-21.5 14q-12 0 -23 -9.5t-11 -32.5v-75h-24v183z" />
    <glyph glyph-name="i" unicode="i" horiz-adv-x="56" 
d="M16 184h24v-24h-24v24zM16 137h24v-136h-24v136zM40 118h-24h24z" />
    <glyph glyph-name="j" unicode="j" horiz-adv-x="56" 
d="M16 136h24v-134q0 -41 -15 -48.5t-37 -2.5v21q18 -3 23 2.5t5 27.5v134zM40 117h-24h24zM16 184h25v-24h-25v24z" />
    <glyph glyph-name="k" unicode="k" horiz-adv-x="128" 
d="M16 184h24v-102l50 50h28l-46 -48l54 -83h-28l-44 67l-14 -14v-53h-24v183z" />
    <glyph glyph-name="l" unicode="l" horiz-adv-x="56" 
d="M16 184h24v-183h-24v183z" />
    <glyph glyph-name="m" unicode="m" horiz-adv-x="212" 
d="M16 132h20v-16q6 7 16.5 14t22.5 7q13 0 20.5 -4t16.5 -19q10 14 20 18.5t23 4.5q21 0 31 -12t10 -40v-84h-24v77q0 14 -3 27t-15 13q-19 0 -27.5 -12t-8.5 -35v-70h-24v69q0 23 -3 35.5t-17 12.5q-16 0 -24.5 -10.5t-9.5 -24.5v-82h-24v131z" />
    <glyph glyph-name="n" unicode="n" 
d="M16 132h18v-16q10 12 20.5 16.5t23.5 4.5q27 0 37.5 -13t10.5 -38v-85h-24v74q0 23 -5 33t-21 10q-15 0 -25.5 -8t-10.5 -35v-74h-24v131z" />
    <glyph glyph-name="o" unicode="o" 
d="M26 18.5q-16 17.5 -16 51.5q0 28 16 47.5t44 19.5t45 -19.5t17 -47.5q0 -34 -17 -51.5t-45 -17.5t-44 17.5zM70 20q18 0 29 12t11 38q0 20 -11 34t-29 14t-28 -14t-10 -34q0 -26 11 -38t27 -12z" />
    <glyph glyph-name="p" unicode="p" 
d="M15 134h24v-16q12 19 36 19q26 0 41 -20t15 -44q0 -41 -19 -58t-37 -17q-20 0 -36 16v-63h-24v183zM47 105q-10 -14 -10 -38q0 -29 11 -39.5t23 -10.5q16 0 27 13t11 39q0 18 -10 34t-24 16q-18 0 -28 -14z" />
    <glyph glyph-name="q" unicode="q" 
d="M102 120v14h22v-183h-22v64q-16 -17 -40 -17q-22 0 -38 22t-16 42q0 35 15 55t43 20q22 0 36 -17zM64 119q-14 0 -23 -15t-9 -39q0 -18 9 -33t23 -15q20 -1 31 13t9 33q0 23 -9 39.5t-31 16.5z" />
    <glyph glyph-name="r" unicode="r" horiz-adv-x="90" 
d="M16 132h18v-18q10 16 21 20.5t29 -2.5l-6 -21q-20 5 -29 -4t-9 -39v-67h-24v131z" />
    <glyph glyph-name="s" unicode="s" horiz-adv-x="128" 
d="M64 137q20 0 32 -8.5t16 -21.5l-20 -9q-4 12 -11 16t-19 4q-10 0 -19 -4t-9 -14q0 -13 42 -21q40 -10 42 -33t-13 -34t-41 -11q-24 0 -37 8t-19 28l20 6q6 -12 14 -17.5t22 -5.5q16 0 24 5t7 15.5t-29 17.5q-54 9 -54 40q0 19 14 29t38 10z" />
    <glyph glyph-name="t" unicode="t" horiz-adv-x="72" 
d="M4 137h16v43h24v-43h22v-19h-22v-79q0 -15 6 -17t14 0l4 -21q-22 -4 -35 2.5t-13 27.5v87h-16v19z" />
    <glyph glyph-name="u" unicode="u" 
d="M16 137h24v-86q0 -32 29 -32t31 38v80h24v-136h-24v19q-20 -28 -52 -20.5t-32 51.5v86zM40 118h-24h24z" />
    <glyph glyph-name="v" unicode="v" horiz-adv-x="128" 
d="M2 137h24l38 -109l38 109h24l-50 -136h-24zM31 118h-23h23z" />
    <glyph glyph-name="w" unicode="w" horiz-adv-x="186" 
d="M0 137h22l30 -109l28 98h24l26 -98l32 109h22l-44 -136h-22l-26 101l-28 -101h-24zM26 118h-20h20z" />
    <glyph glyph-name="x" unicode="x" horiz-adv-x="128" 
d="M4 137h27l95 -136h-28zM96 137h26l-94 -136h-26zM43 118h-25h25z" />
    <glyph glyph-name="y" unicode="y" horiz-adv-x="128" 
d="M4 137h24l38 -106l38 106h22q-52 -147 -63 -165t-23 -21t-28 3v19q18 -4 28 2.5t14 28.5zM33 118h-22h22z" />
    <glyph glyph-name="z" unicode="z" horiz-adv-x="128" 
d="M10 118v19h108v-18l-87 -99h91v-19h-118v18l88 99h-82z" />
    <glyph glyph-name="braceleft" unicode="{" horiz-adv-x="86" 
d="M78 194v-20q-16 1 -20 -7t-4 -45.5t-26 -47.5q26 -14 26 -39t1 -44.5t23 -16.5v-21q-36 0 -41 17t-4 54t-27 40v20q28 2 27 37.5t5 54.5t40 18z" />
    <glyph glyph-name="bar" unicode="|" horiz-adv-x="68" 
d="M23 -35h19v229h-19v-229z" />
    <glyph glyph-name="braceright" unicode="}" horiz-adv-x="86" 
d="M6 174v20q34 1 41 -15.5t6 -54.5t25 -40v-21q-24 -1 -25 -29t-3 -55t-44 -26v20q24 -2 24 17.5t2 46.5t26 37q-24 10 -26 30t-1 46.5t-25 23.5z" />
    <glyph glyph-name="asciitilde" unicode="~" horiz-adv-x="150" 
d="M10 71v25q22 20 41 15.5t42 -13.5t45 14v-27q-24 -20 -48 -11.5t-40 13.5t-40 -16z" />
    <glyph glyph-name="uni4E49" unicode="&#x4e49;" horiz-adv-x="256" 
d="M113.5 121q-4.5 -3 -12.5 2t-15.5 10.5t-5.5 12t5 15t6.5 9t6.5 -6t8.5 -13t8.5 -16.5t-1.5 -13zM14 21q0 3 13 5t29.5 8.5t27 16t12 12t-9.5 13t-19 16.5t-14.5 9t-1.5 13.5t7.5 11.5t8.5 -7t22 -20.5t20.5 -15t9.5 7t12 30.5t9 36.5t5 17.5t13 -1.5t12 -6.5t-3.5 -14
t-11 -31t-14 -34.5t-10.5 -17.5t8.5 -11t26.5 -20t36.5 -18t33.5 -11t14.5 -11.5t-12.5 -7t-28 1t-23.5 3t-13.5 4t-6.5 12.5t-13.5 15t-25 12.5t-16 6.5t-10.5 -6.5t-18 -7.5t-14.5 -8t-8 -9t-13 -2.5t-22 3t-12 5.5z" />
    <glyph glyph-name="uni5B9A" unicode="&#x5b9a;" horiz-adv-x="256" 
d="M113.5 204q3.5 1 6 -3.5t11 -12t6 -17.5t-7.5 -6.5t-13 5.5t-8.5 9t1 15.5t5 9.5zM58 129q6 4 6 -0.5t-2 -14.5t-4 -13.5t-9.5 -1t-12 5.5t5.5 11.5t16 12.5zM78 139.5q4 0.5 23 5.5t39.5 10.5t34 3t27.5 -18t11 -18.5t-7.5 -2t-20 -1t-19 -2t-3.5 -4.5t-3.5 -6.5
t-12 -6.5t-10 -12t4.5 -7.5t12 1.5t11 2.5t7 -8t-3 -9.5t-18 -6t-16.5 -7t-4 -11t2 -11.5t12.5 -6.5t20.5 -11t34.5 -12t39 -9.5t10.5 -8t-15 -5.5t-30 0t-23 2t-5.5 8t-11 12t-26.5 12t-29 12.5t-20.5 6.5t-12.5 -1.5t-10 -10.5t-8.5 -15t-13 -8.5t-17.5 0t-6.5 3.5t11 7.5
t22.5 17t15.5 25t3.5 19t2.5 7t12 -3t7 -7t-2.5 -10t9.5 -10.5t10 0t1 20t-2 20.5t-9.5 3t-12 -4.5t-8 2.5t-4 12t6.5 6.5t27 6t28 9.5t15 5t8 -1.5t8 0.5t10 9t-1 11.5t-17.5 3.5t-32 -9.5t-29 -8t-17.5 -3.5t-8.5 4.5t3.5 8z" />
    <glyph glyph-name="uni5F15" unicode="&#x5f15;" horiz-adv-x="256" 
d="M64.5 150.5q-3.5 4.5 -4.5 12.5t3.5 9t26 6t36 1.5t18 -8.5t-5.5 -14t-11 -16t-1 -13.5t-5.5 -6.5t-14.5 -3t-10.5 -8t-6 -12.5t-3.5 -10t14.5 -0.5t20.5 -0.5t2 -11.5t-5 -23t-11 -39.5t-15.5 -24.5t-12.5 3.5t-15.5 7t-17.5 12.5t-7 10.5t20 -4.5t26 -2t11.5 21t2.5 25
t-11.5 9t-14.5 -7t-10 -11.5t-8.5 -1t-2 8t8 16t10.5 21.5t0 10t-9 -3.5t-10.5 -3.5t-5.5 11.5t10.5 13t25.5 7t19.5 11t6.5 15.5t-12.5 6.5t-20.5 -10.5t-10.5 -2.5zM183 -26.5q-4 -0.5 -12 2t-9 4.5t0 7.5t2 56t1 82t-0.5 48t3 16.5t16.5 -4t10.5 -9t-5 -18t-4 -42.5
t-2 -68.5t1.5 -56.5t-2 -18z" />
    <glyph glyph-name="uni610F" unicode="&#x610f;" horiz-adv-x="256" 
d="M29.5 86q-3.5 0 -5 6t3.5 7.5t31 8.5t27.5 8.5t2.5 9t-3 8.5t-11 -1t-9 0.5t-4 7.5t1.5 6t16 3t24 4.5t16 4.5t-3 7t-10 8.5t3.5 14t9 12t6.5 -4t7.5 -15t3.5 -14t9.5 -3.5t15.5 2.5t9.5 -1t4.5 -9t-8.5 -7.5t-12 -4.5t-4 -9.5t5 -5.5t22 2t21 1.5t7.5 -3t6 -7t4 -10.5
t-12.5 -4t-38.5 6t-61 -5.5t-53.5 -16t-21.5 -7zM127.5 132.5q1.5 5.5 -1 8.5t-8.5 0.5t-9 -11.5t3 -7t10 3t5.5 6.5zM81.5 63q-5.5 7 -8 17.5t2 13t16 4.5t27.5 6.5t27 3.5t19 -5.5t11 -7t1.5 -5t-5 -6.5t-9 -17.5t-9.5 -14.5t-10.5 -0.5t-20.5 -2.5t-19 -5t-7.5 2t-6 7
t-9 10zM106 57.5q3 -0.5 19 3.5t18.5 5.5t5.5 12.5t-1 14.5t-10 5t-18.5 -3.5t-18.5 -8t-6.5 -4.5t-0.5 -9t4.5 -11.5t7.5 -4.5zM103.5 74.5q-1.5 2.5 3 5.5t13 4t12 2t6.5 -3.5t-2.5 -7t-10 -4.5t-9 -3t-6.5 -2t-3.5 2.5t-3 6zM71 45q2 2 4.5 2t1.5 -5t-5 -10t-7.5 -19.5
t-3 -17.5t-2 -5t-11.5 1.5t-13 6.5t-2.5 5t19 21t19.5 21zM87 44q2 2 5 1t2 -6t2.5 -15.5t14.5 -15t32.5 -7t26 -0.5t3 11.5t-6.5 18t-9.5 13.5t-4.5 7t10.5 -5.5t19 -18t14 -20.5t7 -18t-1 -8.5t-11.5 -0.5t-31.5 2t-38 4t-26 16t-10 27t2.5 15zM119 43q3 1 6.5 -1
t5.5 -3.5t8 -1.5h8.5t1 -4.5t-5.5 -9t-10.5 0t-11.5 11.5t-2 8zM185 47q1 1 11 1.5t15 0.5t8.5 -4t3.5 -10.5t-0.5 -9t-4 -2t-19 11.5t-14.5 12z" />
    <glyph glyph-name="uni660E" unicode="&#x660e;" horiz-adv-x="256" 
d="M37.5 148.5q1.5 2.5 23 9.5t27 6.5t14 -2.5t6 -7.5t-5 -13t-2.5 -34.5t-1.5 -53.5t-3 -29.5t-9 2.5t-15 11.5t-10.5 7.5t-6.5 -0.5t-7.5 -5.5t-6.5 -7.5t-5 -3.5t-10.5 4t-7 6t10.5 10.5t9 13t-2.5 25.5t-0.5 39.5t3 21.5zM65.5 147.5q-3.5 -2.5 -6.5 -8t-3 -12.5
t7.5 -10t6.5 -9.5t-6 -8t-9 -4.5t-4 -13.5t1.5 -11.5t13 6.5t13.5 8t3 16t0 32t-7 17t-9.5 -2zM73 61q-6 -4 -8.5 -6t0.5 -5.5t9.5 -4.5t6.5 5t-1 10.5t-7 0.5zM129 164q1 4 11 8t19.5 5.5t20.5 2t15.5 -1t9.5 -5t3.5 -8t-4 -27t-1 -39t2 -37t2.5 -41.5t4 -30.5t-0.5 -12.5
t-8.5 -2t-27 12.5t-28 15.5t-9 9.5t3.5 3t20 -4.5t18 0.5t4.5 18t-2 35t-2 47t0 38t-5.5 14t-12 1t-11.5 -5.5t-5 -9t-1 -10t5.5 -4t12 0.5t6.5 -4.5t-0.5 -8.5t-13 -10t-14.5 -7.5t-3.5 -8t-2 -8.5t7 0.5t12 3t8.5 -3t2.5 -9.5t-11 -7.5t-21 -8.5t-12.5 -9t-3 -9t2.5 -14.5
t-3.5 -15.5t-18.5 -14t-17 -9.5t-10.5 -2.5t-4.5 2t8 10t19 22t22 52t11.5 60.5t1 26z" />
    <glyph glyph-name="uni6CE8" unicode="&#x6ce8;" horiz-adv-x="256" 
d="M87.5 142q7.5 -7 5 -12.5t-15 -2.5t-18.5 10t-3 17t7 10.5t10.5 -7.5t14 -15zM39 99.5q-1 5.5 1 6.5t14.5 -3.5t14 -8.5t-4 -7t-14 -15t-10.5 -32.5t2 -25t10 -0.5t17.5 23t16.5 33t4.5 2t-7 -35.5t-15.5 -32.5t-12 -15t-7 -4t-11 18.5t-5 38t4.5 37t1.5 21zM152 143
q-11 6 -13 12t0 15.5t4.5 15.5t7 6t6 -6.5t9 -15.5t9.5 -16.5t-5 -12t-18 1.5zM113 101q-2 3 -3 9.5t9.5 6.5t26.5 4.5t35.5 9.5t21.5 -1t2 -10.5t-10.5 -8.5t-16.5 -5.5t-8 -7t-1 -9.5t7.5 -3t14 1t9.5 -8.5t-7.5 -13.5t-17 -6t-7.5 -6.5t0.5 -14t14.5 -8.5t25 3.5t17 -3
t8 -16.5t1 -14t-16 2.5t-42 6t-48.5 -6.5t-29 -8t-8.5 7.5t4 10t12.5 2t16 6t15.5 7t8 14t-4 11.5t-13 -2t-12 -3.5t-6 11.5t0 15.5t13 1.5t17 -0.5t6 7t-0.5 12t-16 5t-17.5 2.5z" />
    <glyph glyph-name="uni7406" unicode="&#x7406;" horiz-adv-x="256" 
d="M57 106q2 2 3 9.5t-2.5 11t-8.5 2t-9.5 -1.5t-5.5 13t2.5 14t14 0t21.5 2.5t20.5 5t10.5 -3.5t1 -9t-8 -9t-12.5 -6.5t-3 -11.5t3 -11t7.5 0.5t7 -4.5t-0.5 -10t-10 -7t-9 -9.5t1 -11.5t7.5 -2.5t11.5 4t5.5 -2.5t-18.5 -18.5t-30.5 -23.5t-15 -11t-12.5 5t-5 10.5
t19 11.5t15.5 10.5t2 14t-2 14t-12 0t-10.5 -2t-3.5 11.5t3.5 11t13 1.5t9.5 3.5zM112.5 154.5q6.5 1.5 27 9t40.5 7.5t30.5 -4t8 -10t-9 -34t-8.5 -34t-10 -0.5t-16.5 4.5t-8 -9.5t4.5 -9t16.5 1t13 -5.5t-7.5 -8t-16 -3t-8 -4t-0.5 -9t3.5 -7h23.5t26 1t10.5 -5.5t6 -15
t-7 -6t-32.5 6t-39.5 0t-41 -5.5t-30.5 -6.5t-10 2t1 8t35.5 9t31.5 11t2 9t-9.5 5t-15.5 -3t-7 5t4.5 9.5t17 5t12 4.5t1 8t-2 7.5t-9 -2t-10.5 -3t-10.5 24t-9.5 35t4 12.5zM131 146q-3 -3 -1.5 -15.5t3.5 -22t5 -8.5l7.5 2.5t4.5 7.5t-4.5 7.5t-7.5 7.5t1 7t7.5 3t5 7
t-0.5 8t-9.5 1t-10.5 -5zM172 156.5q0 -5.5 -1.5 -10.5t4.5 -5t7 -5t-4 -7.5t-7 -6t-2.5 -9.5t5 -6.5t10.5 0.5t7 15t0.5 26.5t-10.5 13t-9 -5z" />
    <glyph glyph-name="uni8BC1" unicode="&#x8bc1;" horiz-adv-x="256" 
d="M76.5 183q4.5 0 6.5 -5t10 -18.5t3 -19t-10 -2.5t-13.5 8t-8.5 12.5t1.5 11t4 8.5t7 5zM14.5 94.5q1.5 2.5 7.5 3.5t21.5 6t21.5 8.5t8.5 0.5t7 -7t3 -10.5t-4.5 -8t-5.5 -7.5t-4.5 -12t-4.5 -11t-2 -10t5 -6t11.5 4t13.5 11t9.5 12t3.5 -2t-3.5 -18.5t-9.5 -16.5
t-12 -10t-9.5 -8t-8 -1t-8.5 13.5t-3.5 21v18v11t-4.5 4.5t-10 -1.5t-8.5 -4t-9 8t-4.5 12zM120 122.5q-3 1.5 -5.5 15t1.5 14.5t20 0.5t36 4t27 4.5t6 -8t-12.5 -14.5t-12.5 -8t-3.5 -15.5t-1.5 -16t14 1t18.5 5.5t6.5 -8.5t-6 -13.5t-19.5 -5.5t-15 -5t-3 -18t2 -17.5
t22.5 0t24.5 1.5t11 -12t-5.5 -13t-31 1t-31.5 0t-25 -2t-28 -4.5t-18.5 4t3.5 10t12 3.5t3.5 9t-2 29t5.5 24.5t9.5 0t3 -12t-1 -25t4 -17t8.5 -0.5t5.5 18.5t2 39t-2 27.5t-11.5 4t-11.5 -0.5z" />
  </font>
</defs>
</svg>
